<svg width="61" height="61" fill="none" xmlns="http://www.w3.org/2000/svg"><path d="m58.458 14.988-5.557-4.97V8.26a5.725 5.725 0 0 0-5.728-5.718H13.826A5.725 5.725 0 0 0 8.098 8.26v1.759l-5.563 4.973A6.084 6.084 0 0 0 .508 19.52v33.22a5.726 5.726 0 0 0 5.718 5.719h48.547a5.726 5.726 0 0 0 5.718-5.718V19.52a6.088 6.088 0 0 0-2.033-4.533Zm-3.685 40.42H6.226a2.672 2.672 0 0 1-2.668-2.667V19.52c-.138-2.038 2.885-3.705 4.54-5.411v10.947c.019 1.99 3.034 1.997 3.05 0V8.26a2.67 2.67 0 0 1 2.678-2.668h33.347a2.671 2.671 0 0 1 2.67 2.668v16.797c-.005 1.987 3.048 1.999 3.05 0V14.11c1.636 1.685 4.697 3.401 4.546 5.414v33.217a2.67 2.67 0 0 1-2.666 2.668Z" fill="#FE750B"/><path d="M52.736 30.846a1.52 1.52 0 0 0-2.052-.675L32.85 39.244a5.28 5.28 0 0 1-4.72 0L10.314 30.17c-1.744-.94-3.208 1.728-1.447 2.684-.025.035 8.895 4.492 8.9 4.528l-9.332 11.62c-1.163 1.546 1.11 3.39 2.377 1.91l9.724-12.117 6.203 3.156a8.377 8.377 0 0 0 7.487 0l6.206-3.154 9.746 12.115c1.24 1.545 3.63-.348 2.377-1.911l-9.343-11.617 8.845-4.495a1.52 1.52 0 0 0 .679-2.044ZM23.857 14.758h13.285c1.991-.008 1.997-3.041 0-3.05H23.857c-1.991.009-1.997 3.042 0 3.05Zm-6.641 7.591h26.567c1.987-.008 2.001-3.042 0-3.05H17.216c-1.987.008-2 3.042 0 3.05Z" fill="#FE750B"/></svg>