<svg width="16" height="17" fill="none" xmlns="http://www.w3.org/2000/svg"><path d="M3.094.375c.398 0 .726.14.984.422.281.258.422.586.422.984V3.47c0 .398-.14.726-.422.984a1.277 1.277 0 0 1-.984.422H1.406c-.398 0-.726-.14-.984-.422A1.277 1.277 0 0 1 0 3.47V1.78c0-.398.14-.726.422-.984.258-.281.586-.422.984-.422h1.688Zm0 1.125H1.406c-.164.023-.258.117-.281.281V3.47c.023.164.117.258.281.281h1.688c.164-.023.258-.117.281-.281V1.78c-.023-.164-.117-.258-.281-.281Zm0 4.5c.398 0 .726.14.984.422.281.258.422.586.422.984v1.688c0 .398-.14.726-.422.984a1.276 1.276 0 0 1-.984.422H1.406c-.398 0-.726-.14-.984-.422A1.277 1.277 0 0 1 0 9.094V7.406c0-.398.14-.726.422-.984C.68 6.14 1.008 6 1.406 6h1.688Zm0 1.125H1.406c-.164.023-.258.117-.281.281v1.688c.023.164.117.258.281.281h1.688c.164-.023.258-.117.281-.281V7.406c-.023-.164-.117-.258-.281-.281ZM0 13.031c0-.398.14-.726.422-.984.258-.281.586-.422.984-.422h1.688c.398 0 .726.14.984.422.281.258.422.586.422.984v1.688c0 .398-.14.726-.422.984a1.276 1.276 0 0 1-.984.422H1.406c-.398 0-.726-.14-.984-.422A1.277 1.277 0 0 1 0 14.72v-1.69Zm1.125 0v1.688c.023.164.117.258.281.281h1.688c.164-.023.258-.117.281-.281V13.03c-.023-.164-.117-.258-.281-.281H1.406c-.164.023-.258.117-.281.281ZM8.719.375c.398 0 .726.14.984.422.281.258.422.586.422.984V3.47c0 .398-.14.726-.422.984a1.277 1.277 0 0 1-.984.422H7.03c-.398 0-.726-.14-.984-.422a1.277 1.277 0 0 1-.422-.984V1.78c0-.398.14-.726.422-.984.258-.281.586-.422.984-.422h1.69Zm0 1.125H7.03c-.164.023-.258.117-.281.281V3.47c.023.164.117.258.281.281h1.69c.164-.023.258-.117.281-.281V1.78c-.023-.164-.117-.258-.281-.281ZM5.625 7.406c0-.398.14-.726.422-.984C6.305 6.14 6.633 6 7.03 6h1.69c.398 0 .726.14.984.422.281.258.422.586.422.984v1.688c0 .398-.14.726-.422.984a1.276 1.276 0 0 1-.984.422H7.03c-.398 0-.726-.14-.984-.422a1.277 1.277 0 0 1-.422-.984V7.406Zm1.125 0v1.688c.023.164.117.258.281.281H8.72c.164-.023.258-.117.281-.281V7.406c-.023-.164-.117-.258-.281-.281H7.03c-.164.023-.258.117-.281.281Zm1.969 4.219c.398 0 .726.14.984.422.281.258.422.586.422.984v1.688c0 .398-.14.726-.422.984a1.276 1.276 0 0 1-.984.422H7.03c-.398 0-.726-.14-.984-.422a1.276 1.276 0 0 1-.422-.984V13.03c0-.398.14-.726.422-.984.258-.281.586-.422.984-.422h1.69Zm0 1.125H7.03c-.164.023-.258.117-.281.281v1.688c.023.164.117.258.281.281h1.69c.164-.023.258-.117.281-.281V13.03c-.023-.164-.117-.258-.281-.281ZM11.25 1.781c0-.398.14-.726.422-.984.258-.281.586-.422.984-.422h1.688c.398 0 .726.14.984.422.281.258.422.586.422.984V3.47c0 .398-.14.726-.422.984a1.276 1.276 0 0 1-.984.422h-1.688c-.398 0-.726-.14-.984-.422a1.276 1.276 0 0 1-.422-.984V1.78Zm1.125 0V3.47c.023.164.117.258.281.281h1.688c.164-.023.258-.117.281-.281V1.78c-.023-.164-.117-.258-.281-.281h-1.688c-.164.023-.258.117-.281.281ZM14.344 6c.398 0 .726.14.984.422.281.258.422.586.422.984v1.688c0 .398-.14.726-.422.984a1.276 1.276 0 0 1-.984.422h-1.688c-.398 0-.726-.14-.984-.422a1.276 1.276 0 0 1-.422-.984V7.406c0-.398.14-.726.422-.984.258-.281.586-.422.984-.422h1.688Zm0 1.125h-1.688c-.164.023-.258.117-.281.281v1.688c.023.164.117.258.281.281h1.688c.164-.023.258-.117.281-.281V7.406c-.023-.164-.117-.258-.281-.281Zm-3.094 5.906c0-.398.14-.726.422-.984.258-.281.586-.422.984-.422h1.688c.398 0 .726.14.984.422.281.258.422.586.422.984v1.688c0 .398-.14.726-.422.984a1.276 1.276 0 0 1-.984.422h-1.688c-.398 0-.726-.14-.984-.422a1.276 1.276 0 0 1-.422-.984V13.03Zm1.125 0v1.688c.023.164.117.258.281.281h1.688c.164-.023.258-.117.281-.281V13.03c-.023-.164-.117-.258-.281-.281h-1.688c-.164.023-.258.117-.281.281Z" fill="#080809"/></svg>