<svg width="194" height="56" viewBox="0 0 194 56" fill="none" xmlns="http://www.w3.org/2000/svg">
<path fill-rule="evenodd" clip-rule="evenodd" d="M33.6659 41.0623C33.6659 41.0623 32.8644 39.6778 31.6256 39.1677C30.3868 38.6576 28.8565 39.8235 30.0224 41.0623C31.1155 42.3011 33.6659 41.0623 33.6659 41.0623ZM30.0954 34.8684C30.0954 34.8684 30.8969 36.2529 30.7511 37.6374C30.6054 38.949 28.7837 39.6778 28.2736 38.0747C27.7636 36.4715 30.0954 34.8684 30.0954 34.8684ZM40.2241 9.21837C40.2241 9.21837 41.5358 8.41681 42.7745 8.48968C44.0133 8.56255 44.7421 10.2386 43.2847 10.8216C41.8273 11.4045 40.2241 9.21837 40.2241 9.21837ZM45.8351 5.7207C45.8351 5.7207 44.5963 6.52223 44.0862 7.68814C43.649 8.85405 44.8149 10.2386 45.908 9.14552C47.1467 8.05248 45.8351 5.7207 45.8351 5.7207ZM41.6815 12.4246C41.6815 12.4246 43.139 11.9146 44.3049 12.2061C45.5436 12.4976 45.908 14.3193 44.3777 14.5379C42.8475 14.9022 41.6815 12.4246 41.6815 12.4246ZM47.8754 10.02C47.8754 10.02 46.4909 10.6029 45.7623 11.6231C45.1064 12.7161 45.9808 14.2464 47.2925 13.372C48.677 12.5704 47.8754 10.02 47.8754 10.02ZM42.4102 16.0681C42.4102 16.0681 43.9405 15.7038 45.1064 16.2139C46.2723 16.724 46.418 18.5457 44.8149 18.6185C43.2118 18.6185 42.4102 16.0681 42.4102 16.0681ZM48.9684 14.465C48.9684 14.465 47.5111 14.8293 46.6367 15.7766C45.8351 16.7239 46.4909 18.4728 47.9483 17.7441C49.4057 17.1612 48.9684 14.465 48.9684 14.465ZM42.4831 19.5659C42.4831 19.5659 44.0134 19.493 45.1064 20.2217C46.1995 20.9504 45.9808 22.7721 44.3777 22.5535C42.7746 22.262 42.4831 19.5659 42.4831 19.5659ZM49.2599 19.2015C49.2599 19.2015 47.7297 19.2743 46.7095 20.0759C45.6893 20.8775 46.0537 22.6992 47.6568 22.262C49.1871 21.8976 49.2599 19.2015 49.2599 19.2015ZM41.8273 22.9907C41.8273 22.9907 43.3576 23.2093 44.3049 24.0837C45.2522 24.9581 44.7421 26.7799 43.2118 26.1969C41.6816 25.6869 41.8273 22.9907 41.8273 22.9907ZM48.6041 23.8652C48.6041 23.8652 47.0739 23.6465 45.908 24.3024C44.8149 24.9582 44.8149 26.7799 46.418 26.6341C48.094 26.5613 48.6041 23.8652 48.6041 23.8652ZM40.6614 26.1241C40.6614 26.1241 42.1188 26.707 42.8475 27.8C43.5762 28.8931 42.6288 30.4962 41.2443 29.6218C39.8598 28.7473 40.6614 26.1241 40.6614 26.1241ZM47.0739 28.5287C47.0739 28.5287 45.6165 28.0187 44.3777 28.3102C43.1389 28.6745 42.7017 30.4962 44.3777 30.7148C45.9808 31.0063 47.0739 28.5287 47.0739 28.5287ZM38.7667 29.0389C38.7667 29.0389 40.1513 29.8404 40.5885 31.0791C41.0986 32.3179 39.9327 33.7754 38.6939 32.6095C37.528 31.5164 38.7667 29.0389 38.7667 29.0389ZM44.6692 32.6095C44.6692 32.6095 43.2846 31.8079 41.973 31.9536C40.6614 32.0994 39.9327 33.8482 41.5358 34.3583C43.1389 34.8683 44.6692 32.6095 44.6692 32.6095ZM36.3621 31.5893C36.3621 31.5893 37.528 32.6823 37.8195 33.9211C38.111 35.2327 36.6536 36.4715 35.6334 35.087C34.6132 33.7753 36.3621 31.5893 36.3621 31.5893ZM41.5358 36.18C41.5358 36.18 40.297 35.1598 38.9854 35.0141C37.6737 34.8684 36.6536 36.4715 38.111 37.346C39.5684 38.1475 41.5358 36.18 41.5358 36.18ZM33.4473 33.5567C33.4473 33.5567 34.3947 34.8683 34.4675 36.18C34.5404 37.4916 32.8644 38.439 32.0628 36.9816C31.407 35.3785 33.4473 33.5567 33.4473 33.5567ZM37.8195 39.0948C37.8195 39.0948 36.7993 37.856 35.5606 37.4917C34.2489 37.1273 32.9372 38.5119 34.2489 39.6049C35.4877 40.6251 37.8195 39.0948 37.8195 39.0948Z" fill="white"/>
<path fill-rule="evenodd" clip-rule="evenodd" d="M15.594 41.0623C15.594 41.0623 16.3955 39.6778 17.6343 39.1677C18.8731 38.6576 20.4034 39.8235 19.2375 41.0623C18.1445 42.3011 15.594 41.0623 15.594 41.0623ZM19.1647 34.8684C19.1647 34.8684 18.3631 36.2529 18.5088 37.6374C18.6545 38.949 20.4763 39.6778 20.9864 38.0747C21.4965 36.4715 19.1647 34.8684 19.1647 34.8684ZM8.96295 9.21837C8.96295 9.21837 7.65131 8.41681 6.41253 8.48968C5.17375 8.56255 4.44501 10.2386 5.90239 10.8216C7.43265 11.4045 8.96295 9.21837 8.96295 9.21837ZM3.35197 5.7207C3.35197 5.7207 4.59076 6.52223 5.10085 7.68814C5.53806 8.85405 4.37216 10.2386 3.27912 9.14552C2.11321 8.05248 3.35197 5.7207 3.35197 5.7207ZM7.57842 12.4246C7.57842 12.4246 6.12105 11.9146 4.95515 12.2061C3.71637 12.4976 3.35195 14.3193 4.8822 14.5379C6.41246 14.9022 7.57842 12.4246 7.57842 12.4246ZM1.31168 10.02C1.31168 10.02 2.69613 10.6029 3.42482 11.6231C4.08064 12.7161 3.20623 14.2464 1.89458 13.372C0.510067 12.5704 1.31168 10.02 1.31168 10.02ZM6.77688 16.0681C6.77688 16.0681 5.24657 15.7038 4.08066 16.2139C2.91475 16.724 2.76903 18.5457 4.37216 18.6185C6.04815 18.6185 6.77688 16.0681 6.77688 16.0681ZM0.291495 14.465C0.291495 14.465 1.74884 14.8293 2.62328 15.7766C3.42484 16.7239 2.76907 18.4728 1.31168 17.7441C-0.145703 17.1612 0.291495 14.465 0.291495 14.465ZM6.77688 19.5659C6.77688 19.5659 5.24655 19.493 4.15351 20.2217C3.06047 20.9504 3.27908 22.7721 4.8822 22.5535C6.41246 22.262 6.77688 19.5659 6.77688 19.5659ZM0 19.2015C0 19.2015 1.53025 19.2743 2.55042 20.0759C3.57059 20.8775 3.20621 22.6992 1.60309 22.262C0.0728337 21.8976 0 19.2015 0 19.2015ZM7.35978 22.9907C7.35978 22.9907 5.82951 23.2093 4.8822 24.0837C3.9349 24.9581 4.44499 26.7799 5.97524 26.1969C7.57837 25.6869 7.35978 22.9907 7.35978 22.9907ZM0.655841 23.8652C0.655841 23.8652 2.18606 23.6465 3.35197 24.3024C4.44501 24.9582 4.44504 26.7799 2.84192 26.6341C1.16593 26.5613 0.655841 23.8652 0.655841 23.8652ZM8.59861 26.1241C8.59861 26.1241 7.14122 26.707 6.41253 27.8C5.68384 28.8931 6.6311 30.4962 8.01562 29.6218C9.40013 28.7473 8.59861 26.1241 8.59861 26.1241ZM2.18608 28.5287C2.18608 28.5287 3.64343 28.0187 4.8822 28.3102C6.12098 28.6745 6.5582 30.4962 4.8822 30.7148C3.27908 31.0063 2.18608 28.5287 2.18608 28.5287ZM10.4932 29.0389C10.4932 29.0389 9.10868 29.8404 8.67146 31.0791C8.16137 32.3179 9.32727 33.7754 10.566 32.6095C11.732 31.5164 10.4932 29.0389 10.4932 29.0389ZM4.51786 32.6095C4.51786 32.6095 5.90243 31.8079 7.21407 31.9536C8.52572 32.0994 9.2544 33.8482 7.65127 34.3583C6.12102 34.8683 4.51786 32.6095 4.51786 32.6095ZM12.8978 31.5893C12.8978 31.5893 11.7319 32.6823 11.4404 33.9211C11.149 35.2327 12.6063 36.4715 13.6265 35.087C14.6467 33.7753 12.8978 31.5893 12.8978 31.5893ZM7.65127 36.18C7.65127 36.18 8.89005 35.1598 10.2017 35.0141C11.5133 34.8684 12.5335 36.4715 11.0761 37.346C9.61871 38.1475 7.65127 36.18 7.65127 36.18ZM15.7397 33.5567C15.7397 33.5567 14.7924 34.8683 14.7196 36.18C14.6467 37.4916 16.3227 38.439 17.1243 36.9816C17.853 35.3785 15.7397 33.5567 15.7397 33.5567ZM11.4404 39.0948C11.4404 39.0948 12.4607 37.856 13.6995 37.4917C15.0111 37.1273 16.3227 38.5119 15.011 39.6049C13.7723 40.6251 11.4404 39.0948 11.4404 39.0948Z" fill="white"/>
<path d="M24.6301 35.3053C33.2287 31.0789 37.0178 20.6586 37.8194 12.3515C33.7387 10.4569 29.2937 9.29102 24.6301 9.29102C19.9664 9.29102 15.5214 10.4569 11.4407 12.3515C12.2422 20.6586 15.9586 31.0789 24.6301 35.3053Z" stroke="white" stroke-width="2.9999" stroke-miterlimit="22.9256"/>
<path fill-rule="evenodd" clip-rule="evenodd" d="M47.875 55.9999C44.3772 54.6882 40.4424 53.8867 36.2888 53.5223V51.8463C37.7462 52.2106 39.1307 52.6479 40.4423 53.0851L41.8997 53.5952V51.9921V47.7656C44.0129 48.13 45.9804 48.713 47.8021 49.3688L43.3571 51.0447L47.875 55.9999Z" fill="white"/>
<path fill-rule="evenodd" clip-rule="evenodd" d="M1.31152 55.9999C4.80925 54.6882 8.74412 53.8867 12.8977 53.5223V51.8463C11.4403 52.2106 10.0558 52.6479 8.74415 53.0851L7.28677 53.5952V51.9921V47.7656C5.17356 48.13 3.20611 48.713 1.38437 49.3688L5.82938 51.0447L1.31152 55.9999Z" fill="white"/>
<path fill-rule="evenodd" clip-rule="evenodd" d="M8.37988 45.5072V52.0654C17.9258 48.4948 31.3337 48.4948 40.9524 52.0654V45.5072C31.5523 42.1552 17.7071 42.1552 8.37988 45.5072Z" fill="white"/>
<path d="M10.3471 46.5267L11.0029 46.3809C11.0758 46.3809 11.1487 46.3081 11.2216 46.3081C11.3673 46.2352 11.4402 46.2352 11.513 46.2352C11.5859 46.2352 11.6588 46.2352 11.6588 46.2352C11.6588 46.3081 11.6588 46.3081 11.5859 46.3081C11.513 46.3081 11.4401 46.381 11.3673 46.4539C11.3673 46.5267 11.3673 46.6724 11.3673 46.891C11.4401 47.1097 11.4402 47.3283 11.513 47.5469C11.5859 47.9112 11.7316 48.2027 11.8045 48.3484C11.8773 48.4942 11.9502 48.5671 12.0959 48.6399C12.2417 48.7128 12.3875 48.7128 12.6061 48.6399C12.8247 48.5671 12.9704 48.4942 13.0433 48.4213C13.1162 48.2755 13.189 48.1298 13.1161 47.9841C13.1161 47.7655 13.0432 47.4011 12.8975 46.891C12.8246 46.5996 12.7518 46.3809 12.6789 46.3081C12.6061 46.2352 12.5332 46.1624 12.3874 46.1624C12.3146 46.1624 12.2417 46.1624 12.2417 46.0895C12.2417 46.0166 12.2417 46.0166 12.3146 46.0166C12.3146 46.0166 12.3874 46.0166 12.4603 46.0166C12.5332 46.0166 12.6061 46.0166 12.6789 45.9437C12.7518 45.9437 12.8247 45.8709 12.9704 45.8709C13.0433 45.8709 13.1161 45.798 13.1161 45.798C13.189 45.798 13.189 45.798 13.2618 45.798C13.2618 45.798 13.2619 45.8709 13.189 45.8709C13.1161 45.8709 13.0433 45.9437 13.0433 46.0166C12.9704 46.0894 12.9704 46.1623 13.0433 46.3081C13.0433 46.4538 13.1161 46.8182 13.2618 47.3282C13.3347 47.6926 13.4076 47.9841 13.3348 48.1298C13.3348 48.2755 13.189 48.4941 13.0433 48.567C12.8975 48.7127 12.6789 48.7856 12.3874 48.8585C12.1688 48.9314 12.0231 48.9313 11.8045 48.9313C11.6587 48.9313 11.513 48.9314 11.3673 48.8585C11.2944 48.7856 11.1486 48.7128 11.0758 48.6399C11.0029 48.5671 10.9301 48.4212 10.9301 48.2026L10.6386 47.1096C10.5657 46.9639 10.5657 46.8181 10.4929 46.7453C10.42 46.6724 10.4199 46.5996 10.3471 46.5996C10.2742 46.5996 10.2743 46.5996 10.1285 46.5996C10.0556 46.5996 10.0557 46.5996 10.0557 46.5996C10.0557 46.5996 10.0557 46.5996 10.0557 46.5267C10.2743 46.5267 10.3471 46.5267 10.3471 46.5267ZM14.5007 45.5794C15.3022 46.2352 15.958 46.7453 16.541 47.1096C16.541 47.0367 16.541 46.9639 16.541 46.891L16.3953 46.0895C16.3224 45.8709 16.3224 45.7251 16.2495 45.6522C16.1767 45.5793 16.1766 45.5065 16.1038 45.5065C16.0309 45.5065 15.958 45.4337 15.8123 45.4337C15.7394 45.4337 15.7394 45.4337 15.7394 45.3608C15.7394 45.2879 15.7394 45.2879 15.8123 45.2879H15.8852C15.9581 45.2879 16.1038 45.2879 16.2495 45.215C16.4682 45.215 16.6139 45.1422 16.6867 45.1422C16.7596 45.1422 16.7596 45.1422 16.7596 45.1422C16.8325 45.1422 16.8325 45.1422 16.8325 45.215C16.8325 45.2879 16.8325 45.2879 16.7596 45.2879C16.6867 45.2879 16.6138 45.3608 16.541 45.4337C16.4681 45.5065 16.4681 45.6523 16.4681 45.8709L16.6867 47.0368L16.8325 47.9112C16.8325 47.9841 16.8325 48.0569 16.7596 48.0569C16.7596 48.0569 16.7596 48.0569 16.6867 48.0569C16.6867 48.0569 16.541 47.984 16.3224 47.8383C16.1038 47.6926 15.8123 47.4739 15.3751 47.1096C14.9378 46.8181 14.6464 46.5266 14.5007 46.3809C14.5007 46.4538 14.5735 46.7453 14.7192 47.4011C14.7921 47.6197 14.7921 47.7655 14.865 47.9112C14.9379 48.057 15.0107 48.1298 15.0836 48.1298C15.1564 48.1298 15.3022 48.2027 15.3751 48.1298C15.4479 48.1298 15.4479 48.1298 15.4479 48.2026C15.4479 48.2755 15.4479 48.2756 15.3751 48.2756C15.3751 48.2756 15.3022 48.2756 15.2294 48.2756C15.1565 48.2756 15.0107 48.2756 14.9379 48.3484C14.7193 48.4213 14.5735 48.4213 14.5007 48.4213C14.4278 48.4213 14.4277 48.4213 14.3549 48.4213C14.282 48.4213 14.282 48.4213 14.282 48.3484C14.282 48.3484 14.2821 48.2756 14.4278 48.2756C14.5736 48.2027 14.6464 48.1298 14.7192 48.0569C14.7192 47.9841 14.7192 47.8383 14.7192 47.6197C14.5735 46.891 14.5007 46.4538 14.4278 46.3081C14.3549 46.1623 14.282 46.0166 14.2092 45.8709C14.0634 45.7251 13.9906 45.7252 13.8448 45.7252C13.772 45.7252 13.772 45.7251 13.772 45.6522C13.772 45.5793 13.772 45.5794 13.8448 45.5794C13.8448 45.5794 13.8448 45.5794 13.9177 45.5794C13.9177 45.5794 13.9906 45.5794 14.0635 45.5794C14.2092 45.5794 14.3549 45.5794 14.5007 45.5794ZM17.3426 45.0693C17.4155 45.0693 17.4883 45.0693 17.634 45.0693C17.7797 45.0693 17.8526 45.0693 17.9255 45.0693L18.5813 44.9965C18.6542 44.9965 18.6542 44.9964 18.6542 45.0693C18.6542 45.0693 18.6542 45.1422 18.5813 45.1422C18.4356 45.1422 18.3627 45.215 18.3627 45.215C18.3627 45.215 18.2898 45.2879 18.2898 45.4337C18.2898 45.5794 18.2898 45.798 18.3627 46.1624C18.4356 46.5996 18.4356 46.9639 18.5085 47.1825C18.5813 47.4012 18.5813 47.5469 18.6542 47.6197C18.7271 47.6926 18.8 47.6926 18.8728 47.6926C18.9457 47.6926 18.9457 47.6926 19.0185 47.7654C19.0185 47.8383 19.0185 47.8383 18.9457 47.8383H18.8728C18.5813 47.8383 18.4356 47.8384 18.2898 47.9112C18.0712 47.9112 17.9255 47.9841 17.8526 47.9841C17.7798 47.9841 17.7798 47.9841 17.7069 47.9841C17.6341 47.9841 17.634 47.9841 17.634 47.9112C17.634 47.9112 17.6341 47.8383 17.7069 47.8383C17.8527 47.8383 17.9255 47.7655 17.9255 47.6926C17.9255 47.6197 17.9984 47.474 17.9255 47.3282C17.9255 47.1096 17.8526 46.8181 17.8526 46.3809C17.7798 45.9437 17.7798 45.6523 17.7069 45.5065C17.7069 45.3608 17.634 45.2879 17.5611 45.215C17.4883 45.215 17.4155 45.1422 17.3426 45.1422C17.2697 45.1422 17.2697 45.1422 17.3426 45.0693C17.2697 45.0693 17.2697 45.0693 17.3426 45.0693ZM20.6946 47.6197H20.5488L20.1116 46.5996C19.9658 46.3809 19.8201 46.0166 19.6744 45.6522C19.5286 45.2879 19.3829 45.0693 19.31 44.9965C19.2372 44.9236 19.2372 44.9235 19.1643 44.8507C19.1643 44.8507 19.0914 44.8507 19.0185 44.8507C18.9457 44.8507 18.9457 44.8507 18.9457 44.7778C18.9457 44.705 18.9457 44.705 19.0185 44.705H19.6015C19.8201 44.705 19.9658 44.705 20.1844 44.6321C20.2573 44.6321 20.2574 44.6321 20.2574 44.6321C20.3302 44.6321 20.3302 44.6321 20.3302 44.705C20.3302 44.705 20.3302 44.7778 20.2574 44.7778C20.1116 44.7778 20.0387 44.9236 20.0387 44.9965C20.0387 45.2151 20.2573 45.798 20.6946 46.7453C20.7674 46.4538 20.9132 46.0895 20.9861 45.798L21.1318 45.215C21.1318 45.1422 21.1318 45.0693 21.1318 44.9965C21.1318 44.9236 21.1318 44.8507 21.0589 44.8507C20.986 44.7778 20.986 44.7778 20.9131 44.7778C20.8402 44.7778 20.8403 44.7778 20.8403 44.705C20.8403 44.6321 20.8402 44.6321 20.9131 44.6321C20.986 44.6321 20.986 44.6321 21.0589 44.6321C21.2046 44.6321 21.2775 44.6321 21.3504 44.6321C21.4233 44.6321 21.5689 44.6321 21.6418 44.6321C21.7147 44.6321 21.7147 44.6321 21.7876 44.6321C21.8605 44.6321 21.8604 44.6321 21.8604 44.705C21.8604 44.705 21.8605 44.7778 21.7876 44.7778C21.7147 44.7778 21.6418 44.8507 21.569 44.8507C21.4961 44.9235 21.4961 44.9964 21.4232 45.0693C21.3504 45.1422 21.2775 45.3608 21.2046 45.7252L20.9131 46.7453C20.8402 47.1096 20.6946 47.474 20.6946 47.6197ZM24.5566 44.6321C24.6294 44.8507 24.6295 45.0693 24.7024 45.2879C24.7024 45.3607 24.7024 45.3608 24.6295 45.3608C24.6295 45.3608 24.5566 45.3607 24.5566 45.2879C24.4108 45.0693 24.2651 44.9235 24.1194 44.8507C23.9736 44.7778 23.8279 44.7778 23.6093 44.7778C23.4636 44.7778 23.3907 44.7778 23.245 44.7778C23.245 44.9964 23.245 45.2879 23.245 45.5794C23.245 45.6522 23.245 45.7251 23.245 45.8709H23.3907C23.4636 45.8709 23.6093 45.8709 23.6822 45.798C23.755 45.798 23.828 45.7251 23.9008 45.6522C23.9737 45.5793 23.9737 45.5065 23.9737 45.5065C23.9737 45.4336 23.9737 45.4337 24.0465 45.4337C24.1194 45.4337 24.1194 45.4336 24.1194 45.5065C24.1194 45.5794 24.1194 45.8708 24.1194 46.3081C24.1194 46.3809 24.1194 46.4539 24.1194 46.4539C24.1194 46.5267 24.1194 46.5267 24.0465 46.5267C24.0465 46.5267 23.9737 46.4538 23.9737 46.3809C23.9737 46.2352 23.9008 46.1624 23.755 46.0895C23.6822 46.0166 23.4636 46.0166 23.245 46.0166C23.245 46.2352 23.245 46.381 23.245 46.4539C23.245 46.7453 23.245 46.9639 23.245 47.0368C23.245 47.1096 23.3178 47.1825 23.3907 47.1825C23.4636 47.2554 23.5364 47.2554 23.6822 47.2554C24.1923 47.2554 24.5566 47.1096 24.7752 46.7453C24.7752 46.6724 24.8481 46.6724 24.8481 46.6724C24.9209 46.6724 24.9209 46.6724 24.9209 46.7453V46.8182L24.7752 47.4011H23.9737C23.7551 47.4011 23.5364 47.4011 23.3907 47.4011C23.1721 47.4011 23.0264 47.4011 22.9535 47.4011C22.8077 47.4011 22.662 47.4011 22.4434 47.4011H22.3705C22.2976 47.4011 22.2976 47.4011 22.2976 47.3282C22.2976 47.2554 22.2976 47.2554 22.3705 47.2554C22.5162 47.2554 22.5891 47.1825 22.662 47.1096C22.7349 47.0367 22.7348 46.891 22.7348 46.6724V45.5794C22.7348 45.215 22.7348 44.9964 22.7348 44.9235C22.7348 44.8507 22.7349 44.7778 22.662 44.7778C22.5891 44.7778 22.5163 44.705 22.4434 44.705C22.3706 44.705 22.3705 44.705 22.3705 44.6321C22.3705 44.5593 22.3706 44.5592 22.4434 44.5592H22.9535L24.5566 44.6321ZM26.7426 46.0166C26.9613 46.0166 27.1071 46.0895 27.1799 46.2352C27.3257 46.3081 27.3985 46.5266 27.4713 46.7453C27.5442 46.9639 27.5443 47.1825 27.6171 47.2554C27.69 47.3283 27.7629 47.4011 27.9086 47.4011C27.9815 47.4011 27.9815 47.4011 27.9815 47.4739C27.9815 47.5468 27.9086 47.5469 27.8357 47.5469L27.0341 47.4739C26.9613 47.4011 26.8884 47.2554 26.8884 47.0368C26.8884 46.7453 26.8156 46.5267 26.8156 46.4539C26.7427 46.3081 26.7427 46.2352 26.6698 46.1624C26.5969 46.0895 26.524 46.0895 26.3783 46.0895C26.3783 46.0895 26.3055 46.0895 26.2326 46.0895C26.2326 46.5996 26.1597 46.891 26.1597 47.0368C26.1597 47.1825 26.1597 47.2554 26.2326 47.2554C26.3055 47.3283 26.3784 47.3282 26.4512 47.3282C26.5241 47.3282 26.5241 47.3282 26.5241 47.4011C26.5241 47.474 26.5241 47.4739 26.4512 47.4739L25.7954 47.4011C25.7225 47.4011 25.5768 47.4011 25.4311 47.4011C25.2853 47.4011 25.2124 47.4011 25.2124 47.4011C25.1395 47.4011 25.1396 47.4011 25.1396 47.3282C25.1396 47.2554 25.1395 47.2554 25.2124 47.2554C25.2853 47.2554 25.3582 47.2554 25.4311 47.1825C25.5039 47.1097 25.5768 46.9639 25.5768 46.6724V46.3081L25.6496 45.5065C25.6496 45.1422 25.6496 44.8507 25.6496 44.7778C25.6496 44.705 25.5039 44.6321 25.3582 44.6321C25.2853 44.6321 25.2853 44.632 25.2853 44.5592C25.2853 44.4863 25.3582 44.4863 25.4311 44.4863C25.8683 44.4863 26.1598 44.4863 26.4512 44.4863C26.597 44.4863 26.6699 44.4863 26.8156 44.4863C27.1071 44.4863 27.3985 44.5592 27.5443 44.705C27.69 44.8507 27.8357 44.9964 27.7628 45.215C27.7628 45.3608 27.69 45.5065 27.6171 45.5794C27.5443 45.6522 27.3985 45.798 27.2528 45.798C27.0342 46.0166 26.8884 46.0166 26.7426 46.0166ZM26.1597 45.9437C26.2326 45.9437 26.2326 45.9437 26.2326 45.9437C26.3783 45.9437 26.4512 45.9437 26.5969 45.8709C26.7427 45.798 26.8156 45.7251 26.8884 45.6522C26.9613 45.5793 26.9613 45.4337 26.9613 45.3608C26.9613 45.2151 26.8885 45.0693 26.8156 44.9235C26.7427 44.8507 26.5969 44.7778 26.3783 44.7778C26.3054 44.7778 26.2326 44.7778 26.1597 44.7778V45.9437ZM30.0947 45.0693L30.1676 44.9965C30.1676 44.9236 30.2404 44.9235 30.2404 44.9235C30.3133 44.9235 30.3133 44.9965 30.3133 44.9965V45.5794V45.6522C30.3133 45.7251 30.3133 45.7252 30.2404 45.7252H30.1676C30.1676 45.7252 30.1676 45.6522 30.0947 45.5794C30.0218 45.4336 29.9489 45.2879 29.8032 45.215C29.6575 45.0693 29.5118 44.9965 29.366 44.9965C29.2203 44.9965 29.0745 44.9964 29.0017 45.0693C28.9288 45.1422 28.8559 45.2151 28.8559 45.3608C28.8559 45.4337 28.8559 45.5793 28.9287 45.6522C29.0016 45.7251 29.1474 45.798 29.366 45.9437C29.7304 46.0895 29.949 46.2352 30.0947 46.4539C30.2404 46.5996 30.2404 46.8181 30.2404 47.0368C30.2404 47.2554 30.1675 47.4012 30.0218 47.5469C29.876 47.6926 29.8032 47.7654 29.6574 47.8383C29.5117 47.9112 29.366 47.9112 29.1474 47.9112C29.0016 47.9112 28.9288 47.8383 28.783 47.8383C28.6373 47.7654 28.5644 47.6926 28.4187 47.6197C28.4187 47.6197 28.3458 47.6926 28.3458 47.7654C28.3458 47.8383 28.273 47.8383 28.273 47.8383C28.273 47.8383 28.2 47.7655 28.2 47.6926V46.891V46.8182C28.2 46.7453 28.2001 46.7453 28.273 46.7453C28.273 46.7453 28.3458 46.8182 28.3458 46.891C28.4187 47.1097 28.4916 47.3282 28.6373 47.4739C28.7831 47.6197 28.9288 47.6926 29.1474 47.7654C29.2931 47.7654 29.4388 47.7655 29.5846 47.6926C29.7303 47.6197 29.7303 47.474 29.8032 47.4011C29.8032 47.2554 29.8032 47.1825 29.7304 47.0368C29.6575 46.9639 29.5117 46.8181 29.2202 46.7453C29.0016 46.6724 28.8559 46.5267 28.7102 46.4539C28.6373 46.381 28.4915 46.2352 28.4915 46.1624C28.4187 46.0166 28.4187 45.8709 28.4187 45.798C28.4187 45.5794 28.5644 45.3607 28.7102 45.2879C28.9288 45.1421 29.1474 45.0693 29.4389 45.1422C29.6575 44.8507 29.8761 44.9236 30.0947 45.0693ZM31.042 45.0693C31.1148 45.0693 31.1877 45.0693 31.3334 45.1422C31.4792 45.1422 31.5521 45.215 31.6249 45.215L32.2808 45.2879C32.3537 45.2879 32.3536 45.2879 32.3536 45.3608C32.3536 45.3608 32.3537 45.4337 32.2808 45.4337C32.135 45.4337 32.0621 45.4337 32.0621 45.4337C31.9893 45.4337 31.9893 45.5065 31.9164 45.6522C31.8436 45.7251 31.8435 46.0166 31.7706 46.3809C31.6978 46.8181 31.6249 47.1825 31.6249 47.4011C31.6249 47.6197 31.6249 47.7654 31.6249 47.8383C31.6249 47.9112 31.6978 47.9112 31.8435 47.9841C31.9164 47.9841 31.9164 47.9841 31.9164 48.0569C31.9164 48.1298 31.8435 48.1298 31.7706 48.1298H31.6978C31.4063 48.0569 31.2606 48.057 31.1877 47.9841C30.9691 47.9841 30.8233 47.9112 30.6776 47.9112C30.6047 47.9112 30.6048 47.9112 30.5319 47.9112C30.459 47.9112 30.4591 47.9112 30.4591 47.8383C30.4591 47.8383 30.459 47.7654 30.5319 47.7654C30.6776 47.7654 30.7505 47.7655 30.8234 47.6926C30.8963 47.6197 30.8962 47.5469 30.9691 47.3282C31.042 47.1096 31.0419 46.8182 31.1148 46.4539C31.1877 46.0166 31.1877 45.7251 31.1877 45.5794C31.1877 45.4336 31.1877 45.3607 31.1877 45.2879C31.1877 45.215 31.1148 45.215 30.9691 45.215C30.8962 45.215 30.8962 45.1422 30.8962 45.1422C30.9691 45.0693 31.042 45.0693 31.042 45.0693ZM32.7908 45.2879C33.5195 45.4336 34.0296 45.5793 34.3939 45.6522C34.6854 45.7251 34.9769 45.7251 35.2684 45.798C35.4141 45.798 35.487 45.798 35.5599 45.8709C35.5599 45.8709 35.6327 45.8709 35.7056 45.8709C35.7056 45.9437 35.7056 46.0166 35.7056 46.2352V46.5996C35.7056 46.6724 35.6327 46.6724 35.6327 46.6724C35.6327 46.6724 35.5599 46.5996 35.5599 46.5267C35.5599 46.381 35.487 46.3081 35.4141 46.1624C35.3412 46.0895 35.2684 46.0166 35.1226 45.9437C35.0497 45.8708 34.8312 45.8709 34.6126 45.798C34.5397 46.0166 34.4668 46.3081 34.3939 46.5996C34.3211 46.9639 34.2482 47.2554 34.2482 47.5469C34.1753 47.8384 34.1754 48.0569 34.1754 48.1298C34.1754 48.2027 34.1753 48.2756 34.2482 48.2756C34.3211 48.3485 34.394 48.3484 34.5397 48.4213C34.6126 48.4213 34.6126 48.4941 34.6126 48.4941C34.6126 48.567 34.6126 48.567 34.5397 48.567H34.4669L34.0296 48.4941C33.6652 48.4213 33.5195 48.4213 33.4467 48.3484L33.1552 48.2756C33.1552 48.2756 33.0823 48.2756 33.0095 48.2756C33.0095 48.2756 32.9365 48.2755 32.9365 48.2026C32.9365 48.1298 33.0095 48.1298 33.0095 48.1298C33.1552 48.1298 33.228 48.1298 33.3009 48.1298C33.3738 48.0569 33.4467 47.9841 33.4467 47.9112C33.5195 47.7655 33.5195 47.5469 33.5924 47.1825C33.7381 46.5996 33.811 46.0895 33.811 45.7252C33.5924 45.6523 33.4466 45.6522 33.3009 45.6522C33.228 45.6522 33.0823 45.6523 33.0095 45.7252C32.8637 45.798 32.7908 45.8708 32.718 46.0166C32.718 46.0894 32.6451 46.0895 32.6451 46.0895C32.5723 46.0895 32.5722 46.0894 32.5722 46.0166C32.5722 46.0166 32.5723 45.9438 32.6451 45.7252C32.718 45.5066 32.7908 45.3607 32.7908 45.2879ZM37.3816 47.5469C37.8917 47.1097 38.1832 46.891 38.1832 46.7453V46.6724C38.1832 46.5995 38.1103 46.5996 38.0374 46.5267C37.9645 46.5267 37.9645 46.4539 37.9645 46.4539C37.9645 46.381 38.0374 46.3809 38.0374 46.3809C38.0374 46.3809 38.0375 46.3809 38.1103 46.3809C38.2561 46.4538 38.4018 46.4538 38.4747 46.5267C38.5475 46.5267 38.6933 46.5996 38.839 46.5996H38.9119C38.9847 46.5996 38.9847 46.5995 38.9847 46.6724C38.9847 46.6724 38.9847 46.7453 38.9119 46.7453C38.839 46.7453 38.6932 46.7453 38.6204 46.7453C38.5475 46.7453 38.4018 46.8182 38.256 46.9639C38.1103 47.1096 37.9646 47.2554 37.746 47.4011C37.5274 47.5468 37.4545 47.6926 37.4545 47.6926C37.4545 47.7655 37.3816 47.9112 37.3087 48.1298C37.2358 48.4941 37.163 48.7856 37.163 48.8585C37.163 48.9314 37.2359 49.0043 37.3816 49.0771C37.4545 49.0771 37.4545 49.15 37.4545 49.15C37.4545 49.2228 37.3816 49.2228 37.3816 49.2228C37.3088 49.2228 37.2359 49.15 37.0173 49.15C36.9444 49.15 36.8715 49.0771 36.7986 49.0771C36.6529 49.0043 36.5072 49.0043 36.2886 49.0043C36.2157 49.0043 36.2157 49.0043 36.2157 49.0043C36.1428 49.0043 36.1428 48.9313 36.1428 48.9313C36.1428 48.9313 36.1428 48.8585 36.2157 48.8585C36.3614 48.8585 36.4343 48.8585 36.5071 48.7856C36.58 48.7128 36.6529 48.5671 36.6529 48.2756C36.7258 48.057 36.7258 47.9112 36.7258 47.8383C36.7258 47.7654 36.6529 47.6197 36.58 47.3282C36.5071 47.1096 36.4343 46.891 36.3614 46.6724C36.2886 46.4538 36.2157 46.3081 36.1428 46.2352C36.0699 46.1623 35.9971 46.0895 35.9242 46.0895C35.8514 46.0895 35.8513 46.0166 35.8513 46.0166C35.8513 45.9437 35.9242 45.9437 35.9242 45.9437H35.9971C36.2157 46.0166 36.3614 46.0895 36.4343 46.0895C36.58 46.1624 36.7986 46.1623 36.9443 46.2352C37.0172 46.2352 37.0173 46.2352 37.0173 46.2352C37.0902 46.2352 37.0901 46.2352 37.0901 46.3081L37.0173 46.3809C36.8715 46.3809 36.7986 46.381 36.7986 46.4539C37.0172 46.5267 37.0902 46.8911 37.3816 47.5469Z" fill="#081933"/>
<path fill-rule="evenodd" clip-rule="evenodd" d="M24.566 0L25.3641 2.40951H28L25.8719 3.9067L26.6941 6.33962L24.566 4.81905L22.438 6.33962L23.2602 3.9067L21.1321 2.40951H23.7438L24.566 0Z" fill="white"/>
<path fill-rule="evenodd" clip-rule="evenodd" d="M31.4463 2.11328L31.9883 3.72115H33.8114L32.3332 4.70886L32.8998 6.3397L31.4463 5.32903L29.9682 6.3397L30.5348 4.70886L29.0566 3.72115H30.8797L31.4463 2.11328Z" fill="white"/>
<path fill-rule="evenodd" clip-rule="evenodd" d="M17.6981 2.11328L18.2677 3.72115H20.0755L18.6144 4.70886L19.184 6.3397L17.6981 5.32903L16.2123 6.3397L16.7819 4.70886L15.3208 3.72115H17.1286L17.6981 2.11328Z" fill="white"/>
<path fill-rule="evenodd" clip-rule="evenodd" d="M24.2657 26.1234C23.8285 23.5001 20.4765 21.8241 18.3632 21.8241V16.6504C17.7074 16.5775 17.4888 16.5775 16.833 16.6504V23.2086C19.3834 23.2086 22.6626 23.8644 24.2657 26.1234Z" fill="white"/>
<path fill-rule="evenodd" clip-rule="evenodd" d="M24.9214 26.1234C25.3586 23.5001 28.7107 21.8241 30.8239 21.8241V16.6504C31.4797 16.5775 31.6983 16.5775 32.3541 16.6504V23.2086C29.8037 23.2086 26.5974 23.8644 24.9214 26.1234Z" fill="white"/>
<path fill-rule="evenodd" clip-rule="evenodd" d="M24.2654 23.865V18.4727C23.2452 16.7238 22.5894 15.7765 19.1646 15.4121V20.9502C21.5692 21.2417 22.6623 21.9704 24.2654 23.865Z" fill="white"/>
<path fill-rule="evenodd" clip-rule="evenodd" d="M24.9214 23.865V18.4727C25.9416 16.7238 26.5974 15.7765 30.0222 15.4121V20.9502C27.6904 21.2417 26.5245 21.9704 24.9214 23.865Z" fill="white"/>
<path d="M73.1536 5.756L73.8536 10.796L73.2656 10.992C71.2216 7.744 69.5136 6.288 67.2456 6.288C65.5376 6.288 64.4456 7.156 64.4456 8.584C64.4456 10.712 66.9376 11.72 69.5136 13.008C72.3136 14.38 75.1976 16.004 75.1976 20.036C75.1976 24.656 71.5296 26.448 67.3856 26.448C65.0616 26.448 62.7376 25.86 61.2536 25.16L60.4976 19.364L61.0856 19.168C63.6616 23.396 65.6216 25.244 68.3376 25.244C70.3536 25.244 71.5856 24.096 71.5856 22.36C71.5856 19.98 69.2336 18.888 66.6856 17.628C63.8856 16.228 60.9456 14.744 60.9456 11.02C60.9456 6.708 64.6696 5.084 68.7016 5.084C70.2416 5.084 71.8096 5.336 73.1536 5.756ZM91.2777 25.944V26H83.6337V25.944C84.5577 23.788 84.9217 22.612 84.9217 19.672V6.652L83.5777 6.736C82.0097 6.876 79.5457 10.404 78.1737 12.364L77.5857 12.196L78.7337 5.504H96.1777L97.3257 12.196L96.7377 12.364C95.3377 10.404 92.9017 6.876 91.3337 6.736L89.9897 6.652V19.672C89.9897 22.612 90.3537 23.788 91.2777 25.944ZM103.442 26H97.6744V25.944C98.9064 24.796 99.8584 23.004 100.698 20.708L106.214 5.42H109.658L115.23 20.848C116.014 23.032 116.854 24.74 117.89 25.944V26H109.434V25.944C110.47 24.656 110.778 22.752 109.938 20.344L109.378 18.748H102.742L102.406 19.644C101.23 22.808 101.958 24.852 103.442 25.944V26ZM103.162 17.516H108.958L106.102 9.368L103.162 17.516ZM120.726 26V25.944C121.65 23.9 122.014 22.752 122.014 19.924V11.58C122.014 8.752 121.65 7.604 120.726 5.56V5.504C124.03 5.504 125.402 5.392 129.182 5.392C136.77 5.392 141.502 9.004 141.502 15.64C141.502 22.276 137.022 26 129.182 26H120.726ZM136.014 15.892C136.014 9.564 134.222 6.652 129.322 6.652C128.846 6.652 127.838 6.708 127.054 6.792V24.628C127.922 24.712 129.126 24.74 129.602 24.74C134.614 24.684 136.014 21.464 136.014 15.892ZM154.54 26.448C149.752 26.448 146.056 24.124 146.056 18.496V11.86C146.056 8.892 145.692 7.716 144.768 5.56V5.504H152.468V5.56C151.544 7.604 151.152 8.892 151.152 11.832V18.748C151.152 23.536 153.14 24.824 155.772 24.824C159.692 24.824 160.924 21.912 160.924 18.16V12.056C160.924 9.004 160.336 7.772 158.404 5.56V5.504H164.76L164.816 5.56C163.024 7.772 162.296 9.06 162.296 12.084V17.964C162.296 22.724 160.616 26.448 154.54 26.448ZM184.156 26V25.944C185.08 23.788 185.444 22.612 185.444 19.644V9.592L178.5 25.384H177.24L170.184 9.368L170.268 19.504C170.296 22.444 171.108 23.732 172.984 25.944V26H166.712V25.944C168.28 23.732 168.896 22.5 168.896 19.476V10.376C168.756 8.192 168.056 7.212 166.544 5.56V5.504H173.88L179.844 19.14L185.836 5.504H192.836V5.56C191.156 7.38 190.484 8.416 190.484 11.132V19.672C190.484 22.556 190.876 23.788 191.772 25.944V26H184.156Z" fill="white"/>
<path d="M60.1728 50V41.805H61.2508V46.414L60.9868 46.304L64.9028 41.805H66.2558L62.9668 45.6L63.0218 44.83L66.4208 50H65.1338L62.5378 46.106L61.2508 47.58V50H60.1728ZM67.456 50V41.805H68.358L73.066 48.427L72.659 48.471V41.805H73.748V50H72.846L68.16 43.334L68.534 43.29V50H67.456ZM79.4931 50.132C78.9137 50.132 78.3711 50.0293 77.8651 49.824C77.3591 49.6113 76.9154 49.3143 76.5341 48.933C76.1601 48.5517 75.8667 48.1043 75.6541 47.591C75.4414 47.0703 75.3351 46.5057 75.3351 45.897C75.3351 45.281 75.4414 44.7163 75.6541 44.203C75.8667 43.6897 76.1601 43.2423 76.5341 42.861C76.9154 42.4797 77.3554 42.1863 77.8541 41.981C78.3601 41.7757 78.9064 41.673 79.4931 41.673C80.0797 41.673 80.6224 41.7793 81.1211 41.992C81.6271 42.1973 82.0671 42.4907 82.4411 42.872C82.8224 43.246 83.1194 43.6897 83.3321 44.203C83.5521 44.7163 83.6621 45.281 83.6621 45.897C83.6621 46.5057 83.5521 47.0703 83.3321 47.591C83.1194 48.1043 82.8224 48.5517 82.4411 48.933C82.0671 49.3143 81.6271 49.6113 81.1211 49.824C80.6224 50.0293 80.0797 50.132 79.4931 50.132ZM79.4931 49.131C79.9477 49.131 80.3621 49.0503 80.7361 48.889C81.1101 48.7203 81.4327 48.4893 81.7041 48.196C81.9827 47.8953 82.1954 47.5507 82.3421 47.162C82.4961 46.766 82.5731 46.3443 82.5731 45.897C82.5731 45.4497 82.4961 45.0317 82.3421 44.643C82.1954 44.2543 81.9827 43.9133 81.7041 43.62C81.4327 43.3193 81.1101 43.0883 80.7361 42.927C80.3621 42.7583 79.9477 42.674 79.4931 42.674C79.0457 42.674 78.6351 42.7583 78.2611 42.927C77.8871 43.0883 77.5607 43.3193 77.2821 43.62C77.0107 43.9133 76.7981 44.2543 76.6441 44.643C76.4901 45.0317 76.4131 45.4497 76.4131 45.897C76.4131 46.3443 76.4901 46.766 76.6441 47.162C76.7981 47.5507 77.0107 47.8953 77.2821 48.196C77.5607 48.4893 77.8871 48.7203 78.2611 48.889C78.6351 49.0503 79.0457 49.131 79.4931 49.131ZM86.5264 50L84.2274 41.805H85.3604L87.2854 49.021H87.0214L89.0234 41.805H90.1564L92.1474 49.021H91.8724L93.8084 41.805H94.9414L92.6424 50H91.4434L89.4414 42.817H89.7274L87.7254 50H86.5264ZM95.9765 50V41.805H97.0545V49.01H100.651V50H95.9765ZM101.863 50V41.805H107.198V42.795H102.941V45.391H106.978V46.381H102.941V49.01H107.198V50H101.863ZM108.534 50V41.805H111.218C112.047 41.805 112.769 41.9737 113.385 42.311C114.001 42.6483 114.478 43.125 114.815 43.741C115.152 44.3497 115.321 45.0683 115.321 45.897C115.321 46.7183 115.152 47.437 114.815 48.053C114.478 48.669 114.001 49.1493 113.385 49.494C112.769 49.8313 112.047 50 111.218 50H108.534ZM109.612 49.01H111.229C111.838 49.01 112.362 48.8817 112.802 48.625C113.249 48.3683 113.594 48.009 113.836 47.547C114.078 47.0777 114.199 46.5277 114.199 45.897C114.199 45.259 114.074 44.709 113.825 44.247C113.583 43.785 113.238 43.4293 112.791 43.18C112.351 42.9233 111.83 42.795 111.229 42.795H109.612V49.01ZM120.471 50.132C119.892 50.132 119.357 50.0293 118.865 49.824C118.374 49.6113 117.949 49.3143 117.589 48.933C117.23 48.5517 116.948 48.1043 116.742 47.591C116.544 47.0777 116.445 46.5167 116.445 45.908C116.445 45.292 116.544 44.7273 116.742 44.214C116.94 43.7007 117.219 43.2533 117.578 42.872C117.938 42.4907 118.363 42.1973 118.854 41.992C119.346 41.7793 119.881 41.673 120.46 41.673C121.025 41.673 121.531 41.772 121.978 41.97C122.433 42.168 122.814 42.4247 123.122 42.74C123.438 43.0553 123.661 43.3927 123.793 43.752L122.825 44.225C122.635 43.7483 122.338 43.3707 121.934 43.092C121.531 42.8133 121.04 42.674 120.46 42.674C119.888 42.674 119.379 42.8097 118.931 43.081C118.491 43.3523 118.147 43.73 117.897 44.214C117.648 44.698 117.523 45.2627 117.523 45.908C117.523 46.546 117.648 47.107 117.897 47.591C118.154 48.075 118.502 48.4527 118.942 48.724C119.39 48.9953 119.899 49.131 120.471 49.131C120.97 49.131 121.421 49.0247 121.824 48.812C122.228 48.5993 122.547 48.306 122.781 47.932C123.016 47.558 123.133 47.1253 123.133 46.634V46.128L123.628 46.59H120.46V45.655H124.222V46.381C124.222 46.953 124.123 47.47 123.925 47.932C123.727 48.394 123.456 48.79 123.111 49.12C122.767 49.4427 122.367 49.692 121.912 49.868C121.458 50.044 120.977 50.132 120.471 50.132ZM125.679 50V41.805H131.014V42.795H126.757V45.391H130.794V46.381H126.757V49.01H131.014V50H125.679ZM136.152 50V41.805H137.23V50H136.152ZM141.869 50.132C141.348 50.132 140.871 50.0367 140.439 49.846C140.006 49.648 139.639 49.3803 139.339 49.043C139.038 48.7057 138.822 48.328 138.69 47.91L139.625 47.525C139.823 48.053 140.116 48.46 140.505 48.746C140.901 49.0247 141.363 49.164 141.891 49.164C142.213 49.164 142.496 49.1127 142.738 49.01C142.98 48.9073 143.167 48.7643 143.299 48.581C143.438 48.3903 143.508 48.1703 143.508 47.921C143.508 47.5763 143.409 47.305 143.211 47.107C143.02 46.9017 142.738 46.7477 142.364 46.645L140.857 46.183C140.263 45.9997 139.808 45.71 139.493 45.314C139.177 44.918 139.02 44.4633 139.02 43.95C139.02 43.5027 139.126 43.1103 139.339 42.773C139.559 42.4283 139.859 42.1607 140.241 41.97C140.629 41.772 141.069 41.673 141.561 41.673C142.052 41.673 142.496 41.761 142.892 41.937C143.295 42.113 143.636 42.3513 143.915 42.652C144.193 42.9453 144.399 43.2827 144.531 43.664L143.607 44.049C143.431 43.587 143.167 43.2387 142.815 43.004C142.463 42.762 142.048 42.641 141.572 42.641C141.278 42.641 141.018 42.6923 140.791 42.795C140.571 42.8903 140.398 43.0333 140.274 43.224C140.156 43.4073 140.098 43.6273 140.098 43.884C140.098 44.1847 140.193 44.4523 140.384 44.687C140.574 44.9217 140.864 45.1013 141.253 45.226L142.628 45.633C143.273 45.831 143.761 46.1133 144.091 46.48C144.421 46.8467 144.586 47.3013 144.586 47.844C144.586 48.2913 144.468 48.6873 144.234 49.032C144.006 49.3767 143.687 49.648 143.277 49.846C142.873 50.0367 142.404 50.132 141.869 50.132ZM149.967 50V41.805H152.86C153.402 41.805 153.879 41.9077 154.29 42.113C154.7 42.3183 155.019 42.6117 155.247 42.993C155.481 43.3743 155.599 43.8217 155.599 44.335C155.599 44.8483 155.481 45.2957 155.247 45.677C155.019 46.051 154.7 46.3443 154.29 46.557C153.886 46.7623 153.41 46.865 152.86 46.865H151.045V50H149.967ZM151.045 45.875H152.893C153.223 45.875 153.509 45.8127 153.751 45.688C153.993 45.5633 154.18 45.3837 154.312 45.149C154.444 44.9143 154.51 44.643 154.51 44.335C154.51 44.0197 154.444 43.7483 154.312 43.521C154.18 43.2863 153.993 43.1067 153.751 42.982C153.509 42.8573 153.223 42.795 152.893 42.795H151.045V45.875ZM160.973 50.132C160.393 50.132 159.851 50.0293 159.345 49.824C158.839 49.6113 158.395 49.3143 158.014 48.933C157.64 48.5517 157.346 48.1043 157.134 47.591C156.921 47.0703 156.815 46.5057 156.815 45.897C156.815 45.281 156.921 44.7163 157.134 44.203C157.346 43.6897 157.64 43.2423 158.014 42.861C158.395 42.4797 158.835 42.1863 159.334 41.981C159.84 41.7757 160.386 41.673 160.973 41.673C161.559 41.673 162.102 41.7793 162.601 41.992C163.107 42.1973 163.547 42.4907 163.921 42.872C164.302 43.246 164.599 43.6897 164.812 44.203C165.032 44.7163 165.142 45.281 165.142 45.897C165.142 46.5057 165.032 47.0703 164.812 47.591C164.599 48.1043 164.302 48.5517 163.921 48.933C163.547 49.3143 163.107 49.6113 162.601 49.824C162.102 50.0293 161.559 50.132 160.973 50.132ZM160.973 49.131C161.427 49.131 161.842 49.0503 162.216 48.889C162.59 48.7203 162.912 48.4893 163.184 48.196C163.462 47.8953 163.675 47.5507 163.822 47.162C163.976 46.766 164.053 46.3443 164.053 45.897C164.053 45.4497 163.976 45.0317 163.822 44.643C163.675 44.2543 163.462 43.9133 163.184 43.62C162.912 43.3193 162.59 43.0883 162.216 42.927C161.842 42.7583 161.427 42.674 160.973 42.674C160.525 42.674 160.115 42.7583 159.741 42.927C159.367 43.0883 159.04 43.3193 158.762 43.62C158.49 43.9133 158.278 44.2543 158.124 44.643C157.97 45.0317 157.893 45.4497 157.893 45.897C157.893 46.3443 157.97 46.766 158.124 47.162C158.278 47.5507 158.49 47.8953 158.762 48.196C159.04 48.4893 159.367 48.7203 159.741 48.889C160.115 49.0503 160.525 49.131 160.973 49.131ZM168.006 50L165.707 41.805H166.84L168.765 49.021H168.501L170.503 41.805H171.636L173.627 49.021H173.352L175.288 41.805H176.421L174.122 50H172.923L170.921 42.817H171.207L169.205 50H168.006ZM177.456 50V41.805H182.791V42.795H178.534V45.391H182.571V46.381H178.534V49.01H182.791V50H177.456ZM184.127 50V41.805H187.02C187.563 41.805 188.039 41.9077 188.45 42.113C188.861 42.3183 189.18 42.6117 189.407 42.993C189.642 43.3743 189.759 43.8217 189.759 44.335C189.759 44.9143 189.612 45.4057 189.319 45.809C189.026 46.2123 188.63 46.502 188.131 46.678L190.034 50H188.78L186.778 46.447L187.493 46.865H185.205V50H184.127ZM185.205 45.875H187.053C187.376 45.875 187.658 45.8127 187.9 45.688C188.142 45.5633 188.329 45.3837 188.461 45.149C188.6 44.9143 188.67 44.643 188.67 44.335C188.67 44.0197 188.6 43.7483 188.461 43.521C188.329 43.2863 188.142 43.1067 187.9 42.982C187.658 42.8573 187.376 42.795 187.053 42.795H185.205V45.875Z" fill="white"/>
</svg>
