<svg width="194" height="56" viewBox="0 0 194 56" fill="none" xmlns="http://www.w3.org/2000/svg">
<path fill-rule="evenodd" clip-rule="evenodd" d="M33.6658 41.0623C33.6658 41.0623 32.8643 39.6778 31.6255 39.1677C30.3867 38.6576 28.8564 39.8235 30.0223 41.0623C31.1153 42.3011 33.6658 41.0623 33.6658 41.0623ZM30.0952 34.8684C30.0952 34.8684 30.8967 36.2529 30.751 37.6374C30.6053 38.949 28.7836 39.6778 28.2735 38.0747C27.7634 36.4715 30.0952 34.8684 30.0952 34.8684ZM40.224 9.21837C40.224 9.21837 41.5356 8.41681 42.7744 8.48968C44.0132 8.56255 44.7419 10.2386 43.2846 10.8216C41.8272 11.4045 40.224 9.21837 40.224 9.21837ZM45.835 5.7207C45.835 5.7207 44.5962 6.52223 44.0861 7.68814C43.6489 8.85405 44.8148 10.2386 45.9078 9.14552C47.1466 8.05248 45.835 5.7207 45.835 5.7207ZM41.6814 12.4246C41.6814 12.4246 43.1388 11.9146 44.3048 12.2061C45.5435 12.4976 45.9079 14.3193 44.3776 14.5379C42.8473 14.9022 41.6814 12.4246 41.6814 12.4246ZM47.8753 10.02C47.8753 10.02 46.4908 10.6029 45.7621 11.6231C45.1063 12.7161 45.9807 14.2464 47.2924 13.372C48.6769 12.5704 47.8753 10.02 47.8753 10.02ZM42.4101 16.0681C42.4101 16.0681 43.9404 15.7038 45.1063 16.2139C46.2722 16.724 46.4179 18.5457 44.8148 18.6185C43.2117 18.6185 42.4101 16.0681 42.4101 16.0681ZM48.9683 14.465C48.9683 14.465 47.511 14.8293 46.6365 15.7766C45.835 16.7239 46.4908 18.4728 47.9482 17.7441C49.4056 17.1612 48.9683 14.465 48.9683 14.465ZM42.483 19.5659C42.483 19.5659 44.0133 19.493 45.1063 20.2217C46.1993 20.9504 45.9807 22.7721 44.3776 22.5535C42.7745 22.262 42.483 19.5659 42.483 19.5659ZM49.2598 19.2015C49.2598 19.2015 47.7296 19.2743 46.7094 20.0759C45.6892 20.8775 46.0536 22.6992 47.6567 22.262C49.187 21.8976 49.2598 19.2015 49.2598 19.2015ZM41.8272 22.9907C41.8272 22.9907 43.3575 23.2093 44.3048 24.0837C45.2521 24.9581 44.742 26.7799 43.2117 26.1969C41.6815 25.6869 41.8272 22.9907 41.8272 22.9907ZM48.604 23.8652C48.604 23.8652 47.0737 23.6465 45.9078 24.3024C44.8148 24.9582 44.8148 26.7799 46.4179 26.6341C48.0939 26.5613 48.604 23.8652 48.604 23.8652ZM40.6613 26.1241C40.6613 26.1241 42.1187 26.707 42.8474 27.8C43.5761 28.8931 42.6287 30.4962 41.2442 29.6218C39.8597 28.7473 40.6613 26.1241 40.6613 26.1241ZM47.0737 28.5287C47.0737 28.5287 45.6164 28.0187 44.3776 28.3102C43.1388 28.6745 42.7016 30.4962 44.3776 30.7148C45.9807 31.0063 47.0737 28.5287 47.0737 28.5287ZM38.7666 29.0389C38.7666 29.0389 40.1511 29.8404 40.5883 31.0791C41.0984 32.3179 39.9325 33.7754 38.6938 32.6095C37.5279 31.5164 38.7666 29.0389 38.7666 29.0389ZM44.6691 32.6095C44.6691 32.6095 43.2845 31.8079 41.9729 31.9536C40.6612 32.0994 39.9326 33.8482 41.5357 34.3583C43.1388 34.8683 44.6691 32.6095 44.6691 32.6095ZM36.362 31.5893C36.362 31.5893 37.5279 32.6823 37.8194 33.9211C38.1108 35.2327 36.6535 36.4715 35.6333 35.087C34.6131 33.7753 36.362 31.5893 36.362 31.5893ZM41.5357 36.18C41.5357 36.18 40.2969 35.1598 38.9853 35.0141C37.6736 34.8684 36.6535 36.4715 38.1109 37.346C39.5682 38.1475 41.5357 36.18 41.5357 36.18ZM33.4472 33.5567C33.4472 33.5567 34.3945 34.8683 34.4674 36.18C34.5403 37.4916 32.8642 38.439 32.0627 36.9816C31.4069 35.3785 33.4472 33.5567 33.4472 33.5567ZM37.8194 39.0948C37.8194 39.0948 36.7992 37.856 35.5604 37.4917C34.2488 37.1273 32.9371 38.5119 34.2488 39.6049C35.4875 40.6251 37.8194 39.0948 37.8194 39.0948Z" fill="#D3224D"/>
<path fill-rule="evenodd" clip-rule="evenodd" d="M15.594 41.0623C15.594 41.0623 16.3955 39.6778 17.6343 39.1677C18.8731 38.6576 20.4034 39.8235 19.2375 41.0623C18.1445 42.3011 15.594 41.0623 15.594 41.0623ZM19.1646 34.8684C19.1646 34.8684 18.3631 36.2529 18.5088 37.6374C18.6545 38.949 20.4763 39.6778 20.9864 38.0747C21.4965 36.4715 19.1646 34.8684 19.1646 34.8684ZM8.96295 9.21837C8.96295 9.21837 7.65131 8.41681 6.41253 8.48968C5.17375 8.56255 4.44501 10.2386 5.90239 10.8216C7.43265 11.4045 8.96295 9.21837 8.96295 9.21837ZM3.35197 5.7207C3.35197 5.7207 4.59076 6.52223 5.10085 7.68814C5.53806 8.85405 4.37216 10.2386 3.27912 9.14552C2.11321 8.05248 3.35197 5.7207 3.35197 5.7207ZM7.57842 12.4246C7.57842 12.4246 6.12105 11.9146 4.95515 12.2061C3.71637 12.4976 3.35195 14.3193 4.88221 14.5379C6.41246 14.9022 7.57842 12.4246 7.57842 12.4246ZM1.31168 10.02C1.31168 10.02 2.69613 10.6029 3.42482 11.6231C4.08064 12.7161 3.20623 14.2464 1.89458 13.372C0.510067 12.5704 1.31168 10.02 1.31168 10.02ZM6.77688 16.0681C6.77688 16.0681 5.24657 15.7038 4.08066 16.2139C2.91475 16.724 2.76903 18.5457 4.37216 18.6185C6.04815 18.6185 6.77688 16.0681 6.77688 16.0681ZM0.291495 14.465C0.291495 14.465 1.74884 14.8293 2.62328 15.7766C3.42484 16.7239 2.76907 18.4728 1.31168 17.7441C-0.145703 17.1612 0.291495 14.465 0.291495 14.465ZM6.77688 19.5659C6.77688 19.5659 5.24655 19.493 4.15351 20.2217C3.06047 20.9504 3.27908 22.7721 4.88221 22.5535C6.41246 22.262 6.77688 19.5659 6.77688 19.5659ZM0 19.2015C0 19.2015 1.53025 19.2743 2.55042 20.0759C3.57059 20.8775 3.20621 22.6992 1.60309 22.262C0.0728337 21.8976 0 19.2015 0 19.2015ZM7.35978 22.9907C7.35978 22.9907 5.8295 23.2093 4.88221 24.0837C3.9349 24.9581 4.44499 26.7799 5.97524 26.1969C7.57837 25.6869 7.35978 22.9907 7.35978 22.9907ZM0.655841 23.8652C0.655841 23.8652 2.18606 23.6465 3.35197 24.3024C4.44501 24.9582 4.44504 26.7799 2.84192 26.6341C1.16593 26.5613 0.655841 23.8652 0.655841 23.8652ZM8.59861 26.1241C8.59861 26.1241 7.14122 26.707 6.41253 27.8C5.68384 28.8931 6.6311 30.4962 8.01562 29.6218C9.40013 28.7473 8.59861 26.1241 8.59861 26.1241ZM2.18608 28.5287C2.18608 28.5287 3.64343 28.0187 4.88221 28.3102C6.12098 28.6745 6.5582 30.4962 4.88221 30.7148C3.27908 31.0063 2.18608 28.5287 2.18608 28.5287ZM10.4932 29.0389C10.4932 29.0389 9.10868 29.8404 8.67146 31.0791C8.16138 32.3179 9.32726 33.7754 10.566 32.6095C11.732 31.5164 10.4932 29.0389 10.4932 29.0389ZM4.51786 32.6095C4.51786 32.6095 5.90243 31.8079 7.21407 31.9536C8.52572 32.0994 9.2544 33.8482 7.65127 34.3583C6.12102 34.8683 4.51786 32.6095 4.51786 32.6095ZM12.8978 31.5893C12.8978 31.5893 11.7319 32.6823 11.4404 33.9211C11.149 35.2327 12.6063 36.4715 13.6265 35.087C14.6467 33.7753 12.8978 31.5893 12.8978 31.5893ZM7.65127 36.18C7.65127 36.18 8.89005 35.1598 10.2017 35.0141C11.5133 34.8684 12.5335 36.4715 11.0761 37.346C9.61871 38.1475 7.65127 36.18 7.65127 36.18ZM15.7397 33.5567C15.7397 33.5567 14.7924 34.8683 14.7196 36.18C14.6467 37.4916 16.3227 38.439 17.1243 36.9816C17.853 35.3785 15.7397 33.5567 15.7397 33.5567ZM11.4404 39.0948C11.4404 39.0948 12.4607 37.856 13.6995 37.4917C15.0111 37.1273 16.3227 38.5119 15.011 39.6049C13.7723 40.6251 11.4404 39.0948 11.4404 39.0948Z" fill="#D3224D"/>
<path d="M24.6301 35.3053C33.2287 31.0789 37.0179 20.6586 37.8194 12.3515C33.7387 10.4569 29.2937 9.29102 24.6301 9.29102C19.9665 9.29102 15.5214 10.4569 11.4407 12.3515C12.2423 20.6586 15.9587 31.0789 24.6301 35.3053Z" stroke="#D3224D" stroke-width="2.9999" stroke-miterlimit="22.9256"/>
<path fill-rule="evenodd" clip-rule="evenodd" d="M47.8749 55.9999C44.3772 54.6882 40.4423 53.8867 36.2887 53.5223V51.8463C37.7461 52.2106 39.1306 52.6479 40.4423 53.0851L41.8996 53.5952V51.9921V47.7656C44.0128 48.13 45.9803 48.713 47.802 49.3688L43.357 51.0447L47.8749 55.9999Z" fill="#D3224D"/>
<path fill-rule="evenodd" clip-rule="evenodd" d="M1.31145 55.9999C4.80917 54.6882 8.74404 53.8867 12.8976 53.5223V51.8463C11.4402 52.2106 10.0557 52.6479 8.74407 53.0851L7.28669 53.5952V51.9921V47.7656C5.17348 48.13 3.20603 48.713 1.3843 49.3688L5.8293 51.0447L1.31145 55.9999Z" fill="#D3224D"/>
<path fill-rule="evenodd" clip-rule="evenodd" d="M8.3799 45.5072V52.0654C17.9258 48.4948 31.3337 48.4948 40.9524 52.0654V45.5072C31.5523 42.1552 17.7072 42.1552 8.3799 45.5072Z" fill="#D3224D"/>
<path d="M10.3472 46.5267L11.003 46.3809C11.0759 46.3809 11.1488 46.3081 11.2217 46.3081C11.3674 46.2352 11.4403 46.2352 11.5132 46.2352C11.586 46.2352 11.6589 46.2352 11.6589 46.2352C11.6589 46.3081 11.6589 46.3081 11.586 46.3081C11.5132 46.3081 11.4402 46.381 11.3674 46.4539C11.3674 46.5267 11.3674 46.6724 11.3674 46.891C11.4402 47.1097 11.4403 47.3283 11.5132 47.5469C11.586 47.9112 11.7317 48.2027 11.8046 48.3484C11.8774 48.4942 11.9503 48.5671 12.0961 48.6399C12.2418 48.7128 12.3876 48.7128 12.6062 48.6399C12.8248 48.5671 12.9705 48.4942 13.0434 48.4213C13.1163 48.2755 13.1891 48.1298 13.1163 47.9841C13.1163 47.7655 13.0434 47.4011 12.8976 46.891C12.8247 46.5996 12.7519 46.3809 12.6791 46.3081C12.6062 46.2352 12.5333 46.1624 12.3876 46.1624C12.3147 46.1624 12.2419 46.1624 12.2419 46.0895C12.2419 46.0166 12.2418 46.0166 12.3147 46.0166C12.3147 46.0166 12.3875 46.0166 12.4604 46.0166C12.5333 46.0166 12.6062 46.0166 12.6791 45.9437C12.7519 45.9437 12.8248 45.8709 12.9706 45.8709C13.0434 45.8709 13.1163 45.798 13.1163 45.798C13.1891 45.798 13.1891 45.798 13.262 45.798C13.262 45.798 13.262 45.8709 13.1891 45.8709C13.1162 45.8709 13.0434 45.9437 13.0434 46.0166C12.9705 46.0894 12.9705 46.1623 13.0434 46.3081C13.0434 46.4538 13.1162 46.8182 13.262 47.3282C13.3348 47.6926 13.4078 47.9841 13.3349 48.1298C13.3349 48.2755 13.1891 48.4941 13.0434 48.567C12.8977 48.7127 12.679 48.7856 12.3876 48.8585C12.169 48.9314 12.0232 48.9313 11.8046 48.9313C11.6588 48.9313 11.5131 48.9314 11.3674 48.8585C11.2945 48.7856 11.1488 48.7128 11.0759 48.6399C11.003 48.5671 10.9302 48.4212 10.9302 48.2026L10.6387 47.1096C10.5658 46.9639 10.5659 46.8181 10.493 46.7453C10.4201 46.6724 10.4201 46.5996 10.3472 46.5996C10.2743 46.5996 10.2744 46.5996 10.1286 46.5996C10.0558 46.5996 10.0558 46.5996 10.0558 46.5996C10.0558 46.5996 10.0558 46.5996 10.0558 46.5267C10.2744 46.5267 10.3472 46.5267 10.3472 46.5267ZM14.5008 45.5794C15.3024 46.2352 15.9581 46.7453 16.5411 47.1096C16.5411 47.0367 16.5411 46.9639 16.5411 46.891L16.3954 46.0895C16.3225 45.8709 16.3225 45.7251 16.2497 45.6522C16.1768 45.5793 16.1767 45.5065 16.1039 45.5065C16.031 45.5065 15.9581 45.4337 15.8124 45.4337C15.7395 45.4337 15.7395 45.4337 15.7395 45.3608C15.7395 45.2879 15.7395 45.2879 15.8124 45.2879H15.8853C15.9582 45.2879 16.1039 45.2879 16.2497 45.215C16.4683 45.215 16.614 45.1422 16.6869 45.1422C16.7597 45.1422 16.7597 45.1422 16.7597 45.1422C16.8326 45.1422 16.8326 45.1422 16.8326 45.215C16.8326 45.2879 16.8326 45.2879 16.7597 45.2879C16.6869 45.2879 16.6139 45.3608 16.5411 45.4337C16.4682 45.5065 16.4682 45.6523 16.4682 45.8709L16.6869 47.0368L16.8326 47.9112C16.8326 47.9841 16.8326 48.0569 16.7597 48.0569C16.7597 48.0569 16.7597 48.0569 16.6869 48.0569C16.6869 48.0569 16.5411 47.984 16.3225 47.8383C16.1039 47.6926 15.8124 47.4739 15.3752 47.1096C14.938 46.8181 14.6465 46.5266 14.5008 46.3809C14.5008 46.4538 14.5736 46.7453 14.7193 47.4011C14.7922 47.6197 14.7923 47.7655 14.8651 47.9112C14.938 48.057 15.0108 48.1298 15.0837 48.1298C15.1566 48.1298 15.3023 48.2027 15.3752 48.1298C15.4481 48.1298 15.448 48.1298 15.448 48.2026C15.448 48.2755 15.4481 48.2756 15.3752 48.2756C15.3752 48.2756 15.3024 48.2756 15.2295 48.2756C15.1566 48.2756 15.0109 48.2756 14.938 48.3484C14.7194 48.4213 14.5737 48.4213 14.5008 48.4213C14.4279 48.4213 14.4279 48.4213 14.355 48.4213C14.2821 48.4213 14.2821 48.4213 14.2821 48.3484C14.2821 48.3484 14.2822 48.2756 14.4279 48.2756C14.5737 48.2027 14.6465 48.1298 14.7193 48.0569C14.7193 47.9841 14.7193 47.8383 14.7193 47.6197C14.5736 46.891 14.5008 46.4538 14.4279 46.3081C14.3551 46.1623 14.2822 46.0166 14.2093 45.8709C14.0636 45.7251 13.9907 45.7252 13.845 45.7252C13.7721 45.7252 13.7721 45.7251 13.7721 45.6522C13.7721 45.5793 13.7721 45.5794 13.845 45.5794C13.845 45.5794 13.8449 45.5794 13.9178 45.5794C13.9178 45.5794 13.9907 45.5794 14.0636 45.5794C14.2093 45.5794 14.3551 45.5794 14.5008 45.5794ZM17.3427 45.0693C17.4156 45.0693 17.4884 45.0693 17.6341 45.0693C17.7799 45.0693 17.8527 45.0693 17.9256 45.0693L18.5815 44.9965C18.6543 44.9965 18.6543 44.9964 18.6543 45.0693C18.6543 45.0693 18.6543 45.1422 18.5815 45.1422C18.4357 45.1422 18.3628 45.215 18.3628 45.215C18.3628 45.215 18.29 45.2879 18.29 45.4337C18.29 45.5794 18.2899 45.798 18.3628 46.1624C18.4357 46.5996 18.4357 46.9639 18.5086 47.1825C18.5815 47.4012 18.5814 47.5469 18.6543 47.6197C18.7272 47.6926 18.8001 47.6926 18.8729 47.6926C18.9458 47.6926 18.9458 47.6926 19.0186 47.7654C19.0186 47.8383 19.0187 47.8383 18.9458 47.8383H18.8729C18.5815 47.8383 18.4357 47.8384 18.29 47.9112C18.0713 47.9112 17.9256 47.9841 17.8528 47.9841C17.7799 47.9841 17.7799 47.9841 17.7071 47.9841C17.6342 47.9841 17.6341 47.9841 17.6341 47.9112C17.6341 47.9112 17.6342 47.8383 17.7071 47.8383C17.8528 47.8383 17.9256 47.7655 17.9256 47.6926C17.9256 47.6197 17.9985 47.474 17.9256 47.3282C17.9256 47.1096 17.8528 46.8181 17.8528 46.3809C17.7799 45.9437 17.7799 45.6523 17.7071 45.5065C17.7071 45.3608 17.6341 45.2879 17.5613 45.215C17.4884 45.215 17.4156 45.1422 17.3427 45.1422C17.2698 45.1422 17.2698 45.1422 17.3427 45.0693C17.2698 45.0693 17.2698 45.0693 17.3427 45.0693ZM20.6947 47.6197H20.5489L20.1117 46.5996C19.966 46.3809 19.8202 46.0166 19.6745 45.6522C19.5288 45.2879 19.383 45.0693 19.3101 44.9965C19.2373 44.9236 19.2373 44.9235 19.1644 44.8507C19.1644 44.8507 19.0915 44.8507 19.0186 44.8507C18.9458 44.8507 18.9458 44.8507 18.9458 44.7778C18.9458 44.705 18.9458 44.705 19.0186 44.705H19.6016C19.8202 44.705 19.9659 44.705 20.1845 44.6321C20.2574 44.6321 20.2575 44.6321 20.2575 44.6321C20.3303 44.6321 20.3303 44.6321 20.3303 44.705C20.3303 44.705 20.3303 44.7778 20.2575 44.7778C20.1117 44.7778 20.0388 44.9236 20.0388 44.9965C20.0388 45.2151 20.2575 45.798 20.6947 46.7453C20.7675 46.4538 20.9133 46.0895 20.9862 45.798L21.1319 45.215C21.1319 45.1422 21.1319 45.0693 21.1319 44.9965C21.1319 44.9236 21.1319 44.8507 21.059 44.8507C20.9862 44.7778 20.9861 44.7778 20.9132 44.7778C20.8404 44.7778 20.8404 44.7778 20.8404 44.705C20.8404 44.6321 20.8404 44.6321 20.9132 44.6321C20.9861 44.6321 20.9862 44.6321 21.059 44.6321C21.2048 44.6321 21.2776 44.6321 21.3505 44.6321C21.4234 44.6321 21.5691 44.6321 21.6419 44.6321C21.7148 44.6321 21.7148 44.6321 21.7877 44.6321C21.8606 44.6321 21.8606 44.6321 21.8606 44.705C21.8606 44.705 21.8606 44.7778 21.7877 44.7778C21.7148 44.7778 21.6419 44.8507 21.5691 44.8507C21.4962 44.9235 21.4962 44.9964 21.4234 45.0693C21.3505 45.1422 21.2776 45.3608 21.2047 45.7252L20.9132 46.7453C20.8404 47.1096 20.6947 47.474 20.6947 47.6197ZM24.5567 44.6321C24.6296 44.8507 24.6296 45.0693 24.7025 45.2879C24.7025 45.3607 24.7025 45.3608 24.6296 45.3608C24.6296 45.3608 24.5567 45.3607 24.5567 45.2879C24.411 45.0693 24.2652 44.9235 24.1195 44.8507C23.9738 44.7778 23.8281 44.7778 23.6094 44.7778C23.4637 44.7778 23.3908 44.7778 23.2451 44.7778C23.2451 44.9964 23.2451 45.2879 23.2451 45.5794C23.2451 45.6522 23.2451 45.7251 23.2451 45.8709H23.3908C23.4637 45.8709 23.6094 45.8709 23.6823 45.798C23.7552 45.798 23.8281 45.7251 23.9009 45.6522C23.9738 45.5793 23.9738 45.5065 23.9738 45.5065C23.9738 45.4336 23.9738 45.4337 24.0466 45.4337C24.1195 45.4337 24.1195 45.4336 24.1195 45.5065C24.1195 45.5794 24.1195 45.8708 24.1195 46.3081C24.1195 46.3809 24.1195 46.4539 24.1195 46.4539C24.1195 46.5267 24.1195 46.5267 24.0466 46.5267C24.0466 46.5267 23.9738 46.4538 23.9738 46.3809C23.9738 46.2352 23.9009 46.1624 23.7551 46.0895C23.6823 46.0166 23.4637 46.0166 23.2451 46.0166C23.2451 46.2352 23.2451 46.381 23.2451 46.4539C23.2451 46.7453 23.2451 46.9639 23.2451 47.0368C23.2451 47.1096 23.3179 47.1825 23.3908 47.1825C23.4637 47.2554 23.5366 47.2554 23.6823 47.2554C24.1924 47.2554 24.5567 47.1096 24.7753 46.7453C24.7753 46.6724 24.8482 46.6724 24.8482 46.6724C24.9211 46.6724 24.921 46.6724 24.921 46.7453V46.8182L24.7753 47.4011H23.9738C23.7552 47.4011 23.5365 47.4011 23.3908 47.4011C23.1722 47.4011 23.0265 47.4011 22.9536 47.4011C22.8079 47.4011 22.6622 47.4011 22.4436 47.4011H22.3706C22.2977 47.4011 22.2978 47.4011 22.2978 47.3282C22.2978 47.2554 22.2977 47.2554 22.3706 47.2554C22.5164 47.2554 22.5892 47.1825 22.6621 47.1096C22.735 47.0367 22.735 46.891 22.735 46.6724V45.5794C22.735 45.215 22.735 44.9964 22.735 44.9235C22.735 44.8507 22.735 44.7778 22.6621 44.7778C22.5892 44.7778 22.5164 44.705 22.4436 44.705C22.3707 44.705 22.3706 44.705 22.3706 44.6321C22.3706 44.5593 22.3707 44.5592 22.4436 44.5592H22.9536L24.5567 44.6321ZM26.7428 46.0166C26.9614 46.0166 27.1072 46.0895 27.1801 46.2352C27.3258 46.3081 27.3986 46.5266 27.4715 46.7453C27.5443 46.9639 27.5444 47.1825 27.6173 47.2554C27.6901 47.3283 27.763 47.4011 27.9088 47.4011C27.9816 47.4011 27.9816 47.4011 27.9816 47.4739C27.9816 47.5468 27.9087 47.5469 27.8358 47.5469L27.0343 47.4739C26.9614 47.4011 26.8886 47.2554 26.8886 47.0368C26.8886 46.7453 26.8157 46.5267 26.8157 46.4539C26.7428 46.3081 26.7428 46.2352 26.6699 46.1624C26.597 46.0895 26.5242 46.0895 26.3784 46.0895C26.3784 46.0895 26.3056 46.0895 26.2327 46.0895C26.2327 46.5996 26.1599 46.891 26.1599 47.0368C26.1599 47.1825 26.1599 47.2554 26.2327 47.2554C26.3056 47.3283 26.3785 47.3282 26.4514 47.3282C26.5242 47.3282 26.5242 47.3282 26.5242 47.4011C26.5242 47.474 26.5242 47.4739 26.4514 47.4739L25.7955 47.4011C25.7227 47.4011 25.5769 47.4011 25.4312 47.4011C25.2854 47.4011 25.2125 47.4011 25.2125 47.4011C25.1397 47.4011 25.1397 47.4011 25.1397 47.3282C25.1397 47.2554 25.1397 47.2554 25.2125 47.2554C25.2854 47.2554 25.3583 47.2554 25.4312 47.1825C25.504 47.1097 25.5769 46.9639 25.5769 46.6724V46.3081L25.6497 45.5065C25.6497 45.1422 25.6497 44.8507 25.6497 44.7778C25.6497 44.705 25.5041 44.6321 25.3583 44.6321C25.2855 44.6321 25.2854 44.632 25.2854 44.5592C25.2854 44.4863 25.3583 44.4863 25.4312 44.4863C25.8684 44.4863 26.1599 44.4863 26.4514 44.4863C26.5971 44.4863 26.67 44.4863 26.8157 44.4863C27.1072 44.4863 27.3987 44.5592 27.5444 44.705C27.6901 44.8507 27.8358 44.9964 27.763 45.215C27.763 45.3608 27.6901 45.5065 27.6173 45.5794C27.5444 45.6522 27.3986 45.798 27.2529 45.798C27.0343 46.0166 26.8885 46.0166 26.7428 46.0166ZM26.1599 45.9437C26.2327 45.9437 26.2327 45.9437 26.2327 45.9437C26.3785 45.9437 26.4513 45.9437 26.5971 45.8709C26.7428 45.798 26.8157 45.7251 26.8886 45.6522C26.9614 45.5793 26.9614 45.4337 26.9614 45.3608C26.9614 45.2151 26.8886 45.0693 26.8157 44.9235C26.7428 44.8507 26.597 44.7778 26.3784 44.7778C26.3056 44.7778 26.2327 44.7778 26.1599 44.7778V45.9437ZM30.0948 45.0693L30.1677 44.9965C30.1677 44.9236 30.2405 44.9235 30.2405 44.9235C30.3134 44.9235 30.3134 44.9965 30.3134 44.9965V45.5794V45.6522C30.3134 45.7251 30.3134 45.7252 30.2405 45.7252H30.1677C30.1677 45.7252 30.1677 45.6522 30.0948 45.5794C30.022 45.4336 29.9491 45.2879 29.8033 45.215C29.6576 45.0693 29.5119 44.9965 29.3661 44.9965C29.2204 44.9965 29.0747 44.9964 29.0018 45.0693C28.9289 45.1422 28.856 45.2151 28.856 45.3608C28.856 45.4337 28.856 45.5793 28.9288 45.6522C29.0017 45.7251 29.1475 45.798 29.3661 45.9437C29.7305 46.0895 29.9491 46.2352 30.0948 46.4539C30.2406 46.5996 30.2405 46.8181 30.2405 47.0368C30.2405 47.2554 30.1676 47.4012 30.0219 47.5469C29.8761 47.6926 29.8033 47.7654 29.6575 47.8383C29.5118 47.9112 29.3661 47.9112 29.1475 47.9112C29.0018 47.9112 28.9289 47.8383 28.7831 47.8383C28.6374 47.7654 28.5645 47.6926 28.4188 47.6197C28.4188 47.6197 28.3459 47.6926 28.3459 47.7654C28.3459 47.8383 28.2731 47.8383 28.2731 47.8383C28.2731 47.8383 28.2002 47.7655 28.2002 47.6926V46.891V46.8182C28.2002 46.7453 28.2002 46.7453 28.2731 46.7453C28.2731 46.7453 28.3459 46.8182 28.3459 46.891C28.4188 47.1097 28.4917 47.3282 28.6374 47.4739C28.7832 47.6197 28.9289 47.6926 29.1475 47.7654C29.2932 47.7654 29.439 47.7655 29.5847 47.6926C29.7304 47.6197 29.7305 47.474 29.8033 47.4011C29.8033 47.2554 29.8034 47.1825 29.7305 47.0368C29.6576 46.9639 29.5118 46.8181 29.2203 46.7453C29.0017 46.6724 28.856 46.5267 28.7103 46.4539C28.6374 46.381 28.4917 46.2352 28.4917 46.1624C28.4188 46.0166 28.4188 45.8709 28.4188 45.798C28.4188 45.5794 28.5646 45.3607 28.7103 45.2879C28.9289 45.1421 29.1475 45.0693 29.439 45.1422C29.6576 44.8507 29.8762 44.9236 30.0948 45.0693ZM31.0421 45.0693C31.1149 45.0693 31.1878 45.0693 31.3336 45.1422C31.4793 45.1422 31.5522 45.215 31.6251 45.215L32.2809 45.2879C32.3538 45.2879 32.3538 45.2879 32.3538 45.3608C32.3538 45.3608 32.3538 45.4337 32.2809 45.4337C32.1352 45.4337 32.0623 45.4337 32.0623 45.4337C31.9894 45.4337 31.9894 45.5065 31.9166 45.6522C31.8437 45.7251 31.8436 46.0166 31.7708 46.3809C31.6979 46.8181 31.6251 47.1825 31.6251 47.4011C31.6251 47.6197 31.6251 47.7654 31.6251 47.8383C31.6251 47.9112 31.6979 47.9112 31.8436 47.9841C31.9165 47.9841 31.9166 47.9841 31.9166 48.0569C31.9166 48.1298 31.8436 48.1298 31.7708 48.1298H31.6979C31.4064 48.0569 31.2607 48.057 31.1879 47.9841C30.9693 47.9841 30.8235 47.9112 30.6777 47.9112C30.6049 47.9112 30.6049 47.9112 30.532 47.9112C30.4592 47.9112 30.4592 47.9112 30.4592 47.8383C30.4592 47.8383 30.4592 47.7654 30.532 47.7654C30.6778 47.7654 30.7507 47.7655 30.8235 47.6926C30.8964 47.6197 30.8964 47.5469 30.9692 47.3282C31.0421 47.1096 31.0421 46.8182 31.1149 46.4539C31.1878 46.0166 31.1879 45.7251 31.1879 45.5794C31.1879 45.4336 31.1879 45.3607 31.1879 45.2879C31.1879 45.215 31.115 45.215 30.9692 45.215C30.8964 45.215 30.8964 45.1422 30.8964 45.1422C30.9692 45.0693 31.0421 45.0693 31.0421 45.0693ZM32.791 45.2879C33.5196 45.4336 34.0297 45.5793 34.394 45.6522C34.6855 45.7251 34.977 45.7251 35.2685 45.798C35.4143 45.798 35.4872 45.798 35.56 45.8709C35.56 45.8709 35.6329 45.8709 35.7057 45.8709C35.7057 45.9437 35.7057 46.0166 35.7057 46.2352V46.5996C35.7057 46.6724 35.6329 46.6724 35.6329 46.6724C35.6329 46.6724 35.56 46.5996 35.56 46.5267C35.56 46.381 35.4871 46.3081 35.4142 46.1624C35.3414 46.0895 35.2685 46.0166 35.1227 45.9437C35.0499 45.8708 34.8313 45.8709 34.6127 45.798C34.5398 46.0166 34.4669 46.3081 34.394 46.5996C34.3212 46.9639 34.2483 47.2554 34.2483 47.5469C34.1755 47.8384 34.1755 48.0569 34.1755 48.1298C34.1755 48.2027 34.1755 48.2756 34.2483 48.2756C34.3212 48.3485 34.3941 48.3484 34.5398 48.4213C34.6127 48.4213 34.6127 48.4941 34.6127 48.4941C34.6127 48.567 34.6127 48.567 34.5398 48.567H34.467L34.0297 48.4941C33.6653 48.4213 33.5197 48.4213 33.4468 48.3484L33.1553 48.2756C33.1553 48.2756 33.0825 48.2756 33.0096 48.2756C33.0096 48.2756 32.9367 48.2755 32.9367 48.2026C32.9367 48.1298 33.0096 48.1298 33.0096 48.1298C33.1553 48.1298 33.2281 48.1298 33.301 48.1298C33.3739 48.0569 33.4468 47.9841 33.4468 47.9112C33.5197 47.7655 33.5196 47.5469 33.5925 47.1825C33.7382 46.5996 33.8111 46.0895 33.8111 45.7252C33.5925 45.6523 33.4467 45.6522 33.301 45.6522C33.2281 45.6522 33.0825 45.6523 33.0096 45.7252C32.8639 45.798 32.791 45.8708 32.7181 46.0166C32.7181 46.0894 32.6453 46.0895 32.6453 46.0895C32.5724 46.0895 32.5723 46.0894 32.5723 46.0166C32.5723 46.0166 32.5724 45.9438 32.6453 45.7252C32.7181 45.5066 32.791 45.3607 32.791 45.2879ZM37.3818 47.5469C37.8918 47.1097 38.1833 46.891 38.1833 46.7453V46.6724C38.1833 46.5995 38.1104 46.5996 38.0375 46.5267C37.9646 46.5267 37.9647 46.4539 37.9647 46.4539C37.9647 46.381 38.0375 46.3809 38.0375 46.3809C38.0375 46.3809 38.0376 46.3809 38.1104 46.3809C38.2562 46.4538 38.4019 46.4538 38.4748 46.5267C38.5477 46.5267 38.6934 46.5996 38.8391 46.5996H38.912C38.9849 46.5996 38.9848 46.5995 38.9848 46.6724C38.9848 46.6724 38.9849 46.7453 38.912 46.7453C38.8391 46.7453 38.6934 46.7453 38.6205 46.7453C38.5476 46.7453 38.4019 46.8182 38.2561 46.9639C38.1104 47.1096 37.9647 47.2554 37.7461 47.4011C37.5275 47.5468 37.4546 47.6926 37.4546 47.6926C37.4546 47.7655 37.3817 47.9112 37.3088 48.1298C37.2359 48.4941 37.1631 48.7856 37.1631 48.8585C37.1631 48.9314 37.236 49.0043 37.3818 49.0771C37.4546 49.0771 37.4546 49.15 37.4546 49.15C37.4546 49.2228 37.3818 49.2228 37.3818 49.2228C37.3089 49.2228 37.236 49.15 37.0174 49.15C36.9445 49.15 36.8716 49.0771 36.7988 49.0771C36.653 49.0043 36.5073 49.0043 36.2887 49.0043C36.2158 49.0043 36.2158 49.0043 36.2158 49.0043C36.1429 49.0043 36.1429 48.9313 36.1429 48.9313C36.1429 48.9313 36.1429 48.8585 36.2158 48.8585C36.3615 48.8585 36.4344 48.8585 36.5073 48.7856C36.5801 48.7128 36.6531 48.5671 36.6531 48.2756C36.7259 48.057 36.7259 47.9112 36.7259 47.8383C36.7259 47.7654 36.653 47.6197 36.5801 47.3282C36.5072 47.1096 36.4344 46.891 36.3616 46.6724C36.2887 46.4538 36.2158 46.3081 36.1429 46.2352C36.0701 46.1623 35.9972 46.0895 35.9244 46.0895C35.8515 46.0895 35.8514 46.0166 35.8514 46.0166C35.8514 45.9437 35.9244 45.9437 35.9244 45.9437H35.9972C36.2158 46.0166 36.3615 46.0895 36.4344 46.0895C36.5802 46.1624 36.7987 46.1623 36.9445 46.2352C37.0173 46.2352 37.0174 46.2352 37.0174 46.2352C37.0903 46.2352 37.0903 46.2352 37.0903 46.3081L37.0174 46.3809C36.8717 46.3809 36.7988 46.381 36.7988 46.4539C37.0174 46.5267 37.0903 46.8911 37.3818 47.5469Z" fill="white"/>
<path fill-rule="evenodd" clip-rule="evenodd" d="M24.566 0L25.3641 2.40951H28L25.8719 3.9067L26.6941 6.33962L24.566 4.81905L22.438 6.33962L23.2602 3.9067L21.1321 2.40951H23.7438L24.566 0Z" fill="#D3224D"/>
<path fill-rule="evenodd" clip-rule="evenodd" d="M31.4463 2.11328L31.9883 3.72115H33.8113L32.3332 4.70886L32.8998 6.3397L31.4463 5.32903L29.9681 6.3397L30.5348 4.70886L29.0566 3.72115H30.8796L31.4463 2.11328Z" fill="#D3224D"/>
<path fill-rule="evenodd" clip-rule="evenodd" d="M17.6981 2.11328L18.2677 3.72115H20.0755L18.6144 4.70886L19.1839 6.3397L17.6981 5.32903L16.2123 6.3397L16.7818 4.70886L15.3208 3.72115H17.1285L17.6981 2.11328Z" fill="#D3224D"/>
<path fill-rule="evenodd" clip-rule="evenodd" d="M24.2656 26.1234C23.8284 23.5001 20.4764 21.8241 18.3632 21.8241V16.6504C17.7073 16.5775 17.4887 16.5775 16.8329 16.6504V23.2086C19.3833 23.2086 22.6625 23.8644 24.2656 26.1234Z" fill="white"/>
<path fill-rule="evenodd" clip-rule="evenodd" d="M24.9214 26.1234C25.3586 23.5001 28.7106 21.8241 30.8238 21.8241V16.6504C31.4797 16.5775 31.6982 16.5775 32.3541 16.6504V23.2086C29.8036 23.2086 26.5973 23.8644 24.9214 26.1234Z" fill="white"/>
<path fill-rule="evenodd" clip-rule="evenodd" d="M24.2654 23.865V18.4727C23.2452 16.7238 22.5894 15.7765 19.1645 15.4121V20.9502C21.5692 21.2417 22.6622 21.9704 24.2654 23.865Z" fill="white"/>
<path fill-rule="evenodd" clip-rule="evenodd" d="M24.9214 23.865V18.4727C25.9415 16.7238 26.5973 15.7765 30.0222 15.4121V20.9502C27.6904 21.2417 26.5245 21.9704 24.9214 23.865Z" fill="white"/>
<path d="M73.1536 5.756L73.8536 10.796L73.2656 10.992C71.2216 7.744 69.5136 6.288 67.2456 6.288C65.5376 6.288 64.4456 7.156 64.4456 8.584C64.4456 10.712 66.9376 11.72 69.5136 13.008C72.3136 14.38 75.1976 16.004 75.1976 20.036C75.1976 24.656 71.5296 26.448 67.3856 26.448C65.0616 26.448 62.7376 25.86 61.2536 25.16L60.4976 19.364L61.0856 19.168C63.6616 23.396 65.6216 25.244 68.3376 25.244C70.3536 25.244 71.5856 24.096 71.5856 22.36C71.5856 19.98 69.2336 18.888 66.6856 17.628C63.8856 16.228 60.9456 14.744 60.9456 11.02C60.9456 6.708 64.6696 5.084 68.7016 5.084C70.2416 5.084 71.8096 5.336 73.1536 5.756ZM91.2777 25.944V26H83.6337V25.944C84.5577 23.788 84.9217 22.612 84.9217 19.672V6.652L83.5777 6.736C82.0097 6.876 79.5457 10.404 78.1737 12.364L77.5857 12.196L78.7337 5.504H96.1777L97.3257 12.196L96.7377 12.364C95.3377 10.404 92.9017 6.876 91.3337 6.736L89.9897 6.652V19.672C89.9897 22.612 90.3537 23.788 91.2777 25.944ZM103.442 26H97.6744V25.944C98.9064 24.796 99.8584 23.004 100.698 20.708L106.214 5.42H109.658L115.23 20.848C116.014 23.032 116.854 24.74 117.89 25.944V26H109.434V25.944C110.47 24.656 110.778 22.752 109.938 20.344L109.378 18.748H102.742L102.406 19.644C101.23 22.808 101.958 24.852 103.442 25.944V26ZM103.162 17.516H108.958L106.102 9.368L103.162 17.516ZM120.726 26V25.944C121.65 23.9 122.014 22.752 122.014 19.924V11.58C122.014 8.752 121.65 7.604 120.726 5.56V5.504C124.03 5.504 125.402 5.392 129.182 5.392C136.77 5.392 141.502 9.004 141.502 15.64C141.502 22.276 137.022 26 129.182 26H120.726ZM136.014 15.892C136.014 9.564 134.222 6.652 129.322 6.652C128.846 6.652 127.838 6.708 127.054 6.792V24.628C127.922 24.712 129.126 24.74 129.602 24.74C134.614 24.684 136.014 21.464 136.014 15.892ZM154.54 26.448C149.752 26.448 146.056 24.124 146.056 18.496V11.86C146.056 8.892 145.692 7.716 144.768 5.56V5.504H152.468V5.56C151.544 7.604 151.152 8.892 151.152 11.832V18.748C151.152 23.536 153.14 24.824 155.772 24.824C159.692 24.824 160.924 21.912 160.924 18.16V12.056C160.924 9.004 160.336 7.772 158.404 5.56V5.504H164.76L164.816 5.56C163.024 7.772 162.296 9.06 162.296 12.084V17.964C162.296 22.724 160.616 26.448 154.54 26.448ZM184.156 26V25.944C185.08 23.788 185.444 22.612 185.444 19.644V9.592L178.5 25.384H177.24L170.184 9.368L170.268 19.504C170.296 22.444 171.108 23.732 172.984 25.944V26H166.712V25.944C168.28 23.732 168.896 22.5 168.896 19.476V10.376C168.756 8.192 168.056 7.212 166.544 5.56V5.504H173.88L179.844 19.14L185.836 5.504H192.836V5.56C191.156 7.38 190.484 8.416 190.484 11.132V19.672C190.484 22.556 190.876 23.788 191.772 25.944V26H184.156Z" fill="white"/>
<path d="M60.1068 50V41.805H61.4048V46.249L61.0638 46.117L64.7708 41.805H66.3878L63.1098 45.644L63.1758 44.72L66.5198 50H64.9908L62.5928 46.249L61.4048 47.635V50H60.1068ZM67.4867 50V41.805H68.5317L73.1297 48.152L72.6347 48.229V41.805H73.9217V50H72.8767L68.3117 43.609L68.7847 43.521V50H67.4867ZM79.6005 50.132C79.0065 50.132 78.4528 50.0257 77.9395 49.813C77.4335 49.6003 76.9862 49.3033 76.5975 48.922C76.2162 48.5407 75.9155 48.0933 75.6955 47.58C75.4828 47.0667 75.3765 46.5057 75.3765 45.897C75.3765 45.2883 75.4828 44.7273 75.6955 44.214C75.9155 43.6933 76.2162 43.246 76.5975 42.872C76.9788 42.4907 77.4262 42.1973 77.9395 41.992C78.4528 41.7793 79.0065 41.673 79.6005 41.673C80.2018 41.673 80.7555 41.7793 81.2615 41.992C81.7748 42.1973 82.2222 42.4907 82.6035 42.872C82.9922 43.2533 83.2928 43.7007 83.5055 44.214C83.7182 44.7273 83.8245 45.2883 83.8245 45.897C83.8245 46.5057 83.7145 47.0667 83.4945 47.58C83.2818 48.0933 82.9848 48.5407 82.6035 48.922C82.2222 49.3033 81.7748 49.6003 81.2615 49.813C80.7482 50.0257 80.1945 50.132 79.6005 50.132ZM79.6005 48.944C80.0258 48.944 80.4145 48.867 80.7665 48.713C81.1258 48.559 81.4375 48.3463 81.7015 48.075C81.9655 47.7963 82.1708 47.4737 82.3175 47.107C82.4642 46.733 82.5375 46.3297 82.5375 45.897C82.5375 45.4643 82.4642 45.0647 82.3175 44.698C82.1708 44.3313 81.9655 44.0087 81.7015 43.73C81.4375 43.4513 81.1258 43.235 80.7665 43.081C80.4145 42.927 80.0258 42.85 79.6005 42.85C79.1752 42.85 78.7828 42.927 78.4235 43.081C78.0715 43.235 77.7635 43.4513 77.4995 43.73C77.2355 44.0087 77.0302 44.3313 76.8835 44.698C76.7442 45.0647 76.6745 45.4643 76.6745 45.897C76.6745 46.3297 76.7442 46.733 76.8835 47.107C77.0302 47.4737 77.2355 47.7963 77.4995 48.075C77.7635 48.3463 78.0752 48.559 78.4345 48.713C78.7938 48.867 79.1825 48.944 79.6005 48.944ZM86.5899 50L84.3349 41.805H85.7099L87.5359 48.9H87.1949L89.0869 41.805H90.4399L92.3319 48.9H91.9799L93.8169 41.805H95.1809L92.9369 50H91.4739L89.5709 43.015H89.9559L88.0419 50H86.5899ZM96.1468 50V41.805H97.4448V48.845H100.987V50H96.1468ZM102.077 50V41.805H107.478V42.96H103.375V45.314H107.258V46.469H103.375V48.845H107.478V50H102.077ZM108.683 50V41.805H111.367C112.218 41.805 112.955 41.9773 113.578 42.322C114.209 42.6593 114.696 43.136 115.041 43.752C115.386 44.368 115.558 45.083 115.558 45.897C115.558 46.7037 115.386 47.4187 115.041 48.042C114.696 48.658 114.209 49.1383 113.578 49.483C112.955 49.8277 112.218 50 111.367 50H108.683ZM109.981 48.845H111.389C111.968 48.845 112.471 48.724 112.896 48.482C113.329 48.24 113.662 47.899 113.897 47.459C114.132 47.019 114.249 46.4983 114.249 45.897C114.249 45.2957 114.128 44.7787 113.886 44.346C113.651 43.906 113.321 43.565 112.896 43.323C112.471 43.081 111.968 42.96 111.389 42.96H109.981V48.845ZM120.675 50.132C120.096 50.132 119.557 50.0257 119.058 49.813C118.567 49.6003 118.134 49.307 117.76 48.933C117.394 48.5517 117.108 48.1043 116.902 47.591C116.697 47.0777 116.594 46.513 116.594 45.897C116.594 45.2883 116.693 44.7273 116.891 44.214C117.097 43.6933 117.383 43.246 117.749 42.872C118.116 42.4907 118.545 42.1973 119.036 41.992C119.528 41.7793 120.067 41.673 120.653 41.673C121.233 41.673 121.75 41.772 122.204 41.97C122.666 42.168 123.055 42.4283 123.37 42.751C123.686 43.0663 123.913 43.411 124.052 43.785L122.897 44.346C122.729 43.8987 122.45 43.5393 122.061 43.268C121.673 42.9893 121.203 42.85 120.653 42.85C120.111 42.85 119.63 42.9783 119.212 43.235C118.794 43.4917 118.468 43.8473 118.233 44.302C118.006 44.7567 117.892 45.2883 117.892 45.897C117.892 46.5057 118.01 47.041 118.244 47.503C118.486 47.9577 118.816 48.3133 119.234 48.57C119.652 48.8193 120.133 48.944 120.675 48.944C121.13 48.944 121.544 48.8523 121.918 48.669C122.3 48.4783 122.604 48.2143 122.831 47.877C123.059 47.5323 123.172 47.1327 123.172 46.678V46.117L123.755 46.645H120.653V45.545H124.459V46.315C124.459 46.9163 124.357 47.4553 124.151 47.932C123.946 48.4013 123.667 48.801 123.315 49.131C122.963 49.461 122.56 49.7103 122.105 49.879C121.651 50.0477 121.174 50.132 120.675 50.132ZM125.785 50V41.805H131.186V42.96H127.083V45.314H130.966V46.469H127.083V48.845H131.186V50H125.785ZM136.237 50V41.805H137.535V50H136.237ZM142.105 50.132C141.591 50.132 141.115 50.0367 140.675 49.846C140.235 49.648 139.861 49.3803 139.553 49.043C139.245 48.7057 139.017 48.317 138.871 47.877L139.971 47.415C140.169 47.921 140.458 48.3097 140.84 48.581C141.221 48.8523 141.661 48.988 142.16 48.988C142.453 48.988 142.71 48.944 142.93 48.856C143.15 48.7607 143.318 48.6287 143.436 48.46C143.56 48.2913 143.623 48.097 143.623 47.877C143.623 47.5763 143.538 47.338 143.37 47.162C143.201 46.986 142.952 46.8467 142.622 46.744L141.082 46.26C140.466 46.0693 139.996 45.7797 139.674 45.391C139.351 44.995 139.19 44.533 139.19 44.005C139.19 43.543 139.303 43.1397 139.531 42.795C139.758 42.443 140.07 42.168 140.466 41.97C140.869 41.772 141.327 41.673 141.841 41.673C142.332 41.673 142.779 41.761 143.183 41.937C143.586 42.1057 143.931 42.3403 144.217 42.641C144.51 42.9417 144.723 43.29 144.855 43.686L143.777 44.159C143.615 43.7263 143.362 43.3927 143.018 43.158C142.68 42.9233 142.288 42.806 141.841 42.806C141.569 42.806 141.331 42.8537 141.126 42.949C140.92 43.037 140.759 43.169 140.642 43.345C140.532 43.5137 140.477 43.7117 140.477 43.939C140.477 44.203 140.561 44.4377 140.73 44.643C140.898 44.8483 141.155 45.0023 141.5 45.105L142.93 45.556C143.582 45.754 144.074 46.04 144.404 46.414C144.734 46.7807 144.899 47.239 144.899 47.789C144.899 48.2437 144.778 48.647 144.536 48.999C144.301 49.351 143.975 49.6297 143.557 49.835C143.139 50.033 142.655 50.132 142.105 50.132ZM150.202 50V41.805H153.183C153.733 41.805 154.217 41.9077 154.635 42.113C155.06 42.311 155.39 42.6043 155.625 42.993C155.859 43.3743 155.977 43.8327 155.977 44.368C155.977 44.896 155.856 45.3507 155.614 45.732C155.379 46.1133 155.053 46.4067 154.635 46.612C154.217 46.8173 153.733 46.92 153.183 46.92H151.5V50H150.202ZM151.5 45.765H153.216C153.509 45.765 153.766 45.7063 153.986 45.589C154.206 45.4717 154.378 45.3103 154.503 45.105C154.627 44.8923 154.69 44.643 154.69 44.357C154.69 44.071 154.627 43.8253 154.503 43.62C154.378 43.4073 154.206 43.246 153.986 43.136C153.766 43.0187 153.509 42.96 153.216 42.96H151.5V45.765ZM161.295 50.132C160.701 50.132 160.147 50.0257 159.634 49.813C159.128 49.6003 158.681 49.3033 158.292 48.922C157.911 48.5407 157.61 48.0933 157.39 47.58C157.177 47.0667 157.071 46.5057 157.071 45.897C157.071 45.2883 157.177 44.7273 157.39 44.214C157.61 43.6933 157.911 43.246 158.292 42.872C158.673 42.4907 159.121 42.1973 159.634 41.992C160.147 41.7793 160.701 41.673 161.295 41.673C161.896 41.673 162.45 41.7793 162.956 41.992C163.469 42.1973 163.917 42.4907 164.298 42.872C164.687 43.2533 164.987 43.7007 165.2 44.214C165.413 44.7273 165.519 45.2883 165.519 45.897C165.519 46.5057 165.409 47.0667 165.189 47.58C164.976 48.0933 164.679 48.5407 164.298 48.922C163.917 49.3033 163.469 49.6003 162.956 49.813C162.443 50.0257 161.889 50.132 161.295 50.132ZM161.295 48.944C161.72 48.944 162.109 48.867 162.461 48.713C162.82 48.559 163.132 48.3463 163.396 48.075C163.66 47.7963 163.865 47.4737 164.012 47.107C164.159 46.733 164.232 46.3297 164.232 45.897C164.232 45.4643 164.159 45.0647 164.012 44.698C163.865 44.3313 163.66 44.0087 163.396 43.73C163.132 43.4513 162.82 43.235 162.461 43.081C162.109 42.927 161.72 42.85 161.295 42.85C160.87 42.85 160.477 42.927 160.118 43.081C159.766 43.235 159.458 43.4513 159.194 43.73C158.93 44.0087 158.725 44.3313 158.578 44.698C158.439 45.0647 158.369 45.4643 158.369 45.897C158.369 46.3297 158.439 46.733 158.578 47.107C158.725 47.4737 158.93 47.7963 159.194 48.075C159.458 48.3463 159.77 48.559 160.129 48.713C160.488 48.867 160.877 48.944 161.295 48.944ZM168.284 50L166.029 41.805H167.404L169.23 48.9H168.889L170.781 41.805H172.134L174.026 48.9H173.674L175.511 41.805H176.875L174.631 50H173.168L171.265 43.015H171.65L169.736 50H168.284ZM177.841 50V41.805H183.242V42.96H179.139V45.314H183.022V46.469H179.139V48.845H183.242V50H177.841ZM184.448 50V41.805H187.429C187.979 41.805 188.463 41.9077 188.881 42.113C189.299 42.311 189.625 42.6043 189.86 42.993C190.102 43.3743 190.223 43.8327 190.223 44.368C190.223 44.9327 190.08 45.4167 189.794 45.82C189.515 46.2233 189.137 46.5167 188.661 46.7L190.553 50H189.079L187.066 46.425L187.913 46.92H185.746V50H184.448ZM185.746 45.765H187.451C187.751 45.765 188.012 45.7063 188.232 45.589C188.452 45.4717 188.62 45.3103 188.738 45.105C188.862 44.8923 188.925 44.643 188.925 44.357C188.925 44.071 188.862 43.8253 188.738 43.62C188.62 43.4073 188.452 43.246 188.232 43.136C188.012 43.0187 187.751 42.96 187.451 42.96H185.746V45.765Z" fill="white"/>
</svg>
