<svg width="62" height="90" fill="none" xmlns="http://www.w3.org/2000/svg"><path d="M30.873 75.799c-.528 0-1.1-.176-1.539-.528l-.088-.088c-18.07-13.322-24.314-31.172-26.38-43.79-2.198-13.63-.176-24.05-.088-24.49.044-.22.088-.396.22-.616l.088-.176c.22-.483.615-.879 1.055-1.143 0 0 .088-.044.22-.132.22-.176.484-.263.791-.351.044 0 4.001-.88 7.562-1.979C16.672 1.275 23.003 0 30.785 0h.44c7.783 0 14.114 1.275 18.07 2.506 3.562 1.1 7.475 2.067 7.52 2.067.307.087.57.175.79.351a.482.482 0 0 1 .177.088c.483.264.835.66 1.055 1.1l.088.175c.088.176.175.396.22.616.087.44 2.11 10.86-.088 24.49-2.067 12.618-8.31 30.512-26.424 43.834l-.132.088c-.572.308-1.1.484-1.627.484Z" fill="#081933"/><path d="M30.873 73.82a.635.635 0 0 1-.308-.088l-.132-.088C12.89 60.718 6.823 43.351 4.845 31.084 2.69 17.808 4.713 7.43 4.713 7.344c0-.044 0-.088.044-.132l.088-.176a.53.53 0 0 1 .22-.22s.131-.044.307-.176c.044-.044.132-.088.22-.132.044 0 4-1.055 7.606-2.154a61.251 61.251 0 0 1 17.455-2.55h.44c7.518 0 13.63 1.407 17.454 2.594 3.606 1.099 7.563 2.154 7.607 2.154.088.044.176.044.22.132.22.088.307.132.307.132a.53.53 0 0 1 .22.22l.088.176c0 .044.044.088.044.132 0 .087 2.023 10.464-.132 23.742-1.978 12.266-8.046 29.59-25.633 42.516l-.131.087c-.044.088-.176.132-.264.132Z" fill="#070E20"/><path d="M31.093 2.286c7.254 0 13.234 1.319 17.322 2.594 3.65 1.099 7.65 2.198 7.65 2.198v.044l.44.22.088.176s8.178 40.933-25.545 65.774l-.131.088-.132-.088C-2.982 48.407 5.196 7.43 5.196 7.43l.088-.176s.132-.088.44-.22V6.99s4-1.055 7.65-2.198c4.089-1.275 10.068-2.594 17.323-2.594h.22c.044.088.088.088.175.088Zm0-1.056h-.44a60.33 60.33 0 0 0-17.63 2.638c-3.606 1.1-7.563 2.155-7.607 2.155a.899.899 0 0 0-.396.22l-.264.132a1.06 1.06 0 0 0-.44.44l-.043.175c-.044.088-.044.176-.088.22-.088.44-2.067 10.552.132 23.918 1.275 7.87 3.737 15.168 7.298 21.763 4.485 8.222 10.684 15.3 18.51 21.06l.132.089c.176.131.396.22.616.22.22 0 .44-.045.615-.177l.132-.087c7.826-5.76 14.025-12.839 18.51-21.06 3.561-6.596 6.024-13.894 7.299-21.764 2.154-13.366.22-23.522.131-23.918a.336.336 0 0 0-.087-.22l-.088-.176a1.06 1.06 0 0 0-.44-.44l-.264-.131a1.782 1.782 0 0 0-.395-.22c-.044 0-4.002-1.055-7.607-2.155-3.825-1.23-10.024-2.682-17.587-2.682Z" fill="#fff"/><path d="M7.966 67.403c-.132 2.33-1.759 4.132-1.759 4.132s-1.406-1.978-1.275-4.308c.132-2.33 1.76-4.133 1.76-4.133s1.406 1.978 1.274 4.309Zm-6.859 1.891c1.32 1.935 3.606 2.638 3.606 2.638s.22-2.418-1.1-4.353C2.295 65.645.009 64.941.009 64.941s-.176 2.419 1.1 4.353Zm12.531 5.495c.88 2.154.176 4.484.176 4.484s-2.11-1.187-3.034-3.341c-.88-2.154-.176-4.485-.176-4.485s2.155 1.187 3.034 3.342ZM8.274 79.45c2.022 1.187 4.397.835 4.397.835S11.835 78 9.813 76.812c-2.023-1.187-4.397-.836-4.397-.836s.835 2.287 2.858 3.474Zm13.146.745c1.627 1.671 1.847 4.09 1.847 4.09s-2.419-.309-4.045-1.98c-1.627-1.67-1.847-4.088-1.847-4.088s2.418.308 4.045 1.978Zm-3.254 6.332c2.287.351 4.397-.88 4.397-.88s-1.627-1.802-3.913-2.154c-2.286-.352-4.397.88-4.397.88s1.583 1.802 3.913 2.154ZM3.614 58.608c.571 2.243-.484 4.44-.484 4.44S1.195 61.555.668 59.313c-.572-2.243.483-4.44.483-4.44s1.891 1.45 2.463 3.736Zm50.166 8.795c.132 2.33 1.758 4.132 1.758 4.132s1.407-1.978 1.276-4.308c-.132-2.33-1.76-4.133-1.76-4.133s-1.406 1.978-1.274 4.309Zm6.859 1.891c-1.32 1.935-3.606 2.638-3.606 2.638s-.22-2.418 1.1-4.353c1.319-1.934 3.605-2.638 3.605-2.638s.176 2.419-1.1 4.353Zm-12.531 5.495c-.88 2.154-.176 4.484-.176 4.484s2.11-1.187 3.034-3.341c.879-2.154.176-4.485.176-4.485s-2.155 1.187-3.034 3.342Zm5.364 4.661c-2.023 1.187-4.397.835-4.397.835s.836-2.286 2.858-3.473c2.023-1.187 4.397-.836 4.397-.836s-.836 2.287-2.858 3.474Zm-13.146.745c-1.627 1.671-1.847 4.09-1.847 4.09s2.418-.309 4.045-1.98c1.627-1.67 1.847-4.088 1.847-4.088s-2.419.308-4.045 1.978Zm3.254 6.332c-2.287.351-4.397-.88-4.397-.88s1.627-1.802 3.913-2.154c2.286-.352 4.396.88 4.396.88s-1.582 1.802-3.913 2.154Zm14.552-27.919c-.571 2.243.484 4.44.484 4.44s1.934-1.494 2.462-3.736c.572-2.243-.484-4.44-.484-4.44s-1.89 1.45-2.462 3.736ZM35.313 85.56 30.873 90l-4.44-4.44 4.44-4.44 4.44 4.44Z" fill="#D3224D"/><path d="M42.48 25.809s-10.728.923-23.126 0c-.044-.748 0-4.573 0-4.573 12.882 1.012 23.126 0 23.126 0v4.573Z" fill="#fff"/><path d="M42.48 25.94c-.483.044-9.496 1.055-23.126 0-.616-.528-.044-1.055-.044-1.055 12.838 1.011 23.17 0 23.17 0s.572.44 0 1.055Zm-3.341-4.528h3.297l1.275-7.914-4.572 7.914Z" fill="#fff"/><path d="m37.732 12.092-4.177 9.497v.132h5.716v-.22l-1.539-9.41Z" fill="#fff"/><path d="m30.917 11.695-2.726 9.41-4.089-9.234-1.539 9.057-4.396-7.65h-.044l1.275 7.914h3.165v.352h5.54l-.044.132h-.088v.044h5.892v-.44l-2.946-9.585Z" fill="#fff"/><path d="M42.48 22.028c-.483.044-9.497 1.055-23.126 0-.616-.528-.044-1.055-.044-1.055 12.838 1.01 23.17.044 23.17.044s.572.395 0 1.01Zm-11.607-9.453a.791.791 0 1 0 0-1.583.791.791 0 0 0 0 1.583Zm7.694-.176c0 .44-.352.791-.791.791a.788.788 0 0 1-.792-.791c0-.44.352-.792.792-.792.44-.044.791.308.791.792Zm5.936 1.363c0 .44-.352.791-.792.791a.788.788 0 0 1-.791-.79c0-.44.352-.792.791-.792.44 0 .792.351.792.791Zm-19.741-1.758c0 .44-.352.791-.792.791a.788.788 0 0 1-.791-.791c0-.44.351-.792.791-.792.44-.044.792.352.792.792Zm-5.892 1.362c0 .44-.352.791-.792.791a.788.788 0 0 1-.79-.791c0-.44.35-.792.79-.792.44 0 .792.352.792.792Zm1.67 22.291h-3.033v-3.561h10.816v3.561h-3.078v12.31c0 1.452.308 2.727.88 3.606.879 1.45 2.638 2.242 4.792 2.242s3.781-.747 4.748-2.286c.572-.967.88-2.198.88-3.605V35.657H33.51v-3.561h10.772v3.561h-3.078v12.31c0 2.463-.66 4.75-1.846 6.376-1.847 2.418-5.013 3.605-8.442 3.605-3.605 0-6.683-1.275-8.442-3.561-1.319-1.67-1.89-3.825-1.89-6.42v-12.31h-.044Z" fill="#fff"/></svg>