<svg width="86" height="92" fill="none" xmlns="http://www.w3.org/2000/svg"><path d="M15.386 84.96c-4.82-.756-7.25-1.234-12.03-2.35a167.218 167.218 0 0 0 4.502-4.74c-.837-2.509-1.195-3.743-1.952-6.253 4.461 1.036 6.732 1.474 11.273 2.19l-1.793 11.154Zm54.49.08c5.019-.796 7.528-1.274 12.507-2.43a167.176 167.176 0 0 1-4.5-4.74c.836-2.509 1.194-3.743 1.95-6.253-4.66 1.076-7.01 1.554-11.71 2.27.717 4.462 1.076 6.692 1.753 11.153Z" fill="#D3224D" stroke="#070E20" stroke-width="3.402" stroke-miterlimit="10"/><path d="M75.81 87.231c-22.345 3.704-43.973 3.704-66.319-.08.836-4.421 1.275-6.651 2.111-11.073 20.991 3.505 41.106 3.545 62.098.08.836 4.421 1.274 6.652 2.11 11.073Z" fill="#D3224D" stroke="#070E20" stroke-width="3.402" stroke-miterlimit="10"/><path d="M15.984 80.46c-.28-.04-.439-.08-.717-.12.04-.319.08-.478.12-.797 1.035.16 1.513.239 2.548.398-.04.319-.08.478-.12.797-.278-.04-.437-.08-.716-.12a58.947 58.947 0 0 1-.438 2.749c-.04.319 0 .637.08.836.159.359.557.598 1.075.677.518.08.956-.04 1.235-.358.159-.2.279-.478.318-.797.16-1.115.24-1.673.399-2.748-.28-.04-.439-.08-.717-.12.04-.318.08-.478.12-.796 1.035.16 1.513.199 2.548.358-.04.319-.08.478-.12.797-.278-.04-.437-.04-.716-.08-.16 1.115-.2 1.673-.359 2.788-.08.558-.318 1.076-.637 1.395-.518.478-1.354.637-2.19.517-.877-.12-1.594-.557-1.952-1.115-.24-.438-.32-.916-.24-1.514.2-1.115.28-1.672.479-2.748Zm5.815 5.018c.279.04.438.04.757.08.199-1.673.279-2.47.478-4.143-.28-.04-.438-.04-.717-.08.04-.318.04-.477.08-.796.716.08 1.115.12 1.832.2a76.235 76.235 0 0 0 2.19 3.943c.04.08.08.239.12.318.04.08.04.12.04.16h.04v-.558c.12-1.155.159-1.713.278-2.828-.318-.04-.438-.04-.756-.08.04-.319.04-.478.08-.797 1.035.12 1.553.16 2.588.24-.04.318-.04.478-.08.796-.278-.04-.437-.04-.716-.08-.16 1.992-.28 2.988-.438 4.94-.478-.04-.678-.08-1.155-.12-.917-1.553-1.355-2.35-2.231-3.943-.04-.12-.08-.24-.12-.319 0-.08-.04-.12-.04-.16h-.04v.2c0 .12 0 .239-.04.359-.119 1.115-.198 1.712-.318 2.828.319.04.478.04.757.08-.04.318-.04.477-.08.796-1.075-.12-1.593-.16-2.668-.319.08-.239.12-.398.159-.717Zm7.369.756c.279.04.438.04.757.04.12-1.673.2-2.51.319-4.143-.28-.04-.439-.04-.717-.04.04-.318.04-.477.08-.796 1.035.08 1.553.12 2.549.2-.04.318-.04.477-.04.796-.28 0-.439-.04-.717-.04-.12 1.673-.16 2.51-.28 4.142.32.04.439.04.758.04-.04.319-.04.478-.04.797l-2.669-.2c-.04-.318 0-.477 0-.796Zm3.983-3.904c-.239 0-.318 0-.557-.04 0-.318.04-.477.04-.796.956.04 1.434.08 2.35.12 0 .318-.04.478-.04.796-.24 0-.399 0-.638-.04.399 1.355.598 1.992.996 3.346.04.12.04.24.08.359v.16h.04c0-.08.04-.12.04-.16.04-.08.04-.24.12-.359.517-1.314.756-1.951 1.274-3.266-.24 0-.399 0-.638-.04 0-.318 0-.478.04-.796.956.04 1.434.04 2.35.08 0 .318 0 .477-.04.796h-.557c-.797 1.952-1.195 2.948-2.032 4.9-.477 0-.716-.04-1.194-.04-.678-1.992-.996-3.028-1.634-5.02Zm5.855 4.383h.757c.04-1.673.04-2.51.08-4.182h-.717v-.797c1.792.04 2.708.04 4.5.04v1.474h-.955v-.637h-1.713v1.593h2.032v.836h-2.032v1.633h1.872v-.637h.996v1.514c-1.912 0-2.868 0-4.78-.04a5.343 5.343 0 0 1-.04-.797Zm5.617.04h.756c-.04-1.673-.04-2.51-.04-4.182h-.716v-.797c1.075 0 1.593-.04 2.668-.04.438 0 .797 0 1.155.08.678.2 1.156.677 1.195 1.514.04.836-.398 1.394-1.115 1.633.04.04.08.04.12.08.08.04.159.119.199.238.318.478.438.717.757 1.195.119.16.199.16.438.16h.199c0 .318.04.478.04.796-.28 0-.439 0-.717.04-.518 0-.677-.08-.877-.398-.358-.598-.557-.877-.916-1.474-.12-.2-.239-.279-.597-.279h-.558c0 .558 0 .837.04 1.434h.717c0 .319 0 .478.04.797a57.91 57.91 0 0 1-2.63.04c-.158-.359-.158-.518-.158-.837Zm2.867-2.31c.598 0 .996-.359.956-.996 0-.398-.199-.637-.517-.797-.16-.08-.399-.08-.678-.08h-.836c0 .758.04 1.116.04 1.873h1.035Zm4.342 1.035c0 .16 0 .239.04.438 0 .359.557.558 1.115.518.637-.04 1.076-.319 1.036-.797-.04-.557-.757-.717-1.474-.956-.837-.239-1.673-.557-1.713-1.593-.04-1.155.916-1.673 1.952-1.713.956-.04 1.952.2 1.992.877.04.318.04.438.04.756-.399.04-.598.04-1.036.08 0-.16 0-.239-.04-.398 0-.28-.478-.399-.916-.399-.478.04-.916.24-.877.678.04.517.638.677 1.275.876.916.279 1.872.518 1.952 1.593.08 1.195-.956 1.793-2.151 1.872-1.036.08-2.15-.318-2.19-1.195 0-.278 0-.398-.04-.677.398.04.637.04 1.035.04Zm4.223.797c.279-.04.438-.04.757-.04-.12-1.673-.2-2.51-.32-4.142-.278.04-.437.04-.716.04-.04-.32-.04-.478-.08-.797 1.036-.08 1.554-.12 2.55-.2.04.32.04.479.08.797-.28.04-.439.04-.718.08.16 1.673.2 2.51.359 4.142.318-.04.438-.04.757-.08.04.32.04.479.08.797-1.076.08-1.594.16-2.67.24-.04-.359-.04-.518-.08-.837Zm4.739-.438c.28-.04.439-.04.757-.08-.16-1.633-.279-2.47-.438-4.102-.438.04-.677.08-1.155.12.04.358.04.517.08.875-.399.04-.558.04-.956.08-.08-.677-.08-1.035-.16-1.713 2.111-.199 3.187-.318 5.258-.597l.2 1.713c-.399.04-.558.08-.957.12-.04-.36-.08-.519-.12-.877-.477.04-.676.08-1.154.12.199 1.633.279 2.469.478 4.102.318-.04.438-.04.756-.08.04.319.04.478.08.797-1.075.12-1.593.2-2.629.279 0-.279 0-.438-.04-.757Zm5.816-.717c.319-.04.438-.08.757-.12-.08-.637-.12-.956-.24-1.593a100.25 100.25 0 0 1-1.951-2.31c-.24.04-.319.04-.558.08-.04-.32-.08-.479-.12-.798.877-.12 1.355-.159 2.231-.318.04.318.08.478.12.796-.24.04-.359.04-.598.08.438.558.677.837 1.116 1.354.04.04.08.12.12.16 0 .04.039.04.039.08 0-.04 0-.08.04-.08.04-.04.04-.12.08-.2.278-.637.438-.995.716-1.633-.238.04-.358.04-.597.08-.04-.319-.08-.478-.12-.797.877-.12 1.315-.199 2.231-.358.04.319.08.478.12.797-.2.04-.32.04-.558.08a85.18 85.18 0 0 1-1.235 2.787c.08.638.16.957.24 1.594.278-.04.437-.08.756-.12.04.319.08.478.12.797-1.036.16-1.594.239-2.63.398 0-.279-.04-.438-.08-.757Z" fill="#fff"/><path d="M15.028 55.05c.12 2.07-1.156 3.823-1.156 3.823s-1.434-1.593-1.553-3.664c-.12-2.072 1.155-3.824 1.155-3.824s1.434 1.593 1.554 3.664ZM9.132 57.4c1.355 1.594 3.466 1.992 3.466 1.992s-.04-2.15-1.394-3.744c-1.355-1.593-3.466-1.992-3.466-1.992s.04 2.191 1.394 3.744Zm11.631 3.702c.996 1.833.598 3.944.598 3.944s-1.992-.837-2.988-2.67c-.995-1.831-.597-3.942-.597-3.942s1.992.836 2.987 2.668Zm-4.301 4.622c1.912.837 3.983.319 3.983.319s-.996-1.912-2.868-2.789c-1.912-.836-3.983-.318-3.983-.318s.956 1.952 2.868 2.788Zm11.71-.598c1.593 1.315 2.032 3.426 2.032 3.426s-2.151-.04-3.784-1.354c-1.594-1.315-2.032-3.466-2.032-3.466s2.191.04 3.784 1.394Zm-2.27 5.894c2.07.08 3.823-1.194 3.823-1.194s-1.633-1.434-3.704-1.514c-2.071-.08-3.824 1.195-3.824 1.195s1.633 1.434 3.705 1.514Zm-15.614-23.3c.717 1.951 0 3.983 0 3.983s-1.872-1.116-2.55-3.068c-.716-1.951 0-3.983 0-3.983s1.833 1.116 2.55 3.067Zm60.464 7.33c-.12 2.07 1.155 3.823 1.155 3.823s1.434-1.593 1.554-3.664c.12-2.072-1.156-3.824-1.156-3.824s-1.434 1.593-1.553 3.664Zm5.855 2.35c-1.354 1.594-3.465 1.992-3.465 1.992s.04-2.15 1.394-3.744c1.355-1.593 3.466-1.992 3.466-1.992s-.04 2.191-1.395 3.744Zm-11.591 3.702c-.995 1.833-.597 3.944-.597 3.944s1.992-.837 2.987-2.67c.996-1.831.598-3.942.598-3.942s-1.992.836-2.988 2.668Zm4.302 4.622c-1.912.837-3.983.319-3.983.319s.996-1.912 2.868-2.789c1.912-.836 3.983-.318 3.983-.318s-.996 1.952-2.868 2.788Zm-11.75-.598c-1.593 1.315-2.031 3.426-2.031 3.426s2.15-.04 3.784-1.354c1.593-1.315 2.031-3.466 2.031-3.466s-2.19.04-3.784 1.394Zm2.271 5.894c-2.072.08-3.824-1.194-3.824-1.194s1.633-1.434 3.704-1.514c2.071-.08 3.824 1.195 3.824 1.195s-1.633 1.434-3.704 1.514Zm15.653-23.3c-.717 1.951 0 3.983 0 3.983s1.872-1.116 2.55-3.068c.716-1.951 0-3.983 0-3.983s-1.873 1.116-2.55 3.067Zm-5.218-35.014c0-1.354-.438-2.589-1.593-3.306-1.195-.757-11.71-7.25-17.167-8.603C49.481.279 46.374 0 42.989 0c-3.385 0-6.492.279-8.523.797C29.048 2.15 18.015 8.643 16.78 9.4c-1.195.677-1.872 1.952-1.872 3.346v26.25c0 9.917 19.996 21.548 26.09 24.894a3.964 3.964 0 0 0 1.872.478c.637 0 1.076-.16 1.633-.478 4.262-2.31 15.096-8.643 21.35-15.614l.359-.199-.08-.2c2.55-2.947 4.142-5.974 4.142-8.882V12.706ZM21.281 39.553v-8.484h21.39l-.16-25.572h.399c2.947 0 5.337.239 6.89.637 3.068.797 10.158 4.461 14.141 7.21V30.91l-21.549.159.24 27.085c-11.95-6.85-21.35-15.255-21.35-18.601Z" fill="#070E20"/><path d="M24.946 22.546h1.035l3.466-10.356h3.624l3.466 10.356h1.035v2.31h-5.297v-2.31h1.115l-.478-1.673h-3.266l-.478 1.673h1.115v2.31h-5.297v-2.31h-.04Zm7.25-4.103-.638-2.35c-.12-.398-.16-.717-.2-.956l-.04-.359h-.079c0 .12 0 .24-.04.359-.04.239-.08.558-.199.956l-.677 2.35h1.872Zm14.936 28.399h1.474v-8.444h-1.474v-2.39h6.174c1.035 0 1.673.04 2.43.279 1.394.517 2.31 1.593 2.31 3.186 0 1.155-.518 2.27-1.593 2.828v.04c1.553.478 2.11 1.753 2.11 3.027 0 1.992-1.394 3.306-2.947 3.705-.717.159-1.275.199-1.992.199h-6.532v-2.43h.04Zm6.453-5.736c.796 0 1.155-.557 1.155-1.274 0-.478-.2-.956-.598-1.156a2.397 2.397 0 0 0-.796-.119h-1.394v2.55h1.633Zm.278 5.537c.24 0 .439-.04.598-.12.518-.239.797-.836.797-1.434 0-.796-.439-1.354-1.395-1.354h-1.911v2.908h1.911Z" fill="#fff"/></svg>