<svg width="121" height="90" fill="none" xmlns="http://www.w3.org/2000/svg"><path d="M27.518 65.537c-.268 2.678-2.277 4.687-2.277 4.687s-1.518-2.366-1.25-5.044c.268-2.679 2.277-4.688 2.277-4.688s1.518 2.366 1.25 5.045Zm-8.036 1.83c1.384 2.321 4.018 3.259 4.018 3.259s.357-2.768-1.027-5.09c-1.384-2.321-4.018-3.259-4.018-3.259s-.401 2.768 1.027 5.09Zm13.393 6.429c.938 2.544.045 5.178.045 5.178s-2.411-1.428-3.349-3.973c-.937-2.545-.044-5.179-.044-5.179s2.41 1.474 3.348 3.974Zm-6.385 5.178c2.278 1.428 5.046 1.116 5.046 1.116s-.893-2.678-3.17-4.107c-2.277-1.429-5.045-1.116-5.045-1.116s.893 2.678 3.17 4.107Zm14.554.044c2.099 1.742 2.634 4.465 2.634 4.465s-2.812-.045-4.866-1.741c-2.098-1.741-2.634-4.465-2.634-4.465s2.813.045 4.866 1.741Zm-2.946 7.678c2.678.134 4.955-1.562 4.955-1.562s-2.098-1.875-4.821-1.964c-2.679-.134-4.956 1.562-4.956 1.562s2.143 1.83 4.822 1.964ZM23.188 55.67c.312 2.679-1.206 5.045-1.206 5.045s-2.009-1.964-2.321-4.643c-.313-2.679 1.205-5.045 1.205-5.045s2.009 1.965 2.322 4.643Zm70.625 9.867c.267 2.678 2.276 4.687 2.276 4.687s1.518-2.366 1.25-5.044c-.268-2.679-2.276-4.688-2.276-4.688s-1.518 2.366-1.25 5.045Zm8.035 1.83c-1.384 2.321-4.017 3.259-4.017 3.259s-.358-2.768 1.026-5.09c1.384-2.321 4.018-3.259 4.018-3.259s.357 2.768-1.027 5.09ZM88.41 73.796c-.937 2.544-.044 5.178-.044 5.178s2.41-1.428 3.348-3.973c.938-2.545.045-5.179.045-5.179s-2.411 1.474-3.349 3.974Zm6.385 5.178c-2.277 1.428-5.045 1.116-5.045 1.116s.893-2.678 3.17-4.107c2.276-1.429 5.044-1.116 5.044-1.116s-.893 2.678-3.17 4.107Zm-14.555.044c-2.097 1.742-2.633 4.465-2.633 4.465s2.812-.045 4.866-1.741c2.098-1.741 2.634-4.465 2.634-4.465s-2.768.045-4.866 1.741Zm2.947 7.678c-2.678.134-4.955-1.562-4.955-1.562s2.098-1.875 4.821-1.964c2.679-.134 4.956 1.562 4.956 1.562s-2.099 1.83-4.822 1.964ZM98.098 55.67c-.313 2.679 1.205 5.045 1.205 5.045s2.009-1.964 2.322-4.643c.312-2.679-1.206-5.045-1.206-5.045s-2.009 1.965-2.321 4.643Z" fill="#D3224D"/><path d="M60.598 73.393c-8.571 0-16.16-3.036-20.759-8.348-3.571-3.973-5.312-9.375-5.312-16.384V28.929H31.49V12.232h26.43V28.93h-3.036v19.73c0 1.652.313 3.17.848 4.107.76 1.295 2.59 2.054 4.911 2.054 2.41 0 3.795-.625 4.821-2.143.536-.893.849-2.232.849-4.018V28.929h-3.036V12.232h26.428V28.93H86.67v19.73c0 6.027-1.875 11.875-5.134 16.027-4.554 5.535-12.188 8.705-20.938 8.705Z" fill="#070E20"/><path d="M60.598 71.653c-8.08 0-15.134-2.813-19.42-7.768-3.303-3.66-4.91-8.66-4.91-15.223V27.189h-3.036V13.974h22.902V27.19h-3.036v21.473c0 1.964.402 3.794 1.116 5 1.116 1.83 3.438 2.902 6.429 2.902 2.99 0 4.955-.893 6.294-2.947.76-1.205 1.116-2.857 1.116-5V27.144h-3.035V13.93h22.901v13.214h-3.035v21.473c0 5.625-1.741 11.072-4.777 14.956-4.152 5.134-11.25 8.08-19.509 8.08Z" fill="#fff"/><path d="M38.053 25.402h-3.035v-9.687h19.375v9.687h-3.036v23.26c0 2.365.536 4.464 1.34 5.892 1.428 2.366 4.33 3.795 7.99 3.795 3.483 0 6.027-1.116 7.768-3.706.983-1.562 1.429-3.482 1.429-5.937V25.447h-3.036v-9.688h19.375v9.688h-3.035v23.259c0 5.357-1.652 10.357-4.376 13.84-4.151 5.044-11.116 7.365-18.17 7.365-7.678 0-14.24-2.678-18.08-7.143-3.214-3.571-4.464-8.437-4.464-14.062V25.402h-.044Z" fill="#070E20"/><path d="M12.25 19.285c-2.857.536-5.58 1.116-9.375 2.01a214.81 214.81 0 0 1 6.205 6.65 217.005 217.005 0 0 0-2.634 8.75c6.295-1.472 9.42-2.097 15.76-3.08-.224-1.428-.447-2.723-.626-3.883-2.366.312-4.776.67-7.187 1.071-.848-4.732-1.429-7.634-2.143-11.518Zm106.696 2.008c-4.018-.937-6.919-1.562-10-2.143-.714 3.884-1.294 6.83-2.187 11.563a199.423 199.423 0 0 0-7.188-1.072c-.178 1.206-.401 2.456-.625 3.884 6.563 1.027 9.866 1.652 16.34 3.17-.983-3.527-1.518-5.268-2.634-8.75 2.5-2.678 3.75-4.018 6.294-6.652Z" fill="#D3224D" stroke="#fff" stroke-width="2" stroke-miterlimit="10"/><path d="M11.268 15.268c.267 1.473.625 2.768.848 4.018.759 3.884 1.34 6.83 2.277 11.563 2.41-.402 4.598-.76 7.008-1.072 2.68-.357 5.58-.714 7.813-1.027V12.857c-6.25.58-11.875 1.384-17.946 2.411Zm97.679 3.883c.223-1.205.446-2.5.714-4.017a297.29 297.29 0 0 0-17.991-2.366V28.66c2.678.268 5.223.625 7.857.983 2.366.312 4.777.67 7.187 1.071.938-4.732 1.518-7.679 2.233-11.563Z" fill="#D3224D" stroke="#fff" stroke-width="2" stroke-miterlimit="10"/><path d="M32.875.938h-.759V.045h2.678v.893h-.758v3.035c0 .358.089.67.223.893.223.357.67.58 1.205.58.536 0 .938-.178 1.16-.58.135-.223.224-.535.224-.893V.938h-.759V.045h2.679v.893h-.76v3.035c0 .625-.178 1.161-.446 1.563-.446.625-1.25.893-2.098.893-.893 0-1.652-.313-2.098-.893-.313-.402-.491-.938-.491-1.607V.938Zm6.607 4.553h.759V.938h-.759V.045h1.92l2.634 4.062c.044.09.134.223.178.357l.09.179h.044V.893h-.803V0h2.678v.893h-.759v5.446h-1.16L41.67 2.321c-.045-.089-.134-.223-.179-.357l-.09-.178h-.044l.045.223c0 .134.044.268 0 .402v3.125h.803v.848h-2.678V5.49h-.045Zm7.5 0h.759V.938h-.76V.045h2.68v.893h-.76V5.49h.76v.849h-2.68V5.49ZM50.777.938h-.58V.045h2.455v.893h-.67l1.16 3.616c.045.134.045.268.09.402l.045.178h.044l.045-.178c.045-.09.045-.268.09-.402l1.16-3.616h-.67V.045h2.456v.893h-.58l-1.92 5.446h-1.206L50.776.938Zm6.16 4.553h.76V.938h-.76V.045h4.688v1.607h-.982V.938h-1.786v1.74h2.098v.938h-2.098v1.786h1.92v-.714h.982V6.34h-4.822v-.85Zm5.67 0h.76V.938h-.76V.045h2.768c.446 0 .848.045 1.205.134.715.223 1.161.803 1.161 1.696 0 .893-.446 1.518-1.205 1.741l.089.09c.045.044.134.134.223.267l.715 1.295c.089.179.223.223.446.223h.223v.849h-.759c-.535 0-.67-.09-.893-.492l-.892-1.607c-.134-.223-.268-.312-.626-.312h-.58V5.49h.714v.849h-2.633V5.49h.044Zm2.991-2.5c.625 0 1.027-.357 1.027-1.026 0-.402-.134-.715-.491-.849-.179-.089-.402-.134-.714-.134h-.849v2.01h1.027Zm4.375 1.339v.491c0 .402.536.67 1.116.67.625 0 1.072-.268 1.072-.803 0-.625-.715-.849-1.429-1.117-.848-.312-1.652-.714-1.652-1.83C69.08.491 70.107 0 71.18 0c.982 0 2.009.357 2.009 1.116v.804h-1.072v-.447c0-.312-.49-.49-.937-.49-.536 0-.938.222-.938.713 0 .58.58.76 1.25 1.027.938.313 1.875.714 1.875 1.875 0 1.295-1.071 1.875-2.277 1.875-1.026 0-2.187-.49-2.187-1.428V4.33h1.071Zm4.241 1.161h.759V.938h-.759V.045h2.679v.893h-.76V5.49h.76v.849h-2.679V5.49Zm4.822 0h.759V.982h-1.206v.938h-.982V.045h5.536V1.92h-1.027V.982h-1.205v4.51h.759v.848h-2.68v-.85h.045Zm5.892 0h.76V3.706L83.99.938h-.536V.045h2.322v.893h-.625l.937 1.652c.045.089.09.134.09.178 0 .045.044.045.044.09 0-.045 0-.045.045-.09.044-.044.044-.134.089-.178l.938-1.652h-.626V.045h2.322v.893h-.58l-1.697 2.768V5.49h.76v.849h-2.68V5.49h.134ZM49.527 88.749h1.607V84.15h-.045l-.09.134c-.044.09-.133.179-.267.313l-.58.535-.804-.803 1.83-1.741h1.161v6.205h1.563v1.072h-4.465v-1.116h.09Zm6.295-2.901c-.492-.358-.849-.804-.849-1.474 0-.982.76-1.964 2.322-1.964 1.384 0 2.41.76 2.41 1.964 0 .938-.67 1.652-.803 1.83.58.358.982.849.982 1.563 0 1.116-.938 2.143-2.59 2.143-1.606 0-2.633-.982-2.633-2.187.044-1.027.937-1.741 1.16-1.875Zm1.517 2.946c.67 0 1.25-.402 1.25-1.027 0-.67-.803-.937-1.83-1.384-.179.179-.714.58-.714 1.25s.58 1.161 1.294 1.161Zm.625-3.036c.134-.134.491-.625.491-1.205 0-.625-.446-.982-1.116-.982-.714 0-1.026.357-1.026.848 0 .714.758.938 1.651 1.34Zm3.126-3.213h4.598v.937l-1.697 2.054c.938.134 1.875.804 1.875 2.054 0 1.25-.937 2.41-2.59 2.41-.758 0-1.383-.268-1.785-.49a3.37 3.37 0 0 1-.625-.492l.67-.937c.134.134.312.267.49.357.313.178.715.357 1.206.357.76 0 1.295-.491 1.295-1.16 0-.715-.58-1.162-1.429-1.162h-.401l-.313-.67 1.563-1.919.223-.223.09-.09h-2.01v.849h-1.16v-1.875Zm5.937 0h4.598v.937l-1.696 2.054c.937.134 1.875.804 1.875 2.054 0 1.25-.938 2.41-2.59 2.41-.758 0-1.383-.268-1.785-.49a3.37 3.37 0 0 1-.625-.492l.67-.937c.133.134.312.267.49.357.313.178.715.357 1.206.357.759 0 1.294-.491 1.294-1.16 0-.715-.58-1.162-1.428-1.162h-.402l-.312-.67 1.562-1.919.223-.223.09-.09h-2.009v.849h-1.161v-1.875Z" fill="#070E20"/></svg>