<svg width="80" height="90" fill="none" xmlns="http://www.w3.org/2000/svg"><path d="M23.632 10c-2.272.724-4.592-.243-4.592-.243s1.401-2.078 3.673-2.755c2.272-.725 4.592.242 4.592.242s-1.401 2.03-3.673 2.755Zm-4.254-5.898c-1.402 1.934-1.257 4.448-1.257 4.448s2.417-.677 3.77-2.61c1.403-1.934 1.258-4.448 1.258-4.448s-2.369.629-3.77 2.61ZM15.995 15.51c-2.176 1.015-4.593.484-4.593.484s1.064-2.224 3.239-3.287c2.175-1.016 4.592-.484 4.592-.484s-1.063 2.272-3.239 3.287Zm-5.075-5.221c-1.113 2.126-.581 4.543-.581 4.543s2.272-1.015 3.384-3.142c1.111-2.127.58-4.544.58-4.544s-2.272 1.016-3.384 3.143Zm-.146 12.568c-1.74 1.643-4.206 1.885-4.206 1.885s.339-2.465 2.03-4.109c1.74-1.643 4.206-1.885 4.206-1.885s-.29 2.465-2.03 4.109Zm-6.429-3.384c-.387 2.369.87 4.496.87 4.496s1.837-1.644 2.224-4.013c.386-2.368-.87-4.495-.87-4.495s-1.886 1.692-2.224 4.012Zm3.19 13.147c-1.257 2.03-3.625 2.852-3.625 2.852s-.29-2.465.967-4.495c1.256-2.03 3.625-2.852 3.625-2.852s.29 2.465-.967 4.495ZM.43 30.93c.24 2.368 1.933 4.157 1.933 4.157s1.353-2.079 1.16-4.447c-.242-2.369-1.934-4.158-1.934-4.158S.236 28.561.43 30.93Zm7.588 11.36c-.483 2.32-2.417 3.915-2.417 3.915s-1.16-2.223-.676-4.544c.483-2.32 2.417-3.915 2.417-3.915s1.111 2.175.676 4.544Zm-7.25.87c1.015 2.176 3.287 3.24 3.287 3.24s.58-2.418-.484-4.593C2.556 39.632.284 38.568.284 38.568s-.532 2.417.484 4.593Zm10.586 9.57c.145 2.369-1.305 4.4-1.305 4.4s-1.692-1.838-1.789-4.255c-.145-2.368 1.305-4.398 1.305-4.398s1.692 1.885 1.789 4.253Zm-6.768 2.707C6.133 57.274 8.6 57.709 8.6 57.709s-.049-2.465-1.596-4.302c-1.547-1.837-4.012-2.272-4.012-2.272s.049 2.465 1.595 4.302Zm13.39 4.206c1.16 2.079.726 4.544.726 4.544s-2.32-.967-3.433-3.045c-1.16-2.08-.725-4.544-.725-4.544s2.272.966 3.432 3.045Zm-4.93 5.365c2.175.967 4.592.339 4.592.339s-1.112-2.224-3.287-3.19c-2.175-.967-4.592-.34-4.592-.34s1.112 2.224 3.287 3.191Zm13.486-.725c1.837 1.547 2.32 3.964 2.32 3.964s-2.465-.048-4.35-1.547c-1.837-1.498-2.32-3.964-2.32-3.964s2.514.049 4.35 1.547Zm-2.61 6.815c2.368.097 4.399-1.353 4.399-1.353s-1.886-1.644-4.254-1.74c-2.369-.097-4.399 1.353-4.399 1.353s1.837 1.644 4.254 1.74Zm11.988-4.445c2.127 1.063 3.19 3.287 3.19 3.287s-2.417.58-4.592-.483c-2.127-1.064-3.19-3.287-3.19-3.287s2.417-.58 4.592.483Zm-.967 7.202c2.32-.484 3.964-2.369 3.964-2.369s-2.223-1.16-4.544-.677c-2.32.484-3.964 2.369-3.964 2.369s2.224 1.16 4.544.677Zm-5.22-70.236c-2.03 1.256-4.496.918-4.496.918s.87-2.32 2.9-3.577c2.031-1.257 4.496-.92 4.496-.92s-.87 2.32-2.9 3.578ZM55.777 10c2.272.724 4.593-.243 4.593-.243s-1.402-2.078-3.674-2.755c-2.272-.725-4.592.242-4.592.242s1.401 2.03 3.673 2.755Zm4.254-5.898c1.402 1.934 1.257 4.448 1.257 4.448s-2.417-.677-3.77-2.61c-1.402-1.934-1.257-4.448-1.257-4.448s2.368.629 3.77 2.61Zm3.335 11.408c2.175 1.015 4.593.484 4.593.484s-1.064-2.224-3.24-3.287c-2.174-1.016-4.591-.484-4.591-.484s1.111 2.272 3.238 3.287Zm5.124-5.221c1.112 2.126.58 4.543.58 4.543s-2.271-1.015-3.383-3.142-.58-4.544-.58-4.544 2.272 1.016 3.383 3.143Zm.097 12.568c1.74 1.643 4.206 1.885 4.206 1.885s-.339-2.465-2.03-4.109c-1.74-1.643-4.206-1.885-4.206-1.885s.338 2.465 2.03 4.109Zm6.477-3.384c.387 2.369-.87 4.496-.87 4.496s-1.837-1.644-2.223-4.013c-.387-2.368.87-4.495.87-4.495s1.837 1.692 2.223 4.012Zm-3.19 13.147c1.257 2.03 3.625 2.852 3.625 2.852s.29-2.465-.966-4.495c-1.257-2.03-3.626-2.852-3.626-2.852s-.338 2.465.967 4.495Zm7.058-1.69c-.242 2.368-1.934 4.157-1.934 4.157s-1.354-2.079-1.16-4.447c.242-2.369 1.933-4.158 1.933-4.158s1.402 2.079 1.16 4.448ZM71.39 42.29c.484 2.32 2.418 3.915 2.418 3.915s1.16-2.223.677-4.544c-.484-2.32-2.417-3.915-2.417-3.915s-1.16 2.175-.677 4.544Zm7.252.87c-1.016 2.176-3.287 3.24-3.287 3.24s-.58-2.418.483-4.593c1.015-2.175 3.287-3.239 3.287-3.239s.532 2.417-.483 4.593Zm-10.635 9.57c-.145 2.369 1.305 4.4 1.305 4.4s1.692-1.838 1.789-4.255c.145-2.368-1.306-4.398-1.306-4.398s-1.643 1.885-1.788 4.253Zm6.768 2.707c-1.547 1.837-4.013 2.272-4.013 2.272s.049-2.465 1.596-4.302c1.546-1.837 4.012-2.272 4.012-2.272s-.049 2.465-1.596 4.302Zm-13.342 4.206c-1.16 2.079-.725 4.544-.725 4.544s2.32-.967 3.432-3.045c1.16-2.08.725-4.544.725-4.544s-2.32.966-3.432 3.045Zm4.93 5.365c-2.175.967-4.592.339-4.592.339s1.112-2.224 3.287-3.19c2.175-.967 4.592-.34 4.592-.34s-1.111 2.224-3.287 3.191Zm-13.486-.725c-1.837 1.547-2.32 3.964-2.32 3.964s2.465-.048 4.35-1.547c1.837-1.498 2.32-3.964 2.32-3.964s-2.513.049-4.35 1.547Zm2.61 6.815c-2.368.097-4.398-1.353-4.398-1.353s1.885-1.644 4.253-1.74c2.369-.097 4.4 1.353 4.4 1.353s-1.886 1.644-4.255 1.74ZM49.638 3.619c2.03 1.256 4.496.918 4.496.918s-.87-2.32-2.9-3.577C49.203-.297 46.737.04 46.737.04s.87 2.32 2.9 3.578Zm-4.64 63.034c-2.127 1.063-3.19 3.287-3.19 3.287s2.416.58 4.591-.483c2.127-1.064 3.19-3.287 3.19-3.287s-2.465-.58-4.591.483Zm.918 7.202c-2.32-.484-3.964-2.369-3.964-2.369s2.224-1.16 4.544-.677c2.32.484 3.964 2.369 3.964 2.369s-2.224 1.16-4.544.677Z" fill="#070E20"/><path d="M58 40.549H21.748v3.383H58V40.55Z" fill="#D3224D"/><path d="M59.451 42.967H20.297v2.9H59.45v-2.9Zm1.45 3.867H18.846v1.933h42.055v-1.933Zm-35.287-21.27h-2.417v15.469h2.417V25.564Zm5.317 0h-2.417v15.469h2.417V25.564Zm4.834 0h-2.417v15.469h2.417V25.564Zm5.317 0h-2.417v15.469h2.417V25.564Zm5.318 0h-2.417v15.469H46.4V25.564Zm4.833 0h-2.416v15.469h2.416V25.564Zm5.317 0h-2.416v15.469h2.417V25.564Z" fill="#D3224D"/><path d="M59.403 26.048H20.007l-1.064-2.804L39.73 12.803l20.737 10.49-1.063 2.755Zm-19.674-9.91a2.218 2.218 0 0 0-2.224 2.224c0 1.208 1.015 2.223 2.224 2.223a2.218 2.218 0 0 0 2.224-2.223c0-1.209-1.016-2.224-2.224-2.224Z" fill="#D3224D"/><path d="M9.71 85.795c0-.29.049-.677.097-1.064l.967-5.075h2.659l-.967 5.124c-.049.386-.097.725-.097.966 0 .29.048.484.193.629.097.145.29.193.484.193.193 0 .386-.048.532-.096.145-.049.241-.145.386-.29.194-.29.387-.774.532-1.45l.967-5.125H17.3l-.967 5.124c-.242 1.16-.628 1.934-1.257 2.417-.58.435-1.498.677-2.707.677-.87 0-1.595-.193-2.03-.58-.435-.338-.629-.822-.629-1.45Zm12.907 2.029c-.967 0-1.45-.387-1.45-1.112 0-.193.048-.483.096-.822l.193-1.111c.194-1.064.339-1.692.339-1.934 0-.483-.145-.677-.387-.677-.435 0-.822.58-1.063 1.789l-.725 3.674-2.417.241 1.256-6.38 1.982-.242-.193 1.16c.387-.773 1.16-1.16 2.32-1.16.58 0 .967.097 1.209.338.241.242.338.629.338 1.16 0 .484-.145 1.354-.387 2.514-.145.532-.193.87-.193 1.064 0 .193.048.338.145.483.097.097.242.193.387.193-.097.29-.242.484-.532.629a2.36 2.36 0 0 1-.918.193Zm5.365-.918c-.241.58-.773.918-1.546.918-.387 0-.726-.144-1.016-.434-.193-.242-.338-.484-.338-.726 0-.628.145-1.595.435-2.9l.435-2.32 2.465-.242-.725 3.819c-.145.58-.193 1.015-.193 1.208 0 .435.145.677.483.677Zm-1.788-7.154c0-.29.145-.532.387-.725.241-.145.58-.242.966-.242.387 0 .677.097.919.242.241.145.338.387.338.725 0 .29-.145.532-.387.725-.241.145-.58.242-.966.242a1.72 1.72 0 0 1-.919-.242c-.193-.193-.338-.435-.338-.725Zm7.202 1.884c.242-.29.629-.435 1.064-.435.29 0 .532.097.725.242a.846.846 0 0 1 .338.677c0 .29-.048.58-.145.87-.096.29-.193.628-.338.918-.29.629-.58 1.16-.967 1.692-.532.725-1.063 1.305-1.547 1.692-.531.387-1.063.58-1.595.58-.435 0-.822-.048-1.063-.145-.049-1.692-.097-2.852-.145-3.432a26.091 26.091 0 0 0-.145-1.402c-.097-.628-.242-1.063-.484-1.208.194-.145.387-.29.532-.339a3.15 3.15 0 0 1 .822-.097c.386 0 .677.145.966.436.242.29.436.676.484 1.208.048.532.097 1.112.097 1.74 0 .629 0 1.305-.049 2.079.242-.194.484-.532.774-1.064.338-.725.628-1.546.725-2.465.048-.29.048-.532.048-.822-.048-.435-.097-.628-.097-.725Zm7.348 3.917c.193.145.29.338.29.677 0 .29-.097.532-.242.725-.145.193-.338.338-.58.483-.531.242-1.063.387-1.595.387s-1.015-.048-1.305-.193c-.338-.145-.58-.29-.822-.532-.435-.435-.628-1.015-.628-1.789 0-1.208.338-2.175.967-2.948.725-.774 1.691-1.209 2.9-1.209.773 0 1.353.145 1.692.484.29.241.435.58.435.966 0 1.402-1.209 2.127-3.674 2.127-.048.194-.048.387-.048.58 0 .387.096.629.241.774.145.145.387.193.725.193.29 0 .629-.048.967-.193a1.95 1.95 0 0 0 .677-.532ZM38.279 84.2c.58 0 1.015-.194 1.353-.532.339-.338.484-.774.484-1.305a.966.966 0 0 0-.097-.435c-.048-.097-.193-.145-.29-.145-.145 0-.242.048-.387.096a.745.745 0 0 0-.338.339c-.338.386-.532 1.063-.725 1.982Zm7.782 0c.29-.532.435-1.016.435-1.547 0-.339-.145-.532-.387-.532-.193 0-.386.145-.58.484a3.052 3.052 0 0 0-.387 1.111l-.628 3.819-2.514.242 1.209-6.381 1.982-.242-.194 1.209c.387-.822 1.016-1.209 1.934-1.209.483 0 .822.097 1.064.339.241.241.386.628.386 1.112 0 .483-.145.918-.483 1.208-.339.29-.774.483-1.305.483-.29.049-.435 0-.532-.096Zm6.091-.872c.096-.29.145-.58.145-.822 0-.483-.194-.725-.58-.725-.194 0-.387.097-.532.29-.145.194-.242.387-.242.629 0 .145.049.29.194.435.193.193.531.386.966.676.484.29.822.532.967.774.194.242.29.532.29.822 0 .338-.096.628-.242.918-.145.29-.386.532-.676.773-.58.436-1.402.677-2.369.677-.532 0-.967-.145-1.402-.387-.386-.241-.58-.531-.58-.87 0-.338.097-.58.339-.725a1.35 1.35 0 0 1 .87-.29c.338 0 .628.049.822.194a1.9 1.9 0 0 0-.145.676c0 .532.241.774.676.774a.62.62 0 0 0 .484-.194.62.62 0 0 0 .193-.483c0-.387-.338-.822-1.015-1.257-.58-.386-.918-.628-1.015-.773-.194-.242-.339-.532-.339-.87 0-.339.097-.629.242-.919.145-.29.387-.58.628-.773.58-.435 1.402-.677 2.417-.677.532 0 .919.097 1.257.29.29.194.484.484.484.822 0 .338-.097.628-.339.822-.193.193-.532.29-.918.29a.75.75 0 0 1-.58-.097Zm5.124 3.578c-.242.58-.774.918-1.547.918a1.39 1.39 0 0 1-1.015-.434c-.194-.242-.339-.484-.339-.726 0-.628.145-1.595.435-2.9l.435-2.32 2.466-.242-.725 3.819c-.145.58-.194 1.015-.194 1.208 0 .435.194.677.484.677Zm-1.74-7.154c0-.29.145-.532.386-.725.242-.145.58-.242.967-.242s.677.097.918.242c.242.145.339.387.339.725 0 .29-.145.532-.387.725-.242.145-.58.242-.967.242a1.72 1.72 0 0 1-.918-.242.87.87 0 0 1-.339-.725Zm2.997 6.622c0-.193.048-.58.193-1.16l.629-3.238h-.726l.049-.339a8.553 8.553 0 0 0 2.852-1.498h.58l-.29 1.305h.918l-.096.532h-.919l-.628 3.238c-.097.484-.145.822-.145 1.015 0 .387.145.629.483.677-.097.29-.242.483-.532.628-.29.145-.628.242-1.063.242a1.35 1.35 0 0 1-.967-.386c-.242-.242-.338-.58-.338-1.016Zm7.976-.193c-.435.435-1.015.629-1.789.629-.967 0-1.547-.339-1.74-1.064a2.85 2.85 0 0 1-.097-.677c0-.241.049-.483.097-.725l.58-2.997 2.465-.241-.676 3.528c0 .097-.049.194-.049.339 0 .096-.048.241-.048.338 0 .097 0 .193.048.29.049.097.097.145.145.193a.91.91 0 0 0 .387.097c.193 0 .338-.097.483-.29.145-.193.242-.483.339-.87l.677-3.335 2.368-.242-.918 4.737c-.29 1.547-.774 2.61-1.354 3.239-.29.29-.677.531-1.063.677-.387.144-.87.193-1.402.193-.822 0-1.499-.145-1.982-.387-.483-.242-.725-.628-.725-1.063 0-.339.145-.58.387-.774.241-.193.58-.29.966-.29.339 0 .629.097.87.194.146.096.242.193.339.29a.78.78 0 0 0-.29.628c0 .338.145.532.483.532.532 0 .967-.629 1.257-1.837.097-.339.145-.725.242-1.112ZM31.221 59.837h-.58c-.193 0-.387 0-.58.049-.048-.097-.048-.194-.048-.339 0-.241.048-.435.193-.58a.776.776 0 0 1 .532-.242h.483l.774-3.528c-.194.193-.484.29-.87.29-.194 0-.387-.097-.532-.29a1.498 1.498 0 0 1-.29-.629c.918-.145 2.078-.531 3.432-1.16l.29.339-.919 4.978h.242c.387 0 .677-.048.87-.096a.974.974 0 0 1 .145.532c0 .241-.096.386-.242.531-.145.145-.386.194-.676.194-.532 0-1.112 0-1.644-.049h-.58Zm7.009-5.027a4.121 4.121 0 0 1-1.595.337c-.483 0-.87-.096-1.112-.241a.771.771 0 0 1-.386-.677c0-.193.048-.338.096-.483a1.16 1.16 0 0 1 .29-.436c.049.146.532.242 1.354.29h2.707l.193.774-.435.677-.435.725-.58 1.063c-.29.58-.532 1.015-.58 1.305-.097.29-.145.436-.145.58-.048.146-.048.29-.048.436 0 .145.048.241.096.29-.145.241-.386.386-.725.483-.096.048-.242.048-.387.048a.91.91 0 0 1-.386-.096.743.743 0 0 1-.29-.194c-.145-.193-.242-.386-.242-.58 0-.193.048-.386.097-.531.048-.145.145-.29.241-.436l2.272-3.335Zm1.16 3.672c0-.725.483-1.305 1.402-1.74-.387-.338-.628-.725-.628-1.16 0-.58.241-1.112.725-1.498a2.908 2.908 0 0 1 1.836-.629c.484 0 .919.097 1.209.338.29.242.435.532.435.87 0 .532-.29 1.016-.822 1.354-.145.097-.338.193-.483.29.387.338.677.58.773.725.145.242.242.484.242.774 0 .29-.048.531-.193.821-.145.29-.339.484-.58.677-.532.435-1.16.628-1.934.628-.628 0-1.112-.145-1.45-.386-.338-.29-.532-.629-.532-1.064Zm1.982-1.257c-.338.242-.483.58-.483.967 0 .242.048.387.145.532a.508.508 0 0 0 .435.242.62.62 0 0 0 .483-.194.776.776 0 0 0 .242-.531c0-.194-.049-.339-.194-.435l-.628-.58Zm1.16-1.401c.339-.145.532-.435.532-.822 0-.193-.048-.387-.145-.483-.097-.145-.242-.194-.435-.194a.817.817 0 0 0-.484.145.44.44 0 0 0-.193.387c0 .242.048.435.193.532l.532.435Zm3.771.097c.338-.048.628-.048.87-.048s.435.048.677.145a2.6 2.6 0 0 1 .628.338c.387.29.58.629.58 1.015 0 .387-.048.726-.193 1.064-.145.29-.339.58-.58.822-.532.483-1.16.725-1.934.725-.58 0-1.015-.097-1.305-.29-.29-.194-.435-.435-.435-.774 0-.338.097-.628.339-.773.241.435.676.677 1.208.677.338 0 .58-.097.773-.242.194-.145.29-.387.29-.677 0-.58-.435-.87-1.305-.87-.338 0-.58 0-.822.048l.87-3.383h2.176c.483 0 .822-.097.967-.339.145.145.241.387.241.677 0 .29-.096.532-.338.773-.242.194-.532.339-.87.339h-1.595l-.242.773Z" fill="#070E20"/></svg>