<svg width="93" height="90" fill="none" xmlns="http://www.w3.org/2000/svg"><path d="M9.408 58.481c-.184 2.706-2.11 4.77-2.11 4.77s-1.606-2.339-1.422-5.045c.183-2.706 2.11-4.77 2.11-4.77s1.605 2.339 1.422 5.045Zm-8.027 2.11c1.468 2.294 4.174 3.165 4.174 3.165s.275-2.798-1.193-5.091C2.895 56.37.188 55.5.188 55.5s-.275 2.798 1.193 5.091Zm11.788 8.532c.137 2.706-1.514 5-1.514 5s-1.88-2.11-2.064-4.817c-.137-2.706 1.514-5 1.514-5s1.88 2.11 2.064 4.817Zm-7.706 3.074c1.743 2.064 4.541 2.614 4.541 2.614s-.092-2.843-1.835-4.908C6.426 67.84 3.63 67.29 3.63 67.29s.091 2.844 1.834 4.908Zm15.228 4.814c1.285 2.385.78 5.183.78 5.183s-2.614-1.1-3.899-3.486c-1.284-2.385-.78-5.183-.78-5.183s2.57 1.101 3.9 3.486Zm-5.641 6.1c2.477 1.101 5.229.413 5.229.413s-1.285-2.523-3.762-3.624c-2.476-1.1-5.228-.412-5.228-.412s1.284 2.477 3.76 3.623Zm15.32-.826c2.11 1.743 2.66 4.495 2.66 4.495s-2.844-.046-4.908-1.789c-2.11-1.743-2.66-4.495-2.66-4.495s2.843.046 4.907 1.789Zm-2.936 7.705c2.706.139 5-1.559 5-1.559s-2.11-1.88-4.817-1.972c-2.706-.138-5 1.56-5 1.56s2.065 1.88 4.817 1.972ZM4.592 48.207c.458 2.66-.918 5.137-.918 5.137s-2.11-1.88-2.568-4.54c-.459-2.661.917-5.138.917-5.138s2.11 1.88 2.569 4.54Zm78.525 10.274c.184 2.706 2.11 4.77 2.11 4.77s1.605-2.339 1.422-5.045c-.184-2.706-2.11-4.77-2.11-4.77s-1.605 2.339-1.422 5.045Zm8.027 2.11c-1.468 2.294-4.174 3.165-4.174 3.165s-.276-2.798 1.192-5.091c1.468-2.294 4.174-3.165 4.174-3.165s.275 2.798-1.192 5.091Zm-11.788 8.532c-.138 2.706 1.514 5 1.514 5s1.88-2.11 2.063-4.817c.138-2.706-1.513-5-1.513-5s-1.927 2.11-2.064 4.817Zm7.706 3.074c-1.743 2.064-4.54 2.614-4.54 2.614s.09-2.843 1.834-4.908c1.743-2.064 4.54-2.614 4.54-2.614s-.091 2.844-1.834 4.908Zm-15.228 4.814c-1.285 2.385-.78 5.183-.78 5.183s2.614-1.1 3.898-3.486c1.285-2.385.78-5.183.78-5.183s-2.614 1.101-3.898 3.486Zm5.641 6.1c-2.477 1.101-5.229.413-5.229.413s1.284-2.523 3.761-3.624c2.477-1.1 5.23-.412 5.23-.412s-1.285 2.477-3.762 3.623Zm-15.365-.826c-2.11 1.743-2.66 4.495-2.66 4.495s2.843-.046 4.907-1.789c2.11-1.743 2.66-4.495 2.66-4.495s-2.797.046-4.907 1.789Zm2.981 7.705c-2.706.139-5-1.559-5-1.559s2.11-1.88 4.816-1.972c2.707-.138 5 1.56 5 1.56s-2.11 1.88-4.816 1.972Zm22.796-41.783c-.459 2.66.918 5.137.918 5.137s2.11-1.88 2.568-4.54c.459-2.661-.917-5.138-.917-5.138s-2.11 1.88-2.569 4.54Zm-60.82-13.715c-.184-.596-.643-.183-.78-.504-.138-.367.596-.596.871-.688.23-.092.918-.321 1.055.046.092.32-.413.275-.275.78.184.596.275.917.505 1.559.091.275.504 1.605-1.514 2.293-2.293.826-2.706-.917-2.752-.963-.23-.504-.321-.78-.505-1.284-.137-.367-.55-.184-.642-.459-.046-.091-.229-.367 1.055-.871 1.01-.413 1.284-.276 1.376-.092.138.413-.458.183-.23.871.138.413.23.643.368 1.055.23.688.688 1.01 1.284.78.918-.32.642-1.055.642-1.1a10.138 10.138 0 0 0-.458-1.423Zm4.999-1.008c.092.046.321.183.459.137.137-.046.092-.275.092-.367-.046-.137-.092-.412-.184-.504-.138-.23-.459-.046-.55-.367-.092-.367.55-.505.825-.55.275-.046.963-.23 1.055.137.092.321-.32.275-.367.596-.046.23.046.597.092.826.138.596.183.917.321 1.514.046.275.275 1.055-.138 1.146-.137.046-.229 0-.367-.091a53.419 53.419 0 0 0-2.293-1.147c-.092-.046-.321-.138-.413-.092-.183.046-.091.413-.046.55.046.184.092.368.184.505.183.321.459.138.55.413.092.367-.504.596-.78.688-.275.092-.87.23-1.009-.138-.091-.32.276-.275.23-.688-.046-.275-.138-.642-.184-.871-.137-.413-.229-.826-.458-1.238-.276-.551-.643-.184-.78-.505-.138-.413.734-.642 1.009-.734.413-.092.459-.092.826.046.871.23 1.238.413 1.926.734Zm2.752-.23c-.137-.734-.23-.918-.32-.964-.184-.137-.414-.091-.46-.32-.091-.413 1.239-.689 1.377-.689.412-.091 1.192-.183 1.238.23.046.229-.23.229-.321.413-.092.137 0 .688.046 1.1.046.23.046.367.091.597.184 1.055.23 1.009.367 1.055.184.045.322.045.367.229.046.183 0 .459-1.33.688-.23.046-1.009.183-1.1-.184-.047-.183.183-.275.229-.412.046-.092.091-.321-.092-1.147-.046-.23-.046-.367-.092-.596Zm5.459 1.146c-.092.276-.184.55-.505.597-.367.046-.459-.138-.642-.413-.596-1.01-.917-1.468-1.605-2.431-.23-.367-.322-.413-.597-.413-.137 0-.23-.092-.23-.183-.09-.459.964-.642 1.285-.688 1.376-.184 1.376.137 1.376.229.046.23-.275.275-.275.413 0 .137.321.596.505.871.046.092.183.321.32.321.23 0 .276-.367.368-.504.045-.138.32-.734.275-.872 0-.229-.367-.137-.367-.367-.046-.367.78-.458 1.055-.458.825-.046.963.046 1.009.275 0 .183-.138.23-.275.275-.275.046-.321.046-.505.505-.504 1.1-.734 1.697-1.192 2.843Z" fill="#070E20"/><path d="M45 30.364c.872 0 1.01-.137 1.102-.137.367 0 .55.596.504.871 0 .184-.092.413-.32.413-.505 0-.093-.596-1.331-.55-.734 0-.642.137-.642.825 0 .367.046.367.413.367.504 0 .091-.688.55-.688.367 0 .413.688.413.917 0 .23-.046.964-.413.964s0-.643-.642-.597c-.275 0-.23.23-.23.413.046.872.092.826.734.826 1.285 0 .918-.872 1.422-.872.184 0 .321.23.276.367 0 .413-.367 1.147-.597 1.147-.046 0-.137 0-.275-.046-.138 0-.321-.046-.505-.046-1.009 0-1.513.046-2.522.092-.413 0-.413-.138-.413-.23 0-.32.413-.091.413-.733 0-1.101 0-1.01-.092-2.064-.092-.918-.55-.413-.596-.826-.046-.367.55-.321.78-.367.825-.046 1.192-.046 1.972-.046Zm2.524 1.239c0-.918-.459-.55-.459-.918 0-.32.505-.367.78-.367.137 0 .275 0 .413.046.137 0 .275.046.412.046h1.285c.733.046 1.56.413 1.513 1.193a1.034 1.034 0 0 1-.596.825c-.046.046-.092.046-.092.092 0 .092.092.138.138.138.413.183.596.504.642 1.146.046.55.459.276.413.642 0 .23-.321.413-1.01.367-.962-.091-1.054-.642-1.192-1.422-.046-.275-.137-.55-.504-.55-.138 0-.184 0-.23.367v.596c.046.276.367.23.321.505 0 .23-.183.367-1.146.32-.276 0-1.147-.045-1.147-.458 0-.32.459-.091.459-.871a10.475 10.475 0 0 1 0-1.697Zm1.467.32c0 .138-.045.276.138.276.413 0 .55-.184.596-.55 0-.276-.046-.597-.413-.597-.229 0-.229.138-.275.321 0 .23-.046.321-.046.55Zm3.44.047c.046-.642.826-1.33 2.064-1.147.413.046.872.321.964.321.091 0 .183-.046.32 0 .23.046.643.55.551 1.055-.046.184-.23.367-.459.321-.412-.092-.55-.78-1.238-.871-.184-.046-.413.046-.459.23-.046.458.826.458 1.514 1.054.367.321.505.642.413 1.1-.138.689-.826 1.377-2.248 1.148-.413-.046-1.1-.23-1.422-.46-.275-.183-.367-.825-.32-1.146 0-.183.091-.32.275-.275.458.046.275.963 1.375 1.147.138 0 .505 0 .505-.23.046-.413-.78-.458-1.422-1.055-.23-.367-.459-.733-.413-1.192Zm4.587 1.192c.138-.733.092-.917.046-1.009-.092-.183-.367-.275-.321-.504.092-.413 1.422-.184 1.514-.138.412.092 1.192.275 1.1.642-.045.23-.275.138-.458.275-.138.092-.275.643-.367 1.055-.046.23-.092.367-.138.597-.23 1.055-.137 1.055-.046 1.146.138.138.276.184.23.367-.046.184-.138.413-1.468.138-.275-.046-1.01-.184-.963-.596.046-.184.229-.184.367-.276.091-.091.183-.275.367-1.1.091-.23.091-.367.137-.597Zm5.734-.505c.275.092.412.092.504.092.092 0 .138 0 .275.046.23.091.642.688.413 1.284-.092.275-.321.413-.642.321-.55-.183-.321-.826-.642-.917-.23-.092-.321.23-.321.275-.184.688-.321 1.055-.505 1.789-.183.688.459.504.321.917-.046.184-.23.367-1.33.092-.321-.092-1.422-.367-1.33-.78.092-.321.413-.092.596-.275.092-.092.184-.459.23-.596.137-.505.229-.78.367-1.285.183-.596.045-.642-.046-.642-.276-.092-.597.596-1.101.459-.23-.046-.321-.321-.275-.505.091-.504.733-1.055 1.1-.963.046 0 .092.046.23.092.092.046.275.092.55.183.642.138.963.23 1.606.413Zm4.586 3.166c-.367.183-.458.367-.596.78-.184.504-.23.734-.23.871 0 .184.368.275.23.55-.138.413-1.055.047-1.376-.045-1.147-.413-1.193-.688-1.147-.872.092-.32.413-.091.597-.275.091-.092.229-.367.412-.917.092-.321.092-.459-.045-.78a19.211 19.211 0 0 0-.46-.963c-.183-.413-.641-.459-.55-.734.046-.138.092-.413 1.56.092 1.33.458 1.238.688 1.192.78-.045.137-.229.137-.275.274-.046.138.092.55.23.643.183.046.55-.138.596-.275.046-.138-.138-.23-.046-.46.138-.32.871-.045 1.1.047.78.32.964.458.826.733-.137.367-.504-.045-.917.138-.504.138-.688.23-1.1.413ZM37.8 64.259c0-.367-.046-.505-.413-.505h-.276c-.183 0-.32-.092-.32-.275 0-.55 1.742-.963 2.89-.963.228 0 .641 0 .641.367 0 .366-.55.091-.596.825v.918c0 .32 0 1.009.092 1.33.137.688 1.009.137 1.009.688 0 .275-.23.32-.459.412-.413.092-1.147.138-1.56.138-.275 0-2.155-.046-2.155-.55 0-.184.183-.321.367-.321.137 0 .275.046.413.046.275 0 .412-.184.412-1.101v-1.01H37.8Zm7.384.045c0 .092.138.138.184.184.32.229.55.642.55 1.055 0 .642-.55 1.65-2.201 1.65-.964 0-2.477-.366-2.477-1.559 0-.734.642-.871.642-1.055 0-.137-.505-.367-.505-1.055 0-.963 1.055-1.467 2.11-1.467.78 0 2.34.229 2.34 1.238.045.734-.643.871-.643 1.01Zm-1.1 1.743c0-.321-.276-.413-.55-.55-.184-.092-.597-.275-.78-.275-.138 0-.184.183-.184.32 0 .505.459.918.963.918.275-.046.55-.138.55-.413Zm-.78-2.89c0 .276.55.643.825.643.184 0 .276-.322.276-.46 0-.366-.367-.504-.688-.504-.184 0-.413.092-.413.321Zm6.926-.504c.183 0 .458 0 .458.275 0 .092-.046.184-.046.276l-1.559 4.678c-.046.183-.046.275-.459.275-.825 0-1.192-.32-1.192-.413 0-.045.046-.137.091-.183l1.377-2.66c.045-.138.229-.367.229-.505 0-.32-.688-.275-.917-.275-1.514 0-.826.459-1.422.459-.459 0-.597-.505-.597-.872 0-.734.321-1.284.688-1.284.321 0 .23.23 1.01.23h2.339Zm3.21 4.587c-1.421 0-2.385-1.008-2.385-2.293 0-1.238 1.285-2.935 1.79-2.935.183 0 1.1.23 1.1.458 0 .092-.138.23-.184.322-.275.32-.55.688-.55.917 0 .092.046.137.138.137.137 0 .504-.229.917-.229.826 0 1.468.688 1.468 1.514-.046 1.055-.918 2.11-2.294 2.11Zm-.137-2.522c-.275 0-.367.23-.367.459 0 .32.321.963.688.963.23 0 .367-.138.367-.367 0-.321-.23-1.055-.688-1.055Z" fill="#070E20"/><path d="M73.806 25.503c-.459-.23-10.963-5.642-27.75-5.642-16.788 0-27.337 5.917-27.75 6.147-.505.32-.871.871-.871 1.467v30.777c0 10.642 25.823 19.861 28.759 20.87.183.046.366.184.55.184h.183c.23 0 .505-.138.688-.184 2.752-1.1 27.154-11.283 27.154-21.833V27.017c0-.642-.413-1.239-.963-1.514ZM45.964 23.21c13.164 0 22.383 3.577 25.136 4.816v15.503H20.783c0-6.422-.046-12.522-.046-14.861 2.752-1.33 11.972-5.458 25.227-5.458Zm.688 52.472c-10.274-3.578-26.007-11.33-26.007-17.43v-3.715H71.1v2.752c0 6.146-14.77 14.448-24.448 18.393Z" fill="#070E20"/><path d="m55.963 48.804-9.815 9.816-9.816-9.816 9.816-9.816 9.815 9.816Z" fill="#D3224D" stroke="#fff" stroke-width="3.674" stroke-miterlimit="10"/><path d="M57.706 4.495c-1.513-2.752-10.503-2.89-11.512-2.935l-.276-.046s-10.045 0-11.65 2.935c-1.238 2.294 2.614 7.43 2.614 7.43l2.156.184s-3.807-4.403-3.302-6.972c.367-1.972 5.55-2.798 8.806-3.119.184.046.367.092.597.138-2.615.504-7.018 1.697-7.247 3.807-.322 2.66 1.972 6.1 1.972 6.1l2.202.138s-2.982-3.532-2.57-6.146c.23-1.376 2.57-2.477 4.771-3.211-.826.642-1.926 1.605-2.247 2.523-1.01 2.66 1.284 7.293 1.284 7.293h1.743s-2.431-4.22-1.743-7.064c.183-.734 1.468-2.34 2.11-3.119l.55-.138c.046 0 .046 0 .092.046.596.734 2.156 2.34 2.34 3.12.687 2.797-1.33 7.2-1.33 7.2h1.742s1.88-4.77.871-7.43c-.366-1.01-1.788-1.972-2.66-2.569 2.385.688 5.367 1.88 5.642 3.486.413 2.615-2.569 6.147-2.569 6.147l2.202-.138s2.248-3.44 1.972-6.1c-.275-2.202-4.907-3.395-7.522-3.853.184-.046.367-.092.505-.138 3.21.275 8.76 1.1 9.127 3.12.505 2.568-3.302 6.97-3.302 6.97l2.156-.182c-.092 0 3.76-5.138 2.476-7.477Zm-11.88-2.477c-.183-.046-.366-.046-.504-.092h.275c.184 0 .367.046.597.046-.092 0-.23 0-.367.046Z" fill="#D3224D"/><path d="M46.01 4.036a2.018 2.018 0 1 0 0-4.036 2.018 2.018 0 0 0 0 4.036Zm-3.664 10.54.908.908.908-.907-.908-.909-.908.908Zm5.465.004.908.908.909-.907-.908-.91-.909.909Z" fill="#D3224D"/><path d="M55.275 15.595s-.045.046-.091 0c-.505-.459-.505-2.569-.046-3.027.137-.092.275-.046.32-.046.46-.505 0-.872 0-.872s-8.439.826-18.897 0c0 0-.458.46.046.872.138 0 .276-.046.367.046.55.504.413 2.522-.091 3.027h-.092s-.459.459.046.871c10.916.826 18.117.046 18.484 0 .413-.504-.046-.871-.046-.871Z" fill="#D3224D"/></svg>