<svg width="95" height="94" fill="none" xmlns="http://www.w3.org/2000/svg"><path d="M31.214 19.953c-2.321.71-4.69-.237-4.69-.237s1.421-2.132 3.742-2.842c2.322-.71 4.69.236 4.69.236s-1.374 2.132-3.742 2.843Zm-4.358-6.064c-1.421 1.99-1.28 4.547-1.28 4.547s2.464-.663 3.885-2.652c1.42-1.99 1.279-4.548 1.279-4.548s-2.463.663-3.884 2.653Zm-3.411 11.699c-2.226 1.042-4.69.474-4.69.474s1.09-2.321 3.317-3.363c2.226-1.042 4.69-.474 4.69-.474s-1.138 2.321-3.317 3.363Zm-5.21-5.351c-1.137 2.179-.616 4.69-.616 4.69s2.321-1.043 3.458-3.222c1.137-2.179.616-4.69.616-4.69s-2.369 1.043-3.458 3.222Zm-.143 12.883c-1.752 1.705-4.31 1.895-4.31 1.895s.331-2.51 2.084-4.216c1.753-1.705 4.31-1.895 4.31-1.895s-.331 2.558-2.084 4.216Zm-6.632-3.458c-.378 2.416.9 4.642.9 4.642s1.896-1.705 2.275-4.12c.379-2.417-.9-4.643-.9-4.643s-1.895 1.705-2.274 4.121Zm3.317 13.452c-1.278 2.085-3.694 2.937-3.694 2.937s-.332-2.51.995-4.595c1.278-2.084 3.694-2.937 3.694-2.937s.284 2.511-.995 4.595Zm-7.294-1.705c.237 2.416 1.99 4.263 1.99 4.263s1.42-2.132 1.183-4.547c-.237-2.416-1.99-4.264-1.99-4.264s-1.42 2.085-1.183 4.548Zm7.767 11.606c-.473 2.416-2.463 4.026-2.463 4.026s-1.184-2.273-.663-4.642c.474-2.415 2.463-4.026 2.463-4.026s1.137 2.226.664 4.642Zm-7.437.901c1.043 2.226 3.364 3.316 3.364 3.316s.568-2.463-.474-4.69C9.66 50.316 7.34 49.227 7.34 49.227s-.569 2.51.473 4.689Zm10.896 9.804c.142 2.464-1.327 4.5-1.327 4.5s-1.705-1.894-1.847-4.31c-.142-2.463 1.326-4.5 1.326-4.5s1.705 1.895 1.848 4.31Zm-6.964 2.795c1.564 1.847 4.074 2.32 4.074 2.32s-.047-2.557-1.658-4.405c-1.563-1.847-4.074-2.32-4.074-2.32s.095 2.51 1.658 4.405Zm13.69 4.311c1.184 2.131.71 4.642.71 4.642s-2.368-.995-3.552-3.127c-1.184-2.131-.71-4.642-.71-4.642s2.415.995 3.552 3.127Zm-5.068 5.494c2.226.995 4.69.38 4.69.38s-1.138-2.275-3.364-3.27c-2.226-.994-4.69-.378-4.69-.378s1.137 2.273 3.364 3.268Zm13.831-.758c1.894 1.563 2.415 4.073 2.415 4.073s-2.557-.047-4.452-1.61c-1.895-1.563-2.369-4.074-2.369-4.074s2.51.048 4.406 1.61Zm-2.653 6.964c2.463.095 4.5-1.42 4.5-1.42s-1.895-1.706-4.358-1.801c-2.463-.095-4.5 1.421-4.5 1.421s1.895 1.705 4.358 1.8Zm5.922-69.111c-2.085 1.279-4.642.947-4.642.947s.852-2.416 2.984-3.648c2.084-1.278 4.642-.947 4.642-.947s-.853 2.369-2.984 3.648Zm26.715 6.538c2.321.71 4.69-.237 4.69-.237s-1.421-2.132-3.742-2.842c-2.321-.71-4.69.236-4.69.236s1.374 2.132 3.742 2.843Zm4.358-6.064c1.421 1.99 1.28 4.547 1.28 4.547s-2.464-.663-3.885-2.652c-1.421-1.99-1.28-4.548-1.28-4.548s2.417.663 3.885 2.653Zm3.411 11.699c2.227 1.042 4.69.474 4.69.474s-1.09-2.321-3.316-3.363c-2.226-1.042-4.69-.474-4.69-.474s1.137 2.321 3.316 3.363Zm5.211-5.351c1.136 2.179.615 4.69.615 4.69s-2.32-1.043-3.458-3.222c-1.136-2.179-.615-4.69-.615-4.69s2.368 1.043 3.458 3.222Zm.142 12.883c1.753 1.705 4.311 1.895 4.311 1.895s-.332-2.51-2.084-4.216c-1.753-1.705-4.31-1.895-4.31-1.895s.33 2.558 2.083 4.216Zm6.632-3.458c.379 2.416-.9 4.642-.9 4.642s-1.895-1.705-2.274-4.12c-.379-2.417.9-4.643.9-4.643s1.895 1.705 2.274 4.121ZM80.62 43.114c1.278 2.085 3.694 2.937 3.694 2.937s.332-2.51-.994-4.595c-1.28-2.084-3.695-2.937-3.695-2.937s-.284 2.511.995 4.595Zm7.294-1.705c-.236 2.416-1.99 4.263-1.99 4.263s-1.42-2.132-1.183-4.547c.237-2.416 1.99-4.264 1.99-4.264s1.373 2.085 1.183 4.548Zm-7.768 11.606c.474 2.416 2.463 4.026 2.463 4.026s1.184-2.273.663-4.642c-.473-2.415-2.463-4.026-2.463-4.026s-1.137 2.226-.663 4.642Zm7.437.901c-1.042 2.226-3.363 3.316-3.363 3.316s-.569-2.463.474-4.69c1.042-2.226 3.363-3.315 3.363-3.315s.568 2.51-.474 4.689ZM76.688 63.72c-.142 2.464 1.326 4.5 1.326 4.5s1.706-1.894 1.848-4.31c.142-2.463-1.326-4.5-1.326-4.5s-1.706 1.895-1.848 4.31Zm6.963 2.795c-1.563 1.847-4.074 2.32-4.074 2.32s.048-2.557 1.658-4.405c1.563-1.847 4.074-2.32 4.074-2.32s-.095 2.51-1.658 4.405Zm-13.689 4.311c-1.185 2.131-.711 4.642-.711 4.642s2.368-.995 3.553-3.127c1.184-2.131.71-4.642.71-4.642s-2.416.995-3.552 3.127Zm5.068 5.494c-2.226.995-4.69.38-4.69.38s1.138-2.275 3.364-3.27c2.226-.994 4.69-.378 4.69-.378s-1.138 2.273-3.364 3.268Zm-13.831-.758c-1.895 1.563-2.416 4.073-2.416 4.073s2.558-.047 4.453-1.61c1.894-1.563 2.368-4.074 2.368-4.074s-2.558.048-4.405 1.61Zm2.652 6.964c-2.463.095-4.5-1.42-4.5-1.42s1.895-1.706 4.358-1.801c2.463-.095 4.5 1.421 4.5 1.421s-1.895 1.705-4.358 1.8Zm-5.968-69.111c2.084 1.279 4.642.947 4.642.947s-.853-2.416-2.984-3.648c-2.084-1.278-4.642-.947-4.642-.947s.9 2.369 2.984 3.648ZM47.557 74.948c15.435 0 27.947-12.513 27.947-27.948S62.992 19.053 47.557 19.053C32.122 19.053 19.61 31.565 19.61 47c0 15.435 12.512 27.948 27.947 27.948Z" fill="#070E20"/><path d="M47.557 74.948c15.435 0 27.947-12.513 27.947-27.948S62.992 19.053 47.557 19.053C32.122 19.053 19.61 31.565 19.61 47c0 15.435 12.512 27.948 27.947 27.948Z" fill="#070E20"/><path d="M63.994 54.388s-2.179 1.421-7.863-.852c-5.684-2.274-8.716.189-8.716.615V32.883c0-.426 3.079-2.89 8.763-.616 5.684 2.274 7.816.853 7.816.853v21.268ZM38.368 32.22c-.616.238-.9.38-1.374.617v14.636l-1.61-.994-1.706.994v-14.02c-1.42.236-3.316-.38-3.316-.38v21.269s1.942 1.42 7.627-.853c5.684-2.273 8.479.19 8.479.616V32.837c0-.427-2.416-2.843-8.1-.616Z" fill="#fff"/><path d="M64.942 35.063V55.43h-36V35.063h-.947v21.789h16.342c.474 0 1.184.616 2.842.616 1.469 0 2.132-.616 2.605-.616h16.58v-21.79h-1.422ZM34.01 65.948v-.663h.236c.142.285.379.427.71.427a.684.684 0 0 0 .332-.095c.095-.047.142-.095.142-.19 0-.047-.047-.094-.094-.142-.048-.047-.19-.047-.332-.094a4.073 4.073 0 0 1-.616-.142c-.142-.048-.237-.143-.331-.237a.538.538 0 0 1-.143-.38c0-.189.095-.378.237-.473.19-.142.38-.19.663-.19.237 0 .427.048.664.143.047-.048.047-.095.094-.142h.19v.615h-.19c-.142-.237-.379-.379-.758-.379-.142 0-.236 0-.284.048-.095.047-.095.094-.095.142 0 .047.048.095.095.142.048.047.237.047.474.095.237.047.426.094.568.142a.485.485 0 0 1 .284.237c.095.094.095.237.095.331 0 .237-.095.38-.284.521-.19.142-.426.19-.71.19a1.67 1.67 0 0 1-.664-.142c-.047.047-.094.094-.094.142h-.19v.094Zm3.789-2.18v1.516c0 .142 0 .189.047.236.048.048.142.048.284.048v.237h-1.515v-.237h.047c.142 0 .237-.048.284-.095.048-.047.048-.142.048-.237v-.71c0-.142 0-.19-.048-.237-.047-.048-.142-.095-.284-.095h-.047v-.237l1.184-.19Zm-.805-.853a.43.43 0 0 1 .142-.331.43.43 0 0 1 .331-.143.43.43 0 0 1 .332.142.43.43 0 0 1 .142.332.43.43 0 0 1-.142.332.43.43 0 0 1-.332.142.43.43 0 0 1-.331-.142c-.142-.142-.142-.237-.142-.332Zm2.842 1.565v.805c0 .095 0 .19.047.237.047.047.095.094.19.094v.237h-1.374v-.237c.142 0 .236 0 .284-.047.047-.047.047-.142.047-.237v-.71c0-.142 0-.19-.047-.237-.047-.047-.142-.048-.284-.048v-.236l1.09-.19c.047.047.047.142.047.284.094-.094.236-.19.331-.284.142-.047.237-.095.379-.095.237 0 .426.048.521.19.142.142.19.284.19.52v.806c0 .142 0 .19.047.237.047.047.142.047.284.047v.237h-1.374v-.237c.048 0 .142 0 .19-.047.047-.047.047-.142.047-.284v-.758c0-.142 0-.237-.047-.284-.048-.048-.095-.095-.142-.095a.36.36 0 0 0-.19.095c-.094.047-.142.142-.236.237Zm4.31.757.237.094c-.047.19-.19.332-.38.426a1.31 1.31 0 0 1-.615.143c-.331 0-.616-.095-.852-.285-.237-.189-.332-.426-.332-.757 0-.332.142-.616.379-.806.237-.19.568-.331.947-.331.237 0 .427.047.569.142.142.095.237.19.237.379 0 .094-.048.142-.095.237a.362.362 0 0 1-.237.094c-.19 0-.284-.094-.332-.331 0-.048-.047-.095-.047-.142-.047-.048-.095-.048-.142-.048-.142 0-.237.048-.332.19-.094.094-.095.284-.095.52 0 .332.048.522.143.664.094.142.236.19.426.19s.379-.143.521-.38Zm1.8-.425c0 .284.048.473.142.615.095.142.237.19.427.19s.379-.095.52-.284l.238.142c-.095.142-.237.237-.38.331a1.253 1.253 0 0 1-.568.142c-.331 0-.616-.094-.852-.284-.237-.19-.332-.473-.332-.805 0-.332.095-.616.332-.805a1.19 1.19 0 0 1 .805-.285c.331 0 .568.095.758.285.19.19.284.426.284.805h-1.374v-.047Zm0-.237h.616c0-.38-.095-.521-.331-.521a.26.26 0 0 0-.237.142c-.048.047-.048.19-.048.379Zm4.121 1.278v-.284h.142c.095 0 .19 0 .237-.047.047-.048.095-.095.095-.237v-1.847c0-.19-.048-.285-.095-.332-.048-.047-.19-.047-.38-.047v-.285c.427 0 .759-.094.995-.284h.237v2.795c0 .095 0 .19.048.237.047.047.095.047.237.047h.142v.284h-1.658Zm3.553-1.801a1.08 1.08 0 0 1-.569-.284c-.142-.142-.19-.284-.19-.52 0-.285.095-.474.285-.617a1.31 1.31 0 0 1 .758-.236c.331 0 .616.094.805.236.19.142.284.38.284.616 0 .19-.047.38-.19.474-.094.142-.283.237-.52.284.284.047.473.142.615.284.143.142.19.332.19.569 0 .331-.095.568-.332.71-.236.19-.473.237-.805.237-.331 0-.663-.095-.852-.237-.237-.142-.332-.426-.332-.71 0-.237.047-.427.19-.569.142-.047.331-.19.663-.237Zm0 .806c0 .284.047.52.094.615.048.095.142.143.285.143.094 0 .189-.048.284-.142.047-.095.094-.285.094-.569 0-.332-.047-.521-.094-.616-.048-.094-.142-.094-.284-.094-.143 0-.237.047-.285.142-.094.094-.094.284-.094.52Zm.047-1.61c0 .283.047.473.095.568a.26.26 0 0 0 .237.142.26.26 0 0 0 .236-.142c.048-.095.048-.285.048-.569 0-.237-.048-.379-.095-.426-.047-.095-.142-.095-.237-.095a.362.362 0 0 0-.237.095c-.047.095-.047.237-.047.426Zm3.126.614c.142-.094.285-.094.474-.094a.96.96 0 0 1 .71.284c.19.19.285.426.285.758 0 .379-.095.663-.332.852-.237.19-.473.285-.758.285a1.01 1.01 0 0 1-.805-.38c-.237-.236-.331-.615-.331-1.089 0-.331.047-.663.189-.994.095-.332.284-.569.568-.758.237-.19.522-.285.806-.285.19 0 .331.048.473.095.142.095.19.19.19.284 0 .095-.047.142-.095.19a.36.36 0 0 1-.19.095c-.094 0-.189-.095-.331-.237-.095-.095-.142-.142-.284-.142s-.237.094-.332.284c-.142.19-.19.474-.237.852Zm-.047.948c0 .284.047.52.095.616.047.142.142.19.284.19a.26.26 0 0 0 .237-.143c.047-.095.095-.284.095-.568 0-.38-.048-.616-.095-.758-.047-.095-.142-.19-.237-.19s-.142.048-.19.095a.359.359 0 0 0-.094.19c-.095.141-.095.331-.095.568Zm3.694-.946c.238 0 .38.095.57.237.142.142.236.331.236.616a1.1 1.1 0 0 1-.426.9c-.284.236-.616.331-.995.331-.237 0-.474-.047-.616-.142-.142-.095-.237-.237-.237-.379 0-.095.048-.19.095-.237a.362.362 0 0 1 .237-.094c.095 0 .142.047.19.094.047.048.094.142.142.237.047.142.142.237.284.237a.43.43 0 0 0 .379-.19c.095-.094.142-.331.142-.615 0-.19 0-.38-.047-.474-.048-.095-.095-.19-.19-.19s-.142.048-.237.095c-.047.048-.094.095-.142.095-.047 0-.095 0-.095-.047-.047-.048-.047-.048-.047-.095s0-.095.047-.095c.048-.047.095-.095.19-.142.331-.237.52-.474.52-.758a.685.685 0 0 0-.094-.331c-.094-.095-.19-.095-.284-.095-.095 0-.19.047-.284.094a.26.26 0 0 0-.142.237c0 .095.047.142.094.237 0 .048.048.048.048.048s-.048.047-.19.094c-.142.048-.236.095-.284.095-.047 0-.095-.047-.142-.142-.047-.095-.047-.142-.047-.237 0-.237.094-.379.331-.52.237-.143.474-.238.758-.238.237 0 .474.048.663.142.19.095.285.237.285.427s-.048.331-.19.473c-.19.143-.332.285-.521.332Z" fill="#fff"/><path d="M47.557 92c24.853 0 45-20.147 45-45s-20.147-45-45-45-45 20.147-45 45 20.147 45 45 45Z" stroke="#D3224D" stroke-width="3.689" stroke-miterlimit="10"/></svg>