<svg width="81" height="90" fill="none" xmlns="http://www.w3.org/2000/svg"><path d="M18.616 70.925c-.141 2.312-1.745 4.105-1.745 4.105s-1.416-1.935-1.275-4.247c.142-2.312 1.746-4.105 1.746-4.105s1.369 1.934 1.274 4.247Zm-6.842 1.887c1.274 1.935 3.587 2.643 3.587 2.643s.188-2.407-1.086-4.342c-1.274-1.934-3.586-2.642-3.586-2.642s-.189 2.406 1.085 4.341Zm12.458 5.523c.896 2.123.189 4.435.189 4.435s-2.124-1.18-2.973-3.303c-.897-2.123-.189-4.436-.189-4.436s2.076 1.133 2.973 3.303ZM18.9 82.96c1.982 1.179 4.388.802 4.388.802s-.85-2.266-2.831-3.445c-1.982-1.18-4.389-.802-4.389-.802s.802 2.265 2.832 3.444Zm13.071.705c1.605 1.652 1.84 4.059 1.84 4.059s-2.406-.283-4.01-1.982c-1.605-1.652-1.84-4.058-1.84-4.058s2.406.33 4.01 1.981Zm-3.256 6.277c2.265.33 4.389-.85 4.389-.85s-1.605-1.793-3.917-2.123c-2.265-.378-4.389.849-4.389.849s1.652 1.793 3.917 2.124Zm-14.44-27.747c.566 2.265-.472 4.435-.472 4.435s-1.935-1.462-2.454-3.727c-.566-2.265.472-4.436.472-4.436s1.888 1.463 2.454 3.728Zm49.878 8.73c.142 2.312 1.746 4.105 1.746 4.105s1.416-1.935 1.274-4.247c-.141-2.312-1.746-4.105-1.746-4.105s-1.415 1.934-1.274 4.247Zm6.795 1.887c-1.274 1.935-3.586 2.643-3.586 2.643s-.189-2.407 1.085-4.342c1.274-1.934 3.587-2.642 3.587-2.642s.235 2.406-1.086 4.341Zm-12.41 5.523c-.897 2.123-.189 4.435-.189 4.435s2.124-1.18 2.973-3.303c.897-2.123.189-4.436.189-4.436s-2.124 1.133-2.973 3.303Zm5.332 4.625c-1.982 1.179-4.388.802-4.388.802s.849-2.266 2.83-3.445c1.983-1.18 4.39-.802 4.39-.802s-.85 2.265-2.832 3.444Zm-13.071.705c-1.605 1.652-1.84 4.059-1.84 4.059s2.406-.283 4.01-1.982c1.605-1.652 1.841-4.058 1.841-4.058s-2.407.33-4.011 1.981Zm3.209 6.277c-2.265.33-4.389-.85-4.389-.85s1.605-1.793 3.917-2.123c2.265-.378 4.389.849 4.389.849s-1.605 1.793-3.917 2.124Zm14.487-27.747c-.566 2.265.472 4.435.472 4.435s1.934-1.462 2.454-3.727c.566-2.265-.472-4.436-.472-4.436s-1.888 1.463-2.454 3.728ZM71.043 5.71l-.095-.095s-.188-.047-.519-.188c0 0-4.624-1.227-8.824-2.501C56.886 1.463 49.996 0 41.597 0c-.095 0-.142.047-.236.047h-.236c-8.4 0-15.29 1.463-20.008 2.973a360.264 360.264 0 0 1-8.824 2.501c-.33.142-.52.236-.52.236h-.094s-.708 3.256-.944 8.919H71.94c-.189-5.71-.896-8.966-.896-8.966ZM41.22 81.918l.141-.425.142.378C59.246 68.8 66.984 51.859 70.099 37.231H12.623c3.115 14.675 10.854 31.616 28.596 44.687Z" fill="#070E20"/><path d="m68.212 8.776-.094-.188s-.142-.095-.472-.236v-.048S63.493 7.22 59.67 6.04a61.734 61.734 0 0 0-18.074-2.69h-.471c-7.598 0-13.827 1.37-18.074 2.69-3.822 1.18-7.975 2.265-7.975 2.265v.048l-.472.236-.094.188S5.97 51.576 41.22 77.53l.142-.377.141.377C76.753 51.577 68.212 8.776 68.212 8.776Z" stroke="#fff" stroke-width="4.268" stroke-miterlimit="10" stroke-linecap="round" stroke-linejoin="round"/><path d="m41.409 41.055 2.737 8.494h8.966l-7.22 5.426 2.737 8.589-7.22-5.191-7.22 5.285 2.737-8.683-7.22-5.426h8.919l2.784-8.494Z" fill="#fff"/><path d="M81 34.92H.968l3.02-8.872-3.02-9.532H81l-3.02 9.013 3.02 9.39Z" fill="#D3224D"/><path d="M13.897 22.274v5.568c0 1.038-.283 1.888-.849 2.454-.566.566-1.416.85-2.454.85-1.038 0-1.84-.284-2.454-.85-.566-.566-.849-1.369-.849-2.454v-5.521l.094-.094h.661c.33 0 .613.094.755.283.142.188.236.472.236.85v4.482c0 1.274.52 1.935 1.604 1.935 1.086 0 1.605-.66 1.605-1.935v-5.568c.236-.047.519-.047.85-.047.282 0 .566 0 .801.047Zm8.495-.047.094.094v8.635a5.888 5.888 0 0 1-.991.095c-.378 0-.755 0-1.038-.047l-2.313-4.908c-.33-.755-.613-1.321-.754-1.793h-.048c.095 1.18.142 2.36.142 3.445v3.208c-.236.048-.52.048-.802.048-.284 0-.567 0-.755-.048v-8.635c.236-.047.566-.094.943-.094.378 0 .755 0 1.038.047l2.313 4.907.802 1.888h.047a44.983 44.983 0 0 1-.141-3.492v-2.312c0-.378.094-.66.236-.803.141-.141.377-.235.707-.235h.52Zm2.218 8.729v-8.682c.188-.047.471-.047.849-.047.33 0 .614 0 .897.047v8.635c-.236.047-.52.047-.897.047a2.51 2.51 0 0 1-.85 0Zm6.7-1.462 1.84-7.173c.142-.047.378-.047.709-.047.33 0 .566.047.802.094l.094.095-2.454 8.493c-.33.048-.707.048-1.18.048-.424 0-.754-.048-.943-.142-.189-.094-.33-.33-.425-.613l-2.218-7.787c.378-.188.708-.235.991-.235.284 0 .472.047.614.188.141.142.236.33.33.661l1.133 4.058c.188.66.33 1.416.519 2.265.094.047.141.095.189.095Zm6.323-.709v.803l.897-.047h3.115c0 .283 0 .471-.048.613-.094.519-.471.802-1.085.802h-3.54c-.282 0-.565-.094-.707-.283-.189-.189-.283-.425-.283-.755v-7.55l.094-.095h5.285c.048.19.048.425.048.661 0 .236-.048.472-.142.755h-3.634v2.218h2.926c.047.189.095.425.095.708s-.048.519-.095.708h-2.973v1.462h.047Zm10.996-3.869c0 .284-.048.567-.142.802-.094.236-.189.472-.33.661-.142.189-.33.378-.52.52-.188.14-.377.282-.613.33.236.094.425.188.566.377.142.189.283.425.378.708l.472 1.274c.094.189.141.377.236.566.094.142.188.283.33.378-.094.141-.283.283-.472.377-.189.095-.425.142-.708.142a.897.897 0 0 1-.613-.236c-.142-.142-.283-.425-.425-.755l-.519-1.51c-.094-.283-.236-.52-.425-.66a1.2 1.2 0 0 0-.755-.237h-.755v3.303c-.141 0-.236.048-.377.048h-.472c-.33 0-.566 0-.802-.048v-8.588l.094-.094c.66 0 1.274-.047 1.746-.047h1.133c.896 0 1.651.235 2.17.66.52.472.803 1.133.803 2.03Zm-4.295-1.415v2.784c.425-.047.85-.047 1.18-.047.897 0 1.368-.472 1.368-1.369 0-.896-.471-1.368-1.368-1.368h-.66a.967.967 0 0 1-.52 0Zm5.757 6.7c.048-.236.095-.471.236-.707.142-.236.284-.425.472-.567.85.567 1.746.85 2.548.85.425 0 .708-.095.944-.283.236-.19.378-.425.378-.708 0-.472-.33-.897-.991-1.133l-1.51-.613c-.614-.236-1.038-.566-1.322-.944-.283-.378-.424-.802-.424-1.321 0-.378.094-.708.236-1.038.141-.33.377-.567.613-.803.283-.236.614-.377.991-.519.378-.141.802-.188 1.227-.188.944 0 1.84.235 2.737.707-.047.52-.236.944-.614 1.274-.849-.377-1.604-.613-2.217-.613-.425 0-.708.094-.944.283a.824.824 0 0 0-.33.66c0 .378.283.709.896.945l1.51.613c.614.236 1.085.566 1.416.991.33.425.472.897.472 1.416 0 .377-.047.755-.189 1.038-.142.33-.33.613-.614.85a3.114 3.114 0 0 1-1.038.566c-.424.141-.896.188-1.462.188-1.039-.047-2.077-.33-3.02-.944Zm7.881.755v-8.682c.236-.047.472-.047.85-.047.33 0 .613 0 .896.047v8.635c-.236.047-.52.047-.897.047-.377.048-.66.048-.849 0Zm6.795-6.323v6.323c-.236.047-.52.047-.85.047-.33 0-.613 0-.849-.047V23.69h-2.171c-.047-.189-.047-.425-.047-.708s0-.519.047-.708h6.04c.048.19.095.425.095.708a.781.781 0 0 1-.236.566c-.141.142-.377.19-.708.19H64.72l.047.896Zm7.315.142.99-2.501c.19-.047.425-.047.755-.047.284 0 .567.047.803.094l.047.094-2.454 5.805v2.69c-.236.046-.519.046-.85.046-.33 0-.613 0-.849-.047v-2.737l-2.406-5.662c.377-.19.66-.283.99-.283.284 0 .52.047.661.141.142.095.236.283.378.566l.802 1.935c.236.566.377 1.133.52 1.699h.093c.095-.52.284-1.085.52-1.793Z" fill="#fff"/></svg>