<svg width="80" height="90" fill="none" xmlns="http://www.w3.org/2000/svg"><path d="M61.666 35.052a1.481 1.481 0 0 0-1.005-1.28l-20.748-6.809a1.556 1.556 0 0 0-.914 0L18.25 34.001a1.48 1.48 0 0 0-1.006 1.28L15.28 58.907c-.045.457.138.96.503 1.28C18.8 62.837 34.11 76.045 39.73 76.045h.183c5.94 0 20.473-13.664 23.307-16.36.32-.32.502-.778.457-1.189l-2.011-23.444Zm-41.633 1.417 19.377-6.581 19.377 6.352.548 6.672-20.062-6.489-19.834 6.855.594-6.81ZM18.8 51.779l20.611-7.13 20.656 6.672.137 1.371-20.793-6.535-20.748 6.992.137-1.37Zm20.885 21.478c-2.97 0-12.065-6.9-18.828-12.476l18.6-6.306L58.1 60.46c-6.398 5.758-15.126 12.842-18.28 12.842h-.137v-.046ZM16.424 25.135c0 .092 0 .137.045.274 0 .183.046.32.092.366a.251.251 0 0 0 .228.137c.092 0 .229-.046.412-.137.091.137.137.229.182.366-.594.32-.914.502-1.508.868-.091-.137-.137-.183-.228-.32.274-.183.411-.548.32-1.097-.183-1.645-.274-2.467-.366-4.158l.457-.229c1.371 1.006 2.01 1.508 3.245 2.605.32.274.548.411.685.411s.274 0 .412-.045c.045.137.091.228.182.365-.96.412-1.416.64-2.33 1.143-.092-.137-.092-.229-.183-.366.228-.091.32-.183.366-.274a.139.139 0 0 0 0-.183l-.183-.183-.092-.091c-.137-.091-.183-.137-.32-.229-.548.275-.868.412-1.416.777Zm-.092-.457c.457-.274.686-.365 1.143-.64-.503-.41-.777-.594-1.28-.96.046.64.092.96.137 1.6Zm8.958-3.975c.228.685.32 1.051.548 1.736-.183.046-.229.092-.411.138-.092-.183-.32-.366-.366-.366-.137.046-.731.868-1.417 1.143-.73.274-1.416.274-2.056 0-.64-.275-1.097-.686-1.371-1.326-.274-.594-.274-1.28 0-1.965s.868-1.188 1.736-1.508c.64-.229 1.783.046 1.874 0 .046 0 .046-.274.046-.457.183-.046.274-.091.457-.137.228.685.366 1.005.594 1.69-.183.047-.274.092-.411.138-.275-.411-.594-.731-.96-.868a1.766 1.766 0 0 0-1.188 0c-.457.182-.731.457-.868.868-.092.411-.046.914.228 1.6.183.456.366.822.548 1.05.183.229.412.366.686.457.274.046.548.046.823-.045a1.53 1.53 0 0 0 .822-.686c.183-.32.274-.73.274-1.28a1.13 1.13 0 0 1 .412-.182Zm2.422-.093c0 .092-.046.137-.046.274-.046.183-.046.32 0 .366.046.091.091.183.183.229.091.045.228 0 .411-.046.046.137.046.228.091.411a21.63 21.63 0 0 0-1.645.412c-.046-.138-.046-.229-.091-.366.32-.091.503-.411.594-.96.228-1.645.411-2.422.731-4.067.183-.046.274-.046.503-.091 1.005 1.325 1.508 2.01 2.376 3.381.229.32.412.549.549.594.137.046.274.092.365.046.046.137.046.229.046.411a21.4 21.4 0 0 0-2.468.457c-.046-.137-.046-.228-.091-.41.228-.047.365-.092.411-.138.046-.046.046-.091.046-.183 0-.046-.046-.137-.092-.228l-.091-.092c-.091-.137-.137-.183-.229-.32-.594.092-.914.183-1.553.32Zm.045-.457c.503-.137.731-.182 1.28-.274-.366-.503-.594-.777-.96-1.28-.137.64-.183.96-.32 1.554Zm4.708.868c0-.137-.046-.228-.046-.41.274-.047.457-.092.503-.184.09-.091.09-.274.09-.502-.136-1.143-.228-1.737-.365-2.88-.045-.228-.091-.365-.182-.457-.092-.09-.32-.09-.595-.045 0-.137-.045-.229-.045-.412.274-.045.411-.045.685-.09.686-.092 1.234-.184 1.6-.23.64-.045 1.188-.045 1.6 0 .41.046.822.183 1.187.366.366.229.64.503.823.823.183.365.274.731.274 1.142 0 .412-.091.823-.274 1.143-.183.32-.457.594-.731.822-.32.229-.64.366-.96.412-.32.045-.914.137-1.69.183-.823.182-1.189.228-1.874.32Zm1.553-4.707c.137 1.326.183 2.011.32 3.336 0 .229.046.366.092.412a.357.357 0 0 0 .182.182c.092.046.229.046.412.046.457-.046.822-.228 1.05-.548.23-.32.32-.823.275-1.508 0-.549-.137-.96-.32-1.28a1.253 1.253 0 0 0-.777-.594 5.138 5.138 0 0 0-1.234-.046Zm7.267 2.057c-.046.503-.046.732-.092 1.189v.457c.046.09.092.137.229.182.137.046.32.092.548.092.32.045.594 0 .731-.046.183-.046.32-.183.457-.366.137-.182.275-.365.366-.594.183 0 .274.046.411.046l-.228 1.6c-1.828-.229-2.788-.32-4.616-.32v-.412h.091c.275 0 .412-.045.503-.137.092-.091.137-.228.137-.457.046-1.142.046-1.736.092-2.879a.983.983 0 0 0-.092-.457c-.091-.091-.274-.137-.548-.137h-.092v-.411c1.92.045 2.88.091 4.799.32-.046.502-.046.776-.046 1.28-.183 0-.274-.047-.457-.047a1.525 1.525 0 0 0-.228-.548.776.776 0 0 0-.274-.274 1.223 1.223 0 0 0-.503-.092c-.411-.045-.64-.045-1.051-.09-.046.685-.046 1.005-.092 1.69.183 0 .32 0 .503.046.229 0 .411 0 .503-.092.091-.091.137-.228.183-.457.182 0 .274.046.457.046-.046.64-.092 1.005-.183 1.645-.183 0-.274-.046-.457-.046v-.045c0-.137 0-.274-.046-.366-.046-.137-.228-.183-.503-.228-.182-.046-.274-.046-.502-.092Zm6.443 3.291c-.411-1.645-.64-2.468-1.188-4.113-.183 1.006-.274 1.508-.457 2.468-.046.228-.046.411-.046.503 0 .091.092.228.183.32.091.09.229.137.411.182-.045.138-.045.229-.091.412-.731-.137-1.097-.183-1.828-.32.046-.137.046-.229.046-.412.137.046.32 0 .41-.045a.468.468 0 0 0 .275-.229c.046-.091.092-.274.137-.503.183-1.005.274-1.508.412-2.513a.812.812 0 0 0-.046-.503c-.092-.091-.274-.182-.549-.228.046-.137.046-.229.046-.412.914.138 1.325.229 2.24.412.456 1.416.64 2.102.96 3.473.959-1.097 1.416-1.645 2.467-2.696.868.228 1.325.365 2.194.685-.046.137-.092.229-.138.366-.045 0-.045 0-.091-.046-.274-.091-.457-.091-.548-.046-.092.046-.183.183-.275.412-.365 1.097-.502 1.645-.868 2.742-.046.228-.091.365 0 .502.046.092.183.183.457.275.046 0 .046 0 .091.045-.045.137-.09.229-.137.366-1.05-.366-1.6-.503-2.696-.777.046-.137.046-.229.092-.366.045 0 .045 0 .09.046.23.046.412.046.504 0 .091-.046.182-.183.228-.411.32-1.097.457-1.645.777-2.742-1.188 1.28-1.782 1.92-2.88 3.244 0-.045-.045-.045-.182-.09Zm6.581-2.742c.046-.137.091-.228.137-.365 1.142.411 1.69.64 2.833 1.096-.045.138-.091.229-.137.366-.046 0-.046 0-.091-.046-.274-.091-.457-.137-.549-.091a.598.598 0 0 0-.274.366c-.457 1.05-.64 1.6-1.097 2.65-.091.229-.091.366-.045.457.045.092.183.229.411.32.046 0 .046 0 .091.046-.045.137-.091.228-.137.365-1.005-.41-1.508-.64-2.559-1.005.046-.137.091-.229.137-.366.274.092.457.137.549.092a.59.59 0 0 0 .274-.412c.411-1.096.594-1.599 1.005-2.696.092-.228.092-.365.046-.502a2.445 2.445 0 0 0-.594-.275Zm7.541 6.443c-.366.64-.594.914-.96 1.553-.137-.09-.228-.137-.365-.228.045-.183.09-.503.045-.503-.137-.091-1.188 0-1.828-.32-.731-.365-1.188-.868-1.417-1.553-.228-.64-.228-1.28.092-1.92.274-.594.777-1.05 1.462-1.28.686-.228 1.463-.136 2.331.32.64.32 1.188 1.372 1.28 1.417.045 0 .228-.183.365-.274.183.091.229.137.412.229-.366.64-.549.96-.869 1.553a3.316 3.316 0 0 0-.411-.228c.137-.503.137-.914 0-1.28a1.603 1.603 0 0 0-.777-.868c-.457-.229-.868-.274-1.234-.091-.366.182-.731.594-1.051 1.233-.229.457-.366.823-.411 1.097-.046.274 0 .549.137.823.137.274.365.457.594.594.32.183.685.228 1.097.183.365-.046.777-.274 1.142-.64.137.046.183.091.366.183Z" fill="#D3224D"/><path d="M39.547 67.362v-1.92h1.188l-.503-1.37h-2.376l-.457 1.37h1.142v1.92H34.52v-1.92h.914l2.65-6.81h2.834l2.513 6.81h.914v1.92h-4.798Zm-.412-6.764-.914 2.422h1.783l-.869-2.422Zm32.768-12.109c1.051 2.148 3.337 3.245 3.337 3.245s.548-2.423-.503-4.616c-1.051-2.148-3.336-3.245-3.336-3.245s-.549 2.468.502 4.616Zm7.267-.96c-.457 2.376-2.377 3.976-2.377 3.976s-1.142-2.24-.685-4.57c.457-2.377 2.376-3.976 2.376-3.976s1.143 2.24.686 4.57Zm-7.998 10.556c.503 2.376 2.423 3.976 2.423 3.976s1.142-2.24.685-4.57c-.503-2.377-2.422-3.93-2.422-3.93s-1.142 2.147-.686 4.524Zm7.313.869c-1.052 2.148-3.29 3.244-3.29 3.244s-.595-2.422.456-4.615c1.051-2.148 3.29-3.245 3.29-3.245s.549 2.468-.456 4.616Zm-10.694 9.642c-.137 2.422 1.326 4.433 1.326 4.433s1.69-1.874 1.828-4.25c.137-2.422-1.326-4.433-1.326-4.433s-1.69 1.873-1.828 4.25Zm6.809 2.742c-1.553 1.828-4.021 2.285-4.021 2.285s.046-2.514 1.645-4.342c1.554-1.828 4.022-2.285 4.022-2.285s-.092 2.514-1.645 4.342ZM61.164 75.59c-1.142 2.101-.73 4.57-.73 4.57s2.33-.96 3.473-3.063c1.142-2.102.73-4.57.73-4.57s-2.33.96-3.473 3.062Zm4.982 5.392c-2.194 1.005-4.616.365-4.616.365s1.143-2.239 3.336-3.199c2.194-1.005 4.616-.365 4.616-.365s-1.142 2.193-3.336 3.199Zm-13.619-.732c-1.873 1.553-2.33 3.975-2.33 3.975s2.513-.046 4.341-1.554c1.874-1.554 2.33-3.976 2.33-3.976s-2.467 0-4.34 1.554Zm2.651 6.854c-2.422.091-4.433-1.371-4.433-1.371s1.874-1.645 4.296-1.737c2.422-.091 4.433 1.371 4.433 1.371s-1.92 1.6-4.296 1.737Zm-10.602-4.478c-2.148 1.051-3.245 3.336-3.245 3.336s2.422.549 4.616-.502c2.148-1.051 3.244-3.336 3.244-3.336s-2.422-.549-4.615.502Zm.959 7.266c-2.376-.456-3.976-2.376-3.976-2.376s2.24-1.142 4.57-.685c2.377.457 3.976 2.376 3.976 2.376s-2.193 1.143-4.57.686Zm30.253-51.595c.32 2.376-1.005 4.524-1.005 4.524s-1.782-1.737-2.102-4.113c-.32-2.377 1.005-4.524 1.005-4.524s1.782 1.736 2.102 4.113ZM7.374 48.489c-1.05 2.148-3.336 3.245-3.336 3.245s-.548-2.423.503-4.616c1.051-2.148 3.336-3.245 3.336-3.245s.548 2.468-.503 4.616Zm-7.266-.96c.457 2.376 2.376 3.976 2.376 3.976s1.143-2.24.686-4.57C2.713 44.558.793 42.959.793 42.959s-1.142 2.24-.685 4.57Zm7.998 10.556c-.503 2.376-2.422 3.976-2.422 3.976s-1.143-2.24-.686-4.57c.503-2.377 2.423-3.93 2.423-3.93s1.142 2.147.685 4.524Zm-7.312.867c1.05 2.148 3.29 3.244 3.29 3.244s.594-2.422-.457-4.615c-1.05-2.148-3.29-3.245-3.29-3.245s-.549 2.468.457 4.616Zm10.693 9.644c.137 2.422-1.325 4.433-1.325 4.433s-1.69-1.874-1.828-4.25c-.137-2.422 1.325-4.433 1.325-4.433s1.691 1.873 1.828 4.25Zm-6.809 2.742C6.232 73.166 8.7 73.623 8.7 73.623s-.046-2.514-1.646-4.342c-1.553-1.828-4.021-2.285-4.021-2.285s.091 2.514 1.645 4.342Zm13.436 4.252c1.142 2.101.731 4.57.731 4.57s-2.33-.96-3.473-3.063c-1.143-2.102-.731-4.57-.731-4.57s2.33.96 3.473 3.062Zm-4.981 5.392c2.193 1.005 4.615.365 4.615.365s-1.142-2.239-3.336-3.199c-2.194-1.005-4.616-.365-4.616-.365s1.143 2.193 3.337 3.199Zm13.617-.732c1.875 1.553 2.332 3.975 2.332 3.975s-2.514-.046-4.342-1.554c-1.874-1.554-2.33-3.976-2.33-3.976s2.467 0 4.34 1.554Zm-2.65 6.854c2.422.091 4.433-1.371 4.433-1.371s-1.873-1.645-4.296-1.737c-2.422-.091-4.432 1.371-4.432 1.371s1.919 1.6 4.295 1.737Zm10.603-4.478c2.148 1.051 3.244 3.336 3.244 3.336s-2.422.549-4.615-.502c-2.148-1.051-3.245-3.336-3.245-3.336s2.422-.549 4.616.502Zm-.96 7.266c2.377-.456 3.976-2.376 3.976-2.376s-2.24-1.142-4.57-.685c-2.376.457-3.976 2.376-3.976 2.376s2.194 1.143 4.57.686ZM3.49 38.297c-.32 2.376 1.005 4.524 1.005 4.524s1.783-1.737 2.102-4.113c.32-2.377-1.005-4.524-1.005-4.524S3.81 35.92 3.49 38.297Zm43.918-28.151s-7.358.64-15.858 0c-.046-.503 0-3.154 0-3.154 8.82.686 15.858 0 15.858 0v3.154Z" fill="#070E20"/><path d="M47.408 10.237c-.32.046-6.49.731-15.858 0-.411-.366 0-.731 0-.731 8.775.685 15.858 0 15.858 0s.366.32 0 .731Zm-2.331-3.108h2.285l.869-5.393-3.154 5.393Z" fill="#070E20"/><path d="m44.163.777-2.879 6.49v.091h3.93v-.183L44.165.777Z" fill="#070E20"/><path d="M39.502.502h-.046l-1.874 6.444L34.795.593 33.743 6.81 30.727 1.6l.869 5.392h2.147v.228h3.794l-.046.091h-.046v.046h4.022v-.32L39.502.502Z" fill="#070E20"/><path d="M47.408 7.587c-.32.045-6.49.73-15.858 0-.411-.366 0-.732 0-.732 8.775.686 15.858 0 15.858 0s.366.275 0 .732Zm-7.952-6.49a.548.548 0 1 0 0-1.097.548.548 0 0 0 0 1.097Zm4.707.412a.548.548 0 1 0 0-1.097.548.548 0 0 0 0 1.097Zm4.067.959a.548.548 0 1 0 0-1.097.548.548 0 0 0 0 1.097ZM35.252.685c0 .32-.229.549-.549.549a.528.528 0 0 1-.548-.549c0-.32.228-.548.548-.548.32 0 .549.228.549.548Zm-4.571 1.509a.548.548 0 1 0 0-1.096.548.548 0 0 0 0 1.096Z" fill="#070E20"/></svg>