<svg width="62" height="90" viewBox="0 0 62 90" fill="none" xmlns="http://www.w3.org/2000/svg">
<path d="M30.8728 75.7987C30.3452 75.7987 29.7737 75.6229 29.334 75.2711L29.2461 75.1832C11.1757 61.8613 4.93243 44.0107 2.86599 31.3923C0.667652 17.7626 2.69012 7.34245 2.77806 6.90278C2.82202 6.68295 2.86599 6.50708 2.99789 6.28725L3.08582 6.11138C3.30566 5.62775 3.70136 5.23205 4.14103 4.96825C4.14103 4.96825 4.22896 4.92428 4.36086 4.83635C4.5807 4.66048 4.8445 4.57254 5.15226 4.48461C5.19623 4.48461 9.15324 3.60528 12.7145 2.50611C16.6716 1.27504 23.0028 0 30.7849 0H31.2246C39.0067 0 45.3379 1.27504 49.2949 2.50611C52.8562 3.60528 56.7693 4.57255 56.8132 4.57255C57.121 4.66048 57.3848 4.74841 57.6046 4.92428C57.7365 4.96825 57.7805 5.01221 57.7805 5.01221C58.2641 5.27601 58.6159 5.67171 58.8357 6.11138L58.9236 6.28725C59.0116 6.46312 59.0995 6.68295 59.1435 6.90278C59.2314 7.34245 61.2539 17.7626 59.0555 31.3923C56.9891 44.0107 50.7458 61.9052 32.6315 75.2272L32.4996 75.3151C31.928 75.6229 31.4004 75.7987 30.8728 75.7987Z" fill="#081933"/>
<path d="M30.8728 73.8203C30.7409 73.8203 30.653 73.7764 30.5651 73.7324L30.4332 73.6444C12.8904 60.7182 6.823 43.3513 4.8445 31.0846C2.69012 17.8066 4.7126 7.43048 4.7126 7.34255C4.7126 7.29858 4.7126 7.25461 4.75656 7.21065L4.8445 7.03478C4.88846 6.94685 4.9764 6.85891 5.06433 6.81495C5.06433 6.81495 5.19623 6.77098 5.3721 6.63908C5.41606 6.59511 5.504 6.55115 5.59193 6.50718C5.6359 6.50718 9.59291 5.45198 13.1982 4.35281C17.0233 3.20967 23.1347 1.80273 30.653 1.80273H31.0927C38.611 1.80273 44.7224 3.20967 48.5475 4.39678C52.1527 5.49594 56.1098 6.55115 56.1537 6.55115C56.2417 6.59511 56.3296 6.59511 56.3736 6.68305C56.5934 6.77098 56.6813 6.81495 56.6813 6.81495C56.7693 6.85891 56.8572 6.94685 56.9012 7.03478L56.9891 7.21065C56.9891 7.25461 57.0331 7.29858 57.0331 7.34255C57.0331 7.43048 59.0555 17.8066 56.9012 31.0846C54.9227 43.3513 48.8552 60.6743 31.2685 73.6005L31.1366 73.6884C31.0927 73.7763 30.9608 73.8203 30.8728 73.8203Z" fill="#070E20"/>
<path d="M31.0925 2.28567C38.347 2.28567 44.3265 3.60467 48.4154 4.87971C52.0646 5.97888 56.0656 7.07805 56.0656 7.07805V7.12202C56.3294 7.25392 56.5053 7.34185 56.5053 7.34185L56.5932 7.51772C56.5932 7.51772 64.771 48.4508 31.0485 73.292L30.9166 73.38L30.7847 73.292C-2.98176 48.4068 5.19606 7.42978 5.19606 7.42978L5.284 7.25392C5.284 7.25392 5.4159 7.16598 5.72366 7.03408V6.99012C5.72366 6.99012 9.72464 5.93491 13.3739 4.79178C17.4628 3.51674 23.4423 2.19774 30.6968 2.19774C30.7847 2.19774 30.8287 2.19774 30.9166 2.19774C30.9606 2.28567 31.0046 2.28567 31.0925 2.28567ZM31.0925 1.23047H30.9606H30.8727H30.7847H30.6528C23.0466 1.23047 16.8912 2.68137 13.0221 3.86848C9.41687 4.96764 5.45986 6.02285 5.41589 6.02285C5.28399 6.06681 5.1521 6.11078 5.0202 6.24268C4.84433 6.33061 4.75639 6.37458 4.75639 6.37458C4.58053 6.46252 4.40466 6.63838 4.31673 6.81425L4.27276 6.99012C4.22879 7.07805 4.22879 7.16598 4.18483 7.20995C4.09689 7.64962 2.11839 17.762 4.31673 31.1279C5.59176 38.9979 8.0539 46.2964 11.6152 52.8914C16.0998 61.1132 22.2991 68.1919 30.1252 73.9515L30.2571 74.0395C30.433 74.1714 30.6528 74.2593 30.8727 74.2593C31.0925 74.2593 31.3123 74.2153 31.4882 74.0834L31.6201 73.9955C39.4462 68.2358 45.6455 61.1572 50.1301 52.9354C53.6914 46.3404 56.1536 39.0419 57.4286 31.1718C59.583 17.8059 57.6484 7.64962 57.5605 7.25392C57.5605 7.16598 57.5165 7.07805 57.4726 7.03408L57.3846 6.85822C57.2967 6.68235 57.1208 6.50648 56.945 6.41855C56.945 6.41855 56.857 6.37458 56.6812 6.28665C56.5493 6.19871 56.4174 6.11078 56.2855 6.06681C56.2415 6.06681 52.2845 5.01161 48.6792 3.91244C44.8541 2.68137 38.6548 1.23047 31.0925 1.23047Z" fill="white"/>
<path d="M7.96614 67.4025C7.83424 69.7327 6.20747 71.5354 6.20747 71.5354C6.20747 71.5354 4.80053 69.5569 4.93243 67.2266C5.06433 64.8964 6.6911 63.0938 6.6911 63.0938C6.6911 63.0938 8.09804 65.0723 7.96614 67.4025Z" fill="#D3224D"/>
<path d="M1.10739 69.2941C2.42639 71.2287 4.71267 71.9321 4.71267 71.9321C4.71267 71.9321 4.9325 69.514 3.6135 67.5794C2.29449 65.6449 0.0082217 64.9414 0.0082217 64.9414C0.0082217 64.9414 -0.167645 67.3596 1.10739 69.2941Z" fill="#D3224D"/>
<path d="M13.6379 74.7887C14.5172 76.9431 13.8137 79.2734 13.8137 79.2734C13.8137 79.2734 11.7033 78.0863 10.78 75.9319C9.9007 73.7775 10.6042 71.4473 10.6042 71.4473C10.6042 71.4473 12.7585 72.6344 13.6379 74.7887Z" fill="#D3224D"/>
<path d="M8.27386 79.4498C10.2963 80.6369 12.6705 80.2852 12.6705 80.2852C12.6705 80.2852 11.8352 77.9989 9.81269 76.8118C7.79022 75.6247 5.41602 75.9764 5.41602 75.9764C5.41602 75.9764 6.25138 78.2627 8.27386 79.4498Z" fill="#D3224D"/>
<path d="M21.42 80.1953C23.0468 81.866 23.2666 84.2842 23.2666 84.2842C23.2666 84.2842 20.8484 83.9764 19.2217 82.3057C17.5949 80.635 17.3751 78.2168 17.3751 78.2168C17.3751 78.2168 19.7932 78.5246 21.42 80.1953Z" fill="#D3224D"/>
<path d="M18.1664 86.5266C20.4527 86.8783 22.5631 85.6473 22.5631 85.6473C22.5631 85.6473 20.9363 83.8446 18.65 83.4929C16.3638 83.1412 14.2534 84.3722 14.2534 84.3722C14.2534 84.3722 15.8362 86.1749 18.1664 86.5266Z" fill="#D3224D"/>
<path d="M3.61356 58.6083C4.18512 60.8506 3.12992 63.0489 3.12992 63.0489C3.12992 63.0489 1.19538 61.554 0.667781 59.3117C0.0962134 57.0694 1.15142 54.8711 1.15142 54.8711C1.15142 54.8711 3.04199 56.322 3.61356 58.6083Z" fill="#D3224D"/>
<path d="M53.7798 67.4025C53.9117 69.7327 55.5385 71.5354 55.5385 71.5354C55.5385 71.5354 56.9454 69.5569 56.8135 67.2266C56.6816 64.8964 55.0548 63.0938 55.0548 63.0938C55.0548 63.0938 53.6479 65.0723 53.7798 67.4025Z" fill="#D3224D"/>
<path d="M60.6386 69.2941C59.3196 71.2287 57.0333 71.9321 57.0333 71.9321C57.0333 71.9321 56.8135 69.514 58.1325 67.5794C59.4515 65.6449 61.7378 64.9414 61.7378 64.9414C61.7378 64.9414 61.9136 67.3596 60.6386 69.2941Z" fill="#D3224D"/>
<path d="M48.1079 74.7887C47.2285 76.9431 47.932 79.2734 47.932 79.2734C47.932 79.2734 50.0424 78.0863 50.9657 75.9319C51.845 73.7775 51.1416 71.4473 51.1416 71.4473C51.1416 71.4473 48.9872 72.6344 48.1079 74.7887Z" fill="#D3224D"/>
<path d="M53.4719 79.4498C51.4495 80.6369 49.0753 80.2852 49.0753 80.2852C49.0753 80.2852 49.9106 77.9989 51.9331 76.8118C53.9556 75.6247 56.3298 75.9764 56.3298 75.9764C56.3298 75.9764 55.4944 78.2627 53.4719 79.4498Z" fill="#D3224D"/>
<path d="M40.3257 80.1953C38.6989 81.866 38.4791 84.2842 38.4791 84.2842C38.4791 84.2842 40.8972 83.9764 42.524 82.3057C44.1508 80.635 44.3706 78.2168 44.3706 78.2168C44.3706 78.2168 41.9524 78.5246 40.3257 80.1953Z" fill="#D3224D"/>
<path d="M43.5794 86.5266C41.2931 86.8783 39.1827 85.6473 39.1827 85.6473C39.1827 85.6473 40.8095 83.8446 43.0957 83.4929C45.382 83.1412 47.4924 84.3722 47.4924 84.3722C47.4924 84.3722 45.9096 86.1749 43.5794 86.5266Z" fill="#D3224D"/>
<path d="M58.1323 58.6083C57.5608 60.8506 58.616 63.0489 58.616 63.0489C58.616 63.0489 60.5505 61.554 61.0781 59.3117C61.6497 57.0694 60.5945 54.8711 60.5945 54.8711C60.5945 54.8711 58.7039 56.322 58.1323 58.6083Z" fill="#D3224D"/>
<path d="M35.3135 85.5598L30.8729 90.0004L26.4323 85.5598L30.8729 81.1191L35.3135 85.5598Z" fill="#D3224D"/>
<path d="M42.4803 25.8089C42.4803 25.8089 31.7524 26.7322 19.3538 25.8089C19.3098 25.0614 19.3538 21.2363 19.3538 21.2363C32.236 22.2476 42.4803 21.2363 42.4803 21.2363V25.8089Z" fill="white"/>
<path d="M42.4803 25.94C41.9967 25.9839 32.9835 26.9952 19.3538 25.94C18.7383 25.4124 19.3098 24.8848 19.3098 24.8848C32.1481 25.896 42.4803 24.8848 42.4803 24.8848C42.4803 24.8848 43.0519 25.3244 42.4803 25.94Z" fill="white"/>
<path d="M39.1387 21.4121H42.4362L43.7112 13.498L39.1387 21.4121Z" fill="white"/>
<path d="M37.732 12.0918L33.5552 21.5886V21.7205H39.2709V21.5007L37.732 12.0918Z" fill="white"/>
<path d="M30.9169 11.6953L28.191 21.1042L24.102 11.8712L22.5632 20.9283L18.1665 13.2781H18.1226L19.3976 21.1921H22.5632V21.2801V21.5439H28.103L28.059 21.6758H27.9711V21.7197H33.8627V21.2801L30.9169 11.6953Z" fill="white"/>
<path d="M42.4802 22.0279C41.9966 22.0718 32.9834 23.0831 19.3537 22.0279C18.7382 21.5003 19.3097 20.9727 19.3097 20.9727C32.148 21.9839 42.4802 21.0166 42.4802 21.0166C42.4802 21.0166 43.0518 21.4123 42.4802 22.0279Z" fill="white"/>
<path d="M30.873 12.575C31.3101 12.575 31.6644 12.2207 31.6644 11.7836C31.6644 11.3465 31.3101 10.9922 30.873 10.9922C30.4359 10.9922 30.0816 11.3465 30.0816 11.7836C30.0816 12.2207 30.4359 12.575 30.873 12.575Z" fill="white"/>
<path d="M38.5672 12.3986C38.5672 12.8383 38.2154 13.19 37.7758 13.19C37.3361 13.19 36.9844 12.8383 36.9844 12.3986C36.9844 11.959 37.3361 11.6072 37.7758 11.6072C38.2154 11.5633 38.5672 11.915 38.5672 12.3986Z" fill="white"/>
<path d="M44.5026 13.7621C44.5026 14.2018 44.1509 14.5535 43.7112 14.5535C43.2715 14.5535 42.9198 14.2018 42.9198 13.7621C42.9198 13.3224 43.2715 12.9707 43.7112 12.9707C44.1509 12.9707 44.5026 13.3224 44.5026 13.7621Z" fill="white"/>
<path d="M24.7615 12.0037C24.7615 12.4434 24.4098 12.7951 23.9701 12.7951C23.5304 12.7951 23.1787 12.4434 23.1787 12.0037C23.1787 11.5641 23.5304 11.2123 23.9701 11.2123C24.4098 11.1684 24.7615 11.5641 24.7615 12.0037Z" fill="white"/>
<path d="M18.8699 13.3656C18.8699 13.8053 18.5182 14.157 18.0785 14.157C17.6388 14.157 17.2871 13.8053 17.2871 13.3656C17.2871 12.926 17.6388 12.5742 18.0785 12.5742C18.5182 12.5742 18.8699 12.926 18.8699 13.3656Z" fill="white"/>
<path d="M20.5408 35.657H17.5071V32.0957H28.3229V35.657H25.2452V47.9677C25.2452 49.4186 25.553 50.6936 26.1246 51.573C27.0039 53.0239 28.7626 53.8153 30.9169 53.8153C33.0713 53.8153 34.6981 53.0679 35.6654 51.529C36.2369 50.5618 36.5447 49.3307 36.5447 47.9237V35.657H33.511V32.0957H44.2828V35.657H41.2052V47.9677C41.2052 50.4298 40.5457 52.7161 39.3586 54.3429C37.512 56.7611 34.3464 57.9482 30.9169 57.9482C27.3117 57.9482 24.234 56.6731 22.4753 54.3869C21.1563 52.7161 20.5848 50.5617 20.5848 47.9677V35.657H20.5408Z" fill="white"/>
</svg>
