<svg width="93" height="90" viewBox="0 0 93 90" fill="none" xmlns="http://www.w3.org/2000/svg">
<path d="M9.40773 58.481C9.22426 61.1872 7.29783 63.2512 7.29783 63.2512C7.29783 63.2512 5.69247 60.912 5.87594 58.2058C6.05941 55.4996 7.98584 53.4355 7.98584 53.4355C7.98584 53.4355 9.5912 55.7748 9.40773 58.481Z" fill="#070E20"/>
<path d="M1.38099 60.5913C2.84875 62.8847 5.55494 63.7562 5.55494 63.7562C5.55494 63.7562 5.83014 60.9582 4.36238 58.6649C2.89462 56.3715 0.188439 55.5 0.188439 55.5C0.188439 55.5 -0.0867671 58.2979 1.38099 60.5913Z" fill="#070E20"/>
<path d="M13.1689 69.1227C13.3065 71.8289 11.6553 74.1223 11.6553 74.1223C11.6553 74.1223 9.77475 72.0124 9.59128 69.3062C9.45367 66.6 11.1049 64.3066 11.1049 64.3066C11.1049 64.3066 12.9855 66.4165 13.1689 69.1227Z" fill="#070E20"/>
<path d="M5.46312 72.1969C7.20608 74.2609 10.004 74.8113 10.004 74.8113C10.004 74.8113 9.91227 71.9676 8.1693 69.9035C6.42634 67.8395 3.62842 67.2891 3.62842 67.2891C3.62842 67.2891 3.72015 70.1329 5.46312 72.1969Z" fill="#070E20"/>
<path d="M20.6912 77.0113C21.9755 79.3964 21.471 82.1943 21.471 82.1943C21.471 82.1943 18.8565 81.0935 17.5723 78.7084C16.288 76.3233 16.7925 73.5254 16.7925 73.5254C16.7925 73.5254 19.3611 74.6262 20.6912 77.0113Z" fill="#070E20"/>
<path d="M15.0497 83.1113C17.5266 84.2121 20.2786 83.5241 20.2786 83.5241C20.2786 83.5241 18.9943 81.0014 16.5175 79.9005C14.0406 78.7997 11.2886 79.4878 11.2886 79.4878C11.2886 79.4878 12.5729 81.9646 15.0497 83.1113Z" fill="#070E20"/>
<path d="M30.3694 82.2849C32.4793 84.0279 33.0297 86.7799 33.0297 86.7799C33.0297 86.7799 30.186 86.7341 28.1219 84.9911C26.012 83.2482 25.4616 80.4961 25.4616 80.4961C25.4616 80.4961 28.3054 80.542 30.3694 82.2849Z" fill="#070E20"/>
<path d="M27.4338 89.9909C30.14 90.1285 32.4334 88.4314 32.4334 88.4314C32.4334 88.4314 30.3235 86.5508 27.6173 86.4591C24.9111 86.3215 22.6177 88.0186 22.6177 88.0186C22.6177 88.0186 24.6818 89.8992 27.4338 89.9909Z" fill="#070E20"/>
<path d="M4.59162 48.2069C5.0503 50.8672 3.67427 53.3441 3.67427 53.3441C3.67427 53.3441 1.56437 51.4635 1.10569 48.8032C0.647017 46.1429 2.02304 43.666 2.02304 43.666C2.02304 43.666 4.13295 45.5466 4.59162 48.2069Z" fill="#070E20"/>
<path d="M83.1171 58.481C83.3006 61.1872 85.227 63.2512 85.227 63.2512C85.227 63.2512 86.8324 60.912 86.6489 58.2058C86.4654 55.4996 84.539 53.4355 84.539 53.4355C84.539 53.4355 82.9336 55.7748 83.1171 58.481Z" fill="#070E20"/>
<path d="M91.1436 60.5913C89.6758 62.8847 86.9696 63.7562 86.9696 63.7562C86.9696 63.7562 86.6944 60.9582 88.1622 58.6649C89.6299 56.3715 92.3361 55.5 92.3361 55.5C92.3361 55.5 92.6113 58.2979 91.1436 60.5913Z" fill="#070E20"/>
<path d="M79.3559 69.1227C79.2183 71.8289 80.8695 74.1223 80.8695 74.1223C80.8695 74.1223 82.7501 72.0124 82.9335 69.3062C83.0711 66.6 81.4199 64.3066 81.4199 64.3066C81.4199 64.3066 79.4935 66.4165 79.3559 69.1227Z" fill="#070E20"/>
<path d="M87.0619 72.1969C85.319 74.2609 82.5211 74.8113 82.5211 74.8113C82.5211 74.8113 82.6128 71.9676 84.3558 69.9035C86.0987 67.8395 88.8966 67.2891 88.8966 67.2891C88.8966 67.2891 88.8049 70.1329 87.0619 72.1969Z" fill="#070E20"/>
<path d="M71.8335 77.0113C70.5493 79.3964 71.0538 82.1943 71.0538 82.1943C71.0538 82.1943 73.6682 81.0935 74.9525 78.7084C76.2368 76.3233 75.7323 73.5254 75.7323 73.5254C75.7323 73.5254 73.1178 74.6262 71.8335 77.0113Z" fill="#070E20"/>
<path d="M77.475 83.1113C74.9982 84.2121 72.2462 83.5241 72.2462 83.5241C72.2462 83.5241 73.5304 81.0014 76.0073 79.9005C78.4841 78.7997 81.2362 79.4878 81.2362 79.4878C81.2362 79.4878 79.9519 81.9646 77.475 83.1113Z" fill="#070E20"/>
<path d="M62.1096 82.2849C59.9997 84.0279 59.4493 86.7799 59.4493 86.7799C59.4493 86.7799 62.2931 86.7341 64.3571 84.9911C66.467 83.2482 67.0174 80.4961 67.0174 80.4961C67.0174 80.4961 64.2195 80.542 62.1096 82.2849Z" fill="#070E20"/>
<path d="M65.091 89.9909C62.3848 90.1285 60.0914 88.4314 60.0914 88.4314C60.0914 88.4314 62.2013 86.5508 64.9075 86.4591C67.6137 86.3215 69.9071 88.0186 69.9071 88.0186C69.9071 88.0186 67.7972 89.8992 65.091 89.9909Z" fill="#070E20"/>
<path d="M87.8872 48.2069C87.4285 50.8672 88.8045 53.3441 88.8045 53.3441C88.8045 53.3441 90.9144 51.4635 91.3731 48.8032C91.8318 46.1429 90.4558 43.666 90.4558 43.666C90.4558 43.666 88.3459 45.5466 87.8872 48.2069Z" fill="#070E20"/>
<path d="M27.0666 34.4924C26.8832 33.8962 26.4245 34.309 26.2869 33.9879C26.1493 33.621 26.8832 33.3916 27.1584 33.2999C27.3877 33.2082 28.0757 32.9788 28.2133 33.3457C28.3051 33.6668 27.8005 33.621 27.9381 34.1255C28.1216 34.7218 28.2133 35.0429 28.4427 35.685C28.5344 35.9602 28.9472 37.2904 26.929 37.9784C24.6357 38.804 24.2229 37.061 24.177 37.0151C23.9477 36.5106 23.8559 36.2354 23.6724 35.7309C23.5348 35.3639 23.122 35.5474 23.0303 35.2722C22.9844 35.1805 22.801 34.9052 24.0853 34.4007C25.0943 33.9879 25.3695 34.1255 25.4613 34.309C25.5989 34.7218 25.0026 34.4924 25.2319 35.1804C25.3695 35.5933 25.4613 35.8226 25.5989 36.2354C25.8282 36.9234 26.2869 37.2445 26.8832 37.0151C27.8005 36.6941 27.5253 35.9602 27.5253 35.9143C27.3877 35.3639 27.296 35.0887 27.0666 34.4924Z" fill="#070E20"/>
<path d="M32.0661 33.4838C32.1578 33.5296 32.3871 33.6673 32.5247 33.6214C32.6623 33.5755 32.6165 33.3462 32.6165 33.2544C32.5706 33.1168 32.5247 32.8416 32.433 32.7499C32.2954 32.5206 31.9743 32.7041 31.8826 32.383C31.7908 32.016 32.433 31.8784 32.7082 31.8326C32.9834 31.7867 33.6714 31.6032 33.7631 31.9702C33.8549 32.2912 33.4421 32.2454 33.3962 32.5664C33.3503 32.7958 33.4421 33.1627 33.4879 33.3921C33.6255 33.9883 33.6714 34.3094 33.809 34.9057C33.8549 35.1809 34.0842 35.9606 33.6714 36.0524C33.5338 36.0982 33.4421 36.0524 33.3045 35.9606C32.433 35.502 31.9743 35.2726 31.0111 34.814C30.9194 34.7681 30.69 34.6763 30.5983 34.7222C30.4148 34.7681 30.5066 35.135 30.5524 35.2726C30.5983 35.4561 30.6442 35.6396 30.7359 35.7772C30.9194 36.0982 31.1946 35.9148 31.2863 36.19C31.378 36.5569 30.7818 36.7863 30.5066 36.878C30.2313 36.9697 29.6351 37.1073 29.4975 36.7404C29.4057 36.4193 29.7727 36.4652 29.7268 36.0524C29.6809 35.7772 29.5892 35.4102 29.5433 35.1809C29.4057 34.7681 29.314 34.3553 29.0847 33.9425C28.8095 33.392 28.4425 33.759 28.3049 33.4379C28.1673 33.0251 29.0388 32.7958 29.314 32.7041C29.7268 32.6123 29.7727 32.6123 30.1396 32.7499C31.0111 32.9793 31.378 33.1627 32.0661 33.4838Z" fill="#070E20"/>
<path d="M34.8183 33.2537C34.6807 32.5198 34.5889 32.3363 34.4972 32.2904C34.3137 32.1528 34.0844 32.1987 34.0385 31.9694C33.9468 31.5566 35.277 31.2814 35.4146 31.2814C35.8274 31.1896 36.6071 31.0979 36.653 31.5107C36.6988 31.74 36.4236 31.74 36.3319 31.9235C36.2402 32.0611 36.3319 32.6115 36.3778 33.0243C36.4236 33.2537 36.4236 33.3913 36.4695 33.6206C36.653 34.6756 36.6988 34.6297 36.8364 34.6756C37.0199 34.7214 37.1575 34.7214 37.2034 34.9049C37.2493 35.0884 37.2034 35.3636 35.8732 35.5929C35.6439 35.6388 34.8641 35.7764 34.7724 35.4094C34.7265 35.226 34.9559 35.1342 35.0017 34.9966C35.0476 34.9049 35.0935 34.6756 34.91 33.85C34.8641 33.6206 34.8641 33.483 34.8183 33.2537Z" fill="#070E20"/>
<path d="M40.2766 34.4004C40.1849 34.6756 40.0931 34.9509 39.7721 34.9967C39.4051 35.0426 39.3134 34.8591 39.1299 34.5839C38.5336 33.5748 38.2126 33.1162 37.5245 32.1529C37.2952 31.786 37.2035 31.7401 36.9283 31.7401C36.7907 31.7401 36.6989 31.6484 36.6989 31.5567C36.6072 31.098 37.6621 30.9145 37.9832 30.8687C39.3592 30.6852 39.3592 31.0063 39.3592 31.098C39.4051 31.3273 39.084 31.3732 39.084 31.5108C39.084 31.6484 39.4051 32.1071 39.5886 32.3823C39.6345 32.474 39.7721 32.7034 39.9097 32.7034C40.139 32.7034 40.1849 32.3364 40.2766 32.1988C40.3225 32.0612 40.5977 31.4649 40.5518 31.3273C40.5518 31.098 40.1849 31.1897 40.1849 30.9604C40.139 30.5934 40.9646 30.5017 41.2398 30.5017C42.0654 30.4558 42.203 30.5476 42.2489 30.7769C42.2489 30.9604 42.1113 31.0062 41.9737 31.0521C41.6985 31.098 41.6526 31.098 41.4691 31.5567C40.9646 32.6575 40.7353 33.2538 40.2766 34.4004Z" fill="#070E20"/>
<path d="M45.0008 30.3642C45.8723 30.3642 46.0099 30.2266 46.1016 30.2266C46.4685 30.2266 46.652 30.8229 46.6061 31.0981C46.6061 31.2815 46.5144 31.5108 46.2851 31.5108C45.7805 31.5108 46.1933 30.9146 44.9549 30.9604C44.221 30.9604 44.3128 31.0981 44.3128 31.7861C44.3128 32.153 44.3586 32.153 44.7256 32.153C45.2301 32.153 44.8173 31.465 45.276 31.465C45.6429 31.465 45.6888 32.153 45.6888 32.3823C45.6888 32.6117 45.6429 33.3455 45.276 33.3455C44.909 33.3455 45.276 32.7034 44.6338 32.7493C44.3586 32.7493 44.4045 32.9786 44.4045 33.1621C44.4504 34.0336 44.4962 33.9877 45.1384 33.9877C46.4227 33.9877 46.0557 33.1162 46.5603 33.1162C46.7437 33.1162 46.8813 33.3455 46.8355 33.4831C46.8355 33.896 46.4685 34.6298 46.2392 34.6298C46.1933 34.6298 46.1016 34.6298 45.964 34.584C45.8264 34.584 45.6429 34.5381 45.4594 34.5381C44.4504 34.5381 43.9458 34.584 42.9367 34.6298C42.5239 34.6298 42.5239 34.4922 42.5239 34.4005C42.5239 34.0794 42.9367 34.3088 42.9367 33.6666C42.9367 32.5658 42.9367 32.6575 42.845 31.6026C42.7533 30.6852 42.2946 31.1898 42.2487 30.777C42.2029 30.41 42.7991 30.4559 43.0285 30.41C43.8541 30.3642 44.221 30.3642 45.0008 30.3642Z" fill="#070E20"/>
<path d="M47.5237 31.6026C47.5237 30.6853 47.065 31.0522 47.065 30.6853C47.065 30.3642 47.5695 30.3184 47.8447 30.3184C47.9824 30.3184 48.12 30.3183 48.2576 30.3642C48.3952 30.3642 48.5328 30.4101 48.6704 30.4101C48.8997 30.4101 49.0832 30.4101 49.3125 30.4101C49.5418 30.4101 49.7253 30.4101 49.9547 30.4101C50.6885 30.456 51.5141 30.8229 51.4683 31.6026C51.4224 31.9696 51.1931 32.2907 50.872 32.4283C50.8261 32.4741 50.7803 32.4741 50.7803 32.52C50.7803 32.6117 50.872 32.6576 50.9179 32.6576C51.3307 32.8411 51.5141 33.1621 51.56 33.8043C51.6059 34.3547 52.0187 34.0795 51.9728 34.4464C51.9728 34.6758 51.6518 34.8592 50.9637 34.8134C50.0005 34.7216 49.9088 34.1712 49.7712 33.3915C49.7253 33.1163 49.6336 32.8411 49.2666 32.8411C49.129 32.8411 49.0832 32.8411 49.0373 33.208C49.0373 33.3915 49.0373 33.6208 49.0373 33.8043C49.0832 34.0795 49.4042 34.0336 49.3584 34.3088C49.3584 34.5382 49.1749 34.6758 48.2117 34.6299C47.9365 34.6299 47.065 34.584 47.065 34.1712C47.065 33.8501 47.5237 34.0795 47.5237 33.2997C47.4778 32.6117 47.4778 32.2907 47.5237 31.6026ZM48.9914 31.9237C48.9914 32.0613 48.9456 32.1989 49.129 32.1989C49.5418 32.1989 49.6794 32.0154 49.7253 31.6485C49.7253 31.3733 49.6794 31.0522 49.3125 31.0522C49.0832 31.0522 49.0832 31.1898 49.0373 31.3733C49.0373 31.6026 48.9914 31.6944 48.9914 31.9237Z" fill="#070E20"/>
<path d="M52.4313 31.9698C52.4772 31.3277 53.2569 30.6396 54.4954 30.8231C54.9082 30.869 55.3669 31.1442 55.4586 31.1442C55.5503 31.1442 55.6421 31.0983 55.7797 31.1442C56.009 31.1901 56.4218 31.6946 56.3301 32.1991C56.2842 32.3826 56.1007 32.5661 55.8714 32.5202C55.4586 32.4285 55.321 31.7405 54.633 31.6487C54.4495 31.6029 54.2202 31.6946 54.1743 31.8781C54.1284 32.3367 54.9999 32.3368 55.6879 32.933C56.0549 33.2541 56.1925 33.5752 56.1007 34.0338C55.9631 34.7218 55.2751 35.4099 53.8532 35.1805C53.4404 35.1347 52.7524 34.9512 52.4313 34.7218C52.1561 34.5384 52.0644 33.8962 52.1103 33.5752C52.1103 33.3917 52.202 33.2541 52.3855 33.3C52.8441 33.3458 52.6607 34.2632 53.7615 34.4467C53.8991 34.4467 54.266 34.4467 54.266 34.2173C54.3119 33.8045 53.4863 33.7586 52.8441 33.1624C52.6148 32.7954 52.3855 32.4285 52.4313 31.9698Z" fill="#070E20"/>
<path d="M57.0182 33.1623C57.1558 32.4285 57.1099 32.245 57.0641 32.1532C56.9723 31.9698 56.6971 31.878 56.743 31.6487C56.8347 31.2359 58.1649 31.4652 58.2566 31.5111C58.6694 31.6028 59.4492 31.7863 59.3574 32.1532C59.3116 32.3826 59.0822 32.2908 58.8988 32.4284C58.7612 32.5202 58.6236 33.0706 58.5318 33.4834C58.486 33.7127 58.4401 33.8503 58.3942 34.0797C58.1649 35.1346 58.2566 35.1346 58.3484 35.2264C58.486 35.364 58.6236 35.4098 58.5777 35.5933C58.5318 35.7768 58.4401 36.0061 57.1099 35.7309C56.8347 35.685 56.1008 35.5474 56.1467 35.1346C56.1926 34.9512 56.376 34.9511 56.5137 34.8594C56.6054 34.7677 56.6971 34.5842 56.8806 33.7586C56.9723 33.5293 56.9723 33.3917 57.0182 33.1623Z" fill="#070E20"/>
<path d="M62.7516 32.6571C63.0268 32.7488 63.1644 32.7488 63.2561 32.7488C63.3478 32.7488 63.3937 32.7488 63.5313 32.7947C63.7606 32.8864 64.1734 33.4827 63.9441 34.079C63.8524 34.3542 63.623 34.4918 63.302 34.4001C62.7515 34.2166 62.9809 33.5744 62.6598 33.4827C62.4305 33.391 62.3387 33.7121 62.3387 33.7579C62.1553 34.4459 62.0177 34.8129 61.8342 35.5467C61.6507 36.2348 62.2929 36.0513 62.1553 36.4641C62.1094 36.6476 61.9259 36.831 60.8251 36.5558C60.504 36.4641 59.4032 36.1889 59.495 35.7761C59.5867 35.455 59.9078 35.6844 60.0912 35.5009C60.183 35.4091 60.2747 35.0422 60.3206 34.9046C60.4582 34.4001 60.5499 34.1249 60.6875 33.6203C60.871 33.024 60.7334 32.9782 60.6416 32.9782C60.3664 32.8864 60.0454 33.5744 59.5408 33.4368C59.3115 33.391 59.2197 33.1158 59.2656 32.9323C59.3574 32.4278 59.9995 31.8773 60.3664 31.9691C60.4123 31.9691 60.4582 32.015 60.5958 32.0608C60.6875 32.1067 60.871 32.1526 61.1462 32.2443C61.7883 32.3819 62.1094 32.4736 62.7516 32.6571Z" fill="#070E20"/>
<path d="M67.3382 35.823C66.9713 36.0064 66.8796 36.1899 66.742 36.6027C66.5585 37.1073 66.5126 37.3366 66.5126 37.4742C66.5126 37.6576 66.8796 37.7494 66.742 38.0246C66.6044 38.4374 65.687 38.0705 65.3659 37.9787C64.2192 37.5659 64.1734 37.2907 64.2192 37.1072C64.311 36.7862 64.6321 37.0155 64.8155 36.832C64.9073 36.7403 65.0449 36.4651 65.2283 35.9147C65.3201 35.5936 65.3201 35.456 65.1825 35.1349C64.999 34.7221 64.9073 34.5386 64.7238 34.1717C64.5403 33.7589 64.0816 33.713 64.1734 33.4378C64.2192 33.3002 64.2651 33.025 65.7329 33.5296C67.063 33.9883 66.9713 34.2176 66.9254 34.3093C66.8796 34.4469 66.6961 34.4469 66.6502 34.5845C66.6044 34.7221 66.742 35.1349 66.8796 35.2267C67.063 35.2725 67.43 35.0891 67.4758 34.9515C67.5217 34.8139 67.3382 34.7221 67.43 34.4928C67.5676 34.1717 68.3014 34.4469 68.5308 34.5387C69.3105 34.8597 69.494 34.9973 69.3564 35.2725C69.2188 35.6395 68.8519 35.2267 68.4391 35.4101C67.9345 35.5477 67.751 35.6395 67.3382 35.823Z" fill="#070E20"/>
<path d="M37.7995 64.2586C37.7995 63.8916 37.7537 63.754 37.3867 63.754C37.295 63.754 37.2032 63.754 37.1115 63.754C36.928 63.754 36.7904 63.6623 36.7904 63.4788C36.7904 62.9284 38.5334 62.5156 39.6801 62.5156C39.9094 62.5156 40.3222 62.5156 40.3222 62.8826C40.3222 63.2495 39.7718 62.9743 39.726 63.7082C39.726 64.121 39.726 64.3962 39.726 64.6255C39.726 64.9466 39.726 65.6346 39.8177 65.9557C39.9553 66.6437 40.8268 66.0933 40.8268 66.6437C40.8268 66.9189 40.5974 66.9648 40.3681 67.0565C39.9553 67.1482 39.2214 67.1941 38.8086 67.1941C38.5334 67.1941 36.6528 67.1482 36.6528 66.6437C36.6528 66.4602 36.8363 66.3226 37.0198 66.3226C37.1574 66.3226 37.295 66.3685 37.4326 66.3685C37.7078 66.3685 37.8454 66.185 37.8454 65.2677V64.2586H37.7995Z" fill="#070E20"/>
<path d="M45.1844 64.3041C45.1844 64.3959 45.322 64.4417 45.3678 64.4876C45.6889 64.717 45.9182 65.1298 45.9182 65.5426C45.9182 66.1847 45.3678 67.1938 43.7166 67.1938C42.7534 67.1938 41.2397 66.8269 41.2397 65.6343C41.2397 64.9004 41.8819 64.7628 41.8819 64.5794C41.8819 64.4418 41.3774 64.2124 41.3774 63.5244C41.3774 62.5612 42.4323 62.0566 43.4873 62.0566C44.267 62.0566 45.8265 62.286 45.8265 63.295C45.8724 64.0289 45.1844 64.1665 45.1844 64.3041ZM44.0835 66.0471C44.0835 65.726 43.8083 65.6343 43.5331 65.4967C43.3497 65.405 42.9368 65.2215 42.7534 65.2215C42.6158 65.2215 42.5699 65.405 42.5699 65.5426C42.5699 66.0471 43.0286 66.4599 43.5331 66.4599C43.8083 66.414 44.0835 66.3223 44.0835 66.0471ZM43.3038 63.1574C43.3038 63.4326 43.8542 63.7996 44.1294 63.7996C44.3129 63.7996 44.4046 63.4785 44.4046 63.3409C44.4046 62.974 44.0377 62.8364 43.7166 62.8364C43.5331 62.8364 43.3038 62.9281 43.3038 63.1574Z" fill="#070E20"/>
<path d="M50.2297 62.6532C50.4132 62.6532 50.6884 62.6532 50.6884 62.9284C50.6884 63.0201 50.6425 63.1118 50.6425 63.2036L49.083 67.882C49.0371 68.0655 49.0371 68.1573 48.6243 68.1573C47.7987 68.1573 47.4318 67.8362 47.4318 67.7444C47.4318 67.6986 47.4777 67.6069 47.5235 67.561L48.8995 64.9007C48.9454 64.7631 49.1289 64.5337 49.1289 64.3961C49.1289 64.0751 48.4409 64.1209 48.2115 64.1209C46.6979 64.1209 47.3859 64.5796 46.7896 64.5796C46.331 64.5796 46.1934 64.0751 46.1934 63.7081C46.1934 62.9742 46.5144 62.4238 46.8814 62.4238C47.2024 62.4238 47.1107 62.6532 47.8905 62.6532H50.2297Z" fill="#070E20"/>
<path d="M53.4405 67.2406C52.0186 67.2406 51.0554 66.2315 51.0554 64.9473C51.0554 63.7088 52.3396 62.0117 52.8442 62.0117C53.0277 62.0117 53.945 62.2411 53.945 62.4704C53.945 62.5621 53.8074 62.6997 53.7615 62.7915C53.4863 63.1125 53.2111 63.4795 53.2111 63.7088C53.2111 63.8006 53.257 63.8464 53.3487 63.8464C53.4863 63.8464 53.8533 63.6171 54.2661 63.6171C55.0917 63.6171 55.7338 64.3051 55.7338 65.1307C55.688 66.1857 54.8165 67.2406 53.4405 67.2406ZM53.3029 64.7179C53.0277 64.7179 52.9359 64.9473 52.9359 65.1766C52.9359 65.4977 53.257 66.1398 53.6239 66.1398C53.8533 66.1398 53.9909 66.0022 53.9909 65.7729C53.9909 65.4518 53.7615 64.7179 53.3029 64.7179Z" fill="#070E20"/>
<path d="M73.8057 25.503C73.3471 25.2737 62.8434 19.8613 46.0559 19.8613C29.2684 19.8613 18.7189 25.7782 18.3061 26.0076C17.8015 26.3286 17.4346 26.879 17.4346 27.4753C17.4346 27.4753 17.4346 49.033 17.4346 58.2524C17.4346 68.8937 43.258 78.1131 46.1935 79.1221C46.377 79.168 46.5604 79.3056 46.7439 79.3056H46.9274C47.1567 79.3056 47.4319 79.168 47.6154 79.1221C50.3675 78.0213 74.769 67.8387 74.769 57.2892V27.0167C74.769 26.3745 74.3562 25.7782 73.8057 25.503ZM45.9642 23.2097C59.1281 23.2097 68.3475 26.7873 71.0996 28.0257V43.529H20.7829C20.7829 37.1075 20.737 31.0071 20.737 28.6679C23.4891 27.3377 32.7085 23.2097 45.9642 23.2097ZM46.6522 75.6821C36.3779 72.1044 20.6453 64.3528 20.6453 58.2524C20.6453 57.1516 20.6453 55.4545 20.6453 54.5372H71.0996V57.2892C71.0996 63.4355 56.3302 71.7375 46.6522 75.6821Z" fill="#070E20"/>
<path d="M55.9633 48.8039L46.1477 58.6196L36.332 48.8039L46.1477 38.9883L55.9633 48.8039Z" fill="#D3224D" stroke="white" stroke-width="3.6736" stroke-miterlimit="10"/>
<path d="M57.7063 4.49506C56.1927 1.74301 47.2027 1.6054 46.1936 1.55953L45.9184 1.51367C45.9184 1.51367 35.8734 1.51366 34.268 4.44918C33.0296 6.74255 36.8825 11.8797 36.8825 11.8797L39.0383 12.0632C39.0383 12.0632 35.2313 7.65991 35.7358 5.09133C36.1027 3.11903 41.2858 2.29342 44.5424 1.97235C44.7258 2.01821 44.9093 2.06408 45.1386 2.10994C42.5242 2.61449 38.1209 3.80704 37.8916 5.91694C37.5705 8.57726 39.8639 12.0173 39.8639 12.0173L42.0655 12.1549C42.0655 12.1549 39.0841 8.62313 39.4969 6.00868C39.7263 4.63266 42.0655 3.53184 44.2672 2.79796C43.4415 3.4401 42.3407 4.40332 42.0197 5.32067C41.0106 7.98099 43.3039 12.6136 43.3039 12.6136H45.0469C45.0469 12.6136 42.6159 8.39379 43.3039 5.55001C43.4874 4.81613 44.7717 3.21077 45.4139 2.43102C45.5973 2.38515 45.7808 2.33926 45.9643 2.2934C46.0101 2.2934 46.0101 2.29341 46.056 2.33928C46.6523 3.07316 48.2118 4.67852 48.3952 5.45827C49.0833 8.25619 47.0651 12.6595 47.0651 12.6595H48.808C48.808 12.6595 50.6886 7.88925 49.6795 5.22893C49.3126 4.21984 47.8907 3.25664 47.0192 2.66036C49.4043 3.34837 52.3857 4.54092 52.6609 6.14628C53.0737 8.76073 50.0923 12.2925 50.0923 12.2925L52.294 12.1549C52.294 12.1549 54.5415 8.71486 54.2663 6.05454C53.9911 3.8529 49.3585 2.66036 46.744 2.20168C46.9275 2.15582 47.111 2.10993 47.2486 2.06406C50.4593 2.33926 56.0092 3.1649 56.3762 5.18307C56.8807 7.75165 53.0737 12.1549 53.0737 12.1549L55.2295 11.9715C55.1378 11.9715 58.9906 6.8343 57.7063 4.49506ZM45.8267 2.0182C45.6432 1.97234 45.4597 1.97233 45.3221 1.92646C45.4139 1.92646 45.5056 1.92646 45.5973 1.92646C45.7808 1.92646 45.9643 1.97235 46.1936 1.97235C46.1019 1.97235 45.9643 1.97234 45.8267 2.0182Z" fill="#D3224D"/>
<path d="M46.0101 4.03636C47.1247 4.03636 48.0283 3.13279 48.0283 2.01818C48.0283 0.903577 47.1247 0 46.0101 0C44.8955 0 43.9919 0.903577 43.9919 2.01818C43.9919 3.13279 44.8955 4.03636 46.0101 4.03636Z" fill="#D3224D"/>
<path d="M42.3458 14.5757L43.2535 15.4844L44.1622 14.5766L43.2544 13.668L42.3458 14.5757Z" fill="#D3224D"/>
<path d="M47.8114 14.5796L48.7191 15.4883L49.6277 14.5805L48.72 13.6719L47.8114 14.5796Z" fill="#D3224D"/>
<path d="M55.2753 15.595C55.2753 15.595 55.2295 15.6409 55.1836 15.595C54.6791 15.1363 54.6791 13.0264 55.1377 12.5677C55.2753 12.476 55.4129 12.5219 55.4588 12.5219C55.9175 12.0173 55.4588 11.6504 55.4588 11.6504C55.4588 11.6504 47.0192 12.476 36.5614 11.6504C36.5614 11.6504 36.1027 12.1091 36.6073 12.5219C36.7449 12.5219 36.8825 12.476 36.9742 12.5677C37.5246 13.0723 37.387 15.0904 36.8825 15.595C36.8825 15.595 36.8366 15.595 36.7907 15.595C36.7907 15.595 36.3321 16.0537 36.8366 16.4665C47.7531 17.2921 54.9543 16.5123 55.3212 16.4665C55.734 15.9619 55.2753 15.595 55.2753 15.595Z" fill="#D3224D"/>
</svg>
