<svg width="95" height="94" viewBox="0 0 95 94" fill="none" xmlns="http://www.w3.org/2000/svg">
<path d="M31.2139 19.9526C28.8928 20.6631 26.5244 19.7157 26.5244 19.7157C26.5244 19.7157 27.9454 17.5841 30.2665 16.8736C32.5876 16.1631 34.956 17.1105 34.956 17.1105C34.956 17.1105 33.5823 19.242 31.2139 19.9526Z" fill="#070E20"/>
<path d="M26.8556 13.8889C25.4346 15.8784 25.5767 18.4363 25.5767 18.4363C25.5767 18.4363 28.0398 17.7732 29.4609 15.7837C30.8819 13.7942 30.7398 11.2363 30.7398 11.2363C30.7398 11.2363 28.2767 11.8995 26.8556 13.8889Z" fill="#070E20"/>
<path d="M23.4453 25.5882C21.219 26.6303 18.7559 26.0619 18.7559 26.0619C18.7559 26.0619 19.8453 23.7408 22.0716 22.6987C24.298 21.6566 26.7611 22.225 26.7611 22.225C26.7611 22.225 25.6243 24.5461 23.4453 25.5882Z" fill="#070E20"/>
<path d="M18.235 20.2367C17.0981 22.4156 17.6192 24.9262 17.6192 24.9262C17.6192 24.9262 19.9402 23.884 21.0771 21.7051C22.2139 19.5261 21.6929 17.0156 21.6929 17.0156C21.6929 17.0156 19.3245 18.0577 18.235 20.2367Z" fill="#070E20"/>
<path d="M18.0923 33.1201C16.3396 34.8253 13.7817 35.0148 13.7817 35.0148C13.7817 35.0148 14.1133 32.5043 15.866 30.799C17.6186 29.0938 20.1765 28.9043 20.1765 28.9043C20.1765 28.9043 19.8449 31.4622 18.0923 33.1201Z" fill="#070E20"/>
<path d="M11.4609 29.6621C11.082 32.0779 12.3609 34.3042 12.3609 34.3042C12.3609 34.3042 14.2557 32.5989 14.6346 30.1831C15.0136 27.7673 13.7346 25.541 13.7346 25.541C13.7346 25.541 11.8399 27.2463 11.4609 29.6621Z" fill="#070E20"/>
<path d="M14.7775 43.1143C13.4985 45.1985 11.0827 46.0511 11.0827 46.0511C11.0827 46.0511 10.7512 43.5406 12.0775 41.4564C13.3564 39.3722 15.7722 38.5195 15.7722 38.5195C15.7722 38.5195 16.0564 41.0301 14.7775 43.1143Z" fill="#070E20"/>
<path d="M7.48268 41.4087C7.71952 43.8245 9.47216 45.6719 9.47216 45.6719C9.47216 45.6719 10.8932 43.5403 10.6564 41.1245C10.4195 38.7087 8.66689 36.8613 8.66689 36.8613C8.66689 36.8613 7.24584 38.9455 7.48268 41.4087Z" fill="#070E20"/>
<path d="M15.2505 53.0151C14.7768 55.4309 12.7874 57.0415 12.7874 57.0415C12.7874 57.0415 11.6032 54.7678 12.1242 52.3994C12.5979 49.9836 14.5874 48.373 14.5874 48.373C14.5874 48.373 15.7242 50.5994 15.2505 53.0151Z" fill="#070E20"/>
<path d="M7.81347 53.916C8.85558 56.1423 11.1766 57.2318 11.1766 57.2318C11.1766 57.2318 11.745 54.7687 10.7029 52.5424C9.66083 50.316 7.33979 49.2266 7.33979 49.2266C7.33979 49.2266 6.77137 51.7371 7.81347 53.916Z" fill="#070E20"/>
<path d="M18.7085 63.7207C18.8506 66.1838 17.3821 68.2207 17.3821 68.2207C17.3821 68.2207 15.6769 66.3259 15.5348 63.9102C15.3927 61.447 16.8611 59.4102 16.8611 59.4102C16.8611 59.4102 18.5664 61.3049 18.7085 63.7207Z" fill="#070E20"/>
<path d="M11.7453 66.5146C13.3085 68.362 15.819 68.8357 15.819 68.8357C15.819 68.8357 15.7716 66.2778 14.1611 64.4304C12.5979 62.5831 10.0874 62.1094 10.0874 62.1094C10.0874 62.1094 10.1821 64.6199 11.7453 66.5146Z" fill="#070E20"/>
<path d="M25.4351 70.8255C26.6193 72.9571 26.1457 75.4676 26.1457 75.4676C26.1457 75.4676 23.7772 74.4729 22.593 72.3413C21.4088 70.2098 21.8825 67.6992 21.8825 67.6992C21.8825 67.6992 24.2983 68.694 25.4351 70.8255Z" fill="#070E20"/>
<path d="M20.3667 76.3201C22.593 77.3149 25.0562 76.6991 25.0562 76.6991C25.0562 76.6991 23.9193 74.4254 21.693 73.4307C19.4667 72.4359 17.0035 73.0517 17.0035 73.0517C17.0035 73.0517 18.1404 75.3254 20.3667 76.3201Z" fill="#070E20"/>
<path d="M34.1976 75.5617C36.0923 77.1249 36.6134 79.6354 36.6134 79.6354C36.6134 79.6354 34.0555 79.588 32.1607 78.0249C30.266 76.4617 29.7923 73.9512 29.7923 73.9512C29.7923 73.9512 32.3028 73.9985 34.1976 75.5617Z" fill="#070E20"/>
<path d="M31.5449 82.5261C34.0081 82.6208 36.0449 81.1051 36.0449 81.1051C36.0449 81.1051 34.1502 79.3998 31.687 79.305C29.2239 79.2103 27.187 80.7261 27.187 80.7261C27.187 80.7261 29.0818 82.4314 31.5449 82.5261Z" fill="#070E20"/>
<path d="M37.4666 13.4145C35.3824 14.6935 32.8245 14.3619 32.8245 14.3619C32.8245 14.3619 33.6771 11.9461 35.8087 10.7145C37.8929 9.4356 40.4508 9.76718 40.4508 9.76718C40.4508 9.76718 39.5982 12.1356 37.4666 13.4145Z" fill="#070E20"/>
<path d="M64.1823 19.9526C66.5034 20.6631 68.8718 19.7157 68.8718 19.7157C68.8718 19.7157 67.4507 17.5841 65.1297 16.8736C62.8086 16.1631 60.4402 17.1105 60.4402 17.1105C60.4402 17.1105 61.8139 19.242 64.1823 19.9526Z" fill="#070E20"/>
<path d="M68.5401 13.8889C69.9612 15.8784 69.8191 18.4363 69.8191 18.4363C69.8191 18.4363 67.3559 17.7732 65.9349 15.7837C64.5138 13.7942 64.6559 11.2363 64.6559 11.2363C64.6559 11.2363 67.0717 11.8995 68.5401 13.8889Z" fill="#070E20"/>
<path d="M71.9513 25.5882C74.1776 26.6303 76.6408 26.0619 76.6408 26.0619C76.6408 26.0619 75.5513 23.7408 73.325 22.6987C71.0987 21.6566 68.6355 22.225 68.6355 22.225C68.6355 22.225 69.7723 24.5461 71.9513 25.5882Z" fill="#070E20"/>
<path d="M77.1615 20.2367C78.2984 22.4156 77.7773 24.9262 77.7773 24.9262C77.7773 24.9262 75.4563 23.884 74.3194 21.7051C73.1826 19.5261 73.7037 17.0156 73.7037 17.0156C73.7037 17.0156 76.0721 18.0577 77.1615 20.2367Z" fill="#070E20"/>
<path d="M77.3044 33.1201C79.057 34.8253 81.615 35.0148 81.615 35.0148C81.615 35.0148 81.2834 32.5043 79.5307 30.799C77.7781 29.0938 75.2202 28.9043 75.2202 28.9043C75.2202 28.9043 75.5518 31.4622 77.3044 33.1201Z" fill="#070E20"/>
<path d="M83.936 29.6621C84.3149 32.0779 83.036 34.3042 83.036 34.3042C83.036 34.3042 81.1413 32.5989 80.7623 30.1831C80.3834 27.7673 81.6623 25.541 81.6623 25.541C81.6623 25.541 83.557 27.2463 83.936 29.6621Z" fill="#070E20"/>
<path d="M80.6195 43.1143C81.8985 45.1985 84.3143 46.0511 84.3143 46.0511C84.3143 46.0511 84.6459 43.5406 83.3195 41.4564C82.0406 39.3722 79.6248 38.5195 79.6248 38.5195C79.6248 38.5195 79.3406 41.0301 80.6195 43.1143Z" fill="#070E20"/>
<path d="M87.9144 41.4087C87.6776 43.8245 85.9249 45.6719 85.9249 45.6719C85.9249 45.6719 84.5039 43.5403 84.7407 41.1245C84.9776 38.7087 86.7302 36.8613 86.7302 36.8613C86.7302 36.8613 88.1039 38.9455 87.9144 41.4087Z" fill="#070E20"/>
<path d="M80.146 53.0151C80.6197 55.4309 82.6091 57.0415 82.6091 57.0415C82.6091 57.0415 83.7934 54.7678 83.2723 52.3994C82.7986 49.9836 80.8092 48.373 80.8092 48.373C80.8092 48.373 79.6723 50.5994 80.146 53.0151Z" fill="#070E20"/>
<path d="M87.5831 53.916C86.541 56.1423 84.2199 57.2318 84.2199 57.2318C84.2199 57.2318 83.6515 54.7687 84.6936 52.5424C85.7357 50.316 88.0567 49.2266 88.0567 49.2266C88.0567 49.2266 88.6252 51.7371 87.5831 53.916Z" fill="#070E20"/>
<path d="M76.6882 63.7207C76.546 66.1838 78.0145 68.2207 78.0145 68.2207C78.0145 68.2207 79.7197 66.3259 79.8618 63.9102C80.0039 61.447 78.5355 59.4102 78.5355 59.4102C78.5355 59.4102 76.8303 61.3049 76.6882 63.7207Z" fill="#070E20"/>
<path d="M83.6511 66.5146C82.0879 68.362 79.5774 68.8357 79.5774 68.8357C79.5774 68.8357 79.6248 66.2778 81.2353 64.4304C82.7984 62.5831 85.309 62.1094 85.309 62.1094C85.309 62.1094 85.2142 64.6199 83.6511 66.5146Z" fill="#070E20"/>
<path d="M69.9616 70.8255C68.7774 72.9571 69.251 75.4676 69.251 75.4676C69.251 75.4676 71.6195 74.4729 72.8037 72.3413C73.9879 70.2098 73.5142 67.6992 73.5142 67.6992C73.5142 67.6992 71.0984 68.694 69.9616 70.8255Z" fill="#070E20"/>
<path d="M75.0302 76.3201C72.8038 77.3149 70.3407 76.6991 70.3407 76.6991C70.3407 76.6991 71.4775 74.4254 73.7038 73.4307C75.9302 72.4359 78.3933 73.0517 78.3933 73.0517C78.3933 73.0517 77.2565 75.3254 75.0302 76.3201Z" fill="#070E20"/>
<path d="M61.1987 75.5617C59.304 77.1249 58.783 79.6354 58.783 79.6354C58.783 79.6354 61.3409 79.588 63.2356 78.0249C65.1303 76.4617 65.604 73.9512 65.604 73.9512C65.604 73.9512 63.0461 73.9985 61.1987 75.5617Z" fill="#070E20"/>
<path d="M63.8513 82.5261C61.3882 82.6208 59.3513 81.1051 59.3513 81.1051C59.3513 81.1051 61.2461 79.3998 63.7092 79.305C66.1724 79.2103 68.2092 80.7261 68.2092 80.7261C68.2092 80.7261 66.3145 82.4314 63.8513 82.5261Z" fill="#070E20"/>
<path d="M57.8829 13.4145C59.9671 14.6935 62.525 14.3619 62.525 14.3619C62.525 14.3619 61.6724 11.9461 59.5408 10.7145C57.4566 9.4356 54.8987 9.76718 54.8987 9.76718C54.8987 9.76718 55.7987 12.1356 57.8829 13.4145Z" fill="#070E20"/>
<path d="M47.5571 74.9475C62.992 74.9475 75.5045 62.435 75.5045 47.0001C75.5045 31.5652 62.992 19.0527 47.5571 19.0527C32.1222 19.0527 19.6097 31.5652 19.6097 47.0001C19.6097 62.435 32.1222 74.9475 47.5571 74.9475Z" fill="#070E20"/>
<path d="M47.5571 74.9475C62.992 74.9475 75.5045 62.435 75.5045 47.0001C75.5045 31.5652 62.992 19.0527 47.5571 19.0527C32.1222 19.0527 19.6097 31.5652 19.6097 47.0001C19.6097 62.435 32.1222 74.9475 47.5571 74.9475Z" fill="#070E20"/>
<path d="M63.994 54.3882C63.994 54.3882 61.8151 55.8092 56.1308 53.5356C50.4466 51.2619 47.415 53.725 47.415 54.1513V54.104V32.8829C47.415 32.4566 50.494 29.9935 56.1782 32.2671C61.8624 34.5408 63.994 33.1198 63.994 33.1198V54.3882Z" fill="white"/>
<path d="M38.3676 32.2208C37.7519 32.4576 37.4676 32.5997 36.9939 32.8366V47.4734L35.3834 46.4787L33.6782 47.4734V33.4524C32.2571 33.6892 30.3624 33.0734 30.3624 33.0734V54.3419C30.3624 54.3419 32.3045 55.7629 37.9887 53.4892C43.6729 51.2155 46.4676 53.6787 46.4676 54.105V54.0576V32.8366C46.4676 32.4103 44.0519 29.9945 38.3676 32.2208Z" fill="white"/>
<path d="M64.9424 35.0625V55.4309H28.9424V35.0625H27.995V56.852C27.995 56.852 39.1739 56.852 44.3371 56.852C44.8108 56.852 45.5213 57.4678 47.1792 57.4678C48.6476 57.4678 49.3108 56.852 49.7845 56.852C54.995 56.852 66.3634 56.852 66.3634 56.852V35.0625H64.9424Z" fill="white"/>
<path d="M34.0092 65.9485V65.2853H34.246C34.3881 65.5695 34.625 65.7116 34.9565 65.7116C35.0986 65.7116 35.1934 65.6643 35.2881 65.6169C35.3829 65.5695 35.4302 65.5222 35.4302 65.4274C35.4302 65.3801 35.3828 65.3327 35.3355 65.2853C35.2881 65.2379 35.146 65.238 35.0039 65.1906C34.7197 65.1432 34.5302 65.0958 34.3881 65.0485C34.246 65.0011 34.1513 64.9064 34.0565 64.8116C33.9618 64.7169 33.9144 64.5748 33.9144 64.4327C33.9144 64.2432 34.0092 64.0537 34.1513 63.959C34.3407 63.8169 34.5302 63.7695 34.8144 63.7695C35.0513 63.7695 35.2407 63.8169 35.4776 63.9116C35.5249 63.8643 35.525 63.8169 35.5723 63.7695H35.7618V64.3853H35.5723C35.4302 64.1485 35.1934 64.0064 34.8144 64.0064C34.6723 64.0064 34.5776 64.0064 34.5302 64.0537C34.4355 64.1011 34.4355 64.1485 34.4355 64.1958C34.4355 64.2432 34.4828 64.2906 34.5302 64.3379C34.5776 64.3853 34.7671 64.3853 35.0039 64.4327C35.2407 64.4801 35.4302 64.5274 35.5723 64.5748C35.7144 64.6222 35.8092 64.7169 35.8565 64.8116C35.9513 64.9064 35.9513 65.0485 35.9513 65.1432C35.9513 65.3801 35.8565 65.5222 35.6671 65.6643C35.4776 65.8064 35.2408 65.8537 34.9565 65.8537C34.7197 65.8537 34.5302 65.8064 34.2934 65.7116C34.246 65.759 34.1986 65.8064 34.1986 65.8537H34.0092V65.9485Z" fill="white"/>
<path d="M37.7988 63.7677V65.2835C37.7988 65.4256 37.7988 65.473 37.8462 65.5204C37.8936 65.5677 37.9883 65.5677 38.1304 65.5677V65.8046H36.6146V65.5677H36.662C36.8041 65.5677 36.8988 65.5204 36.9462 65.473C36.9936 65.4256 36.9936 65.3309 36.9936 65.2362V64.5256C36.9936 64.3835 36.9936 64.3362 36.9462 64.2888C36.8988 64.2414 36.8041 64.194 36.662 64.194H36.6146V63.9572L37.7988 63.7677ZM36.9936 62.9151C36.9936 62.773 37.0409 62.6783 37.1357 62.5835C37.2304 62.4888 37.3251 62.4414 37.4672 62.4414C37.6094 62.4414 37.7041 62.4888 37.7988 62.5835C37.8936 62.6783 37.9409 62.773 37.9409 62.9151C37.9409 63.0572 37.8936 63.1519 37.7988 63.2467C37.7041 63.3414 37.6094 63.3888 37.4672 63.3888C37.3251 63.3888 37.2304 63.3414 37.1357 63.2467C36.9936 63.1046 36.9936 63.0098 36.9936 62.9151Z" fill="white"/>
<path d="M39.8355 64.4796V65.2848C39.8355 65.3796 39.8355 65.4743 39.8828 65.5217C39.9302 65.569 39.9776 65.6164 40.0723 65.6164V65.8532H38.6986V65.6164C38.8407 65.6164 38.9355 65.6164 38.9828 65.569C39.0302 65.5217 39.0302 65.4269 39.0302 65.3322V64.6217C39.0302 64.4796 39.0302 64.4322 38.9828 64.3848C38.9355 64.3375 38.8407 64.3374 38.6986 64.3374V64.1006L39.7881 63.9111C39.8355 63.9585 39.8355 64.0532 39.8355 64.1953C39.9302 64.1006 40.0723 64.0059 40.167 63.9111C40.3092 63.8638 40.4039 63.8164 40.546 63.8164C40.7828 63.8164 40.9723 63.8638 41.067 64.0059C41.2091 64.148 41.2565 64.2901 41.2565 64.5269V65.3322C41.2565 65.4743 41.2565 65.5217 41.3039 65.569C41.3512 65.6164 41.446 65.6164 41.5881 65.6164V65.8532H40.2144V65.6164C40.2618 65.6164 40.3565 65.6164 40.4039 65.569C40.4513 65.5217 40.4512 65.4269 40.4512 65.2848V64.5269C40.4512 64.3848 40.4513 64.2901 40.4039 64.2427C40.3565 64.1954 40.3092 64.148 40.2618 64.148C40.2144 64.148 40.1197 64.1954 40.0723 64.2427C39.9776 64.2901 39.9302 64.3848 39.8355 64.4796Z" fill="white"/>
<path d="M44.146 65.2365L44.3829 65.3312C44.3355 65.5207 44.1934 65.6628 44.0039 65.7575C43.8144 65.8523 43.625 65.8997 43.3881 65.8997C43.0566 65.8997 42.7723 65.8049 42.5355 65.6154C42.2987 65.426 42.2039 65.1891 42.2039 64.8575C42.2039 64.526 42.346 64.2418 42.5829 64.0523C42.8197 63.8628 43.1513 63.7207 43.5302 63.7207C43.7671 63.7207 43.9566 63.7681 44.0987 63.8628C44.2408 63.9575 44.3355 64.0523 44.3355 64.2418C44.3355 64.3365 44.2881 64.3839 44.2408 64.4786C44.1934 64.526 44.0986 64.5733 44.0039 64.5733C43.8144 64.5733 43.7197 64.4786 43.6723 64.2418C43.6723 64.1944 43.625 64.147 43.625 64.0996C43.5776 64.0523 43.5302 64.0523 43.4829 64.0523C43.3408 64.0523 43.246 64.0997 43.1513 64.2418C43.0566 64.3365 43.0565 64.526 43.0565 64.7628C43.0565 65.0944 43.1039 65.2839 43.1986 65.426C43.2934 65.5681 43.4355 65.6154 43.625 65.6154C43.8144 65.6154 44.0039 65.4733 44.146 65.2365Z" fill="white"/>
<path d="M45.9463 64.8116C45.9463 65.0958 45.9936 65.2853 46.0884 65.4274C46.1831 65.5695 46.3252 65.6169 46.5147 65.6169C46.7041 65.6169 46.8936 65.5222 47.0357 65.3327L47.2726 65.4748C47.1778 65.6169 47.0357 65.7116 46.8936 65.8064C46.7042 65.9011 46.5147 65.9485 46.3252 65.9485C45.9936 65.9485 45.7094 65.8537 45.4726 65.6643C45.2357 65.4748 45.141 65.1906 45.141 64.859C45.141 64.5274 45.2357 64.2432 45.4726 64.0537C45.7094 63.8643 45.9462 63.7695 46.2778 63.7695C46.6094 63.7695 46.8463 63.8643 47.0357 64.0537C47.2252 64.2432 47.3199 64.4801 47.3199 64.859H45.9463V64.8116ZM45.9463 64.5748H46.562C46.562 64.1958 46.4673 64.0537 46.2305 64.0537C46.1357 64.0537 46.041 64.1011 45.9936 64.1958C45.9462 64.2432 45.9463 64.3853 45.9463 64.5748Z" fill="white"/>
<path d="M50.0668 65.8534V65.5692H50.2089C50.3036 65.5692 50.3984 65.5692 50.4457 65.5218C50.4931 65.4744 50.5405 65.4271 50.5405 65.285V63.4376C50.5405 63.2481 50.4931 63.1534 50.4457 63.106C50.3984 63.0587 50.2562 63.0587 50.0668 63.0587V62.7744C50.4931 62.7744 50.8247 62.6797 51.0615 62.4902H51.2984V65.285C51.2984 65.3797 51.2984 65.4744 51.3457 65.5218C51.3931 65.5692 51.4405 65.5692 51.5826 65.5692H51.7247V65.8534H50.0668Z" fill="white"/>
<path d="M53.6196 64.0524C53.3828 64.0051 53.1933 63.9103 53.0512 63.7682C52.9091 63.6261 52.8617 63.484 52.8617 63.2472C52.8617 62.9629 52.9564 62.7735 53.1459 62.6314C53.3354 62.4893 53.6196 62.3945 53.9038 62.3945C54.2354 62.3945 54.5196 62.4893 54.7091 62.6314C54.8986 62.7735 54.9933 63.0103 54.9933 63.2472C54.9933 63.4366 54.9459 63.6261 54.8038 63.7208C54.7091 63.8629 54.5196 63.9577 54.2828 64.0051C54.567 64.0524 54.7564 64.1472 54.8985 64.2893C55.0407 64.4314 55.088 64.6208 55.088 64.8577C55.088 65.1893 54.9933 65.4261 54.7564 65.5682C54.5196 65.7577 54.2828 65.805 53.9512 65.805C53.6196 65.805 53.288 65.7103 53.0986 65.5682C52.8617 65.4261 52.767 65.1419 52.767 64.8577C52.767 64.6208 52.8143 64.4314 52.9565 64.2893C53.0986 64.2419 53.288 64.0998 53.6196 64.0524ZM53.6196 64.8577C53.6196 65.1419 53.667 65.3787 53.7143 65.4735C53.7617 65.5682 53.8565 65.6156 53.9986 65.6156C54.0933 65.6156 54.188 65.5682 54.2828 65.4735C54.3301 65.3787 54.3775 65.1893 54.3775 64.9051C54.3775 64.5735 54.3301 64.384 54.2828 64.2893C54.2354 64.1945 54.1407 64.1945 53.9986 64.1945C53.8565 64.1945 53.7617 64.2419 53.7143 64.3366C53.6196 64.4314 53.6196 64.6208 53.6196 64.8577ZM53.667 63.2472C53.667 63.5314 53.7144 63.7208 53.7617 63.8156C53.8091 63.9103 53.9038 63.9577 53.9986 63.9577C54.0933 63.9577 54.188 63.9103 54.2354 63.8156C54.2828 63.7208 54.2828 63.5314 54.2828 63.2472C54.2828 63.0103 54.2354 62.8682 54.188 62.8208C54.1407 62.7261 54.0459 62.7261 53.9512 62.7261C53.8564 62.7261 53.7617 62.7735 53.7143 62.8208C53.667 62.9156 53.667 63.0577 53.667 63.2472Z" fill="white"/>
<path d="M56.7934 63.8625C56.9355 63.7677 57.0776 63.7677 57.2671 63.7677C57.5513 63.7677 57.7881 63.8625 57.9776 64.0519C58.1671 64.2414 58.2618 64.4782 58.2618 64.8098C58.2618 65.1888 58.1671 65.473 57.9303 65.6625C57.6934 65.8519 57.4566 65.9467 57.1723 65.9467C56.8408 65.9467 56.5566 65.8046 56.3671 65.5677C56.1303 65.3309 56.0355 64.9519 56.0355 64.4783C56.0355 64.1467 56.0829 63.8151 56.225 63.4835C56.3197 63.1519 56.5092 62.9151 56.7934 62.7256C57.0302 62.5361 57.3145 62.4414 57.5987 62.4414C57.7881 62.4414 57.9303 62.4888 58.0724 62.5361C58.2145 62.6309 58.2618 62.7256 58.2618 62.8204C58.2618 62.9151 58.2145 62.9625 58.1671 63.0098C58.1197 63.0572 58.025 63.1046 57.9776 63.1046C57.8829 63.1046 57.7881 63.0098 57.646 62.8677C57.5513 62.773 57.5039 62.7256 57.3618 62.7256C57.2197 62.7256 57.125 62.8204 57.0302 63.0098C56.8881 63.1993 56.8408 63.4835 56.7934 63.8625ZM56.746 64.8098C56.746 65.094 56.7934 65.3309 56.8408 65.4256C56.8882 65.5677 56.9829 65.6151 57.125 65.6151C57.2197 65.6151 57.3145 65.5677 57.3618 65.473C57.4092 65.3783 57.4566 65.1888 57.4566 64.9046C57.4566 64.5256 57.4092 64.2888 57.3618 64.1467C57.3145 64.0519 57.2197 63.9572 57.125 63.9572C57.0303 63.9572 56.9829 64.0046 56.9355 64.0519C56.8881 64.0993 56.8408 64.194 56.8408 64.2414C56.7461 64.3835 56.746 64.573 56.746 64.8098Z" fill="white"/>
<path d="M60.4409 63.8639C60.6778 63.8639 60.8199 63.9587 61.0094 64.1008C61.1515 64.2429 61.2462 64.4323 61.2462 64.7166C61.2462 65.0955 61.1041 65.3797 60.8199 65.6166C60.5357 65.8534 60.2041 65.9481 59.8252 65.9481C59.5883 65.9481 59.3515 65.9008 59.2094 65.806C59.0673 65.7113 58.9725 65.5692 58.9725 65.4271C58.9725 65.3323 59.0199 65.2376 59.0672 65.1902C59.1146 65.1429 59.2094 65.0955 59.3041 65.0955C59.3988 65.0955 59.4462 65.1429 59.4936 65.1902C59.5409 65.2376 59.5883 65.3323 59.6357 65.4271C59.683 65.5692 59.7778 65.6639 59.9199 65.6639C60.062 65.6639 60.2041 65.6166 60.2988 65.4745C60.3936 65.3797 60.4409 65.1429 60.4409 64.8587C60.4409 64.6692 60.441 64.4797 60.3936 64.385C60.3462 64.2902 60.2988 64.1955 60.2041 64.1955C60.1094 64.1955 60.062 64.2429 59.9673 64.2902C59.9199 64.3376 59.8725 64.385 59.8252 64.385C59.7778 64.385 59.7304 64.385 59.7304 64.3376C59.683 64.2902 59.6831 64.2902 59.6831 64.2429C59.6831 64.1955 59.683 64.1481 59.7304 64.1481C59.7778 64.1008 59.8252 64.0534 59.9199 64.006C60.2515 63.7692 60.4409 63.5323 60.4409 63.2481C60.4409 63.106 60.3936 63.0113 60.3462 62.9165C60.2515 62.8218 60.1567 62.8218 60.062 62.8218C59.9673 62.8218 59.8725 62.8692 59.7778 62.9165C59.683 62.9639 59.6357 63.0587 59.6357 63.1534C59.6357 63.2481 59.683 63.2955 59.7304 63.3902C59.7304 63.4376 59.7778 63.4376 59.7778 63.4376C59.7778 63.4376 59.7304 63.485 59.5883 63.5323C59.4462 63.5797 59.3515 63.6271 59.3041 63.6271C59.2567 63.6271 59.2094 63.5797 59.162 63.485C59.1146 63.3902 59.1146 63.3429 59.1146 63.2481C59.1146 63.0113 59.2094 62.8692 59.4462 62.7271C59.6831 62.585 59.9199 62.4902 60.2041 62.4902C60.4409 62.4902 60.6778 62.5376 60.8673 62.6323C61.0567 62.7271 61.1515 62.8692 61.1515 63.0587C61.1515 63.2481 61.1041 63.3902 60.962 63.5323C60.7725 63.6745 60.6304 63.8165 60.4409 63.8639Z" fill="white"/>
<path d="M47.5571 92C72.4099 92 92.5571 71.8528 92.5571 47C92.5571 22.1472 72.4099 2 47.5571 2C22.7043 2 2.55713 22.1472 2.55713 47C2.55713 71.8528 22.7043 92 47.5571 92Z" stroke="#D3224D" stroke-width="3.6893" stroke-miterlimit="10"/>
</svg>
