<svg width="81" height="90" viewBox="0 0 81 90" fill="none" xmlns="http://www.w3.org/2000/svg">
<path d="M18.6164 70.9247C18.4749 73.237 16.8705 75.0301 16.8705 75.0301C16.8705 75.0301 15.4548 73.0954 15.5964 70.7831C15.7379 68.4709 17.3424 66.6777 17.3424 66.6777C17.3424 66.6777 18.7108 68.6125 18.6164 70.9247Z" fill="#070E20"/>
<path d="M11.7743 72.8121C13.0484 74.7468 15.3606 75.4546 15.3606 75.4546C15.3606 75.4546 15.5494 73.048 14.2753 71.1133C13.0012 69.1785 10.6889 68.4707 10.6889 68.4707C10.6889 68.4707 10.5002 70.8773 11.7743 72.8121Z" fill="#070E20"/>
<path d="M24.2319 78.3345C25.1285 80.4579 24.4206 82.7702 24.4206 82.7702C24.4206 82.7702 22.2971 81.5905 21.4477 79.467C20.5511 77.3435 21.259 75.0312 21.259 75.0312C21.259 75.0312 23.3353 76.1638 24.2319 78.3345Z" fill="#070E20"/>
<path d="M18.8996 82.9593C20.8815 84.139 23.2881 83.7615 23.2881 83.7615C23.2881 83.7615 22.4387 81.4964 20.4568 80.3167C18.4749 79.137 16.0682 79.5145 16.0682 79.5145C16.0682 79.5145 16.8704 81.7796 18.8996 82.9593Z" fill="#070E20"/>
<path d="M31.9712 83.6655C33.5757 85.3171 33.8116 87.7237 33.8116 87.7237C33.8116 87.7237 31.405 87.4406 29.8005 85.7418C28.1961 84.0902 27.9602 81.6836 27.9602 81.6836C27.9602 81.6836 30.3668 82.0139 31.9712 83.6655Z" fill="#070E20"/>
<path d="M28.7151 89.9415C30.9802 90.2718 33.1037 89.0921 33.1037 89.0921C33.1037 89.0921 31.4993 87.299 29.187 86.9686C26.9219 86.5911 24.7985 87.818 24.7985 87.818C24.7985 87.818 26.4501 89.6112 28.7151 89.9415Z" fill="#070E20"/>
<path d="M14.275 62.1947C14.8413 64.4598 13.8031 66.6304 13.8031 66.6304C13.8031 66.6304 11.8684 65.1676 11.3493 62.9025C10.783 60.6375 11.8212 58.4668 11.8212 58.4668C11.8212 58.4668 13.7088 59.9297 14.275 62.1947Z" fill="#070E20"/>
<path d="M64.1533 70.9247C64.2948 73.237 65.8992 75.0301 65.8992 75.0301C65.8992 75.0301 67.3149 73.0954 67.1733 70.7831C67.0318 68.4709 65.4274 66.6777 65.4274 66.6777C65.4274 66.6777 64.0117 68.6125 64.1533 70.9247Z" fill="#070E20"/>
<path d="M70.9481 72.8121C69.674 74.7468 67.3618 75.4546 67.3618 75.4546C67.3618 75.4546 67.173 73.048 68.4471 71.1133C69.7212 69.1785 72.0335 68.4707 72.0335 68.4707C72.0335 68.4707 72.2694 70.8773 70.9481 72.8121Z" fill="#070E20"/>
<path d="M58.5379 78.3345C57.6414 80.4579 58.3492 82.7702 58.3492 82.7702C58.3492 82.7702 60.4727 81.5905 61.3221 79.467C62.2186 77.3435 61.5108 75.0312 61.5108 75.0312C61.5108 75.0312 59.3873 76.1638 58.5379 78.3345Z" fill="#070E20"/>
<path d="M63.8701 82.9593C61.8882 84.139 59.4816 83.7615 59.4816 83.7615C59.4816 83.7615 60.331 81.4964 62.3129 80.3167C64.2948 79.137 66.7014 79.5145 66.7014 79.5145C66.7014 79.5145 65.852 81.7796 63.8701 82.9593Z" fill="#070E20"/>
<path d="M50.799 83.6655C49.1945 85.3171 48.9586 87.7237 48.9586 87.7237C48.9586 87.7237 51.3652 87.4406 52.9697 85.7418C54.5741 84.0902 54.81 81.6836 54.81 81.6836C54.81 81.6836 52.4034 82.0139 50.799 83.6655Z" fill="#070E20"/>
<path d="M54.0078 89.9415C51.7427 90.2718 49.6193 89.0921 49.6193 89.0921C49.6193 89.0921 51.2237 87.299 53.5359 86.9686C55.801 86.5911 57.9245 87.818 57.9245 87.818C57.9245 87.818 56.3201 89.6112 54.0078 89.9415Z" fill="#070E20"/>
<path d="M68.4948 62.1947C67.9286 64.4598 68.9667 66.6304 68.9667 66.6304C68.9667 66.6304 70.9014 65.1676 71.4205 62.9025C71.9868 60.6375 70.9486 58.4668 70.9486 58.4668C70.9486 58.4668 69.0611 59.9297 68.4948 62.1947Z" fill="#070E20"/>
<path d="M71.0426 5.70983L70.9482 5.61545C70.9482 5.61545 70.7595 5.56827 70.4292 5.4267C70.4292 5.4267 65.8047 4.19979 61.6049 2.9257C56.886 1.46285 49.9964 0 41.5969 0C41.5025 0 41.4553 0.047188 41.3609 0.047188C41.2665 0.047188 41.2194 0.047188 41.125 0.047188C32.7254 0.047188 25.8359 1.51004 21.117 3.02008C16.87 4.29417 12.2927 5.52108 12.2927 5.52108C11.9624 5.66264 11.7736 5.75702 11.7736 5.75702H11.6792C11.6792 5.75702 10.9714 9.01304 10.7355 14.6757H71.9392C71.7504 8.96585 71.0426 5.70983 71.0426 5.70983Z" fill="#070E20"/>
<path d="M41.2195 81.9182L41.3611 81.4935L41.5026 81.871C59.2456 68.7997 66.9845 51.859 70.099 37.2305H12.6232C15.7376 51.9062 23.4766 68.8469 41.2195 81.9182Z" fill="#070E20"/>
<path d="M68.2119 8.77631L68.1175 8.58756C68.1175 8.58756 67.9759 8.49318 67.6456 8.35161V8.30442C67.6456 8.30442 63.493 7.21908 59.6707 6.03937C55.3765 4.71808 49.1476 3.34961 41.5974 3.34961C41.5031 3.34961 41.4559 3.34961 41.3615 3.34961C41.2671 3.34961 41.2199 3.34961 41.1255 3.34961C33.5282 3.34961 27.2993 4.71808 23.0523 6.03937C19.23 7.21908 15.0774 8.30442 15.0774 8.30442V8.35161C14.7942 8.49318 14.6055 8.58756 14.6055 8.58756L14.5111 8.77631C14.5111 8.77631 5.96997 51.5765 41.2199 77.5302L41.3615 77.1527L41.503 77.5302C76.753 51.5765 68.2119 8.77631 68.2119 8.77631Z" stroke="white" stroke-width="4.2682" stroke-miterlimit="10" stroke-linecap="round" stroke-linejoin="round"/>
<path d="M41.4089 41.0547L44.1458 49.5487H53.1117L45.8918 54.9754L48.6287 63.5637L41.4089 58.3729L34.189 63.6581L36.9259 54.9754L29.7061 49.5487H38.6247L41.4089 41.0547Z" fill="white"/>
<path d="M80.9998 34.9192H0.967773L3.98783 26.0477L0.967773 16.5156H80.9998L77.9797 25.5287L80.9998 34.9192Z" fill="#D3224D"/>
<path d="M13.8974 22.2738V27.842C13.8974 28.8802 13.6143 29.7296 13.048 30.2958C12.4818 30.8621 11.6324 31.1452 10.5942 31.1452C9.55607 31.1452 8.75389 30.8621 8.14044 30.2958C7.57417 29.7296 7.29102 28.9274 7.29102 27.842V22.3209L7.3854 22.2266H8.04605C8.37637 22.2266 8.65949 22.3209 8.80106 22.5097C8.94263 22.6984 9.037 22.9816 9.037 23.3591V27.842C9.037 29.1161 9.55609 29.7768 10.6414 29.7768C11.7268 29.7768 12.2458 29.1161 12.2458 27.842V22.2738C12.4818 22.2266 12.7649 22.2266 13.0952 22.2266C13.3784 22.2266 13.6615 22.2266 13.8974 22.2738Z" fill="white"/>
<path d="M22.3915 22.2266L22.4858 22.3209V30.9565C22.2027 31.0037 21.8724 31.0508 21.4949 31.0508C21.1174 31.0508 20.7399 31.0508 20.4567 31.0037L18.1445 26.096C17.8142 25.341 17.531 24.7748 17.3895 24.3029H17.3423C17.4367 25.4826 17.4839 26.6623 17.4839 27.7476V30.9565C17.2479 31.0037 16.9648 31.0037 16.6816 31.0037C16.3985 31.0037 16.1154 31.0037 15.9266 30.9565V22.3209C16.1626 22.2738 16.4929 22.2266 16.8704 22.2266C17.2479 22.2266 17.6254 22.2266 17.9085 22.2738L20.2208 27.1814L21.023 29.0689H21.0702C20.9758 27.842 20.9286 26.7095 20.9286 25.577V23.2647C20.9286 22.8872 21.023 22.6041 21.1646 22.4625C21.3061 22.3209 21.5421 22.2266 21.8724 22.2266H22.3915Z" fill="white"/>
<path d="M24.6096 30.9565V22.2738C24.7984 22.2266 25.0815 22.2266 25.459 22.2266C25.7893 22.2266 26.0725 22.2266 26.3556 22.2738V30.9093C26.1197 30.9565 25.8365 30.9565 25.459 30.9565C25.1287 31.0037 24.8456 31.0037 24.6096 30.9565Z" fill="white"/>
<path d="M31.3105 29.4936L33.1509 22.3209C33.2924 22.2738 33.5284 22.2738 33.8587 22.2738C34.189 22.2738 34.4249 22.3209 34.6609 22.3681L34.7553 22.4625L32.3014 30.9565C31.9711 31.0037 31.5936 31.0037 31.1217 31.0037C30.697 31.0037 30.3667 30.9565 30.178 30.8621C29.9892 30.7677 29.8477 30.5318 29.7533 30.2486L27.5354 22.4625C27.9129 22.2738 28.2432 22.2266 28.5264 22.2266C28.8095 22.2266 28.9983 22.2738 29.1398 22.4153C29.2814 22.5569 29.3757 22.7456 29.4701 23.076L30.6027 27.1342C30.7914 27.7948 30.933 28.5498 31.1217 29.3992C31.2161 29.4464 31.2633 29.4936 31.3105 29.4936Z" fill="white"/>
<path d="M37.6335 28.7855V29.5877L38.5301 29.5405H41.6446C41.6446 29.8236 41.6446 30.0124 41.5974 30.154C41.503 30.673 41.1255 30.9562 40.512 30.9562H36.9729C36.6898 30.9562 36.4066 30.8618 36.2651 30.673C36.0763 30.4843 35.9819 30.2483 35.9819 29.918V22.3678L36.0763 22.2734H41.3614C41.4086 22.4622 41.4086 22.6981 41.4086 22.9341C41.4086 23.17 41.3614 23.406 41.267 23.6891H37.6335V24.5857V25.907H38.4357H40.5592C40.6064 26.0957 40.6536 26.3317 40.6536 26.6148C40.6536 26.8979 40.6064 27.1339 40.5592 27.3226H37.5863V28.7855H37.6335Z" fill="white"/>
<path d="M48.6285 24.9163C48.6285 25.1995 48.5813 25.4826 48.487 25.7185C48.3926 25.9545 48.2982 26.1904 48.1566 26.3792C48.0151 26.5679 47.8263 26.7567 47.6376 26.8982C47.4488 27.0398 47.26 27.1814 47.0241 27.2286C47.26 27.3229 47.4488 27.4173 47.5904 27.6061C47.7319 27.7948 47.8735 28.0308 47.9679 28.3139L48.4398 29.588C48.5341 29.7768 48.5813 29.9655 48.6757 30.1543C48.7701 30.2958 48.8645 30.4374 49.006 30.5318C48.9117 30.6733 48.7229 30.8149 48.5341 30.9093C48.3454 31.0037 48.1095 31.0508 47.8263 31.0508C47.5904 31.0508 47.3544 30.9565 47.2129 30.8149C47.0713 30.6733 46.9297 30.3902 46.7882 30.0599L46.2691 28.5498C46.1747 28.2667 46.0331 28.0308 45.8444 27.8892C45.6556 27.7476 45.4197 27.6533 45.0894 27.6533H44.3343V30.9565C44.1928 30.9565 44.0984 31.0037 43.9568 31.0037C43.8153 31.0037 43.6737 31.0037 43.485 31.0037C43.1546 31.0037 42.9187 31.0037 42.6827 30.9565V22.3681L42.7771 22.2738C43.4378 22.2738 44.0512 22.2266 44.5231 22.2266C44.995 22.2266 45.3725 22.2266 45.6556 22.2266C46.5522 22.2266 47.3072 22.4625 47.8263 22.8872C48.3454 23.3591 48.6285 24.0197 48.6285 24.9163ZM44.3343 23.5007V26.2848C44.759 26.2376 45.1837 26.2376 45.5141 26.2376C46.4106 26.2376 46.8825 25.7657 46.8825 24.8691C46.8825 23.9725 46.4106 23.5007 45.5141 23.5007C45.2309 23.5007 45.0422 23.5007 44.8534 23.5007C44.6647 23.5478 44.4759 23.5478 44.3343 23.5007Z" fill="white"/>
<path d="M50.0914 30.2015C50.1386 29.9655 50.1858 29.7296 50.3274 29.4936C50.4689 29.2577 50.6105 29.0689 50.7993 28.9274C51.6487 29.4936 52.5453 29.7768 53.3475 29.7768C53.7722 29.7768 54.0553 29.6824 54.2912 29.4936C54.5272 29.3049 54.6687 29.0689 54.6687 28.7858C54.6687 28.3139 54.3384 27.8892 53.6778 27.6533L52.1677 27.0398C51.5543 26.8039 51.1296 26.4735 50.8465 26.096C50.5633 25.7185 50.4218 25.2938 50.4218 24.7748C50.4218 24.3972 50.5161 24.0669 50.6577 23.7366C50.7993 23.4063 51.0352 23.1703 51.2711 22.9344C51.5543 22.6984 51.8846 22.5569 52.2621 22.4153C52.6396 22.2738 53.0643 22.2266 53.489 22.2266C54.4328 22.2266 55.3294 22.4625 56.226 22.9344C56.1788 23.4535 55.99 23.8782 55.6125 24.2085C54.7631 23.831 54.0081 23.595 53.3946 23.595C52.9699 23.595 52.6868 23.6894 52.4509 23.8782C52.2149 24.0669 52.1205 24.3029 52.1205 24.5388C52.1205 24.9163 52.4037 25.2466 53.0171 25.4826L54.5272 26.096C55.1406 26.332 55.6125 26.6623 55.9428 27.087C56.2732 27.5117 56.4147 27.9836 56.4147 28.5027C56.4147 28.8802 56.3675 29.2577 56.226 29.5408C56.0844 29.8711 55.8956 30.1543 55.6125 30.3902C55.3294 30.6262 54.9991 30.8149 54.5744 30.9565C54.1497 31.098 53.6778 31.1452 53.1115 31.1452C52.0734 31.098 51.0352 30.8149 50.0914 30.2015Z" fill="white"/>
<path d="M57.972 30.9565V22.2738C58.208 22.2266 58.4439 22.2266 58.8214 22.2266C59.1518 22.2266 59.4349 22.2266 59.718 22.2738V30.9093C59.4821 30.9565 59.1989 30.9565 58.8214 30.9565C58.4439 31.0037 58.1608 31.0037 57.972 30.9565Z" fill="white"/>
<path d="M64.767 24.6329V30.9562C64.5311 31.0033 64.2479 31.0033 63.9176 31.0033C63.5873 31.0033 63.3042 31.0033 63.0682 30.9562V24.6329V23.6891H62.3132H60.8975C60.8504 23.5003 60.8503 23.2644 60.8503 22.9813C60.8503 22.6981 60.8504 22.4622 60.8975 22.2734H66.9377C66.9849 22.4622 67.0321 22.6981 67.0321 22.9813C67.0321 23.2172 66.9377 23.406 66.7961 23.5475C66.6546 23.6891 66.4186 23.7363 66.0883 23.7363H65.4749H64.7198L64.767 24.6329Z" fill="white"/>
<path d="M72.0815 24.7748L73.0725 22.2738C73.2612 22.2266 73.4972 22.2266 73.8275 22.2266C74.1106 22.2266 74.3938 22.2738 74.6297 22.3209L74.6769 22.4153L72.2231 28.2195V30.9093C71.9872 30.9565 71.704 30.9565 71.3737 30.9565C71.0434 30.9565 70.7602 30.9565 70.5243 30.9093V28.1723L68.1177 22.5097C68.4952 22.3209 68.7783 22.2266 69.1086 22.2266C69.3918 22.2266 69.6277 22.2738 69.7693 22.3681C69.9108 22.4625 70.0052 22.6513 70.1468 22.9344L70.949 24.8691C71.1849 25.4354 71.3265 26.0017 71.4681 26.5679H71.5624C71.6568 26.0488 71.8456 25.4826 72.0815 24.7748Z" fill="white"/>
</svg>
