<svg width="80" height="90" viewBox="0 0 80 90" fill="none" xmlns="http://www.w3.org/2000/svg">
<path d="M61.6659 35.052C61.6202 34.4579 61.2089 33.9552 60.6605 33.7724L39.9127 26.9631C39.5928 26.8717 39.2729 26.8717 38.9987 26.9631L18.2508 34.0009C17.7024 34.1837 17.2911 34.6864 17.2454 35.2805L15.2803 58.9074C15.2346 59.3644 15.4175 59.8671 15.7831 60.187C18.7993 62.8377 34.1088 76.045 39.7299 76.045H39.9127C45.8537 76.045 60.3863 62.3806 63.2197 59.6843C63.5396 59.3644 63.7224 58.9074 63.6767 58.4961L61.6659 35.052ZM20.0332 36.4687L39.41 29.8879L58.7868 36.2402L59.3352 42.9124L39.2729 36.423L19.4391 43.278L20.0332 36.4687ZM18.7993 51.7782L39.41 44.649L60.0664 51.3212L60.2035 52.6922L39.41 46.1571L18.6622 53.1492L18.7993 51.7782ZM39.6842 73.2573C36.7137 73.2573 27.6194 66.3566 20.8558 60.7811L39.4557 54.4745L58.1013 60.4612C51.7033 66.2195 42.9746 73.303 39.8213 73.303H39.6842V73.2573Z" fill="#D3224D"/>
<path d="M16.4237 25.1353C16.4237 25.2267 16.4237 25.2724 16.4694 25.4095C16.4694 25.5923 16.5151 25.7294 16.5608 25.7751C16.6065 25.8665 16.6979 25.9122 16.7893 25.9122C16.8807 25.9122 17.0178 25.8665 17.2006 25.7751C17.292 25.9122 17.3377 26.0036 17.3834 26.1407C16.7893 26.4606 16.4694 26.6434 15.8753 27.009C15.7839 26.8719 15.7382 26.8262 15.6468 26.6891C15.921 26.5063 16.0581 26.1407 15.9667 25.5923C15.7839 23.9471 15.6925 23.1245 15.6011 21.4336C15.7839 21.3422 15.8753 21.2965 16.0581 21.2051C17.4291 22.2105 18.0689 22.7132 19.3028 23.81C19.6227 24.0842 19.8512 24.2213 19.9883 24.2213C20.1254 24.2213 20.2625 24.2213 20.3996 24.1756C20.4453 24.3127 20.491 24.4041 20.5824 24.5412C19.6227 24.9525 19.1657 25.181 18.2517 25.6837C18.1603 25.5466 18.1603 25.4552 18.0689 25.3181C18.2974 25.2267 18.3888 25.1353 18.4345 25.0439C18.4802 24.9982 18.4802 24.9068 18.4345 24.8611C18.3888 24.8154 18.3431 24.7697 18.2517 24.6783C18.206 24.6326 18.206 24.6326 18.1603 24.5869C18.0232 24.4955 17.9775 24.4498 17.8404 24.3584C17.292 24.6326 16.9721 24.7697 16.4237 25.1353ZM16.3323 24.6783C16.7893 24.4041 17.0178 24.3127 17.4748 24.0385C16.9721 23.6272 16.6979 23.4444 16.1952 23.0788C16.2409 23.7186 16.2866 24.0385 16.3323 24.6783Z" fill="#D3224D"/>
<path d="M25.2896 20.7029C25.5181 21.3884 25.6095 21.754 25.838 22.4395C25.6552 22.4852 25.6095 22.5309 25.4267 22.5766C25.3353 22.3938 25.1068 22.211 25.0611 22.211C24.924 22.2567 24.3299 23.0793 23.6444 23.3535C22.9132 23.6277 22.2277 23.6277 21.5879 23.3535C20.9481 23.0793 20.4911 22.6681 20.2169 22.0283C19.9427 21.4342 19.9427 20.7486 20.2169 20.0631C20.4911 19.3776 21.0852 18.8749 21.9535 18.555C22.5933 18.3265 23.7358 18.6007 23.8272 18.555C23.8729 18.555 23.8729 18.2808 23.8729 18.098C24.0557 18.0523 24.1471 18.0066 24.3299 17.9609C24.5584 18.6464 24.6955 18.9663 24.924 19.6518C24.7412 19.6975 24.6498 19.7432 24.5127 19.7889C24.2385 19.3776 23.9186 19.0577 23.553 18.9206C23.1874 18.7835 22.7761 18.7835 22.3648 18.9206C21.9078 19.1034 21.6336 19.3776 21.4965 19.7889C21.4051 20.2002 21.4508 20.7029 21.725 21.3884C21.9078 21.8454 22.0906 22.211 22.2734 22.4395C22.4562 22.668 22.6847 22.8051 22.9589 22.8965C23.2331 22.9422 23.5073 22.9423 23.7815 22.8509C24.1471 22.7138 24.4213 22.4853 24.6041 22.1654C24.7869 21.8455 24.8783 21.4342 24.8783 20.8858C25.0154 20.7944 25.1068 20.7486 25.2896 20.7029Z" fill="#D3224D"/>
<path d="M27.7116 20.6103C27.7116 20.7017 27.6659 20.7474 27.6659 20.8845C27.6202 21.0673 27.6202 21.2044 27.6659 21.2501C27.7116 21.3415 27.7573 21.4329 27.8487 21.4786C27.9401 21.5243 28.0772 21.4786 28.26 21.4329C28.3057 21.57 28.3057 21.6614 28.3514 21.8442C27.7116 21.9813 27.346 22.0727 26.7062 22.2555C26.6605 22.1184 26.6604 22.027 26.6147 21.8899C26.9346 21.7985 27.1175 21.4786 27.2089 20.9302C27.4374 19.285 27.6202 18.5081 27.9401 16.8629C28.1229 16.8172 28.2142 16.8172 28.4427 16.7715C29.4482 18.0968 29.9509 18.7823 30.8192 20.1533C31.0477 20.4732 31.2305 20.7017 31.3676 20.7474C31.5047 20.7931 31.6418 20.8388 31.7332 20.7931C31.7789 20.9302 31.7789 21.0216 31.7789 21.2044C30.7735 21.3415 30.2708 21.4329 29.3111 21.6614C29.2654 21.5243 29.2654 21.4329 29.2197 21.2501C29.4482 21.2044 29.5853 21.1587 29.631 21.113C29.6767 21.0673 29.6767 21.0216 29.6767 20.9302C29.6767 20.8845 29.631 20.7931 29.5853 20.7017C29.5396 20.656 29.5396 20.656 29.4939 20.6103C29.4025 20.4732 29.3568 20.4275 29.2654 20.2904C28.6713 20.3818 28.3514 20.4732 27.7116 20.6103ZM27.7572 20.1533C28.2599 20.0162 28.4885 19.9705 29.0369 19.8791C28.6713 19.3764 28.4428 19.1022 28.0772 18.5995C27.9401 19.2393 27.8943 19.5592 27.7572 20.1533Z" fill="#D3224D"/>
<path d="M32.4645 21.0214C32.4645 20.8843 32.4188 20.7929 32.4188 20.6101C32.693 20.5644 32.8758 20.5187 32.9215 20.4273C33.0129 20.3359 33.0129 20.1531 33.0129 19.9246C32.8758 18.7821 32.7844 18.188 32.6473 17.0455C32.6016 16.817 32.5559 16.6799 32.4645 16.5885C32.3731 16.4971 32.1446 16.4971 31.8704 16.5428C31.8704 16.4057 31.8247 16.3143 31.8247 16.1315C32.0989 16.0858 32.236 16.0858 32.5102 16.0401C33.1957 15.9487 33.7441 15.8573 34.1097 15.8116C34.7495 15.7659 35.2979 15.7659 35.7092 15.8116C36.1205 15.8573 36.5318 15.9944 36.8974 16.1772C37.263 16.4057 37.5372 16.6799 37.72 16.9998C37.9028 17.3654 37.9942 17.731 37.9942 18.1423C37.9942 18.5536 37.9028 18.9649 37.72 19.2848C37.5372 19.6047 37.263 19.8789 36.9888 20.1074C36.6689 20.3359 36.349 20.473 36.0291 20.5187C35.7092 20.5644 35.1151 20.6558 34.3382 20.7015C33.5156 20.8843 33.15 20.93 32.4645 21.0214ZM34.0183 16.3143C34.1554 17.6396 34.2011 18.3251 34.3382 19.6504C34.3382 19.8789 34.3839 20.016 34.4296 20.0617C34.4753 20.1531 34.521 20.1988 34.6124 20.2445C34.7038 20.2902 34.8409 20.2902 35.0237 20.2902C35.4807 20.2445 35.8463 20.0617 36.0748 19.7418C36.3033 19.4219 36.3947 18.9192 36.349 18.2337C36.349 17.6853 36.2119 17.274 36.0291 16.9541C35.8463 16.6342 35.5721 16.4514 35.2522 16.36C34.9323 16.3143 34.521 16.2686 34.0183 16.3143Z" fill="#D3224D"/>
<path d="M41.2847 18.3713C41.239 18.874 41.239 19.1025 41.1933 19.5595C41.1933 19.788 41.1933 19.9251 41.1933 20.0165C41.239 20.1079 41.2847 20.1536 41.4218 20.1993C41.5589 20.245 41.7417 20.2907 41.9702 20.2907C42.2901 20.3364 42.5643 20.2907 42.7014 20.245C42.8842 20.1993 43.0213 20.0622 43.1584 19.8794C43.2955 19.6966 43.4326 19.5138 43.524 19.2853C43.7068 19.2853 43.7982 19.331 43.9353 19.331C43.8439 19.9708 43.7982 20.2907 43.7068 20.9305C41.8788 20.702 40.9191 20.6106 39.0911 20.6106C39.0911 20.4735 39.0911 20.3821 39.0911 20.1993C39.1368 20.1993 39.1367 20.1993 39.1824 20.1993C39.4566 20.1993 39.5938 20.1536 39.6852 20.0622C39.7766 19.9708 39.8223 19.8337 39.8223 19.6052C39.868 18.4627 39.868 17.8686 39.9137 16.7261C39.9137 16.4976 39.868 16.3605 39.8223 16.2691C39.7309 16.1777 39.548 16.132 39.2738 16.132C39.2281 16.132 39.2281 16.132 39.1824 16.132C39.1824 15.9949 39.1824 15.9035 39.1824 15.7207C41.1018 15.7664 42.0615 15.8121 43.981 16.0406C43.9353 16.5433 43.9353 16.8175 43.9353 17.3202C43.7525 17.3202 43.6611 17.2745 43.4783 17.2745C43.4326 17.046 43.3412 16.8632 43.2498 16.7261C43.1584 16.589 43.067 16.4976 42.9756 16.4519C42.8842 16.4062 42.7014 16.3605 42.4729 16.3605C42.0616 16.3148 41.8331 16.3148 41.4218 16.2691C41.3761 16.9546 41.3761 17.2745 41.3304 17.96C41.5132 17.96 41.6503 17.96 41.8331 18.0057C42.0616 18.0057 42.2444 18.0057 42.3358 17.9143C42.4272 17.8229 42.4729 17.6858 42.5186 17.4573C42.7014 17.4573 42.7928 17.503 42.9756 17.503C42.9299 18.1428 42.8842 18.5084 42.7928 19.1482C42.61 19.1482 42.5186 19.1025 42.3358 19.1025C42.3358 19.0568 42.3358 19.0568 42.3358 19.0568C42.3358 18.9197 42.3358 18.7826 42.2901 18.6912C42.2444 18.5541 42.0616 18.5084 41.7874 18.4627C41.6046 18.417 41.5132 18.417 41.2847 18.3713Z" fill="#D3224D"/>
<path d="M47.7281 21.6621C47.3168 20.0169 47.0883 19.1943 46.5399 17.5491C46.3571 18.5545 46.2657 19.0572 46.0829 20.0169C46.0372 20.2454 46.0372 20.4282 46.0372 20.5196C46.0372 20.611 46.1286 20.7481 46.22 20.8395C46.3114 20.9309 46.4485 20.9767 46.6313 21.0224C46.5856 21.1595 46.5856 21.2508 46.5399 21.4336C45.8087 21.2965 45.4431 21.2509 44.7119 21.1138C44.7576 20.9767 44.7576 20.8852 44.7576 20.7024C44.8947 20.7481 45.0775 20.7025 45.1689 20.6568C45.306 20.6111 45.3974 20.5197 45.4431 20.4283C45.4888 20.3369 45.5345 20.154 45.5802 19.9255C45.763 18.9201 45.8544 18.4174 45.9915 17.412C46.0372 17.1835 45.9915 17.0007 45.9458 16.9093C45.8544 16.8179 45.6716 16.7265 45.3974 16.6808C45.4431 16.5437 45.4431 16.4523 45.4431 16.2695C46.3571 16.4066 46.7684 16.498 47.6824 16.6808C48.1394 18.0975 48.3222 18.783 48.6421 20.154C49.6018 19.0572 50.0588 18.5089 51.1099 17.4578C51.9782 17.6863 52.4352 17.8234 53.3035 18.1433C53.2578 18.2804 53.2121 18.3717 53.1664 18.5088C53.1207 18.5088 53.1207 18.5088 53.075 18.4631C52.8008 18.3717 52.618 18.3717 52.5266 18.4174C52.4352 18.4631 52.3438 18.6003 52.2524 18.8288C51.8868 19.9256 51.7497 20.474 51.3841 21.5708C51.3384 21.7993 51.2927 21.9363 51.3841 22.0734C51.4298 22.1648 51.5669 22.2562 51.8411 22.3476C51.8868 22.3476 51.8868 22.3477 51.9325 22.3934C51.8868 22.5305 51.8411 22.6218 51.7954 22.7589C50.7443 22.3933 50.1959 22.2562 49.0991 21.982C49.1448 21.8449 49.1448 21.7535 49.1905 21.6164C49.2362 21.6164 49.2362 21.6164 49.2819 21.6621C49.5104 21.7078 49.6932 21.7078 49.7846 21.6621C49.876 21.6164 49.9674 21.4794 50.0131 21.2509C50.333 20.1541 50.4701 19.6056 50.79 18.5088C49.6018 19.7884 49.0077 20.4282 47.9109 21.7535C47.9109 21.7078 47.8652 21.7078 47.7281 21.6621Z" fill="#D3224D"/>
<path d="M54.3088 18.9203C54.3545 18.7832 54.4002 18.6918 54.4459 18.5547C55.5884 18.966 56.1368 19.1945 57.2793 19.6515C57.2336 19.7886 57.1879 19.88 57.1422 20.0171C57.0965 20.0171 57.0965 20.0171 57.0508 19.9714C56.7766 19.88 56.5938 19.8343 56.5024 19.88C56.411 19.9257 56.2739 20.0628 56.2282 20.2456C55.7712 21.2967 55.5884 21.8451 55.1314 22.8962C55.04 23.1247 55.04 23.2618 55.0857 23.3532C55.1314 23.4446 55.2685 23.5817 55.497 23.6731C55.5427 23.6731 55.5427 23.6731 55.5884 23.7188C55.5427 23.8559 55.497 23.9473 55.4513 24.0844C54.4459 23.6731 53.9432 23.4446 52.8921 23.079C52.9378 22.9419 52.9835 22.8505 53.0292 22.7134C53.3034 22.8048 53.4862 22.8505 53.5776 22.8048C53.669 22.7591 53.8061 22.622 53.8518 22.3935C54.2631 21.2967 54.4459 20.794 54.8572 19.6972C54.9486 19.4687 54.9486 19.3316 54.9029 19.1945C54.7658 19.1031 54.583 19.0117 54.3088 18.9203Z" fill="#D3224D"/>
<path d="M61.8498 25.3627C61.4842 26.0025 61.2556 26.2767 60.89 26.9165C60.7529 26.8251 60.6616 26.7794 60.5245 26.688C60.5702 26.5052 60.6159 26.1853 60.5702 26.1853C60.4331 26.0939 59.382 26.1853 58.7422 25.8654C58.011 25.4998 57.5539 24.9971 57.3254 24.3116C57.0969 23.6718 57.097 23.032 57.4169 22.3922C57.6911 21.7981 58.1938 21.3411 58.8793 21.1126C59.5648 20.8841 60.3417 20.9755 61.21 21.4325C61.8498 21.7524 62.3981 22.8035 62.4895 22.8492C62.5352 22.8492 62.7181 22.6664 62.8552 22.575C63.038 22.6664 63.0837 22.7121 63.2665 22.8035C62.9009 23.4433 62.7181 23.7632 62.3982 24.3573C62.2611 24.2659 62.1697 24.2202 61.9869 24.1288C62.124 23.6261 62.124 23.2148 61.9869 22.8492C61.8498 22.4836 61.5756 22.1637 61.21 21.9809C60.753 21.7524 60.3416 21.7067 59.976 21.8895C59.6104 22.0723 59.2448 22.4836 58.9249 23.1234C58.6964 23.5804 58.5594 23.946 58.5137 24.2202C58.468 24.4944 58.5137 24.7686 58.6508 25.0428C58.7879 25.317 59.0164 25.4998 59.2449 25.6369C59.5648 25.8197 59.9304 25.8654 60.3417 25.8197C60.7073 25.774 61.1186 25.5455 61.4842 25.1799C61.6213 25.2256 61.667 25.2713 61.8498 25.3627Z" fill="#D3224D"/>
<path d="M39.5467 67.3615V65.4421H40.7349L40.2322 64.0711H37.8558L37.3988 65.4421H38.5413V67.3615H34.5197V65.4421H35.4337L38.0843 58.6328H40.9177L43.4312 65.4421H44.3452V67.3615H39.5467ZM39.1354 60.5979L38.2213 63.02H40.0037L39.1354 60.5979Z" fill="#070E20"/>
<path d="M71.9034 48.4887C72.9545 50.6366 75.2395 51.7335 75.2395 51.7335C75.2395 51.7335 75.7879 49.3113 74.7368 47.1177C73.6857 44.9698 71.4007 43.873 71.4007 43.873C71.4007 43.873 70.8523 46.3408 71.9034 48.4887Z" fill="#070E20"/>
<path d="M79.1698 47.529C78.7128 49.9054 76.7934 51.5049 76.7934 51.5049C76.7934 51.5049 75.6509 49.2656 76.1079 46.9349C76.5649 44.5585 78.4843 42.959 78.4843 42.959C78.4843 42.959 79.6268 45.1983 79.1698 47.529Z" fill="#070E20"/>
<path d="M71.1725 58.0848C71.6752 60.4612 73.5946 62.0608 73.5946 62.0608C73.5946 62.0608 74.7371 59.8214 74.2801 57.4907C73.7774 55.1143 71.858 53.5605 71.858 53.5605C71.858 53.5605 70.7155 55.7084 71.1725 58.0848Z" fill="#070E20"/>
<path d="M78.4846 58.9536C77.4335 61.1015 75.1942 62.1983 75.1942 62.1983C75.1942 62.1983 74.6001 59.7762 75.6512 57.5826C76.7023 55.4347 78.9416 54.3379 78.9416 54.3379C78.9416 54.3379 79.49 56.8057 78.4846 58.9536Z" fill="#070E20"/>
<path d="M67.7912 68.5958C67.6541 71.0179 69.1165 73.0287 69.1165 73.0287C69.1165 73.0287 70.8074 71.155 70.9445 68.7786C71.0816 66.3565 69.6192 64.3457 69.6192 64.3457C69.6192 64.3457 67.9283 66.2194 67.7912 68.5958Z" fill="#070E20"/>
<path d="M74.6006 71.3376C73.0468 73.1656 70.579 73.6226 70.579 73.6226C70.579 73.6226 70.6247 71.1091 72.2242 69.2811C73.778 67.4531 76.2458 66.9961 76.2458 66.9961C76.2458 66.9961 76.1544 69.5096 74.6006 71.3376Z" fill="#070E20"/>
<path d="M61.1645 75.5892C60.022 77.6914 60.4333 80.1592 60.4333 80.1592C60.4333 80.1592 62.764 79.1996 63.9065 77.0974C65.049 74.9951 64.6377 72.5273 64.6377 72.5273C64.6377 72.5273 62.307 73.487 61.1645 75.5892Z" fill="#070E20"/>
<path d="M66.1458 80.9817C63.9522 81.9871 61.5302 81.3473 61.5302 81.3473C61.5302 81.3473 62.6726 79.108 64.8663 78.1483C67.0599 77.1429 69.482 77.7827 69.482 77.7827C69.482 77.7827 68.3395 79.9763 66.1458 80.9817Z" fill="#070E20"/>
<path d="M52.5273 80.2491C50.6536 81.8029 50.1967 84.225 50.1967 84.225C50.1967 84.225 52.7102 84.1793 54.5382 82.6712C56.4119 81.1174 56.8689 78.6953 56.8689 78.6953C56.8689 78.6953 54.4011 78.6953 52.5273 80.2491Z" fill="#070E20"/>
<path d="M55.178 87.1039C52.7559 87.1953 50.7451 85.7329 50.7451 85.7329C50.7451 85.7329 52.6188 84.0877 55.0409 83.9963C57.463 83.9049 59.4738 85.3673 59.4738 85.3673C59.4738 85.3673 57.5544 86.9668 55.178 87.1039Z" fill="#070E20"/>
<path d="M44.5757 82.6262C42.4278 83.6773 41.3309 85.9623 41.3309 85.9623C41.3309 85.9623 43.7531 86.5107 45.9467 85.4596C48.0946 84.4085 49.1914 82.1235 49.1914 82.1235C49.1914 82.1235 46.7693 81.5751 44.5757 82.6262Z" fill="#070E20"/>
<path d="M45.5354 89.8925C43.159 89.4355 41.5594 87.5161 41.5594 87.5161C41.5594 87.5161 43.7988 86.3736 46.1295 86.8306C48.5059 87.2876 50.1054 89.207 50.1054 89.207C50.1054 89.207 47.9118 90.3495 45.5354 89.8925Z" fill="#070E20"/>
<path d="M75.7884 38.2966C76.1083 40.673 74.783 42.8209 74.783 42.8209C74.783 42.8209 73.0007 41.0843 72.6808 38.7079C72.3609 36.3315 73.6862 34.1836 73.6862 34.1836C73.6862 34.1836 75.4685 35.9202 75.7884 38.2966Z" fill="#070E20"/>
<path d="M7.37437 48.4887C6.32326 50.6366 4.03827 51.7335 4.03827 51.7335C4.03827 51.7335 3.48985 49.3113 4.54096 47.1177C5.59206 44.9698 7.87706 43.873 7.87706 43.873C7.87706 43.873 8.42547 46.3408 7.37437 48.4887Z" fill="#070E20"/>
<path d="M0.107903 47.529C0.564904 49.9054 2.48431 51.5049 2.48431 51.5049C2.48431 51.5049 3.62682 49.2656 3.16981 46.9349C2.71281 44.5585 0.793404 42.959 0.793404 42.959C0.793404 42.959 -0.349098 45.1983 0.107903 47.529Z" fill="#070E20"/>
<path d="M8.10601 58.0848C7.60331 60.4612 5.68391 62.0608 5.68391 62.0608C5.68391 62.0608 4.54141 59.8214 4.99841 57.4907C5.50111 55.1143 7.42051 53.5605 7.42051 53.5605C7.42051 53.5605 8.56301 55.7084 8.10601 58.0848Z" fill="#070E20"/>
<path d="M0.793782 58.9517C1.84488 61.0996 4.08419 62.1964 4.08419 62.1964C4.08419 62.1964 4.6783 59.7743 3.62719 57.5807C2.57609 55.4328 0.336781 54.3359 0.336781 54.3359C0.336781 54.3359 -0.21162 56.8038 0.793782 58.9517Z" fill="#070E20"/>
<path d="M11.4873 68.5958C11.6244 71.0179 10.162 73.0287 10.162 73.0287C10.162 73.0287 8.47112 71.155 8.33402 68.7786C8.19692 66.3565 9.65934 64.3457 9.65934 64.3457C9.65934 64.3457 11.3502 66.2194 11.4873 68.5958Z" fill="#070E20"/>
<path d="M4.67803 71.3376C6.23183 73.1656 8.69966 73.6226 8.69966 73.6226C8.69966 73.6226 8.65394 71.1091 7.05444 69.2811C5.50064 67.4531 3.03284 66.9961 3.03284 66.9961C3.03284 66.9961 3.12423 69.5096 4.67803 71.3376Z" fill="#070E20"/>
<path d="M18.1139 75.5892C19.2564 77.6914 18.8451 80.1592 18.8451 80.1592C18.8451 80.1592 16.5144 79.1996 15.3719 77.0974C14.2294 74.9951 14.6407 72.5273 14.6407 72.5273C14.6407 72.5273 16.9714 73.487 18.1139 75.5892Z" fill="#070E20"/>
<path d="M13.1325 80.9817C15.3261 81.9871 17.7482 81.3473 17.7482 81.3473C17.7482 81.3473 16.6057 79.108 14.4121 78.1483C12.2185 77.1429 9.79639 77.7827 9.79639 77.7827C9.79639 77.7827 10.9389 79.9763 13.1325 80.9817Z" fill="#070E20"/>
<path d="M26.7509 80.2491C28.6246 81.8029 29.0816 84.225 29.0816 84.225C29.0816 84.225 26.5681 84.1793 24.7401 82.6712C22.8664 81.1174 22.4094 78.6953 22.4094 78.6953C22.4094 78.6953 24.8772 78.6953 26.7509 80.2491Z" fill="#070E20"/>
<path d="M24.1004 87.1039C26.5225 87.1953 28.5333 85.7329 28.5333 85.7329C28.5333 85.7329 26.6596 84.0877 24.2375 83.9963C21.8154 83.9049 19.8046 85.3673 19.8046 85.3673C19.8046 85.3673 21.724 86.9668 24.1004 87.1039Z" fill="#070E20"/>
<path d="M34.7027 82.6262C36.8506 83.6773 37.9475 85.9623 37.9475 85.9623C37.9475 85.9623 35.5253 86.5107 33.3317 85.4596C31.1838 84.4085 30.087 82.1235 30.087 82.1235C30.087 82.1235 32.5091 81.5751 34.7027 82.6262Z" fill="#070E20"/>
<path d="M33.7431 89.8925C36.1195 89.4355 37.719 87.5161 37.719 87.5161C37.719 87.5161 35.4797 86.3736 33.149 86.8306C30.7726 87.2876 29.1731 89.207 29.1731 89.207C29.1731 89.207 31.3667 90.3495 33.7431 89.8925Z" fill="#070E20"/>
<path d="M3.48988 38.2966C3.16998 40.673 4.49529 42.8209 4.49529 42.8209C4.49529 42.8209 6.27758 41.0843 6.59748 38.7079C6.91739 36.3315 5.59208 34.1836 5.59208 34.1836C5.59208 34.1836 3.80979 35.9202 3.48988 38.2966Z" fill="#070E20"/>
<path d="M47.408 10.1455C47.408 10.1455 40.0503 10.7853 31.5501 10.1455C31.5044 9.6428 31.5501 6.99219 31.5501 6.99219C40.3702 7.67769 47.408 6.99219 47.408 6.99219V10.1455Z" fill="#070E20"/>
<path d="M47.4081 10.237C47.0882 10.2827 40.9187 10.9683 31.5502 10.237C31.1389 9.87145 31.5502 9.50586 31.5502 9.50586C40.3246 10.1914 47.4081 9.50586 47.4081 9.50586C47.4081 9.50586 47.7737 9.82575 47.4081 10.237Z" fill="#070E20"/>
<path d="M45.0773 7.12893H47.3623L48.2306 1.73633L45.0773 7.12893Z" fill="#070E20"/>
<path d="M44.1635 0.777344L41.2844 7.26673V7.35814H45.2146V7.17536L44.1635 0.777344Z" fill="#070E20"/>
<path d="M39.5017 0.501953H39.456L37.5823 6.94568L34.7946 0.593359L33.7435 6.80856L30.7273 1.59877L31.5956 6.99137H33.7435V7.03706V7.21987H37.5366L37.4909 7.31128H37.4452V7.35697H41.4668V7.03706L39.5017 0.501953Z" fill="#070E20"/>
<path d="M47.4081 7.58666C47.0882 7.63236 40.9187 8.31786 31.5502 7.58666C31.1389 7.22106 31.5502 6.85547 31.5502 6.85547C40.3246 7.54097 47.4081 6.85547 47.4081 6.85547C47.4081 6.85547 47.7737 7.12966 47.4081 7.58666Z" fill="#070E20"/>
<path d="M39.4562 1.09679C39.7591 1.09679 40.0047 0.85128 40.0047 0.548407C40.0047 0.245533 39.7591 0 39.4562 0C39.1534 0 38.9078 0.245533 38.9078 0.548407C38.9078 0.85128 39.1534 1.09679 39.4562 1.09679Z" fill="#070E20"/>
<path d="M44.1634 1.50892C44.4663 1.50892 44.7118 1.26339 44.7118 0.960516C44.7118 0.657642 44.4663 0.412109 44.1634 0.412109C43.8605 0.412109 43.615 0.657642 43.615 0.960516C43.615 1.26339 43.8605 1.50892 44.1634 1.50892Z" fill="#070E20"/>
<path d="M48.2307 2.46788C48.5335 2.46788 48.779 2.22237 48.779 1.9195C48.779 1.61663 48.5335 1.37109 48.2307 1.37109C47.9278 1.37109 47.6823 1.61663 47.6823 1.9195C47.6823 2.22237 47.9278 2.46788 48.2307 2.46788Z" fill="#070E20"/>
<path d="M35.2518 0.685125C35.2518 1.00503 35.0233 1.23353 34.7034 1.23353C34.3835 1.23353 34.155 1.00503 34.155 0.685125C34.155 0.365225 34.3835 0.136719 34.7034 0.136719C35.0233 0.136719 35.2518 0.365225 35.2518 0.685125Z" fill="#070E20"/>
<path d="M30.6815 2.19447C30.9843 2.19447 31.2299 1.94894 31.2299 1.64606C31.2299 1.34319 30.9843 1.09766 30.6815 1.09766C30.3786 1.09766 30.1331 1.34319 30.1331 1.64606C30.1331 1.94894 30.3786 2.19447 30.6815 2.19447Z" fill="#070E20"/>
</svg>
