<svg width="194" height="56" fill="none" xmlns="http://www.w3.org/2000/svg"><path d="M30.272 39.816c.247-.24.726-.367 1.163-.187.516.213.966.62 1.298 1.004.058.068.11.134.159.197a5.708 5.708 0 0 1-.736.206c-.754.15-1.407.094-1.76-.305l-.004-.006-.006-.006-.077-.088c-.162-.2-.202-.357-.202-.462 0-.118.05-.24.165-.353ZM34.32 38.3c.2-.268.641-.455 1.102-.329.518.153 1.017.5 1.404.835.064.056.123.112.18.164a5.775 5.775 0 0 1-.672.288c-.676.234-1.29.281-1.691.017l-.077-.058c-.255-.213-.338-.4-.357-.529a.511.511 0 0 1 .11-.388Zm-4.314-2.4c.17.486.31 1.097.247 1.685-.05.442-.388.788-.735.882a.548.548 0 0 1-.419-.036c-.097-.054-.217-.167-.31-.4l-.039-.108c-.169-.53.118-1.143.622-1.725.18-.21.372-.395.54-.543.03.076.064.157.094.245Zm3.477-1.299c.204.408.398.907.465 1.398l.02.21a.99.99 0 0 1-.572.95.596.596 0 0 1-.441.026c-.13-.046-.29-.159-.438-.417-.213-.555.008-1.21.411-1.826.142-.217.293-.412.43-.572.04.071.084.148.125.231Zm5.447.91c.557.062 1.124.316 1.572.575.078.044.15.09.217.132-.17.132-.374.282-.6.413-.647.376-1.28.538-1.756.283-.28-.17-.396-.344-.44-.477a.556.556 0 0 1 .037-.422c.146-.303.527-.553.97-.504Zm-2.346-2.916c.272.355.548.795.695 1.247l.053.194c.099.454-.11.878-.39 1.062a.51.51 0 0 1-.393.086c-.113-.024-.268-.1-.44-.3l-.074-.093-.007-.01-.057-.081c-.26-.417-.178-1.01.103-1.654.106-.244.23-.47.344-.657.053.064.11.132.166.206Zm5.444-.144c.547-.061 1.138.077 1.617.248.084.03.163.062.237.092-.14.157-.31.337-.505.505-.523.45-1.08.721-1.589.613l-.101-.027c-.311-.099-.45-.237-.51-.342a.488.488 0 0 1-.034-.385c.09-.321.43-.654.885-.704Zm-2.846-2.482c.373.33.757.773.935 1.277l.005.012.004.012c.181.44.052.895-.178 1.12a.473.473 0 0 1-.349.148c-.11-.004-.271-.05-.474-.214l-.089-.078c-.372-.348-.415-.987-.254-1.725a5.56 5.56 0 0 1 .209-.71c.06.049.126.1.191.158Zm5.327-1.175c.52-.119 1.11-.076 1.595.01.08.013.155.03.226.045a5.072 5.072 0 0 1-.391.568c-.456.56-.962.899-1.472.806l-.012-.002-.012-.002-.116-.018c-.252-.052-.382-.147-.449-.225a.46.46 0 0 1-.096-.357c.033-.321.305-.697.727-.825Zm-3.292-1.816c.428.266.907.639 1.214 1.1.247.37.2.813.006 1.073a.522.522 0 0 1-.336.216c-.112.018-.276.004-.493-.112l-.097-.055c-.447-.283-.604-.898-.578-1.637a5.56 5.56 0 0 1 .078-.705c.065.037.135.076.206.12Zm6.743-2.646a5.157 5.157 0 0 1-.27.67c-.322.653-.75 1.11-1.294 1.133h-.012l-.012.001c-.306.028-.473-.042-.56-.108a.456.456 0 0 1-.164-.32c-.04-.319.136-.747.514-.975.486-.27 1.069-.37 1.557-.396.085-.004.166-.005.241-.005Zm-5.405-.647c.412.135.878.34 1.255.635l.155.132c.317.292.383.743.259 1.047a.475.475 0 0 1-.254.275c-.105.043-.288.067-.58-.044l-.01-.004-.01-.003-.09-.035c-.437-.197-.705-.72-.845-1.388a5.255 5.255 0 0 1-.09-.678c.066.019.137.04.21.063Zm.76-3.57c.424.06.915.182 1.338.416l.175.107c.376.25.51.679.438.994a.529.529 0 0 1-.22.335c-.108.071-.291.131-.591.092-.517-.1-.897-.608-1.159-1.288a5.367 5.367 0 0 1-.205-.68c.07.007.146.014.224.025Zm5.38-.333a5.308 5.308 0 0 1-.143.674c-.203.699-.534 1.206-1.01 1.32l-.01.002-.007.002c-.31.084-.503.046-.612-.009a.479.479 0 0 1-.239-.293c-.085-.263-.023-.63.226-.9l.118-.109c.428-.336.984-.532 1.462-.643.075-.018.147-.031.215-.044Zm-5.348-3.332c.434-.023.935.004 1.375.152l.184.07c.393.172.604.566.593.891a.517.517 0 0 1-.148.363c-.087.085-.249.175-.543.192-.52-.004-.988-.428-1.373-1.04a5.37 5.37 0 0 1-.324-.61c.074-.007.153-.014.236-.018Zm5.175-1.305c.007.207.01.447-.015.693-.07.73-.304 1.267-.745 1.443l-.019.008-.018.008c-.279.14-.461.133-.566.102a.463.463 0 0 1-.272-.243.99.99 0 0 1 .123-1.046c.37-.399.88-.691 1.322-.887.066-.029.13-.054.19-.078Zm-5.878-2.446c.483-.087 1.057-.128 1.539-.008l.007.002c.401.094.658.44.692.759a.49.49 0 0 1-.09.362c-.067.086-.204.19-.485.23l-.023.002-.022.006c-.46.11-.953-.196-1.424-.756a5.205 5.205 0 0 1-.4-.555c.065-.014.134-.03.206-.042Zm4.885-1.938c.033.195.065.42.074.654.026.71-.13 1.275-.562 1.525l-.013.008-.013.009c-.25.167-.428.186-.535.17a.433.433 0 0 1-.287-.187c-.174-.238-.229-.665-.012-1.042.31-.426.768-.78 1.176-1.034.059-.037.117-.07.172-.103ZM42.745 8.99a.927.927 0 0 1 .818.623.521.521 0 0 1-.019.39c-.046.094-.144.212-.35.313l-.095.042c-.45.18-1.008-.045-1.576-.507a5.344 5.344 0 0 1-.503-.475c.062-.027.129-.056.2-.084.397-.157.874-.295 1.331-.306l.194.004Zm2.899-2.49c.074.186.15.407.206.641.164.685.123 1.28-.273 1.63l-.023.021c-.203.204-.365.25-.465.251a.452.452 0 0 1-.321-.141c-.229-.218-.358-.638-.218-1.026.217-.488.595-.92.942-1.242.052-.048.103-.092.152-.134Zm-27.82 33.13c.438-.18.917-.055 1.164.186a.489.489 0 0 1 .165.353c0 .12-.053.309-.28.55l-.005.006-.006.006c-.352.4-1.004.456-1.758.305a5.722 5.722 0 0 1-.737-.206c.05-.063.102-.13.16-.197.332-.383.781-.791 1.297-1.004Zm-3.986-1.659c.46-.126.9.063 1.102.33a.51.51 0 0 1 .109.388c-.02.13-.101.317-.356.53-.397.326-1.047.29-1.768.04a5.794 5.794 0 0 1-.672-.288c.056-.052.115-.108.18-.164.387-.335.887-.683 1.405-.836Zm5.51-2.317c.168.148.36.333.54.543.472.546.754 1.118.648 1.625l-.026.1c-.098.307-.238.446-.349.508a.548.548 0 0 1-.419.036 1.059 1.059 0 0 1-.705-.723l-.031-.162c-.061-.587.078-1.197.248-1.682.03-.088.063-.17.094-.245Zm-3.515-1.296c.145.163.307.363.456.587.412.618.626 1.264.387 1.812-.15.266-.313.38-.444.427a.597.597 0 0 1-.441-.025.989.989 0 0 1-.568-.791l-.004-.16c.03-.557.252-1.141.485-1.608.043-.087.088-.168.129-.242Zm-5.576 1.152c.442-.049.824.201.97.504a.556.556 0 0 1 .037.422c-.044.133-.16.307-.44.477-.478.254-1.11.093-1.756-.283a5.528 5.528 0 0 1-.601-.413c.067-.042.14-.088.218-.133.448-.258 1.015-.512 1.572-.574Zm2.584-3.12c.114.186.239.41.346.655.28.645.361 1.237.101 1.654l-.057.08-.007.01c-.2.272-.384.367-.513.394a.51.51 0 0 1-.394-.086c-.28-.184-.49-.612-.388-1.068l-.001-.001c.123-.517.438-1.03.748-1.434.056-.074.112-.142.165-.205Zm-5.682.06c.455.05.795.383.885.704a.49.49 0 0 1-.034.385c-.053.091-.166.209-.402.303l-.108.04-.007.001c-.493.164-1.082-.102-1.659-.59a5.684 5.684 0 0 1-.52-.507c.071-.03.147-.06.228-.088.42-.15.924-.274 1.41-.262l.207.014Zm3.109-2.64c.073.205.154.45.21.71.15.692.122 1.296-.188 1.655l-.066.07c-.244.229-.438.288-.563.292a.472.472 0 0 1-.348-.149c-.23-.224-.36-.68-.18-1.119l.006-.012.004-.012c.178-.504.562-.946.935-1.277.065-.057.13-.11.19-.158Zm-7.112-1.008c.485-.085 1.074-.128 1.594-.01.422.129.694.505.728.826a.46.46 0 0 1-.096.357c-.076.09-.236.2-.565.243l-.012.002-.012.002c-.51.093-1.016-.246-1.472-.806a5.095 5.095 0 0 1-.392-.568c.071-.015.147-.032.227-.046Zm5.092-1.945c.035.207.07.45.078.705.025.693-.111 1.277-.497 1.58l-.08.057c-.265.167-.462.188-.59.167a.522.522 0 0 1-.337-.216c-.193-.26-.24-.704.006-1.073.307-.461.786-.834 1.214-1.1.071-.044.141-.083.206-.12Zm-6.707-2.52c.489.025 1.071.126 1.558.397.377.229.551.655.512.973a.455.455 0 0 1-.165.32c-.086.066-.252.136-.56.108h-.023c-.543-.025-.972-.48-1.295-1.135a5.147 5.147 0 0 1-.27-.67c.077.001.158.002.243.006Zm5.32-.721a4.967 4.967 0 0 1-.083.69c-.138.7-.431 1.248-.955 1.414l-.012.004-.014.005c-.292.111-.475.087-.58.044a.475.475 0 0 1-.254-.275c-.108-.266-.072-.645.151-.931l.108-.116c.397-.367.939-.613 1.41-.767.08-.026.157-.048.23-.068Zm-.709-3.524a5.53 5.53 0 0 1-.214.673c-.273.689-.654 1.193-1.134 1.293-.3.039-.483-.02-.59-.092a.528.528 0 0 1-.22-.335c-.063-.276.032-.638.308-.892l.129-.102c.457-.305 1.029-.454 1.513-.522.073-.01.143-.016.208-.023ZM.78 19.825c.418.097.897.26 1.296.524l.166.12c.346.27.442.708.344 1.008a.478.478 0 0 1-.237.293c-.11.055-.303.094-.614.009l-.015-.004-.088-.025c-.43-.152-.732-.64-.923-1.295a5.329 5.329 0 0 1-.144-.674c.068.013.14.026.215.044Zm5.06-3.376c.089.004.173.012.25.02a4.977 4.977 0 0 1-.312.612c-.37.604-.84 1.033-1.4 1.036-.293-.017-.454-.107-.541-.192a.517.517 0 0 1-.148-.363c-.01-.285.15-.622.455-.816l.138-.075c.48-.21 1.063-.248 1.559-.222ZM.928 15.222c.44.195.948.487 1.318.883.26.312.28.761.128 1.05a.463.463 0 0 1-.272.243c-.105.031-.287.038-.566-.102l-.018-.008-.02-.008-.08-.038c-.389-.207-.597-.722-.664-1.405a5.293 5.293 0 0 1-.016-.693l.19.078Zm4.15-2.531c.481-.12 1.055-.08 1.54.007.071.013.14.028.204.042-.11.173-.242.369-.4.555-.47.56-.963.866-1.423.756l-.022-.006-.023-.002-.099-.018c-.215-.048-.328-.137-.387-.212a.49.49 0 0 1-.09-.361c.03-.28.23-.58.549-.713l.143-.047.007-.001ZM1.83 10.863c.408.255.865.608 1.175 1.034.217.377.163.804-.01 1.042a.433.433 0 0 1-.288.188c-.107.015-.285-.005-.535-.171l-.013-.01-.013-.007-.079-.05c-.372-.271-.508-.81-.483-1.475.009-.234.04-.46.073-.654.055.032.114.066.173.103Zm4.611-1.874c.514-.03 1.072.122 1.527.302.074.03.143.06.209.09-.137.148-.3.316-.489.471-.547.452-1.11.689-1.604.503-.27-.109-.389-.246-.441-.354a.521.521 0 0 1-.019-.39.927.927 0 0 1 .67-.602l.147-.02ZM3.695 6.633c.347.321.724.754.94 1.242.141.388.013.808-.216 1.026a.452.452 0 0 1-.321.141c-.1-.002-.262-.047-.465-.25L3.62 8.78l-.066-.069c-.311-.357-.336-.93-.189-1.577.052-.227.123-.44.19-.623l.14.122Z" fill="#fff" stroke="#000"/><path d="M24.63 35.305c8.599-4.226 12.388-14.647 13.19-22.954-4.081-1.894-8.526-3.06-13.19-3.06-4.663 0-9.109 1.166-13.19 3.06.802 8.307 4.519 18.728 13.19 22.954Z" stroke="#000" stroke-width="3" stroke-miterlimit="22.926"/><path d="M42.4 48.367a33.22 33.22 0 0 1 3.923 1.025l-3.143 1.185-.69.26.498.545 3.203 3.513a40.941 40.941 0 0 0-3.79-.985v-5.543Zm-5.611 4.128c1.12.3 2.2.637 3.239.98a53.416 53.416 0 0 0-3.24-.407v-.573ZM6.787 53.91a40.921 40.921 0 0 0-3.792.985l3.204-3.513.496-.545-.69-.26-3.143-1.185a33.227 33.227 0 0 1 3.925-1.025v5.543Zm5.61-.842a53.36 53.36 0 0 0-3.24.408c1.04-.344 2.119-.68 3.24-.98v.572Z" fill="#fff" stroke="#000"/><path d="M8.88 45.863c9.102-3.157 22.4-3.157 31.572.001v5.492c-9.445-3.288-22.19-3.29-31.572-.002v-5.491Z" fill="#DAB8B8" stroke="#000"/><mask id="a" fill="#fff"><path d="m10.347 46.527.656-.146c.073 0 .146-.073.219-.073.145-.072.218-.072.291-.072h.146c0 .072 0 .072-.073.072s-.146.073-.219.146v.437c.073.219.073.438.146.656.073.365.219.656.292.802a.568.568 0 0 0 .291.291c.146.073.292.073.51 0 .219-.073.364-.145.437-.218.073-.146.146-.292.073-.438 0-.218-.073-.583-.218-1.093-.073-.291-.146-.51-.219-.583-.073-.072-.146-.145-.291-.145-.073 0-.146 0-.146-.073s0-.073.073-.073h.145c.073 0 .146 0 .22-.073.072 0 .145-.073.29-.073.073 0 .146-.073.146-.073h.146s0 .073-.073.073a.157.157 0 0 0-.146.146c-.072.073-.072.146 0 .291 0 .146.073.51.219 1.02.073.365.146.656.073.802 0 .146-.146.364-.292.437-.145.146-.364.219-.655.292-.219.073-.365.073-.583.073-.146 0-.292 0-.438-.073-.073-.073-.218-.146-.291-.219-.073-.073-.146-.218-.146-.437l-.291-1.093c-.073-.146-.073-.292-.146-.364-.073-.073-.073-.146-.146-.146h-.291v-.073h.291Zm4.154-.947c.801.656 1.457 1.166 2.04 1.53v-.219l-.146-.801c-.072-.219-.072-.365-.145-.438-.073-.072-.073-.145-.146-.145s-.146-.073-.292-.073c-.072 0-.072 0-.072-.073s0-.073.072-.073h.073c.073 0 .219 0 .365-.073.218 0 .364-.073.437-.073h.073c.073 0 .073 0 .073.073s0 .073-.073.073-.146.073-.219.146c-.073.073-.073.219-.073.437l.219 1.166.146.875c0 .072 0 .145-.073.145h-.073s-.146-.073-.364-.218c-.22-.146-.51-.365-.948-.73a5.545 5.545 0 0 1-.874-.728c0 .073.073.365.218 1.02.073.219.073.365.146.51.073.146.146.22.219.22.073 0 .218.072.291 0 .073 0 .073 0 .073.072 0 .073 0 .073-.073.073h-.146c-.072 0-.218 0-.291.073-.219.073-.364.073-.437.073h-.146c-.073 0-.073 0-.073-.073 0 0 0-.073.146-.073.146-.073.218-.146.291-.219v-.437c-.145-.729-.218-1.166-.291-1.312l-.219-.437c-.145-.146-.218-.146-.364-.146-.073 0-.073 0-.073-.072 0-.073 0-.073.073-.073h.656Zm2.842-.51h.583l.655-.073c.073 0 .073 0 .073.073 0 0 0 .072-.073.072-.145 0-.218.073-.218.073s-.073.073-.073.219c0 .146 0 .364.073.729.073.437.073.801.146 1.02.072.218.072.364.145.437.073.073.146.073.219.073.073 0 .073 0 .146.073 0 .073 0 .073-.073.073h-.073c-.292 0-.437 0-.583.073-.219 0-.364.072-.437.072h-.146c-.073 0-.073 0-.073-.072 0 0 0-.073.073-.073.146 0 .219-.073.219-.146s.073-.219 0-.364c0-.219-.073-.51-.073-.948-.073-.437-.073-.728-.146-.874 0-.146-.073-.219-.146-.292-.073 0-.145-.073-.218-.073-.073 0-.073 0 0-.072-.073 0-.073 0 0 0Zm3.352 2.55h-.146l-.437-1.02c-.146-.219-.292-.583-.438-.947-.145-.365-.291-.583-.364-.656l-.146-.146h-.145c-.073 0-.073 0-.073-.073s0-.073.073-.073h.583c.218 0 .364 0 .582-.073h.073c.073 0 .073 0 .073.073 0 0 0 .073-.072.073-.146 0-.22.146-.22.219 0 .218.22.801.657 1.749.072-.292.218-.656.291-.948l.146-.583v-.218c0-.073 0-.146-.073-.146-.073-.073-.073-.073-.146-.073s-.073 0-.073-.073 0-.073.073-.073h.875c.073 0 .073 0 .073.073 0 0 0 .073-.073.073s-.146.073-.219.073c-.073.073-.073.146-.146.219-.072.072-.145.291-.218.655l-.292 1.02c-.073.365-.218.73-.218.875Zm3.862-2.988c.073.219.073.438.146.656 0 .073 0 .073-.073.073 0 0-.073 0-.073-.073-.146-.218-.292-.364-.438-.437-.145-.073-.29-.073-.51-.073h-.364v1.093h.146c.073 0 .218 0 .291-.073.073 0 .146-.073.219-.145.073-.073.073-.146.073-.146 0-.073 0-.073.073-.073.072 0 .072 0 .072.073v.947c0 .073 0 .073-.072.073 0 0-.073-.073-.073-.146 0-.145-.073-.218-.219-.291-.073-.073-.291-.073-.51-.073v1.02c0 .073.073.146.146.146.073.073.146.073.291.073.51 0 .875-.146 1.093-.51 0-.073.073-.073.073-.073.073 0 .073 0 .073.073v.072l-.146.583h-2.404c-.073 0-.073 0-.073-.072 0-.073 0-.073.073-.073.145 0 .218-.073.291-.146.073-.073.073-.219.073-.437v-1.749c0-.073 0-.146-.073-.146s-.146-.073-.218-.073c-.073 0-.073 0-.073-.073 0-.072 0-.072.073-.072h.51l1.603.072Zm2.186 1.385c.218 0 .364.073.437.218.146.073.219.292.291.51.073.22.073.438.146.51.073.074.146.146.292.146.073 0 .073 0 .073.073s-.073.073-.146.073l-.802-.073c-.073-.073-.145-.218-.145-.437 0-.291-.073-.51-.073-.583-.073-.146-.073-.218-.146-.291-.073-.073-.146-.073-.292-.073h-.145c0 .51-.073.801-.073.947 0 .146 0 .219.073.219.073.073.145.073.218.073.073 0 .073 0 .073.072 0 .073 0 .073-.073.073l-.655-.073h-.584c-.072 0-.072 0-.072-.072 0-.073 0-.073.072-.073.073 0 .146 0 .22-.073.072-.073.145-.219.145-.51v-.365l.073-.801v-.729c0-.073-.146-.146-.292-.146-.073 0-.073 0-.073-.072 0-.073.073-.073.146-.073h1.385c.291 0 .583.073.728.218.146.146.292.292.219.51a.557.557 0 0 1-.146.365c-.073.073-.218.218-.364.218-.219.219-.364.219-.51.219Zm-.583-.073h.073c.145 0 .218 0 .364-.073s.219-.146.292-.218c.072-.073.072-.219.072-.292 0-.146-.072-.291-.145-.437-.073-.073-.219-.146-.438-.146h-.218v1.166Zm3.935-.874.073-.073c0-.073.073-.073.073-.073.072 0 .072.073.072.073v.656c0 .072 0 .072-.072.072h-.073s0-.072-.073-.145c-.073-.146-.146-.292-.292-.365-.145-.145-.291-.218-.437-.218-.146 0-.291 0-.364.073-.073.072-.146.145-.146.291 0 .073 0 .219.073.292.073.072.219.145.437.291.364.146.583.292.729.51.146.146.146.364.146.583a.662.662 0 0 1-.22.51c-.145.146-.218.219-.364.292-.145.072-.29.073-.51.073-.145 0-.218-.073-.364-.073-.146-.073-.219-.146-.364-.219 0 0-.073.073-.073.146s-.073.073-.073.073-.073-.073-.073-.146v-.874c0-.073 0-.073.073-.073 0 0 .073.072.073.145.073.219.146.438.291.583.146.146.292.219.51.292.146 0 .292 0 .438-.073.145-.073.145-.219.218-.292 0-.145 0-.218-.073-.364a1.021 1.021 0 0 0-.51-.291c-.218-.073-.364-.219-.51-.292-.073-.073-.218-.218-.218-.291-.073-.146-.073-.292-.073-.365 0-.218.146-.437.291-.51.219-.145.438-.218.729-.145.219-.292.437-.22.656-.073Zm.947 0c.073 0 .146 0 .292.072.145 0 .218.073.291.073l.656.073c.073 0 .073 0 .073.073 0 0 0 .073-.073.073h-.219c-.073 0-.073.073-.145.219-.073.072-.073.364-.146.728-.073.437-.146.802-.146 1.02v.438c0 .072.073.072.219.145.072 0 .073 0 .073.073s-.073.073-.146.073h-.073c-.292-.073-.437-.073-.51-.146-.219 0-.364-.072-.51-.072h-.146c-.073 0-.073 0-.073-.073 0 0 0-.073.073-.073.146 0 .219 0 .291-.073.073-.073.073-.146.146-.364.073-.219.073-.51.146-.875.073-.437.073-.729.073-.874v-.292c0-.073-.073-.073-.219-.073-.073 0-.073-.073-.073-.073.073-.072.146-.072.146-.072Zm1.749.218c.729.146 1.239.292 1.603.365.291.072.583.072.875.145.145 0 .218 0 .291.073h.146v.729c0 .073-.073.073-.073.073s-.073-.073-.073-.146c0-.146-.073-.219-.146-.364a1.004 1.004 0 0 0-.291-.219c-.073-.073-.292-.073-.51-.146-.073.219-.146.51-.219.802-.073.364-.146.656-.146.947-.072.292-.072.51-.072.583 0 .073 0 .146.072.146.073.073.146.073.292.146.073 0 .073.073.073.073 0 .072 0 .072-.073.072h-.073l-.437-.072c-.365-.073-.51-.073-.583-.146l-.292-.073h-.145s-.073 0-.073-.073.073-.073.073-.073h.291c.073-.073.146-.146.146-.218.073-.146.073-.365.145-.73.146-.582.22-1.092.22-1.457a1.423 1.423 0 0 0-.511-.072c-.073 0-.218 0-.291.072a.569.569 0 0 0-.292.292c0 .073-.073.073-.073.073-.073 0-.073 0-.073-.073 0 0 0-.073.073-.292.073-.218.146-.364.146-.437Zm4.59 2.26c.51-.438.802-.657.802-.802v-.073c0-.073-.073-.073-.145-.146-.073 0-.073-.073-.073-.073 0-.073.072-.073.072-.073h.073c.146.073.292.073.365.146.073 0 .218.073.364.073h.073c.073 0 .073 0 .073.073 0 0 0 .073-.073.073h-.291c-.073 0-.22.072-.365.218a3.162 3.162 0 0 1-.51.437.876.876 0 0 0-.291.292c0 .073-.073.218-.146.437-.073.364-.146.656-.146.729 0 .073.073.146.219.218.073 0 .073.073.073.073 0 .073-.073.073-.073.073-.073 0-.146-.073-.365-.073-.073 0-.145-.073-.218-.073-.146-.072-.292-.072-.51-.072h-.073c-.073 0-.073-.073-.073-.073s0-.073.073-.073c.145 0 .218 0 .291-.073.073-.073.146-.219.146-.51.073-.219.073-.365.073-.437 0-.073-.073-.219-.146-.51l-.218-.656c-.073-.219-.146-.365-.22-.438-.072-.072-.145-.145-.218-.145-.072 0-.073-.073-.073-.073 0-.073.073-.073.073-.073h.073c.219.073.364.146.437.146.146.073.365.073.51.145h.073c.073 0 .073 0 .073.073l-.073.073c-.145 0-.218 0-.218.073.218.073.291.437.583 1.093Z"/></mask><path d="m10.347 46.527.656-.146c.073 0 .146-.073.219-.073.145-.072.218-.072.291-.072h.146c0 .072 0 .072-.073.072s-.146.073-.219.146v.437c.073.219.073.438.146.656.073.365.219.656.292.802a.568.568 0 0 0 .291.291c.146.073.292.073.51 0 .219-.073.364-.145.437-.218.073-.146.146-.292.073-.438 0-.218-.073-.583-.218-1.093-.073-.291-.146-.51-.219-.583-.073-.072-.146-.145-.291-.145-.073 0-.146 0-.146-.073s0-.073.073-.073h.145c.073 0 .146 0 .22-.073.072 0 .145-.073.29-.073.073 0 .146-.073.146-.073h.146s0 .073-.073.073a.157.157 0 0 0-.146.146c-.072.073-.072.146 0 .291 0 .146.073.51.219 1.02.073.365.146.656.073.802 0 .146-.146.364-.292.437-.145.146-.364.219-.655.292-.219.073-.365.073-.583.073-.146 0-.292 0-.438-.073-.073-.073-.218-.146-.291-.219-.073-.073-.146-.218-.146-.437l-.291-1.093c-.073-.146-.073-.292-.146-.364-.073-.073-.073-.146-.146-.146h-.291v-.073h.291Zm4.154-.947c.801.656 1.457 1.166 2.04 1.53v-.219l-.146-.801c-.072-.219-.072-.365-.145-.438-.073-.072-.073-.145-.146-.145s-.146-.073-.292-.073c-.072 0-.072 0-.072-.073s0-.073.072-.073h.073c.073 0 .219 0 .365-.073.218 0 .364-.073.437-.073h.073c.073 0 .073 0 .073.073s0 .073-.073.073-.146.073-.219.146c-.073.073-.073.219-.073.437l.219 1.166.146.875c0 .072 0 .145-.073.145h-.073s-.146-.073-.364-.218c-.22-.146-.51-.365-.948-.73a5.545 5.545 0 0 1-.874-.728c0 .073.073.365.218 1.02.073.219.073.365.146.51.073.146.146.22.219.22.073 0 .218.072.291 0 .073 0 .073 0 .073.072 0 .073 0 .073-.073.073h-.146c-.072 0-.218 0-.291.073-.219.073-.364.073-.437.073h-.146c-.073 0-.073 0-.073-.073 0 0 0-.073.146-.073.146-.073.218-.146.291-.219v-.437c-.145-.729-.218-1.166-.291-1.312l-.219-.437c-.145-.146-.218-.146-.364-.146-.073 0-.073 0-.073-.072 0-.073 0-.073.073-.073h.656Zm2.842-.51h.583l.655-.073c.073 0 .073 0 .073.073 0 0 0 .072-.073.072-.145 0-.218.073-.218.073s-.073.073-.073.219c0 .146 0 .364.073.729.073.437.073.801.146 1.02.072.218.072.364.145.437.073.073.146.073.219.073.073 0 .073 0 .146.073 0 .073 0 .073-.073.073h-.073c-.292 0-.437 0-.583.073-.219 0-.364.072-.437.072h-.146c-.073 0-.073 0-.073-.072 0 0 0-.073.073-.073.146 0 .219-.073.219-.146s.073-.219 0-.364c0-.219-.073-.51-.073-.948-.073-.437-.073-.728-.146-.874 0-.146-.073-.219-.146-.292-.073 0-.145-.073-.218-.073-.073 0-.073 0 0-.072-.073 0-.073 0 0 0Zm3.352 2.55h-.146l-.437-1.02c-.146-.219-.292-.583-.438-.947-.145-.365-.291-.583-.364-.656l-.146-.146h-.145c-.073 0-.073 0-.073-.073s0-.073.073-.073h.583c.218 0 .364 0 .582-.073h.073c.073 0 .073 0 .073.073 0 0 0 .073-.072.073-.146 0-.22.146-.22.219 0 .218.22.801.657 1.749.072-.292.218-.656.291-.948l.146-.583v-.218c0-.073 0-.146-.073-.146-.073-.073-.073-.073-.146-.073s-.073 0-.073-.073 0-.073.073-.073h.875c.073 0 .073 0 .073.073 0 0 0 .073-.073.073s-.146.073-.219.073c-.073.073-.073.146-.146.219-.072.072-.145.291-.218.655l-.292 1.02c-.073.365-.218.73-.218.875Zm3.862-2.988c.073.219.073.438.146.656 0 .073 0 .073-.073.073 0 0-.073 0-.073-.073-.146-.218-.292-.364-.438-.437-.145-.073-.29-.073-.51-.073h-.364v1.093h.146c.073 0 .218 0 .291-.073.073 0 .146-.073.219-.145.073-.073.073-.146.073-.146 0-.073 0-.073.073-.073.072 0 .072 0 .072.073v.947c0 .073 0 .073-.072.073 0 0-.073-.073-.073-.146 0-.145-.073-.218-.219-.291-.073-.073-.291-.073-.51-.073v1.02c0 .073.073.146.146.146.073.073.146.073.291.073.51 0 .875-.146 1.093-.51 0-.073.073-.073.073-.073.073 0 .073 0 .073.073v.072l-.146.583h-2.404c-.073 0-.073 0-.073-.072 0-.073 0-.073.073-.073.145 0 .218-.073.291-.146.073-.073.073-.219.073-.437v-1.749c0-.073 0-.146-.073-.146s-.146-.073-.218-.073c-.073 0-.073 0-.073-.073 0-.072 0-.072.073-.072h.51l1.603.072Zm2.186 1.385c.218 0 .364.073.437.218.146.073.219.292.291.51.073.22.073.438.146.51.073.074.146.146.292.146.073 0 .073 0 .073.073s-.073.073-.146.073l-.802-.073c-.073-.073-.145-.218-.145-.437 0-.291-.073-.51-.073-.583-.073-.146-.073-.218-.146-.291-.073-.073-.146-.073-.292-.073h-.145c0 .51-.073.801-.073.947 0 .146 0 .219.073.219.073.073.145.073.218.073.073 0 .073 0 .073.072 0 .073 0 .073-.073.073l-.655-.073h-.584c-.072 0-.072 0-.072-.072 0-.073 0-.073.072-.073.073 0 .146 0 .22-.073.072-.073.145-.219.145-.51v-.365l.073-.801v-.729c0-.073-.146-.146-.292-.146-.073 0-.073 0-.073-.072 0-.073.073-.073.146-.073h1.385c.291 0 .583.073.728.218.146.146.292.292.219.51a.557.557 0 0 1-.146.365c-.073.073-.218.218-.364.218-.219.219-.364.219-.51.219Zm-.583-.073h.073c.145 0 .218 0 .364-.073s.219-.146.292-.218c.072-.073.072-.219.072-.292 0-.146-.072-.291-.145-.437-.073-.073-.219-.146-.438-.146h-.218v1.166Zm3.935-.874.073-.073c0-.073.073-.073.073-.073.072 0 .072.073.072.073v.656c0 .072 0 .072-.072.072h-.073s0-.072-.073-.145c-.073-.146-.146-.292-.292-.365-.145-.145-.291-.218-.437-.218-.146 0-.291 0-.364.073-.073.072-.146.145-.146.291 0 .073 0 .219.073.292.073.072.219.145.437.291.364.146.583.292.729.51.146.146.146.364.146.583a.662.662 0 0 1-.22.51c-.145.146-.218.219-.364.292-.145.072-.29.073-.51.073-.145 0-.218-.073-.364-.073-.146-.073-.219-.146-.364-.219 0 0-.073.073-.073.146s-.073.073-.073.073-.073-.073-.073-.146v-.874c0-.073 0-.073.073-.073 0 0 .073.072.073.145.073.219.146.438.291.583.146.146.292.219.51.292.146 0 .292 0 .438-.073.145-.073.145-.219.218-.292 0-.145 0-.218-.073-.364a1.021 1.021 0 0 0-.51-.291c-.218-.073-.364-.219-.51-.292-.073-.073-.218-.218-.218-.291-.073-.146-.073-.292-.073-.365 0-.218.146-.437.291-.51.219-.145.438-.218.729-.145.219-.292.437-.22.656-.073Zm.947 0c.073 0 .146 0 .292.072.145 0 .218.073.291.073l.656.073c.073 0 .073 0 .073.073 0 0 0 .073-.073.073h-.219c-.073 0-.073.073-.145.219-.073.072-.073.364-.146.728-.073.437-.146.802-.146 1.02v.438c0 .072.073.072.219.145.072 0 .073 0 .073.073s-.073.073-.146.073h-.073c-.292-.073-.437-.073-.51-.146-.219 0-.364-.072-.51-.072h-.146c-.073 0-.073 0-.073-.073 0 0 0-.073.073-.073.146 0 .219 0 .291-.073.073-.073.073-.146.146-.364.073-.219.073-.51.146-.875.073-.437.073-.729.073-.874v-.292c0-.073-.073-.073-.219-.073-.073 0-.073-.073-.073-.073.073-.072.146-.072.146-.072Zm1.749.218c.729.146 1.239.292 1.603.365.291.072.583.072.875.145.145 0 .218 0 .291.073h.146v.729c0 .073-.073.073-.073.073s-.073-.073-.073-.146c0-.146-.073-.219-.146-.364a1.004 1.004 0 0 0-.291-.219c-.073-.073-.292-.073-.51-.146-.073.219-.146.51-.219.802-.073.364-.146.656-.146.947-.072.292-.072.51-.072.583 0 .073 0 .146.072.146.073.073.146.073.292.146.073 0 .073.073.073.073 0 .072 0 .072-.073.072h-.073l-.437-.072c-.365-.073-.51-.073-.583-.146l-.292-.073h-.145s-.073 0-.073-.073.073-.073.073-.073h.291c.073-.073.146-.146.146-.218.073-.146.073-.365.145-.73.146-.582.22-1.092.22-1.457a1.423 1.423 0 0 0-.511-.072c-.073 0-.218 0-.291.072a.569.569 0 0 0-.292.292c0 .073-.073.073-.073.073-.073 0-.073 0-.073-.073 0 0 0-.073.073-.292.073-.218.146-.364.146-.437Zm4.59 2.26c.51-.438.802-.657.802-.802v-.073c0-.073-.073-.073-.145-.146-.073 0-.073-.073-.073-.073 0-.073.072-.073.072-.073h.073c.146.073.292.073.365.146.073 0 .218.073.364.073h.073c.073 0 .073 0 .073.073 0 0 0 .073-.073.073h-.291c-.073 0-.22.072-.365.218a3.162 3.162 0 0 1-.51.437.876.876 0 0 0-.291.292c0 .073-.073.218-.146.437-.073.364-.146.656-.146.729 0 .073.073.146.219.218.073 0 .073.073.073.073 0 .073-.073.073-.073.073-.073 0-.146-.073-.365-.073-.073 0-.145-.073-.218-.073-.146-.072-.292-.072-.51-.072h-.073c-.073 0-.073-.073-.073-.073s0-.073.073-.073c.145 0 .218 0 .291-.073.073-.073.146-.219.146-.51.073-.219.073-.365.073-.437 0-.073-.073-.219-.146-.51l-.218-.656c-.073-.219-.146-.365-.22-.438-.072-.072-.145-.145-.218-.145-.072 0-.073-.073-.073-.073 0-.073.073-.073.073-.073h.073c.219.073.364.146.437.146.146.073.365.073.51.145h.073c.073 0 .073 0 .073.073l-.073.073c-.145 0-.218 0-.218.073.218.073.291.437.583 1.093Z" fill="#081933"/><path d="M10.347 46.527v1h.11l.107-.024-.217-.976Zm.656-.146v-1h-.11l-.107.024.217.976Zm.219-.073v1h.236l.21-.105-.446-.895Zm.437-.072h1v-1h-1v1Zm-.292.218-.707-.707-.293.293v.414h1Zm0 .437h-1v.163l.052.154.948-.317Zm.146.656.98-.196-.011-.061-.02-.059-.949.316Zm1.53.875.708.707.114-.115.073-.145-.895-.447Zm.073-.438h-1v.236l.106.212.894-.448Zm-.218-1.093-.97.243.003.016.005.016.962-.275Zm-.219-.947v-1h-.414l-.293.293.707.707Zm.437-.146v-1h-.414l-.293.293.707.707Zm.146 0h1v-1h-1v1Zm-.219.219.708.707.292-.293v-.414h-1Zm0 .291h1v-.236l-.105-.21-.895.446Zm.219 1.02.98-.196-.007-.04-.011-.038-.962.275Zm.073.802-.895-.447-.105.211v.236h1Zm-.292.437-.447-.894-.145.072-.115.115.707.707Zm-.655.292-.243-.97-.037.009-.037.012.317.949Zm-1.02 0-.708.707.115.115.145.072.447-.894Zm-.438-.656h1v-.131l-.034-.127-.966.258Zm-.291-1.093.966-.258-.026-.098-.046-.091-.894.447Zm-.583-.51h1v-1h-1v1Zm0-.073v-1h-1v1h1Zm4.445-.947.633-.774-.276-.226H14.5v1Zm2.04 1.53-.53.848 1.53.956V47.11h-1Zm0-.219h1v-.09l-.016-.089-.984.18Zm-.146-.801.984-.179-.013-.07-.022-.067-.949.316Zm-.145-.875v-1h-.236l-.211.106.447.894Zm.218.656h-1v.093l.017.092.983-.185Zm.219 1.166.986-.164-.001-.01-.002-.01-.983.184Zm.146.875h1v-.083l-.014-.082-.986.165Zm-.146.145-.448.895.212.105h.236v-1Zm-1.312-.947.64-.768-.04-.035-.045-.03-.555.833Zm-.874-.729.707-.707-1.707-1.707v2.414h1Zm.218 1.02-.976.217.011.05.017.05.948-.317Zm.656.73v-1h-.414l-.293.292.707.707Zm-.437.218.316.948.224-.074.167-.167-.707-.707Zm-.656 0-1-.001h1Zm.146-.073v1h.236l.211-.106-.447-.894Zm.291-.219.708.707.292-.293v-.414h-1Zm0-.437h1v-.099l-.02-.097-.98.196Zm-.51-1.749.895-.447-.073-.145-.115-.115-.707.707Zm-.145-.291v1-1Zm3.862-.51v1h.055l.055-.007-.11-.993Zm.655-.073v-1h-.055l-.055.006.11.994Zm.073.073h-1 1Zm-.291.145-.707-.707.707.707Zm0 .948.986-.165-.002-.016-.004-.015-.98.196Zm.656 1.603h1v-.414l-.293-.293-.707.707Zm-.729.146v1h.236l.211-.106-.447-.894Zm-.656 0-1-.001h1Zm.292-.583h-1v.236l.105.21.895-.446Zm-.073-.948h1v-.083l-.014-.081-.986.164Zm-.146-.874h-1v.236l.106.211.894-.447Zm-.146-.292.707-.707-.293-.293h-.414v1Zm-.218-.073v-1 1Zm3.352 2.478v1h1v-1h-1Zm-.146 0-.92.394.26.606h.66v-1Zm-.437-1.02.919-.394-.036-.084-.051-.077-.832.555Zm-.948-1.749.707-.707-.292-.293h-.415v1Zm1.02-.219v-1h-.162l-.154.052.317.948Zm.146.073h-1 1Zm.365 2.04-.908.42 1.19 2.577.688-2.754-.97-.242Zm.291-.947.97.243-.97-.243Zm.146-.583.97.243.03-.12v-.123h-1Zm-.073-.364-.707.707.293.293h.414v-1Zm.802-.146h-1 1Zm-.292.146v-1h-.414l-.293.293.707.707Zm-.364.874.961.275.011-.039.008-.04-.98-.196Zm-.292 1.02-.961-.274-.011.039-.008.04.98.196Zm3.644-2.113.948-.316-.217-.651-.686-.032-.045 1Zm.146.656h1v-.162l-.052-.154-.948.316Zm-.073.073-.001 1v-1Zm-.073-.073h1v-.303l-.168-.252-.832.555Zm-1.312-.51v-1h-1v1h1Zm0 1.093h-1v1h1v-1Zm.437-.073v-1h-.414l-.293.293.707.707Zm.292-.291h-1 1Zm.073 1.02-.708.707.293.293h.415v-1Zm-.292-.437-.707.707.115.115.145.072.447-.894Zm-.51-.073v-1h-1v1h1Zm.146 1.166.707-.707-.293-.293h-.414v1Zm1.384-.437.858.514.142-.237v-.277h-1Zm.073-.073v1-1Zm.073.145.97.243.03-.12v-.123h-1Zm-.146.583v1h.781l.19-.757-.97-.243Zm-1.821-2.842.045-.998-.023-.002h-.022v1Zm4.226 1.677-.894.447.149.298.298.149.447-.895Zm.656 1.311-.09.996.044.004h.046v-1Zm-.802-.073-.707.707.256.256.36.033.091-.996Zm-.218-1.02h1v-.236l-.106-.211-.894.447Zm-.583-.364v-1h-1v1h1Zm0 1.166.707-.707-.293-.293h-.414v1Zm.218.218-.11.994.055.006h.055v-1Zm-.655-.073.11-.994-.055-.006h-.055v1Zm-.22-1.093-.995-.09-.004.045v.045h1Zm.074-.801.996.09.004-.045v-.045h-1Zm2.113-.292-.949-.316-.051.154v.162h1Zm-.51.583v-1h-.414l-.293.293.707.707Zm-1.093.146h-1v1h1v-1Zm.656-1.02.894-.447-.072-.145-.115-.115-.707.707Zm-.656-.146v-1h-1v1h1Zm3.935.292-.555.832.682.454.58-.58-.707-.706Zm.073-.073.707.707.293-.293v-.414h-1Zm.073-.073v-1h-.001v1Zm.072.073h-1 1Zm-.145.728h-1v1h1v-1Zm-.073-.145-.895.447.073.145.115.115.707-.707Zm-.292-.365-.707.707.115.115.145.073.447-.895Zm-.437.729-.555.832.087.058.097.038.371-.928Zm.729.51-.832.555.055.082.07.07.707-.707Zm-1.312 1.385-.447.894.211.106h.236v-1Zm-.364-.219.447-.894-.645-.323-.51.51.708.707Zm-.146.219-.706.707.292.293h.414v-1Zm0-1.093.707-.707-.292-.293h-.415v1Zm.073.145h-1v.163l.051.154.949-.317Zm.802.875-.317.948.154.052h.163v-1Zm.655-.365.707.707.293-.292V47.4h-1Zm-.073-.364.895-.447-.073-.145-.114-.115-.707.707Zm-.51-.291-.316.948.037.012.037.01.242-.97Zm-.51-.292-.707.707.115.115.145.073.447-.895Zm-.218-.291h1v-.236l-.106-.212-.894.448Zm.218-.875.447.895.056-.028.052-.035-.555-.832Zm.729-.145-.242.97.644.16.398-.53-.8-.6Zm1.603-.073v1-1Zm.292.072-.448.895.212.105h.236v-1Zm.291.073.11-.994-.055-.006h-.055v1Zm.656.073-.11.994.054.006h.056v-1Zm.073.073h-1 1Zm-.437.292.707.707.114-.115.073-.145-.894-.447Zm-.146.728-.98-.196-.004.016-.003.016.987.164Zm.073 1.603-.448.895.212.105h.236v-1Zm-.146.146-.243.97.12.03h.123v-1Zm-.51-.146.707-.707-.293-.293h-.414v1Zm-.729-.145h1-1Zm.656-1.385.98.196.004-.015.002-.016-.986-.165Zm-.219-1.312-.707-.707-.293.293v.414h1Zm1.895.146.196-.98-1.196-.24v1.22h1Zm1.603.365.243-.97-.023-.006-.024-.005-.196.98Zm.875.145-.243.97.12.03h.123v-1Zm.291.073-.707.707.293.293h.414v-1Zm.146 0h1v-1h-1v1Zm-.073.802-.707.707.293.293h.414v-1Zm-.219-.51.895-.447-.073-.146-.115-.114-.707.707Zm-.291-.219-.707.707.114.115.145.073.448-.895Zm-.51-.146.316-.948-.949-.317-.316.95.949.315Zm-.219.802-.97-.243-.006.023-.005.024.981.196Zm-.146.947.97.243.03-.12v-.123h-1Zm0 .729.707-.707-.292-.293h-.415v1Zm.292.146-.447.894.21.106h.237v-1Zm.073.073h-1 1Zm-.146.072-.164.987.081.013h.083v-1Zm-.437-.072-.196.98.015.003.016.003.165-.986Zm-.583-.146.707-.707-.196-.196-.269-.067-.242.97Zm-.292-.073.243-.97-.12-.03h-.123v1Zm-.145 0-.001 1v-1Zm0-.146v1-1Zm.291 0v1h.414l.293-.293-.707-.707Zm.146-.218-.895-.448-.105.212v.236h1Zm.145-.73-.97-.242-.005.023-.005.024.98.196Zm.22-1.457h1v-.72l-.685-.228-.316.948Zm-.802 0 .447.895.145-.073.115-.114-.707-.708Zm-.292.292-.894-.447-.106.21v.237h1Zm-.073.073v1h.001v-1Zm-.073-.073-1-.001h1Zm4.81 1.53-.914.406.545 1.227 1.02-.873-.651-.76Zm.656-1.02.707-.707-.293-.293h-.414v1Zm-.073-.073h1-1Zm.072-.073v-1 1Zm.073 0 .448-.894-.212-.106h-.236v1Zm.365.146-.707.707.293.293h.414v-1Zm.51.146h-1 1Zm-1.53 1.02-.895-.447-.105.21v.237h1Zm-.146.437-.949-.316-.02.059-.012.061.98.196Zm.073.947-.447.895.21.105h.237v-1Zm.073.073h-1 1Zm-.073.073v-1 1Zm-.583-.146-.447.895.21.105h.237v-1Zm-.656-.145h1-1Zm.51-.656-.949-.316-.05.154v.162h1Zm-.073-.947.97-.243-.01-.037-.011-.037-.949.317Zm-.729-1.312h-1 1Zm.073-.073v1-1Zm.073 0 .316-.949-.154-.051h-.162v1Zm.437.146.448-.895-.212-.105h-.236v1Zm.51.145-.447.895.211.105h.236v-1Zm.146.073.707.708.293-.293v-.415h-1Zm-.073.073v1h.415l.292-.293-.707-.707Zm-.218.073h-1v.72l.684.229.316-.949Zm-26.452.073.217.976.656-.146-.217-.976-.217-.976-.656.146.217.976Zm.656-.146v1a1.155 1.155 0 0 0 .506-.117.552.552 0 0 0 .05-.025l.005-.002-.046.02a.844.844 0 0 1-.296.051v-2a1.155 1.155 0 0 0-.507.118 1.82 1.82 0 0 0-.054.027l.046-.02a.845.845 0 0 1 .296-.052v1Zm.219-.073.447.895c.012-.006-.018.01-.078.022-.061.012-.113.01-.078.01v-2c-.038 0-.162-.001-.314.029a1.68 1.68 0 0 0-.425.15l.448.894Zm.291-.072v1h.146v-2h-.146v1Zm.146 0h-1c0 .042-.002-.01.005-.069a.963.963 0 0 1 .279-.575c.243-.243.524-.273.575-.279.058-.006.11-.005.068-.005v2h.044a1.032 1.032 0 0 0 .726-.302 1.032 1.032 0 0 0 .303-.726v-.044h-1Zm-.073.072v-1c-.363 0-.616.176-.71.246-.104.078-.192.17-.216.193l.707.707.707.707.032-.03c.004-.005-.007.006-.03.023a.73.73 0 0 1-.144.083.864.864 0 0 1-.346.071v-1Zm-.219.146h-1v.438h2v-.438h-1Zm0 .437-.948.317a1.3 1.3 0 0 1 .035.176c.016.098.045.284.11.48l.95-.317.948-.316a1.286 1.286 0 0 1-.035-.176c-.017-.099-.046-.285-.11-.48l-.95.316Zm.146.656-.98.196c.1.505.3.899.377 1.053l.895-.447.894-.447a2.176 2.176 0 0 1-.205-.55l-.98.195Zm.292.802-.895.447c.067.133.16.288.306.433.145.145.3.24.433.306l.447-.895.447-.894c-.012-.006.033.014.087.069.054.054.075.1.069.087l-.894.447Zm.291.291-.447.895c.467.233.909.176 1.273.054l-.316-.949-.316-.948c-.052.017-.03.003.034.003a.508.508 0 0 1 .22.05l-.448.895Zm.51 0 .316.949c.228-.076.575-.207.829-.46l-.708-.707-.707-.707a.637.637 0 0 1 .084-.07c.014-.01.02-.012.012-.008a1.703 1.703 0 0 1-.142.055l.316.948Zm.437-.218.895.447c.025-.05.117-.224.167-.423a1.303 1.303 0 0 0-.094-.909l-.895.447-.894.448a.72.72 0 0 1-.058-.471c.01-.037.019-.057.016-.05a.708.708 0 0 1-.031.063l.894.448Zm.073-.438h1c0-.373-.112-.859-.257-1.367l-.961.274-.962.275c.068.24.116.43.145.577a2.462 2.462 0 0 1 .035.241h1Zm-.218-1.093.97-.242a4.897 4.897 0 0 0-.14-.473 1.574 1.574 0 0 0-.342-.575l-.707.707-.707.708a.763.763 0 0 1-.127-.168c-.008-.015-.006-.015.003.011.01.024.02.06.035.108.014.047.029.103.045.167l.97-.243Zm-.219-.583.707-.707c-.083-.083-.413-.438-.998-.438v2a.646.646 0 0 1-.342-.097c-.077-.046-.123-.1-.074-.05l.707-.708Zm-.291-.145v-1h.012c.02.002.1.008.204.042a.934.934 0 0 1 .638.885h-2a1.065 1.065 0 0 0 1.026 1.07c.056.003.108.003.12.003v-1Zm-.146-.073h1c0-.043.001.01-.005.068-.006.05-.035.331-.278.574-.243.244-.524.274-.575.28-.059.006-.112.005-.07.005v-2h-.044a1.033 1.033 0 0 0-.727.303 1.033 1.033 0 0 0-.3.725l-.001.045h1Zm.073-.073v1h.145v-2h-.146v1Zm.145 0v1c.088 0 .542.018.926-.366l-.707-.707-.707-.707a.772.772 0 0 1 .355-.2c.102-.025.188-.02.133-.02v1Zm.22-.073v1a1.178 1.178 0 0 0 .465-.098l.024-.01a.592.592 0 0 1-.198.035v-2a1.41 1.41 0 0 0-.572.12l-.014.005.017-.006a.837.837 0 0 1 .277-.046v1Zm.29-.073v1a1.187 1.187 0 0 0 .785-.302 1.185 1.185 0 0 0 .056-.051l.007-.007.003-.003.001-.001v-.001h.001l-.707-.708-.707-.707.001-.001.002-.001.002-.003.006-.005.01-.01a.568.568 0 0 1 .086-.068.857.857 0 0 1 .455-.131v1Zm.146-.073v1h.147v-2h-.147v1Zm.146 0h-1v-.032a1.255 1.255 0 0 1 .012-.12.937.937 0 0 1 .915-.774v2a1.063 1.063 0 0 0 1.07-.999l.002-.04v-.027l.001-.004V45.8c0-.001 0-.002-1-.002Zm-.073.073v-1c-.361 0-.64.17-.807.339a1.146 1.146 0 0 0-.339.807h2a.854.854 0 0 1-.247.607.855.855 0 0 1-.607.247v-1Zm-.146.146-.707-.707c-.173.173-.347.45-.347.825 0 .29.11.52.16.62l.894-.447.895-.447c-.023-.045.05.076.05.274a.857.857 0 0 1-.237.589l-.708-.707Zm0 .291h-1c0 .186.04.403.077.58.042.202.103.444.18.715l.962-.274.961-.275a8.672 8.672 0 0 1-.146-.578 2.678 2.678 0 0 1-.03-.162c-.007-.044-.004-.04-.004-.006h-1Zm.219 1.02-.98.197a22.411 22.411 0 0 0 .051.256c.015.075.024.126.029.163.005.04.002.037.003.008.001-.016.003-.049.013-.092a.742.742 0 0 1 .063-.177l.894.447.894.447c.188-.374.133-.767.115-.898-.024-.18-.072-.4-.101-.547l-.981.197Zm.073.802h-1c0-.12.028-.203.04-.234a.31.31 0 0 1 .08-.126.561.561 0 0 1 .141-.097l.447.894.448.895c.28-.14.471-.36.585-.531.106-.16.259-.447.259-.8h-1Zm-.292.437-.707-.707c.048-.047.08-.056.05-.043a.889.889 0 0 1-.084.03 3.4 3.4 0 0 1-.157.042l.243.97.242.97c.271-.068.755-.189 1.12-.555l-.707-.707Zm-.655.292-.317-.949a.304.304 0 0 1-.074.018 2.086 2.086 0 0 1-.192.004v2c.227 0 .515.004.899-.125l-.316-.948Zm-.583.073v-1a5.96 5.96 0 0 1-.079-.001h-.016a.38.38 0 0 1 .105.034l-.448.894-.447.894c.386.193.764.179.885.179v-1Zm-.438-.073.707-.707a1.562 1.562 0 0 0-.185-.157c-.044-.032-.09-.062-.113-.078l-.046-.03c-.007-.006.018.01.053.046l-.707.707-.707.707c.072.072.142.125.185.157.044.032.09.062.113.078l.046.031c.007.005-.018-.012-.053-.047l.707-.707Zm-.291-.219.707-.707a.55.55 0 0 1 .13.192.246.246 0 0 1 .017.078h-2c0 .432.145.85.439 1.144l.707-.707Zm-.146-.437.966-.258-.291-1.093-.966.258-.967.258.292 1.093.966-.258Zm-.291-1.093.894-.447c.015.03.024.067-.006-.037-.01-.035-.034-.12-.074-.212a1.21 1.21 0 0 0-.253-.376l-.707.708-.707.707a.79.79 0 0 1-.184-.285 12.192 12.192 0 0 1 .041.14c.022.066.053.154.101.25l.895-.448Zm-.146-.364.707-.708c.057.057.144.19.052.052a1.072 1.072 0 0 0-.905-.49v2a.918.918 0 0 1-.53-.168c-.144-.101-.218-.216-.229-.232-.007-.01-.012-.02-.004-.006l.034.053c.035.053.09.127.168.206l.707-.707Zm-.146-.146v-1h-.219v2h.22v-1Zm-.218 0v-1h-.074v2h.074v-1Zm-.073 0h1v-.074h-2v.074h1Zm0-.073v1h.29c.001 0 0 0 0 0h.001v-2h-.292v1Zm4.445-.947-.633.774c.802.656 1.501 1.203 2.143 1.604l.53-.848.53-.848c-.524-.327-1.136-.801-1.937-1.456l-.633.774Zm2.04 1.53h1v-.219h-2v.219h1Zm0-.219.984-.178-.146-.802-.984.179-.983.179.145.801.984-.179Zm-.146-.801.95-.316c-.021-.061-.022-.077-.052-.2a1.67 1.67 0 0 0-.077-.238 1.204 1.204 0 0 0-.26-.39l-.706.707-.707.707a.795.795 0 0 1-.191-.304c-.002-.006-.002-.007 0 .003l.011.045.019.078a2.9 2.9 0 0 0 .065.224l.948-.316Zm-.145-.438.707-.707c.056.057.143.19.052.052a1.072 1.072 0 0 0-.905-.49v2a.917.917 0 0 1-.53-.168c-.144-.101-.219-.216-.229-.231-.007-.011-.013-.02-.005-.007l.034.053c.036.053.09.127.169.206l.707-.707Zm-.146-.145v-1c.145 0 .25.036.277.045l.017.007-.014-.006a1.536 1.536 0 0 0-.241-.08 1.411 1.411 0 0 0-.33-.039v2a.591.591 0 0 1-.137-.016.453.453 0 0 1-.062-.02l.024.01a1.166 1.166 0 0 0 .466.098v-1Zm-.292-.073v-1c-.042 0 .01-.002.069.005.05.006.331.035.575.279.243.243.273.524.279.575.006.058.005.11.005.068h-2a2.217 2.217 0 0 0 .007.153c.008.07.042.365.294.618a1.032 1.032 0 0 0 .727.302h.044v-1Zm-.072-.073h1c0-.042.001.01-.005.068-.006.05-.036.331-.278.575-.243.243-.524.273-.576.28-.058.006-.111.004-.069.004v-2h-.044a1.033 1.033 0 0 0-.727.302 1.032 1.032 0 0 0-.301.727v.044h1Zm.072-.073v1h.073v-2h-.073v1Zm.073 0v1c.082 0 .438.009.812-.178l-.447-.895-.447-.894a.322.322 0 0 1 .096-.032c.012-.002.02 0-.014 0v1Zm.365-.073v1a2.1 2.1 0 0 0 .515-.066l.068-.017.028-.008-.033.007a.827.827 0 0 1-.141.011v-2a1.177 1.177 0 0 0-.31.042l-.061.016a3.634 3.634 0 0 1-.036.009c-.031.008-.034.006-.03.006v1Zm.437-.073v1h.073v-2h-.074v1Zm.073 0v1c.042 0-.01.002-.068-.005a.965.965 0 0 1-.576-.278.965.965 0 0 1-.278-.576c-.007-.058-.005-.11-.005-.068h2v-.044c-.001-.018-.002-.059-.008-.108a1.032 1.032 0 0 0-.294-.619 1.033 1.033 0 0 0-.727-.301h-.044v1Zm.073.073h-1c0 .043-.002-.01.005-.068a.963.963 0 0 1 .278-.575c.244-.243.525-.273.576-.279.058-.006.11-.005.068-.005v2h.044a1.033 1.033 0 0 0 .727-.302 1.032 1.032 0 0 0 .301-.726v-.045h-1Zm-.073.073v-1c-.363 0-.616.176-.71.246-.104.078-.193.17-.216.193l.707.707.707.707.032-.031c.004-.004-.007.007-.03.024a.73.73 0 0 1-.144.083.864.864 0 0 1-.346.071v-1Zm-.219.146-.707-.707a1.261 1.261 0 0 0-.349.747c-.018.149-.017.31-.017.397h2l.001-.125c0-.031.002-.035 0-.024a.59.59 0 0 1-.034.131.813.813 0 0 1-.187.288l-.707-.707Zm-.073.437-.983.184.219 1.166.983-.184.983-.184-.219-1.166-.983.184Zm.219 1.166-.987.164.146.875.987-.164.986-.165-.146-.874-.986.164Zm.146.875h-1v-.013c.002-.02.008-.1.042-.203a.934.934 0 0 1 .885-.638v2a1.066 1.066 0 0 0 1.07-1.026c.003-.057.003-.11.003-.12h-1Zm-.073.145v-1h-.074v2h.074v-1Zm-.073 0 .447-.894h.002v.001h.002l.001.001-.008-.004a3.647 3.647 0 0 1-.254-.155l-.554.833-.555.832a5.633 5.633 0 0 0 .453.271l.011.006.004.002h.002v.001h.001l.448-.894Zm-.364-.218.554-.832a10.577 10.577 0 0 1-.862-.665l-.64.768-.64.768c.452.376.773.62 1.033.793l.555-.832Zm-.948-.73.555-.831a4.561 4.561 0 0 1-.722-.604l-.707.707-.707.707c.157.157.505.506 1.026.854l.555-.832Zm-.874-.728h-1c0 .127.024.25.031.285.012.064.029.14.047.224l.07.306.094.422.976-.217.976-.217a89.18 89.18 0 0 0-.096-.43l-.067-.298a6.022 6.022 0 0 1-.035-.164l-.002-.012a.575.575 0 0 1 .006.101h-1Zm.218 1.02-.948.317c.016.049.023.082.045.183.02.088.059.266.155.458l.894-.447.895-.448c.023.046.025.078.008.003-.014-.063-.043-.212-.1-.382l-.949.316Zm.146.51-.894.448c.06.12.153.28.296.424.146.145.422.347.817.347v-2c.322 0 .525.166.598.238.07.07.09.122.078.096l-.895.448Zm.219.22v1c-.111 0-.195-.024-.156-.016l.015.004.028.006.094.019c.069.011.21.03.38.008.184-.026.428-.106.637-.315l-.707-.707-.707-.707a.89.89 0 0 1 .506-.253c.12-.016.206-.001.22.001a1.646 1.646 0 0 0-.115-.024 1.183 1.183 0 0 0-.195-.017v1Zm.291 0v1c.043 0-.01 0-.068-.006a.96.96 0 0 1-.575-.279c-.243-.243-.273-.524-.279-.575-.006-.058-.005-.11-.005-.068h2v-.044a1.033 1.033 0 0 0-.302-.727 1.032 1.032 0 0 0-.726-.302h-.045v1Zm.073.072h-1c0 .043-.001-.01.005-.068.006-.05.035-.331.278-.575.243-.243.524-.273.575-.28.059-.006.112-.004.07-.004v2h.044a1.033 1.033 0 0 0 .727-.303 1.033 1.033 0 0 0 .3-.726l.001-.044h-1Zm-.073.073v-1h-.145v2h.146v-1Zm-.146 0v-1c-.03 0-.163-.002-.31.023a1.26 1.26 0 0 0-.688.343l.707.707.707.707a.815.815 0 0 1-.262.176.632.632 0 0 1-.135.04c-.038.006-.06.004-.018.004v-1Zm-.291.073-.316-.949a.431.431 0 0 1-.095.021h-.026v2c.125 0 .391-.003.753-.124l-.316-.948Zm-.437.073v-1h-.147v2h.146v-1Zm-.146 0v-1c-.043 0 .01-.002.068.005.05.005.332.035.575.278.244.244.274.525.28.576.006.058.004.11.004.068h-2a2.213 2.213 0 0 0 .007.152c.008.071.043.366.295.619a1.033 1.033 0 0 0 .727.301h.044v-1Zm-.073-.073c1 0 1 .002 1 .002v.031a1.014 1.014 0 0 1-.05.272.937.937 0 0 1-.225.366.84.84 0 0 1-.58.256v-2c-.226 0-.561.057-.833.329a1.065 1.065 0 0 0-.311.71v.031c0 .001 0 .002 1 .003Zm.146-.073.447.894c.293-.146.458-.313.552-.406l-.708-.707-.707-.707-.022.022a.637.637 0 0 1-.012.012l-.002.002a.091.091 0 0 1 .01-.007l-.005.003.447.894Zm.291-.219h1v-.437h-2v.437h1Zm0-.437.98-.196c-.068-.344-.128-.662-.174-.882a6.373 6.373 0 0 0-.075-.326 1.876 1.876 0 0 0-.128-.355l-.894.447-.895.448c-.03-.06-.032-.088-.016-.027.013.046.029.117.05.22.046.217.095.482.172.867l.98-.196Zm-.291-1.312.894-.447-.109-.218-.11-.219-.894.447-.894.447.11.22.108.218.895-.448Zm-.219-.437.707-.707a1.462 1.462 0 0 0-.573-.37c-.236-.078-.46-.069-.498-.069v2h.021a.657.657 0 0 1-.155-.033c-.153-.05-.228-.133-.209-.114l.707-.707Zm-.364-.146v-1c-.043 0 .01-.001.069.005.051.006.332.037.575.28.243.243.272.524.278.575.007.057.005.11.005.068h-2v.044a1.033 1.033 0 0 0 .3.726 1.032 1.032 0 0 0 .728.302h.045v-1Zm-.073-.072h1c0-.043.002.01-.005.068a.96.96 0 0 1-.279.575c-.243.243-.524.273-.575.279-.058.006-.11.005-.068.005v-2h-.044a1.033 1.033 0 0 0-.726.302 1.033 1.033 0 0 0-.303.726v.045h1Zm.073-.073v1h.073v-2h-.074v1Zm.073 0v1h.146v-2h-.147v1Zm.146 0v1h.437v-2h-.437v1Zm3.279-.51v1h.292v-2h-.293v1Zm.291 0v1h.291v-2h-.291v1Zm.292 0 .11.993.656-.072-.11-.994-.11-.994-.657.073.11.994Zm.655-.073v1c.043 0-.01.001-.068-.005-.05-.006-.332-.036-.575-.279-.243-.243-.273-.525-.279-.575-.006-.058-.005-.111-.005-.068h2v-.045a1.033 1.033 0 0 0-.302-.727 1.033 1.033 0 0 0-.726-.3l-.045-.001v1Zm.073.073-1-.001v-.032a.978.978 0 0 1 .013-.12.938.938 0 0 1 .915-.774v2a1.074 1.074 0 0 0 .958-.59 1.088 1.088 0 0 0 .114-.45v-.032c0-.001 0-.002-1-.001Zm-.073.072v-1a1.364 1.364 0 0 0-.804.262 1.196 1.196 0 0 0-.097.08l-.012.013-.006.005-.003.003-.002.002s-.001.001.706.708l.706.708v.001l-.002.002-.003.002-.005.006-.012.01a1.119 1.119 0 0 1-.07.06.637.637 0 0 1-.395.138v-1Zm-.218.073a103.054 103.054 0 0 0-.709-.705l-.001.001-.003.003-.006.006-.012.012a1.113 1.113 0 0 0-.08.097 1.363 1.363 0 0 0-.261.805h1.999a.637.637 0 0 1-.138.395.805.805 0 0 1-.06.07l-.01.012-.006.006-.003.002-.001.002h-.001l-.708-.706Zm-.073.219h-1c0 .179.001.47.092.925l.98-.196.981-.196a2.453 2.453 0 0 1-.053-.533h-1Zm.073.729-.987.164c.03.181.045.343.065.532.016.152.042.41.119.64l.949-.316.948-.316c.006.018.003.015-.004-.031a3.695 3.695 0 0 1-.023-.186c-.016-.156-.038-.395-.08-.652l-.987.165Zm.146 1.02-.95.316c.021.06.022.077.052.2.012.046.036.138.077.237.044.106.12.253.26.391l.706-.707.707-.707a.798.798 0 0 1 .191.304c.002.006.002.007 0-.003a3.167 3.167 0 0 1-.011-.046l-.019-.077a3.037 3.037 0 0 0-.065-.224l-.948.316Zm.145.437-.707.707c.384.384.839.366.926.366v-2c-.055 0 .031-.005.133.02.136.035.26.105.355.2l-.707.707Zm.219.073v1c.037 0-.007.001-.056-.004a.92.92 0 0 1-.51-.222c-.013-.012-.021-.02.005.006l.707-.707.707-.707a1.128 1.128 0 0 0-.333-.251 1.082 1.082 0 0 0-.476-.115h-.044v1Zm.146.073h-1c0 .043-.002-.01.005-.068a.965.965 0 0 1 .278-.576.965.965 0 0 1 .576-.278c.058-.007.11-.005.068-.005v2h.044c.019-.001.06-.002.108-.008.071-.008.366-.042.619-.294a1.033 1.033 0 0 0 .301-.727v-.044h-1Zm-.073.073v-1h-.073v2h.073v-1Zm-.073 0v-1c-.216 0-.63-.022-1.03.178l.447.895.447.894a.427.427 0 0 1-.08.03c-.024.007-.037.007-.03.007a9.142 9.142 0 0 1 .246-.004v-1Zm-.583.073v-1c-.223 0-.402.037-.516.066l-.067.017-.028.008.032-.007a.825.825 0 0 1 .142-.012v2a1.177 1.177 0 0 0 .31-.04l.061-.017.035-.009c.032-.008.035-.006.031-.006v-1Zm-.437.072v-1h-.146v2h.146v-1Zm-.146 0v-1c-.043 0 .01-.001.068.005.05.006.331.036.575.278.243.243.273.524.28.576.006.058.004.111.004.069h-2a2.253 2.253 0 0 0 .008.153c.008.072.042.366.295.618a1.033 1.033 0 0 0 .726.301h.044v-1Zm-.073-.072c1 0 1 .001 1 .002v.031a.793.793 0 0 1-.012.12.936.936 0 0 1-.914.773v-2a1.074 1.074 0 0 0-.959.59 1.09 1.09 0 0 0-.114.449v.032c0 .001 0 .002 1 .003Zm.073-.073v1c.412 0 1.219-.273 1.219-1.146h-2c0-.316.162-.562.345-.7a.737.737 0 0 1 .436-.154v1Zm.219-.146h1a.806.806 0 0 1-.01.132l-.003.013c.002-.01.019-.082.03-.159.024-.166.04-.47-.123-.798l-.894.448-.895.447a.696.696 0 0 1-.068-.38l.002-.012-.006.03a1.67 1.67 0 0 0-.027.164.918.918 0 0 0-.006.115h1Zm0-.364h1c0-.186-.031-.401-.044-.509a3.626 3.626 0 0 1-.03-.439h-2c0 .276.024.502.044.673l.024.2.005.056v.019h1Zm-.073-.948.986-.164c-.032-.192-.045-.334-.067-.506a3.422 3.422 0 0 0-.043-.271 1.553 1.553 0 0 0-.127-.38l-.895.447-.894.447c-.037-.074-.045-.124-.042-.107.003.013.008.044.017.112.014.118.038.341.078.587l.987-.165Zm-.146-.874h1c0-.586-.355-.916-.439-.999l-.707.707-.707.707c.05.05-.004.003-.05-.074a.69.69 0 0 1-.097-.341h1Zm-.146-.292v-1a.85.85 0 0 1 .297.053l.046.019-.005-.002-.05-.025a1.156 1.156 0 0 0-.506-.118v2a.846.846 0 0 1-.343-.071l.005.002a1.82 1.82 0 0 0 .15.067c.08.03.224.075.406.075v-1Zm-.218-.073v-1c-.05 0 .014-.002.083.007.024.003.182.02.355.118a.993.993 0 0 1 .507.866c0 .296-.133.497-.154.53-.04.063-.078.105-.085.113-.015.017-.027.029 0 0l-.706-.706-.707-.708a1.114 1.114 0 0 0-.186.223 1.005 1.005 0 0 0 .352 1.425 1.031 1.031 0 0 0 .496.132h.045v-1Zm0-.072v-1h-.055v2h.055v-2h-.055v2h.055v-1Zm3.352 2.55v-1h-.146v2h.146v-1Zm-.146 0 .919-.394-.437-1.02-.92.394-.919.394.438 1.02.919-.394Zm-.437-1.02.832-.555c-.074-.11-.178-.355-.341-.764l-.929.372-.928.37c.128.321.316.805.534 1.132l.832-.555Zm-.438-.947.929-.372c-.165-.411-.371-.777-.586-.991l-.707.707-.707.707c-.033-.034-.046-.053-.038-.041a2.33 2.33 0 0 1 .18.361l.93-.371Zm-.364-.656.707-.707-.072-.073-.073-.073-.708.707-.707.707.073.073.073.073.707-.707Zm-.146-.146v-1h-.146v2h.147v-1Zm-.145 0v-1c-.043 0 .01-.002.068.005.05.006.332.035.575.279.243.243.273.524.279.575.006.058.005.11.005.068h-2v.044a1.033 1.033 0 0 0 .302.727 1.033 1.033 0 0 0 .726.302h.045v-1Zm-.073-.073h1c0-.043.001.01-.005.068-.006.051-.036.332-.279.576a.96.96 0 0 1-.575.278c-.058.007-.111.005-.068.005v-2h-.045c-.018.001-.059.002-.108.008a1.033 1.033 0 0 0-.618.294 1.033 1.033 0 0 0-.302.727v.044h1Zm.073-.073v1h.583v-2h-.583v1Zm.583 0v1c.227 0 .515.004.899-.124l-.317-.949-.316-.948a.311.311 0 0 1-.074.017 2.143 2.143 0 0 1-.192.004v1Zm.582-.073v1h.074v-2h-.074v1Zm.073 0v1c.043 0-.01.002-.068-.005a.965.965 0 0 1-.575-.278c-.243-.244-.273-.525-.279-.575-.006-.059-.005-.111-.005-.069h2v-.044a1.033 1.033 0 0 0-.302-.727 1.032 1.032 0 0 0-.726-.301h-.044v1Zm.073.073h-1v-.032a.793.793 0 0 1 .013-.12.935.935 0 0 1 .915-.774v2a1.073 1.073 0 0 0 .958-.59 1.088 1.088 0 0 0 .114-.45v-.033h-1Zm-.072.073v-1c-.445 0-.766.233-.945.457a1.236 1.236 0 0 0-.274.762h2c0 .132-.03.232-.052.29a.732.732 0 0 1-.113.198.794.794 0 0 1-.616.293v-1Zm-.22.219h-1c0 .19.043.371.077.495.038.14.09.295.152.457.121.325.297.732.52 1.216l.908-.42.908-.418a16.946 16.946 0 0 1-.464-1.08 3.386 3.386 0 0 1-.094-.281c-.021-.077-.006-.05-.006.03h-1Zm.657 1.749.97.242c.025-.1.066-.226.124-.4.051-.154.12-.357.167-.547l-.97-.243-.97-.242a5.945 5.945 0 0 1-.124.4c-.052.154-.12.357-.168.547l.97.243Zm.291-.948.97.243.146-.583-.97-.243-.97-.242-.146.583.97.242Zm.146-.583h1v-.219h-2v.22h1Zm0-.218h1c0-.011 0-.064-.004-.12a1.181 1.181 0 0 0-.056-.296 1.065 1.065 0 0 0-1.013-.73v2a.934.934 0 0 1-.885-.639.807.807 0 0 1-.041-.202c-.002-.023-.001-.039-.001-.013h1Zm-.073-.146.707-.707c-.01-.01-.046-.047-.081-.079a1.082 1.082 0 0 0-.727-.287h-.045v2c.037 0-.006.001-.056-.004a.916.916 0 0 1-.51-.222c-.013-.011-.02-.02.005.006l.707-.707Zm-.146-.073v-1c-.043 0 .01-.001.068.005.051.006.332.036.576.279a.963.963 0 0 1 .278.575c.007.058.005.111.005.068h-2v.045c.001.018.002.059.008.108.008.07.042.366.294.618a1.033 1.033 0 0 0 .727.302h.044v-1Zm-.073-.073h1c0-.042.002.01-.005.069a.965.965 0 0 1-.278.575c-.244.243-.525.273-.576.279-.058.006-.11.004-.068.004v-2h-.044c-.018.001-.06.002-.108.008a1.032 1.032 0 0 0-.619.294 1.033 1.033 0 0 0-.301.727v.044h1Zm.073-.073v1h.147v-2h-.147v1Zm.146 0v1h.291v-2h-.292v1Zm.291 0v1h.292v-2h-.292v1Zm.292 0v1h.146v-2h-.147v1Zm.146 0v1c.042 0-.01.002-.068-.005a.965.965 0 0 1-.576-.278.965.965 0 0 1-.278-.575c-.007-.059-.005-.111-.005-.069h2v-.044c-.001-.018-.002-.059-.008-.108a1.032 1.032 0 0 0-.294-.619 1.032 1.032 0 0 0-.727-.301h-.044v1Zm.073.073h-1v-.032a.985.985 0 0 1 .012-.12.935.935 0 0 1 .915-.774v2a1.073 1.073 0 0 0 .958-.59 1.089 1.089 0 0 0 .114-.45v-.033h-1Zm-.073.073v-1a1.154 1.154 0 0 0-.506.118.496.496 0 0 0-.05.024c-.012.006-.01.004-.005.002a.848.848 0 0 1 .342-.071v2a1.155 1.155 0 0 0 .506-.117l.05-.025c.012-.006.01-.004.005-.002a.848.848 0 0 1-.342.071v-1Zm-.219.073-.707-.707c-.163.163-.242.333-.26.37-.018.035.024-.062.114-.152l.707.708.708.707c.162-.163.241-.333.26-.37.018-.036-.025.061-.115.151l-.707-.707Zm-.146.219-.707-.708a1.546 1.546 0 0 0-.35.61 4.743 4.743 0 0 0-.142.557l.98.196.981.197a4.351 4.351 0 0 1 .078-.317c.009-.027.01-.025 0-.006a.774.774 0 0 1-.133.178l-.707-.707Zm-.218.655-.962-.274-.291 1.02.961.275.962.274.291-1.02-.961-.275Zm-.292 1.02-.98-.195c-.026.13-.067.266-.116.433-.021.074-.049.166-.07.252a1.645 1.645 0 0 0-.052.385h2a.609.609 0 0 1-.008.1c-.001.009-.001.007.003-.009.008-.034.022-.083.046-.164.042-.143.11-.371.158-.605l-.98-.196Zm3.644-2.113-.949.317c.008.023.015.056.035.176.017.098.046.284.11.48l.95-.317.948-.316a1.286 1.286 0 0 1-.035-.176c-.017-.099-.046-.285-.11-.48l-.95.316Zm.146.656h-1c0 .043-.002-.01.004-.068.006-.05.036-.331.278-.574.243-.244.524-.274.576-.28.058-.006.111-.005.069-.005v2h.044a1.033 1.033 0 0 0 .727-.303 1.033 1.033 0 0 0 .301-.725v-.045h-1Zm-.073.073c0-1 .001-1 .002-1h.031a.968.968 0 0 1 .12.013.937.937 0 0 1 .773.915h-2a1.065 1.065 0 0 0 1.038 1.072h.034c.001 0 .002 0 .003-1Zm-.073-.073.832-.554c-.19-.284-.453-.593-.822-.777l-.448.894-.447.894c-.045-.022-.057-.039-.041-.023a.824.824 0 0 1 .094.12l.832-.554Zm-.438-.437.448-.894c-.395-.198-.792-.179-.958-.179v2a8.177 8.177 0 0 1 .172.003s-.013-.001-.035-.007a.402.402 0 0 1-.074-.029l.447-.894Zm-.51-.073v-1h-.363v2h.364v-1Zm-.364 0h-1v.802h2v-.801h-1Zm0 .802h-1v.291h2v-.291h-1Zm0 .291v1h.146v-2h-.146v1Zm.146 0v1c.03 0 .163.002.31-.023.124-.02.43-.084.688-.343l-.707-.707-.707-.707c.1-.099.2-.15.263-.176a.627.627 0 0 1 .134-.04c.038-.006.061-.004.019-.004v1Zm.291-.073v1c.363 0 .616-.175.71-.245.104-.079.193-.17.216-.193l-.707-.707-.707-.708-.032.032a.73.73 0 0 1 .174-.107.864.864 0 0 1 .346-.072v1Zm.219-.145.707.707a1.256 1.256 0 0 0 .355-.7 1.08 1.08 0 0 0 .01-.12v-.032l-1-.001h-1v-.016l.001-.015a.688.688 0 0 1 .009-.098.743.743 0 0 1 .211-.433l.707.708Zm.073-.146h1c0-.043.001.01-.005.068-.006.05-.036.332-.279.575-.243.244-.524.273-.575.279-.058.006-.111.005-.068.005v-2h-.045a1.033 1.033 0 0 0-.727.302 1.033 1.033 0 0 0-.3.726l-.001.045h1Zm.073-.073v1c.042 0-.01.002-.069-.005-.05-.006-.331-.035-.575-.279a.96.96 0 0 1-.278-.575c-.007-.058-.006-.11-.006-.068h2v-.045a1.033 1.033 0 0 0-.302-.726 1.033 1.033 0 0 0-.726-.302h-.044v1Zm.072.073h-1v.802h2v-.802h-1Zm0 .801h-1v.147h2v-.147h-1Zm0 .146h-1c0 .043-.001-.01.006-.068a.963.963 0 0 1 .278-.575c.244-.244.525-.273.576-.279.058-.006.11-.005.068-.005v2h.044a1.033 1.033 0 0 0 .726-.302 1.033 1.033 0 0 0 .302-.726v-.045h-1Zm-.072.073.707-.706h.002v.002c.002 0 .003.002.003.003l.006.005.01.01a.77.77 0 0 1 .068.086.856.856 0 0 1 .131.454h-2c0 .337.153.578.204.655a1.366 1.366 0 0 0 .134.17l.015.015.006.007.003.003.002.001v.001l.709-.706Zm-.073-.146h1c0-.26-.072-.546-.274-.798a1.462 1.462 0 0 0-.498-.388l-.447.895-.447.894c.032.017-.07-.026-.17-.15a.764.764 0 0 1-.164-.453h1Zm-.219-.291.707-.707a1.184 1.184 0 0 0-.499-.293 1.65 1.65 0 0 0-.309-.059c-.15-.015-.314-.014-.409-.014v2a6.391 6.391 0 0 1 .21.004c.013.001-.016 0-.067-.016a.864.864 0 0 1-.34-.209l.707-.706Zm-.51-.073h-1v.437h2v-.438h-1Zm0 .437h-1v.583h2v-.584h-1Zm0 .583h-1c0 .361.17.64.338.807.168.168.446.339.808.339v-2a.85.85 0 0 1 .607.248.854.854 0 0 1 .247.606h-1Zm.146.146-.707.707c.411.412.934.366.998.366v-2h-.057a.401.401 0 0 1 .08.01.772.772 0 0 1 .393.21l-.707.707Zm.291.073v1c.709 0 1.485-.22 1.95-.996l-.857-.514-.857-.515c-.006.01-.006.008 0 .001l.01-.007a.663.663 0 0 1-.246.03v1Zm1.093-.51h1a.927.927 0 0 1-.516.83.913.913 0 0 1-.379.096h-.031v-1c0-1-.001-1-.002-1h-.015l-.018.001a1.118 1.118 0 0 0-.45.114 1.064 1.064 0 0 0-.589.959h1Zm.073-.073v1c.043 0-.01.001-.068-.005-.05-.006-.332-.036-.575-.28-.243-.242-.273-.524-.279-.574-.006-.058-.005-.111-.005-.068h2V46.7a1.033 1.033 0 0 0-.302-.727 1.032 1.032 0 0 0-.726-.3l-.045-.001v1Zm.073.073h-1v.072h2v-.072h-1Zm0 .072-.97-.242-.146.583.97.242.97.243.146-.583-.97-.242Zm-.146.583v-1h-.801v2h.801v-1Zm-.801 0v-1h-.584v2h.584v-1Zm-.583 0v-1h-.437v2h.436v-1Zm-.437 0v-1h-.51v2h.51v-1Zm-.51 0v-1h-.073v2h.073v-1Zm-.073 0v-1c-.043 0 .01-.001.068.005.05.006.332.036.575.28.243.243.273.524.279.574.006.059.005.111.005.069h-2v.044a1.033 1.033 0 0 0 .302.726 1.032 1.032 0 0 0 .726.302h.045v-1Zm-.073-.072h1c0-.043.001.01-.005.068-.006.05-.036.331-.279.575-.243.243-.525.273-.575.279-.058.006-.111.005-.068.005v-2h-.045a1.031 1.031 0 0 0-.726.302 1.033 1.033 0 0 0-.302.726v.045h1Zm.073-.073v1c.585 0 .915-.356.998-.439l-.707-.707-.707-.707c-.05.05-.003-.004.074-.05a.693.693 0 0 1 .342-.097v1Zm.291-.146.707.707a1.26 1.26 0 0 0 .35-.747c.018-.149.016-.311.016-.397h-2v.125c-.002.03-.003.035-.001.024a.59.59 0 0 1 .034-.132.813.813 0 0 1 .187-.287l.707.707Zm.073-.437h1V45.58h-2v1.093h1Zm0-1.093h1v-.656h-2v.656h1Zm0-.656h1c0-.011 0-.064-.003-.12a1.19 1.19 0 0 0-.057-.297 1.066 1.066 0 0 0-1.013-.73v2.001a.934.934 0 0 1-.926-.841c-.001-.022-.001-.038-.001-.013h1Zm-.073-.146v-1c.146 0 .253.036.297.052l.046.02-.005-.003-.05-.024a1.155 1.155 0 0 0-.506-.118v2a.846.846 0 0 1-.343-.071l.005.002a1.82 1.82 0 0 0 .15.067c.08.03.224.075.406.075v-1Zm-.218-.073v-1c-.043 0 .01-.001.068.005.05.006.33.036.574.278.244.243.274.524.28.575.006.059.005.112.005.07h-2a2.256 2.256 0 0 0 .007.153c.008.072.043.366.296.618a1.033 1.033 0 0 0 .725.3l.045.001v-1Zm-.073-.073h1c0-.042.001.01-.005.07-.006.05-.036.33-.28.574a.954.954 0 0 1-.574.278c-.058.007-.11.005-.068.005v-2h-.045c-.019.001-.06.002-.109.008a1.033 1.033 0 0 0-.617.294 1.033 1.033 0 0 0-.302.727v.044h1Zm.073-.072v1h.51v-2h-.51v1Zm.51 0-.046.998 1.603.073.046-.999.045-.998L23 43.56l-.045 1Zm3.789 1.457v1s-.017 0-.046-.006a.514.514 0 0 1-.128-.045.643.643 0 0 1-.283-.283l.894-.447.895-.448c-.301-.6-.886-.771-1.332-.771v1Zm.437.218-.447.895a.7.7 0 0 1-.263-.228.245.245 0 0 1-.011-.019s0 .003.005.011l.014.037.045.13.948-.315.95-.317c-.031-.091-.09-.273-.173-.44a1.412 1.412 0 0 0-.62-.648l-.448.895Zm.291.51-.948.317c.01.033.014.058.04.19.01.047.03.142.062.24.029.086.103.289.285.47l.707-.706.707-.707a.863.863 0 0 1 .199.31l.008.028-.006-.028-.013-.067a2.545 2.545 0 0 0-.092-.363l-.949.317Zm.146.51-.707.708c.084.084.413.438.999.438v-2a.646.646 0 0 1 .341.097c.077.046.124.1.074.05l-.707.708Zm.292.146v1c.043 0-.01.002-.068-.005a.965.965 0 0 1-.576-.278.965.965 0 0 1-.278-.576c-.007-.058-.005-.11-.005-.068h2v-.044c-.001-.019-.002-.059-.008-.108a1.033 1.033 0 0 0-.294-.619 1.032 1.032 0 0 0-.727-.301h-.044v1Zm.073.073h-1a.934.934 0 0 1 .84-.926h.014v2c.011 0 .064 0 .12-.004.054-.004.167-.014.297-.057a1.065 1.065 0 0 0 .729-1.012h-1Zm-.146.073.09-.996-.801-.073-.09.996-.091.996.801.073.09-.996Zm-.802-.073.707-.707a.547.547 0 0 1 .13.192.245.245 0 0 1 .018.078h-2c0 .433.145.85.438 1.144l.707-.707Zm-.145-.437h1c0-.228-.029-.42-.053-.552l-.027-.14c-.003-.014-.002-.012 0-.003 0 .004.007.049.007.112h-2a1.24 1.24 0 0 0 .03.271l.022.117c.013.069.02.132.02.195h1Zm-.073-.583.894-.447c-.012-.023 0 0-.039-.097a1.313 1.313 0 0 0-.294-.454l-.707.707-.707.707a.74.74 0 0 1-.14-.2l-.009-.017.009.021a3.346 3.346 0 0 0 .098.227l.895-.447Zm-.146-.291.707-.707c-.412-.412-.934-.366-.999-.366v2h.057l-.02-.001a.776.776 0 0 1-.452-.219l.707-.707Zm-.292-.073v-1h-.146v2h.147v-1Zm-.145 0h-1c0 .205-.015.365-.03.493l-.024.195a2.15 2.15 0 0 0-.02.26h2c0 .03-.002.04.005-.017l.025-.204c.022-.181.044-.422.044-.727h-1Zm-.073.947h-1c0 .03 0 .085.002.137.002.047.007.151.037.27a1.06 1.06 0 0 0 1.034.812v-2a.94.94 0 0 1 .924.803c.003.019.003.031.003.032v-.054h-1Zm.073.219-.707.707c.384.384.838.366.925.366v-2c-.055 0 .031-.005.133.02a.772.772 0 0 1 .356.2l-.707.707Zm.218.073v1c.043 0-.01.001-.068-.005-.05-.006-.332-.036-.575-.28-.243-.243-.273-.524-.279-.574-.006-.059-.005-.111-.005-.069h2v-.044a1.032 1.032 0 0 0-.302-.726 1.033 1.033 0 0 0-.726-.302h-.045v1Zm.073.072h-1c0 .043-.001-.01.005-.068.006-.05.036-.332.279-.575.243-.243.524-.273.575-.279.058-.006.111-.005.068-.005v2h.045a1.032 1.032 0 0 0 .726-.302 1.033 1.033 0 0 0 .302-.726V47.4h-1Zm-.073.073.11-.994-.655-.072-.11.993-.11.994.655.073.11-.994Zm-.655-.073v-1h-.365v2h.365v-1Zm-.365 0v-1h-.219v2h.22v-1Zm-.219 0v-1c-.042 0 .01-.001.069.005.05.006.332.036.575.28.243.243.273.524.279.574.006.059.005.111.005.069h-2v.044a1.033 1.033 0 0 0 .302.726 1.033 1.033 0 0 0 .726.302h.044v-1Zm-.072-.072h1c0-.043.001.01-.005.068-.006.05-.036.331-.28.575-.242.243-.524.273-.574.279-.058.006-.111.005-.069.005v-2h-.044a1.032 1.032 0 0 0-.726.302 1.033 1.033 0 0 0-.302.726v.045h1Zm.072-.073v1c.088 0 .542.018.926-.366l-.707-.707-.707-.707a.771.771 0 0 1 .355-.2c.102-.025.189-.02.133-.02v1Zm.22-.073.706.707c.327-.327.439-.772.439-1.217h-2c0 .065-.009.063.006.02a.576.576 0 0 1 .141-.217l.707.707Zm.145-.51h1v-.365h-2v.365h1Zm0-.365.996.09.073-.8-.996-.091-.996-.09-.073.8.996.091Zm.073-.801h1v-.728h-2v.729h1Zm0-.729h1c0-.361-.179-.612-.294-.736a1.228 1.228 0 0 0-.35-.259 1.464 1.464 0 0 0-.648-.15v2a.538.538 0 0 1-.247-.06.771.771 0 0 1-.217-.166.921.921 0 0 1-.244-.629h1Zm-.292-.146v-1c-.042 0 .01-.001.07.006.05.005.33.035.574.278a.965.965 0 0 1 .278.575c.007.058.005.11.005.069h-2v.044c.001.019.002.06.008.109.008.071.043.365.294.617a1.032 1.032 0 0 0 .727.302h.044v-1Zm-.073-.072h1a.934.934 0 0 1-.84.926h-.014v-2c-.01 0-.064 0-.12.004a1.187 1.187 0 0 0-.296.057 1.065 1.065 0 0 0-.73 1.013h1Zm.146-.073v1h1.02v-2h-1.02v1Zm1.02 0v1h.365v-2h-.364v1Zm.365 0v1a.7.7 0 0 1 .144.016c.011.003.005.003-.013-.007a.463.463 0 0 1-.11-.084l.707-.707.707-.707a1.706 1.706 0 0 0-.742-.418 2.55 2.55 0 0 0-.693-.093v1Zm.728.218-.707.707.062.064c.007.007-.013-.014-.038-.057a.659.659 0 0 1-.047-.52l.949.316.949.317a1.333 1.333 0 0 0-.102-1.085c-.127-.227-.31-.4-.358-.449l-.708.707Zm.219.51h-1c0-.088.02-.149.035-.184a.506.506 0 0 1 .112-.158l.707.707.707.707c.248-.248.439-.643.439-1.072h-1Zm-.146.365-.707-.707c-.04.04-.041.038-.029.03a.473.473 0 0 1 .093-.05.72.72 0 0 1 .279-.055v2c.386 0 .67-.182.79-.268.14-.1.25-.21.281-.243l-.707-.707Zm-.364.218-.707-.707c-.016.016-.014.011.006-.002a.441.441 0 0 1 .102-.048c.09-.03.17-.024.089-.024v2c.065 0 .29.006.544-.079a1.72 1.72 0 0 0 .673-.433l-.707-.707Zm-1.093.146v1h.073v-2h-.073v1Zm.073 0v1c.053 0 .195.003.346-.023a1.63 1.63 0 0 0 .465-.155l-.447-.895-.447-.894c-.007.003.002-.002.022-.009a.493.493 0 0 1 .079-.02c.026-.004.043-.004.041-.004h-.059v1Zm.364-.073.447.895c.293-.147.458-.313.552-.406l-.707-.707-.707-.708-.022.022-.013.012-.002.002a.122.122 0 0 1 .01-.007l-.005.003.447.894Zm.292-.218.707.707a1.26 1.26 0 0 0 .343-.689c.024-.147.022-.28.022-.31h-2c0 .042-.001.02.005-.018a.629.629 0 0 1 .04-.135.803.803 0 0 1 .175-.263l.708.708Zm.072-.292h1c0-.427-.207-.796-.25-.884l-.895.447-.895.447.025.049a2.008 2.008 0 0 1 .034.073.491.491 0 0 1-.018-.132h1Zm-.145-.437.707-.707c-.294-.294-.712-.439-1.145-.439v2c-.002 0-.03 0-.077-.018a.549.549 0 0 1-.192-.129l.707-.707Zm-.438-.146v-1h-.218v2h.219v-1Zm-.218 0h-1v1.166h2v-1.166h-1Zm3.935.292.707.707.073-.073-.707-.707-.707-.707-.073.072.707.708Zm.073-.073h1a.927.927 0 0 1-.516.83.908.908 0 0 1-.378.096h-.031c-.001 0-.002 0-.002-1l-.002-1h-.007l-.009.001h-.018a1.102 1.102 0 0 0-.449.115 1.063 1.063 0 0 0-.588.958h1Zm.073-.073v1a.926.926 0 0 1-.831-.517.91.91 0 0 1-.096-.378v-.032h2v-.016l-.001-.018a1.113 1.113 0 0 0-.114-.45 1.064 1.064 0 0 0-.959-.59v1Zm.072.073h-1v.583h2v-.583h-1Zm0 .583h-1v.073h2v-.073h-1Zm0 .073h-1c0 .042-.001-.01.005-.069.006-.05.036-.33.278-.574.243-.243.524-.274.576-.28.058-.006.111-.005.069-.005v2h.044a1.032 1.032 0 0 0 .727-.302 1.033 1.033 0 0 0 .301-.726v-.044h-1Zm-.072.072v-1h-.073v2h.073v-1Zm-.073 0h1v-.032a1.017 1.017 0 0 0-.011-.121 1.257 1.257 0 0 0-.355-.7l-.707.708-.707.707a.745.745 0 0 1-.211-.433.92.92 0 0 1-.009-.097v-.03c0-.001 0-.002 1-.002Zm-.073-.145.894-.447c-.04-.082-.244-.565-.739-.812l-.447.894-.447.895a.535.535 0 0 1-.193-.158c-.008-.011-.009-.014 0 0l.037.075.895-.447Zm-.292-.365.707-.707c-.254-.255-.64-.511-1.144-.511v2c-.213 0-.306-.111-.27-.075l.707-.707Zm-.437-.218v-1c-.054 0-.203-.002-.35.019a1.26 1.26 0 0 0-.721.346l.707.708.707.707a.809.809 0 0 1-.276.182.61.61 0 0 1-.135.037l-.008.001h.076v-1Zm-.364.073-.707-.708c-.084.084-.439.414-.439 1h2a.647.647 0 0 1-.097.34c-.046.078-.1.124-.05.075l-.707-.707Zm-.146.291h-1c0 .03-.002.163.023.31.02.124.085.43.343.689l.707-.707.707-.708c.099.1.15.2.176.263a.633.633 0 0 1 .04.135c.006.037.004.06.004.018h-1Zm.073.292-.707.707c.073.073.146.128.197.164.052.037.104.07.144.095.09.056.155.095.248.157l.555-.832.555-.832c-.126-.084-.242-.154-.298-.19a1.807 1.807 0 0 1-.035-.021l-.01-.007.012.01a.53.53 0 0 1 .046.041l-.707.708Zm.437.291-.371.928a1.307 1.307 0 0 1 .269.138h-.001v-.001l.832-.555.832-.554c-.31-.465-.748-.708-1.19-.884l-.37.928Zm.729.51-.707.707a.585.585 0 0 1-.117-.166.42.42 0 0 1-.033-.098c-.002-.01 0-.007.001.02l.002.12h2c0-.089.003-.292-.035-.498a1.477 1.477 0 0 0-.404-.792l-.707.707Zm.146.583h-1c0-.007.002-.058.031-.124.027-.06.057-.087.043-.073l.707.707.707.707a1.666 1.666 0 0 0 .512-1.217h-1Zm-.22.51-.706-.707a6.468 6.468 0 0 1-.115.112c-.002 0 .002-.002.008-.006s.008-.005.002-.002l.447.895.448.894c.308-.154.483-.338.624-.479l-.707-.707Zm-.364.292-.447-.895a.403.403 0 0 1 .074-.028.136.136 0 0 1 .035-.007 2.49 2.49 0 0 1-.099.003h-.073v2c.167 0 .563.018.958-.179l-.448-.894Zm-.51.073v-1c.106 0 .19.033.135.014-.055-.018-.247-.087-.499-.087v2c-.106 0-.189-.033-.134-.015.055.018.247.088.498.088v-1Zm-.364-.073.447-.895a.688.688 0 0 1-.075-.047c-.054-.036-.155-.104-.289-.171l-.447.894-.447.895c.011.005.02.01.074.047.055.036.156.104.29.171l.447-.894Zm-.364-.219-.708-.707v.001l-.002.002a1.187 1.187 0 0 0-.363.85h2a.854.854 0 0 1-.132.454.633.633 0 0 1-.067.086l-.01.01-.006.006-.002.002-.002.002c-.001.001-.001.001-.708-.706Zm-.073.146h-1a.927.927 0 0 1 .516-.831.908.908 0 0 1 .379-.096h.031l.001 1v1h.034a1.114 1.114 0 0 0 .45-.115 1.064 1.064 0 0 0 .589-.958h-1Zm-.073.073.707-.708.001.001.001.002.003.002.005.006.01.01a.568.568 0 0 1 .068.086.855.855 0 0 1 .132.455h-2a1.186 1.186 0 0 0 .303.784 1.3 1.3 0 0 0 .062.068h.001l.707-.706Zm-.073-.146h1v-.802h-2v.802h1Zm0-.802h1v-.072h-2v.072h1Zm0-.072h1c0-.043.002.01-.005.068-.006.052-.036.332-.279.575a.957.957 0 0 1-.574.278c-.058.007-.111.006-.069.006v-2h-.045a1.033 1.033 0 0 0-.726.302 1.032 1.032 0 0 0-.302.726v.044h1Zm.073-.073a206.237 206.237 0 0 1-.708.706v-.001l-.002-.001-.003-.003-.005-.006a.496.496 0 0 1-.03-.032.662.662 0 0 1-.119-.2.856.856 0 0 1-.06-.318h2a1.188 1.188 0 0 0-.302-.783 1.294 1.294 0 0 0-.051-.057l-.007-.006-.003-.003-.001-.002h-.001l-.708.706Zm.073.145-.949.317c.053.157.188.628.533.973l.707-.707.707-.707c.043.043.049.069.03.03a5.873 5.873 0 0 1-.08-.221l-.948.315Zm.291.583-.707.707c.296.296.602.434.901.533l.317-.948.316-.949a.738.738 0 0 1-.113-.044c-.002 0 0 0 0 .001l-.006-.007-.708.707Zm.51.292v1c.12 0 .499.014.885-.179l-.447-.894-.448-.895a.38.38 0 0 1 .105-.034l-.016.001h-.078v1Zm.438-.073.447.894a1.271 1.271 0 0 0 .584-.593l.034-.072.003-.007c-.004.008-.047.098-.143.194l-.707-.708-.707-.707a1.19 1.19 0 0 0-.232.326l-.033.07-.004.01a.724.724 0 0 1 .31-.301l.448.894Zm.218-.292h1c0-.053.003-.194-.022-.346a1.617 1.617 0 0 0-.156-.465l-.895.447-.894.447c.004.007-.001-.002-.008-.022a.499.499 0 0 1-.02-.078c-.005-.027-.005-.044-.005-.042v.058h1Zm-.073-.364.708-.707a2.018 2.018 0 0 0-.975-.555l-.243.97-.242.97a.15.15 0 0 1 .025.009c.002 0 .002 0 0 0L29 47.721a.567.567 0 0 1 .023.022l.707-.707Zm-.51-.291.317-.95c.016.006.012.01-.044-.028l-.05-.033a2.037 2.037 0 0 0-.286-.175l-.447.894-.447.895c-.019-.01-.023-.014.003.003a3.55 3.55 0 0 1 .117.08c.108.072.286.184.521.262l.316-.948Zm-.51-.292.707-.707a1.496 1.496 0 0 1-.075-.079c-.007-.008.01.011.035.052a.912.912 0 0 1 .115.443h-2c0 .3.13.519.163.575.053.09.111.164.15.21.08.096.166.181.198.213l.707-.707Zm-.218-.291.894-.447c.023.046.03.082.032.096.002.012 0 .02 0-.014h-2c0 .082-.008.438.18.812l.894-.447Zm-.073-.365h1a.39.39 0 0 1-.052.205.373.373 0 0 1-.057.072.584.584 0 0 1-.152.108l-.448-.895-.447-.894a1.52 1.52 0 0 0-.61.58c-.13.215-.234.5-.234.824h1Zm.291-.51.555.832c.047-.031.044-.02.007-.012a.245.245 0 0 1-.057.006c-.017 0-.024-.003-.018-.001l.242-.97.242-.97c-.637-.16-1.143.029-1.525.283l.554.832Zm.729-.145.8.6a.457.457 0 0 1-.132.108.68.68 0 0 1-.34.091.58.58 0 0 1-.22-.04c-.029-.012-.034-.018-.007 0l.555-.832.555-.832c-.138-.092-.46-.296-.883-.296-.514 0-.891.285-1.128.6l.8.6Zm1.603-.073v1c.035 0-.017.002-.078-.01-.06-.013-.09-.03-.078-.023l.448-.895.447-.894a1.68 1.68 0 0 0-.424-.15c-.152-.03-.277-.028-.315-.028v1Zm.292.072v1a.593.593 0 0 1-.137-.016c-.038-.009-.063-.02-.062-.019l.024.01a1.167 1.167 0 0 0 .466.098v-2c.145 0 .25.036.277.046.015.005.024.01.017.006l-.014-.006a1.85 1.85 0 0 0-.241-.08 1.411 1.411 0 0 0-.33-.038v1Zm.291.073-.11.994.655.073.11-.994.111-.994-.655-.072-.11.993Zm.656.073v1c.042 0-.01.002-.07-.005-.05-.006-.331-.036-.574-.28a.96.96 0 0 1-.278-.574c-.007-.058-.005-.11-.005-.068h2v-.044a1.032 1.032 0 0 0-.3-.726 1.033 1.033 0 0 0-.728-.302h-.045v1Zm.073.073h-1v-.032a1.255 1.255 0 0 1 .012-.12.937.937 0 0 1 .915-.774v1.999a1.064 1.064 0 0 0 1.07-.999l.002-.04v-.033h-1Zm-.073.073v-1h-.219v2h.218v-1Zm-.219 0v-1a1.065 1.065 0 0 0-.967.607c-.03.059-.058.13-.058.131a.458.458 0 0 1-.015.033l.895.448.894.447c.033-.067.057-.123.072-.159.022-.053.012-.027 0-.005a.935.935 0 0 1-.822.498v-1Zm-.145.219-.708-.708a1.14 1.14 0 0 0-.227.331 1.36 1.36 0 0 0-.076.215 2.475 2.475 0 0 0-.052.275c-.024.164-.035.273-.064.42l.98.195.981.196c.024-.115.04-.222.053-.312l.017-.123a9.182 9.182 0 0 1 .021-.147c.002-.011.002-.008-.002.006a.876.876 0 0 1-.217.36l-.706-.708Zm-.146.728-.987-.164c-.032.194-.074.426-.101.6a3.908 3.908 0 0 0-.058.584h2v-.005l.001-.016.006-.058a4.07 4.07 0 0 1 .026-.193c.027-.172.059-.34.1-.583l-.987-.165Zm-.146 1.02h-1v.437h2V47.4h-1Zm0 .438h-1a1.065 1.065 0 0 0 .607.967 1.994 1.994 0 0 0 .164.073l.448-.895.447-.894a2.478 2.478 0 0 0-.158-.072c-.053-.022-.028-.012-.006 0a.935.935 0 0 1 .498.821h-1Zm.219.145v1c.042 0-.01.002-.068-.005a.963.963 0 0 1-.575-.277c-.243-.243-.274-.524-.28-.576-.006-.058-.004-.111-.004-.069h2v-.044c-.001-.019-.002-.06-.008-.109a1.032 1.032 0 0 0-.295-.619 1.033 1.033 0 0 0-.726-.3h-.044v1Zm.073.073h-1a.935.935 0 0 1 .84-.926h.014v2c.01 0 .063 0 .12-.004.054-.004.166-.014.296-.057a1.065 1.065 0 0 0 .73-1.013h-1Zm-.146.073v-1h-.073v2h.073v-1Zm-.073 0 .242-.97a5.42 5.42 0 0 0-.235-.053l-.08-.016a3.109 3.109 0 0 1-.047-.01.548.548 0 0 1 .05.018.804.804 0 0 1 .267.178l-.707.707-.707.707c.14.141.291.22.405.265.105.042.203.065.258.077.16.036.168.031.311.067l.243-.97Zm-.51-.146v-1c.004 0 0 .002-.066-.012-.023-.005-.092-.022-.155-.033a1.607 1.607 0 0 0-.29-.027v2c-.045 0-.073-.006-.068-.005l.08.017c.098.022.276.06.499.06v-1Zm-.51-.072v-1h-.147v2h.147v-1Zm-.146 0v-1c-.042 0 .01-.002.069.005a.962.962 0 0 1 .575.28.957.957 0 0 1 .278.574c.007.058.005.11.005.068h-2v.044a1.033 1.033 0 0 0 .3.726 1.032 1.032 0 0 0 .728.302h.045v-1Zm-.073-.073h1v.032a.793.793 0 0 1-.012.12.935.935 0 0 1-.915.774v-2a1.073 1.073 0 0 0-.958.59 1.088 1.088 0 0 0-.114.45v.032c0 .001 0 .002 1 .002Zm.073-.073v1c.064 0 .587.046.999-.366l-.707-.707-.708-.707a.774.774 0 0 1 .47-.22h-.054v1Zm.291-.073.708.707a1.249 1.249 0 0 0 .314-.518c.017-.05.033-.107.04-.132a3 3 0 0 1 .033-.105l-.949-.316-.949-.317c-.023.071-.04.13-.053.173l-.015.05a.323.323 0 0 1-.004.014s.014-.043.045-.099a.75.75 0 0 1 .123-.164l.707.707Zm.146-.364.949.316c.072-.217.1-.44.116-.575.02-.161.034-.282.062-.42l-.981-.196-.98-.196c-.046.227-.069.434-.085.564a3.052 3.052 0 0 1-.022.153c-.006.035-.01.044-.008.037l.95.317Zm.146-.875.986.165a5.97 5.97 0 0 0 .087-1.04h-2c0 .121 0 .351-.06.71l.987.165Zm.073-.874h1v-.291h-2v.291h1Zm0-.292h1a1.06 1.06 0 0 0-.812-1.034 1.344 1.344 0 0 0-.27-.037c-.052-.002-.107-.002-.137-.002v2h.054l-.032-.002a.924.924 0 0 1-.564-.302.94.94 0 0 1-.24-.623h1Zm-.219-.073v-1a.927.927 0 0 1 .83.517.905.905 0 0 1 .097.378v.031c0 .001 0 .002-1 .002h-1v.033a1.102 1.102 0 0 0 .115.45 1.064 1.064 0 0 0 .958.59v-1Zm-.073-.073.707.708a.743.743 0 0 1-.432.21.863.863 0 0 1-.098.01h-.03v-1c0-1-.001-1-.002-1h-.032a.832.832 0 0 0-.12.01 1.256 1.256 0 0 0-.699.355l.706.707Zm1.895.146-.196.98c.345.07.64.14.9.202.248.06.495.122.703.163l.196-.98.196-.981c-.157-.031-.346-.079-.626-.146a24.765 24.765 0 0 0-.977-.218l-.196.98Zm1.603.365-.242.97c.213.053.419.078.555.095.155.02.241.031.319.05l.242-.97.243-.97c-.214-.053-.419-.078-.556-.095a2.776 2.776 0 0 1-.318-.05l-.243.97Zm.875.145v1h.056-.02a.776.776 0 0 1-.452-.219l.707-.708.707-.707c-.412-.412-.934-.366-.998-.366v1Zm.291.073v1h.146v-2h-.146v1Zm.146 0h-1v.366h2v-.365h-1Zm0 .364h-1v.365h2v-.364h-1Zm0 .365h-1a.927.927 0 0 1 .516-.83.905.905 0 0 1 .379-.097h.031v1c0 1 .001 1 .002 1h.033a1.102 1.102 0 0 0 .45-.115 1.064 1.064 0 0 0 .589-.958h-1Zm-.073.073a206.117 206.117 0 0 1 .708-.706l.002.001.002.003.006.005a.51.51 0 0 1 .03.033.653.653 0 0 1 .119.2c.025.063.06.173.06.318h-2c0 .337.153.578.204.655a1.353 1.353 0 0 0 .15.185l.006.007a.09.09 0 0 0 .003.003l.001.002h.001l.708-.706Zm-.073-.146h1c0-.268-.075-.477-.151-.63-.03-.06-.064-.116-.075-.136a.906.906 0 0 1-.025-.046l-.895.448-.894.447c.032.065.064.12.082.15l.018.033c.004.006.003.005 0 0a.56.56 0 0 1-.055-.187.6.6 0 0 1-.005-.079h1Zm-.146-.364.707-.707a1.96 1.96 0 0 0-.551-.406l-.447.894-.447.895.004.002a.105.105 0 0 1-.009-.007l.002.002a.635.635 0 0 1 .034.034l.707-.707Zm-.291-.219.707-.707a1.194 1.194 0 0 0-.47-.285 1.984 1.984 0 0 0-.242-.061c-.131-.027-.156-.03-.19-.041l-.315.948-.316.949a2.545 2.545 0 0 0 .362.092l.067.013a.736.736 0 0 1 .028.006l-.027-.008a.86.86 0 0 1-.311-.198l.707-.708Zm-.51-.146-.949-.316c-.088.263-.17.597-.24.875l.97.243.97.242c.076-.304.14-.553.197-.727l-.948-.317Zm-.219.802-.98-.196c-.059.29-.166.723-.166 1.143h2c0-.163.04-.313.127-.751l-.981-.196Zm-.146.947-.97-.242c-.102.407-.102.719-.102.825h2c0-.04-.002-.164.042-.34l-.97-.243Zm-.072.583h-1a1.187 1.187 0 0 0 .06.416 1.065 1.065 0 0 0 1.013.73v-2a.935.935 0 0 1 .925.841c.002.022.002.039.002.013h-1Zm.072.146-.707.707c.176.175.356.255.455.294.096.04.073.027.097.039l.447-.894.447-.895a2.234 2.234 0 0 0-.249-.107l.018.008a.7.7 0 0 1 .2.14l-.708.708Zm.292.146v1a.927.927 0 0 1-.83-.517.913.913 0 0 1-.097-.378v-.031c0-.001 0-.002 1-.002h1v-.033a1.106 1.106 0 0 0-.115-.45 1.064 1.064 0 0 0-.958-.59v1Zm.073.073h-1c0 .042-.002-.01.005-.069a.96.96 0 0 1 .279-.575c.243-.243.524-.273.575-.279.058-.006.11-.005.068-.005v2h.044a1.033 1.033 0 0 0 .726-.302 1.032 1.032 0 0 0 .302-.726v-.044h-1Zm-.073.072v-1h-.073v2h.073v-1Zm-.073 0 .164-.986-.437-.073-.164.986-.165.987.438.073.164-.987Zm-.437-.072.196-.981a9.593 9.593 0 0 0-.261-.048c-.037-.007-.062-.01-.088-.016a2.446 2.446 0 0 1-.052-.009c-.011-.002-.012-.003-.005 0a.752.752 0 0 1 .178.079c.051.03.105.07.156.122l-.707.707-.707.707c.273.273.612.33.693.346.063.013.137.025.192.035.063.01.13.022.209.038l.196-.98Zm-.583-.146.242-.97-.291-.073-.243.97-.242.97.291.073.243-.97Zm-.292-.073v-1h-.145v2h.146v-1Zm-.145 0c0-1 .001-1 .002-1h.031a.96.96 0 0 1 .12.012.935.935 0 0 1 .773.915h-2a1.073 1.073 0 0 0 .59.958 1.089 1.089 0 0 0 .448.114h.034c.001 0 .002 0 .003-1Zm-.073-.073h1a.927.927 0 0 1-.517.83.91.91 0 0 1-.378.097h-.031c-.001 0-.002 0-.001-1l-.001-1h-.033a.923.923 0 0 0-.142.015 1.064 1.064 0 0 0-.898 1.058h1Zm.073-.073v1h.291v-2h-.291v1Zm.291 0 .707.707c.023-.023.115-.112.193-.216.07-.094.246-.346.246-.71h-2c0-.15.038-.27.071-.346a.727.727 0 0 1 .084-.145c.016-.022.027-.033.023-.029a.32.32 0 0 1-.031.032l.707.707Zm.146-.218.894.447c.116-.23.15-.469.167-.578.023-.148.034-.25.065-.402l-.98-.196-.981-.196c-.042.211-.067.401-.08.49a2.13 2.13 0 0 1-.013.074l.007-.024a.519.519 0 0 1 .026-.063l.895.448Zm.145-.73.97.243c.157-.627.25-1.224.25-1.7h-2c0 .253-.055.676-.19 1.215l.97.243Zm.22-1.457.315-.948c-.374-.125-.65-.124-.826-.124v2c.077 0 .097 0 .117.003a.358.358 0 0 1 .077.018l.316-.949Zm-.511-.072v-1c-.031 0-.163-.002-.31.022-.125.021-.43.086-.688.343l.707.707.707.708a.803.803 0 0 1-.262.176.633.633 0 0 1-.135.039c-.038.006-.06.005-.019.005v-1Zm-.291.072-.448-.894c-.133.067-.287.16-.432.306-.146.145-.24.3-.306.433l.894.447.894.447c.007-.012-.014.033-.069.087-.054.054-.099.075-.086.069l-.447-.895Zm-.292.292h-1a.926.926 0 0 1 .516-.83.914.914 0 0 1 .394-.097h.015l.002 1 .002 1h.033a1.102 1.102 0 0 0 .45-.115 1.064 1.064 0 0 0 .588-.958h-1Zm-.073.073v-1c-.042 0 .01-.002.07.005.05.006.33.036.574.279a.963.963 0 0 1 .278.574c.007.058.005.111.005.069h-2a2.247 2.247 0 0 0 .008.153c.008.072.042.366.294.618a1.033 1.033 0 0 0 .726.302h.045v-1Zm-.073-.073c1 0 1 .001 1 .002v.014a.62.62 0 0 1-.005.08.413.413 0 0 1-.005.037c0 .003.006-.03.032-.108l-.949-.317-.948-.316c-.047.14-.077.253-.096.348a1.538 1.538 0 0 0-.028.228v.029c0 .001 0 .002 1 .003Zm.073-.292.949.317c.029-.086.052-.143.088-.239a2.36 2.36 0 0 0 .056-.167c.016-.053.053-.185.053-.348h-2a.833.833 0 0 1 .027-.211l.002-.005a1.063 1.063 0 0 1-.011.03l-.02.052a9.288 9.288 0 0 0-.092.255l.948.316Zm4.737 1.822.65.76c.226-.194.467-.392.624-.539a2.27 2.27 0 0 0 .278-.303c.078-.106.25-.36.25-.72h-2c0-.15.037-.266.068-.337a.658.658 0 0 1 .073-.13c.02-.028.022-.024-.034.028a6.64 6.64 0 0 1-.217.19l-.343.292.65.76Zm.801-.801h1v-.073h-2v.073h1Zm0-.073h1a1.072 1.072 0 0 0-.49-.905c-.138-.092-.005-.005.052.052l-.707.707-.708.707a1.339 1.339 0 0 0 .26.203c.013.008.004.002-.007-.005-.015-.01-.13-.085-.231-.229a.934.934 0 0 1-.169-.53h1Zm-.145-.146v-1a.935.935 0 0 1 .927.895v.031l-1 .001h-1v.008a.24.24 0 0 0 0 .008v.018a1.102 1.102 0 0 0 .114.45 1.064 1.064 0 0 0 .959.589v-1Zm-.073-.073h1a.927.927 0 0 1-.516.83.908.908 0 0 1-.378.097h-.031c-.001 0-.002 0-.002-1l-.002-1h-.034a1.131 1.131 0 0 0-.141.015 1.064 1.064 0 0 0-.896 1.058h1Zm.072-.073v1h.073v-2h-.073v1Zm.073 0-.447.895a1.758 1.758 0 0 0 .333.126l.03.008.019.006.007.002a.792.792 0 0 1-.285-.184l.708-.707.707-.707a1.212 1.212 0 0 0-.376-.253 1.685 1.685 0 0 0-.211-.074c-.104-.03-.068-.021-.037-.006l-.448.894Zm.365.146v1a.829.829 0 0 1-.144-.012l-.041-.009.014.004.051.015c.042.012.108.03.186.045s.18.03.298.03v-2c.045 0 .075.005.082.007.007.001.005.001-.017-.005l-.04-.012a2.055 2.055 0 0 0-.184-.045 1.174 1.174 0 0 0-.205-.018v1Zm.364.073v1h.073v-2h-.073v1Zm.073 0v1c.043 0-.01.001-.068-.005-.05-.006-.332-.035-.575-.279-.244-.243-.274-.524-.28-.575-.006-.058-.004-.111-.004-.068h2v-.045a1.033 1.033 0 0 0-.302-.726 1.032 1.032 0 0 0-.727-.302h-.044v1Zm.073.073-1-.001v-.031a.79.79 0 0 1 .012-.121.936.936 0 0 1 .915-.774v2a1.064 1.064 0 0 0 1.07-.999l.002-.04v-.033c0-.001 0-.002-1-.001Zm-.073.073v-1h-.292v2h.293v-1Zm-.291 0v-1c-.3 0-.54.122-.652.186a2.017 2.017 0 0 0-.42.325l.707.707.707.707c.017-.016.02-.014-.001-.003a.712.712 0 0 1-.173.06.849.849 0 0 1-.168.018v-1Zm-.365.218-.707-.707a2.21 2.21 0 0 1-.358.312l.555.832.555.832c.309-.205.515-.415.662-.562l-.707-.707Zm-.51.437-.555-.832c-.195.13-.339.27-.44.393a1.672 1.672 0 0 0-.185.272l-.003.006a.077.077 0 0 1-.001.003l-.001.001v.001l.894.448.894.448-.001.002-.002.003-.002.005a.852.852 0 0 1-.057.091c-.011.013-.01.007.014-.008l-.555-.833Zm-.291.292h-1a.834.834 0 0 1 .027-.212l.001-.004-.01.029-.02.052-.027.07c-.02.053-.042.115-.066.186l.949.316.949.316c.028-.085.051-.142.087-.238a2.36 2.36 0 0 0 .057-.167c.016-.053.053-.185.053-.348h-1Zm-.146.437-.98-.196c-.035.173-.069.324-.098.46a6.937 6.937 0 0 0-.056.293 1.29 1.29 0 0 0-.012.172h2a.799.799 0 0 1-.006.098l.002-.01.028-.134c.025-.118.064-.296.102-.487l-.98-.196Zm-.146.729h-1c0 .395.202.67.348.816.143.144.304.237.423.297l.448-.895.447-.894c-.026-.013.025.008.096.078a.848.848 0 0 1 .238.598h-1Zm.219.218v1a.927.927 0 0 1-.831-.516.913.913 0 0 1-.096-.378v-.032h1l1-.001v-.016l-.001-.018a.927.927 0 0 0-.014-.141 1.064 1.064 0 0 0-1.058-.897v1Zm.073.073h-1a.926.926 0 0 1 .516-.83.911.911 0 0 1 .379-.096h.031v1c0 1 .001 1 .002 1h.007l.008-.001h.018a1.106 1.106 0 0 0 .45-.114 1.064 1.064 0 0 0 .589-.959h-1Zm-.073.073v-1c.144 0 .248.037.259.04l-.005-.002-.066-.023a1.674 1.674 0 0 0-.553-.088v2c-.002 0-.014 0-.034-.003a.328.328 0 0 1-.045-.012l.01.004.06.021c.052.018.193.063.374.063v-1Zm-.365-.073v-1a.847.847 0 0 1 .343.072l-.005-.003a1.82 1.82 0 0 0-.15-.066 1.154 1.154 0 0 0-.406-.076v2a.848.848 0 0 1-.343-.071l.005.002.05.025c.024.01.059.026.1.042.081.03.224.075.406.075v-1Zm-.218-.073.447-.894c-.395-.197-.792-.178-.957-.178v2a16.399 16.399 0 0 1 .172.003s-.014-.002-.036-.008a.407.407 0 0 1-.073-.028l.447-.895Zm-.51-.072v-1h-.074v2h.074v-1Zm-.073 0v-1a.927.927 0 0 1 .83.516.91.91 0 0 1 .096.378v.031c0 .001 0 .002-1 .002h-1v.003l.001.004v.026a1.102 1.102 0 0 0 .114.45 1.065 1.065 0 0 0 .959.59v-1Zm-.073-.073h1v.032a.96.96 0 0 1-.013.12.938.938 0 0 1-.915.774v-2a1.073 1.073 0 0 0-.958.59 1.092 1.092 0 0 0-.113.45l-.001.018v.014c0 .001 0 .002 1 .002Zm.073-.073v1c.064 0 .587.046.998-.366l-.707-.707-.707-.707a.77.77 0 0 1 .452-.219l.02-.002h-.055v1Zm.291-.073.707.707c.327-.326.44-.771.44-1.217h-2c0 .065-.01.063.005.02a.576.576 0 0 1 .141-.217l.707.707Zm.146-.51.949.316c.12-.362.124-.628.124-.753h-2a.598.598 0 0 1-.002.04.43.43 0 0 1-.02.08l.95.317Zm.073-.437h1a1.25 1.25 0 0 0-.05-.34c-.016-.057-.036-.117-.047-.15a3.252 3.252 0 0 1-.079-.263l-.97.243-.97.242c.046.185.093.325.122.411l.019.057a.829.829 0 0 1-.025-.2h1Zm-.146-.51.949-.317-.11-.328-.109-.328-.948.317-.95.316.11.328.11.328.948-.316Zm-.218-.656.948-.317c-.076-.227-.207-.575-.46-.828l-.707.708-.707.707a.637.637 0 0 1-.07-.084c-.01-.015-.012-.02-.008-.012l.02.047c.01.024.022.056.035.095l.949-.316Zm-.22-.438.708-.707c-.023-.023-.112-.114-.216-.193a1.183 1.183 0 0 0-.71-.245v2a.865.865 0 0 1-.346-.072.726.726 0 0 1-.144-.083.143.143 0 0 1-.03-.024l.032.032.707-.707Zm-.218-.145v-1a.927.927 0 0 1 .83.516.908.908 0 0 1 .097.377v.031c0 .001 0 .002-1 .003-1 0-1 .001-1 .002v.015l.001.018a1.126 1.126 0 0 0 .114.449 1.064 1.064 0 0 0 .958.589v-1Zm-.073-.073h1a.926.926 0 0 1-.516.83.91.91 0 0 1-.378.096h-.017l-.008.001h-.006c-.001 0-.002 0-.002-1v-1h-.033a1.102 1.102 0 0 0-.45.114 1.064 1.064 0 0 0-.59.959h1Zm.073-.073v1h.073v-2h-.073v1Zm.073 0-.316.949c.086.028.142.051.238.087.04.015.101.038.167.057.053.016.186.053.348.053v-2a.784.784 0 0 1 .212.027l.005.002a1.063 1.063 0 0 1-.03-.011l-.052-.02a6.22 6.22 0 0 0-.256-.093l-.316.949Zm.437.146-.447.894c.122.061.235.096.314.116.077.02.153.035.192.043l.076.016c.008.002-.023-.005-.072-.029l.447-.895.448-.894a1.616 1.616 0 0 0-.314-.116c-.077-.02-.153-.035-.193-.043a1.674 1.674 0 0 1-.075-.016c-.009-.002.023.005.072.03l-.448.894Zm.51.145v1h.074v-2h-.074v1Zm.073 0v1c.043 0-.01.002-.068-.004-.05-.006-.332-.036-.575-.28-.243-.243-.273-.524-.279-.575-.006-.057-.005-.11-.005-.068h2v-.044a1.033 1.033 0 0 0-.302-.727 1.032 1.032 0 0 0-.726-.301h-.045v1Zm.073.073-.707-.707-.073.073.707.707.707.707.073-.072-.707-.708Zm-.073.073v-1c-.01 0-.22-.007-.407.04a1.06 1.06 0 0 0-.812 1.034h2a.94.94 0 0 1-.802.924.41.41 0 0 1-.032.003h.053v-1Zm-.218.073-.316.949a.706.706 0 0 1-.334-.229c-.03-.04-.03-.053.002.019.03.067.064.151.12.29.052.13.117.29.197.47l.914-.406.914-.406a11.94 11.94 0 0 1-.17-.404c-.046-.116-.1-.25-.151-.365-.069-.152-.29-.676-.86-.867l-.316.95Z" fill="#0F0E0E" mask="url(#a)"/><path d="m24.89 2.566.113.343h1.418l-.837.59-.305.214.12.353.325.966-.867-.62-.291-.208-.29.208-.87.62.328-.966.12-.353-.306-.215-.837-.589h1.39l.116-.338.342-1.003.33.998Zm6.625 1.314.114.34h.535l-.108.073-.322.215.127.365.062.179-.192-.133-.283-.197-.284.194-.227.154.07-.197.127-.365-.322-.215-.108-.072h.53l.117-.333.085-.24.079.233Zm-13.719.008.119.333h.529l-.11.074-.319.215.127.364.07.2-.233-.158-.281-.191-.282.19-.232.158.07-.2.127-.363-.319-.215-.11-.074h.53l.118-.333.098-.278.098.278Zm.067 13.218v5.218h.5c.945 0 2.219.382 3.309 1.086.205.133.4.275.584.425a9.196 9.196 0 0 0-1.194-.49c-1.228-.41-2.54-.59-3.73-.629v-5.61a3.62 3.62 0 0 1 .531 0Zm13.991 0v5.611c-1.586.052-3.41.359-4.969 1.156.197-.164.408-.319.63-.463 1.09-.703 2.364-1.085 3.309-1.085h.5v-5.22c.188-.012.342-.012.53 0Z" fill="#fff" stroke="#000"/><path d="M19.665 15.976c1.335.186 2.119.477 2.666.858.59.41.954.96 1.434 1.776v3.96c-.485-.488-.965-.882-1.496-1.194-.75-.441-1.572-.703-2.604-.862v-4.538Zm9.857 4.539c-1.003.16-1.822.421-2.575.859-.54.313-1.031.71-1.526 1.202V18.61c.48-.816.844-1.365 1.435-1.776.546-.38 1.33-.672 2.666-.858v4.54Z" fill="#fff" stroke="#000"/><path d="m73.154 5.756.7 5.04-.588.196c-2.044-3.248-3.752-4.704-6.02-4.704-1.708 0-2.8.868-2.8 2.296 0 2.128 2.492 3.136 5.068 4.424 2.8 1.372 5.684 2.996 5.684 7.028 0 4.62-3.668 6.412-7.812 6.412-2.324 0-4.648-.588-6.132-1.288l-.756-5.796.588-.196c2.576 4.228 4.536 6.076 7.252 6.076 2.016 0 3.248-1.148 3.248-2.884 0-2.38-2.352-3.472-4.9-4.732-2.8-1.4-5.74-2.884-5.74-6.608 0-4.312 3.724-5.936 7.756-5.936 1.54 0 3.108.252 4.452.672Zm18.124 20.188V26h-7.644v-.056c.924-2.156 1.288-3.332 1.288-6.272V6.652l-1.344.084c-1.568.14-4.032 3.668-5.404 5.628l-.588-.168 1.148-6.692h17.444l1.148 6.692-.588.168c-1.4-1.96-3.836-5.488-5.404-5.628l-1.344-.084v13.02c0 2.94.364 4.116 1.288 6.272Zm12.164.056h-5.768v-.056c1.232-1.148 2.184-2.94 3.024-5.236l5.516-15.288h3.444l5.572 15.428c.784 2.184 1.624 3.892 2.66 5.096V26h-8.456v-.056c1.036-1.288 1.344-3.192.504-5.6l-.56-1.596h-6.636l-.336.896c-1.176 3.164-.448 5.208 1.036 6.3V26Zm-.28-8.484h5.796l-2.856-8.148-2.94 8.148ZM120.726 26v-.056c.924-2.044 1.288-3.192 1.288-6.02V11.58c0-2.828-.364-3.976-1.288-6.02v-.056c3.304 0 4.676-.112 8.456-.112 7.588 0 12.32 3.612 12.32 10.248 0 6.636-4.48 10.36-12.32 10.36h-8.456Zm15.288-10.108c0-6.328-1.792-9.24-6.692-9.24-.476 0-1.484.056-2.268.14v17.836a32.08 32.08 0 0 0 2.548.112c5.012-.056 6.412-3.276 6.412-8.848Zm18.526 10.556c-4.788 0-8.484-2.324-8.484-7.952V11.86c0-2.968-.364-4.144-1.288-6.3v-.056h7.7v.056c-.924 2.044-1.316 3.332-1.316 6.272v6.916c0 4.788 1.988 6.076 4.62 6.076 3.92 0 5.152-2.912 5.152-6.664v-6.104c0-3.052-.588-4.284-2.52-6.496v-.056h6.356l.056.056c-1.792 2.212-2.52 3.5-2.52 6.524v5.88c0 4.76-1.68 8.484-7.756 8.484ZM184.156 26v-.056c.924-2.156 1.288-3.332 1.288-6.3V9.592L178.5 25.384h-1.26l-7.056-16.016.084 10.136c.028 2.94.84 4.228 2.716 6.44V26h-6.272v-.056c1.568-2.212 2.184-3.444 2.184-6.468v-9.1c-.14-2.184-.84-3.164-2.352-4.816v-.056h7.336l5.964 13.636 5.992-13.636h7v.056c-1.68 1.82-2.352 2.856-2.352 5.572v8.54c0 2.884.392 4.116 1.288 6.272V26h-7.616Z" fill="#000"/><path d="M60.173 50v-8.195h1.078v4.609l-.264-.11 3.916-4.499h1.353l-3.29 3.795.056-.77L66.42 50h-1.287l-2.596-3.894-1.287 1.474V50h-1.078Zm7.283 0v-8.195h.902l4.708 6.622-.407.044v-6.666h1.089V50h-.902l-4.686-6.666.374-.044V50h-1.078Zm12.037.132c-.58 0-1.122-.103-1.628-.308a4.122 4.122 0 0 1-1.33-.891 4.18 4.18 0 0 1-.88-1.342 4.436 4.436 0 0 1-.32-1.694c0-.616.106-1.18.32-1.694a4.18 4.18 0 0 1 .88-1.342 4.005 4.005 0 0 1 1.32-.88 4.318 4.318 0 0 1 1.638-.308c.587 0 1.13.106 1.628.319a3.86 3.86 0 0 1 1.32.88c.381.374.678.818.891 1.331.22.513.33 1.078.33 1.694 0 .609-.11 1.173-.33 1.694-.213.513-.51.96-.89 1.342a3.998 3.998 0 0 1-1.32.891 4.235 4.235 0 0 1-1.629.308Zm0-1.001c.455 0 .87-.08 1.243-.242.374-.169.697-.4.968-.693.279-.3.491-.645.638-1.034a3.46 3.46 0 0 0 .231-1.265c0-.447-.077-.865-.23-1.254a3.012 3.012 0 0 0-.639-1.023 2.761 2.761 0 0 0-.968-.693 2.989 2.989 0 0 0-1.243-.253c-.447 0-.858.084-1.232.253-.374.161-.7.392-.979.693a3.258 3.258 0 0 0-.638 1.023 3.373 3.373 0 0 0-.23 1.254c0 .447.076.869.23 1.265.154.389.367.733.638 1.034.279.293.605.524.98.693.373.161.784.242 1.231.242Zm7.034.869-2.3-8.195h1.133l1.925 7.216h-.263l2.001-7.216h1.133l1.991 7.216h-.275l1.936-7.216h1.133L92.642 50h-1.198l-2.002-7.183h.286L87.726 50h-1.2Zm9.45 0v-8.195h1.078v7.205h3.597V50h-4.675Zm5.886 0v-8.195h5.335v.99h-4.257v2.596h4.037v.99h-4.037v2.629h4.257V50h-5.335Zm6.671 0v-8.195h2.684c.829 0 1.551.169 2.167.506a3.53 3.53 0 0 1 1.43 1.43c.337.609.506 1.327.506 2.156 0 .821-.169 1.54-.506 2.156a3.603 3.603 0 0 1-1.43 1.441c-.616.337-1.338.506-2.167.506h-2.684Zm1.078-.99h1.617c.609 0 1.133-.128 1.573-.385a2.618 2.618 0 0 0 1.034-1.078c.242-.47.363-1.02.363-1.65 0-.638-.125-1.188-.374-1.65a2.548 2.548 0 0 0-1.034-1.067c-.44-.257-.961-.385-1.562-.385h-1.617v6.215Zm10.859 1.122a4.128 4.128 0 0 1-1.606-.308 3.826 3.826 0 0 1-1.276-.891 4.237 4.237 0 0 1-.847-1.342 4.638 4.638 0 0 1-.297-1.683c0-.616.099-1.18.297-1.694.198-.513.477-.96.836-1.342.36-.381.785-.675 1.276-.88a4.002 4.002 0 0 1 1.606-.319c.565 0 1.071.099 1.518.297.455.198.836.455 1.144.77.316.315.539.653.671 1.012l-.968.473a2.437 2.437 0 0 0-.891-1.133c-.403-.279-.894-.418-1.474-.418-.572 0-1.081.136-1.529.407-.44.271-.784.649-1.034 1.133-.249.484-.374 1.049-.374 1.694 0 .638.125 1.199.374 1.683a2.89 2.89 0 0 0 1.045 1.133c.448.271.957.407 1.529.407.499 0 .95-.106 1.353-.319.404-.213.723-.506.957-.88.235-.374.352-.807.352-1.298v-.506l.495.462h-3.168v-.935h3.762v.726a3.9 3.9 0 0 1-.297 1.551 3.565 3.565 0 0 1-.814 1.188 3.667 3.667 0 0 1-1.199.748 3.954 3.954 0 0 1-1.441.264Zm5.208-.132v-8.195h5.335v.99h-4.257v2.596h4.037v.99h-4.037v2.629h4.257V50h-5.335Zm10.473 0v-8.195h1.078V50h-1.078Zm5.717.132c-.521 0-.998-.095-1.43-.286a3.273 3.273 0 0 1-1.1-.803 3.078 3.078 0 0 1-.649-1.133l.935-.385c.198.528.491.935.88 1.221.396.279.858.418 1.386.418.322 0 .605-.051.847-.154.242-.103.429-.246.561-.429.139-.19.209-.41.209-.66 0-.345-.099-.616-.297-.814-.191-.205-.473-.36-.847-.462l-1.507-.462c-.594-.183-1.049-.473-1.364-.869a2.125 2.125 0 0 1-.473-1.364c0-.447.106-.84.319-1.177.22-.345.52-.612.902-.803a2.863 2.863 0 0 1 1.32-.297c.491 0 .935.088 1.331.264.403.176.744.414 1.023.715.278.293.484.63.616 1.012l-.924.385c-.176-.462-.44-.81-.792-1.045-.352-.242-.767-.363-1.243-.363a1.87 1.87 0 0 0-.781.154c-.22.095-.393.238-.517.429a1.193 1.193 0 0 0-.176.66c0 .3.095.568.286.803.19.235.48.414.869.539l1.375.407c.645.198 1.133.48 1.463.847.33.367.495.821.495 1.364 0 .447-.118.843-.352 1.188a2.333 2.333 0 0 1-.957.814c-.404.19-.873.286-1.408.286Zm8.098-.132v-8.195h2.893c.542 0 1.019.103 1.43.308.41.205.729.499.957.88.234.381.352.829.352 1.342 0 .513-.118.96-.352 1.342a2.374 2.374 0 0 1-.957.88c-.404.205-.88.308-1.43.308h-1.815V50h-1.078Zm1.078-4.125h1.848c.33 0 .616-.062.858-.187s.429-.304.561-.539c.132-.235.198-.506.198-.814 0-.315-.066-.587-.198-.814a1.326 1.326 0 0 0-.561-.539 1.85 1.85 0 0 0-.858-.187h-1.848v3.08Zm9.928 4.257c-.58 0-1.122-.103-1.628-.308a4.118 4.118 0 0 1-1.331-.891 4.169 4.169 0 0 1-.88-1.342 4.43 4.43 0 0 1-.319-1.694c0-.616.106-1.18.319-1.694a4.18 4.18 0 0 1 .88-1.342 3.999 3.999 0 0 1 1.32-.88 4.317 4.317 0 0 1 1.639-.308 4.11 4.11 0 0 1 1.628.319 3.86 3.86 0 0 1 1.32.88c.381.374.678.818.891 1.331.22.513.33 1.078.33 1.694 0 .609-.11 1.173-.33 1.694-.213.513-.51.96-.891 1.342a3.998 3.998 0 0 1-1.32.891 4.239 4.239 0 0 1-1.628.308Zm0-1.001c.454 0 .869-.08 1.243-.242.374-.169.696-.4.968-.693.278-.3.491-.645.638-1.034a3.46 3.46 0 0 0 .231-1.265c0-.447-.077-.865-.231-1.254a3.028 3.028 0 0 0-.638-1.023 2.768 2.768 0 0 0-.968-.693 2.99 2.99 0 0 0-1.243-.253 2.96 2.96 0 0 0-1.232.253 2.865 2.865 0 0 0-.979.693 3.245 3.245 0 0 0-.638 1.023 3.373 3.373 0 0 0-.231 1.254 3.383 3.383 0 0 0 .869 2.299c.278.293.605.524.979.693.374.161.784.242 1.232.242Zm7.033.869-2.299-8.195h1.133l1.925 7.216h-.264l2.002-7.216h1.133l1.991 7.216h-.275l1.936-7.216h1.133L174.122 50h-1.199l-2.002-7.183h.286L169.205 50h-1.199Zm9.45 0v-8.195h5.335v.99h-4.257v2.596h4.037v.99h-4.037v2.629h4.257V50h-5.335Zm6.671 0v-8.195h2.893c.543 0 1.019.103 1.43.308.411.205.73.499.957.88.235.381.352.829.352 1.342 0 .58-.147 1.07-.44 1.474a2.424 2.424 0 0 1-1.188.869L190.034 50h-1.254l-2.002-3.553.715.418h-2.288V50h-1.078Zm1.078-4.125h1.848c.323 0 .605-.062.847-.187s.429-.304.561-.539c.139-.235.209-.506.209-.814 0-.315-.07-.587-.209-.814a1.326 1.326 0 0 0-.561-.539 1.824 1.824 0 0 0-.847-.187h-1.848v3.08Z" fill="#190909"/></svg>