<svg width="194" height="56" fill="none" xmlns="http://www.w3.org/2000/svg"><path fill-rule="evenodd" clip-rule="evenodd" d="M33.666 41.062s-.802-1.384-2.04-1.894c-1.24-.51-2.77.656-1.604 1.894 1.094 1.24 3.644 0 3.644 0Zm-3.57-6.194s.8 1.385.655 2.77c-.146 1.311-1.967 2.04-2.477.437-.51-1.604 1.821-3.207 1.821-3.207Zm10.128-25.65s1.312-.801 2.55-.728c1.24.073 1.968 1.749.51 2.332-1.457.583-3.06-1.604-3.06-1.604Zm5.611-3.497s-1.239.801-1.749 1.967c-.437 1.166.729 2.55 1.822 1.458 1.239-1.094-.073-3.425-.073-3.425Zm-4.154 6.704s1.458-.51 2.624-.219c1.239.292 1.603 2.113.073 2.332-1.53.364-2.697-2.113-2.697-2.113Zm6.194-2.405s-1.384.583-2.113 1.603c-.656 1.093.219 2.623 1.53 1.749 1.385-.802.583-3.352.583-3.352Zm-5.465 6.048s1.53-.364 2.696.146c1.166.51 1.312 2.332-.291 2.405-1.603 0-2.405-2.55-2.405-2.55Zm6.558-1.603s-1.457.364-2.331 1.312c-.802.947-.146 2.696 1.311 1.967 1.458-.583 1.02-3.279 1.02-3.279Zm-6.485 5.1s1.53-.072 2.623.657c1.093.728.875 2.55-.728 2.331-1.603-.291-1.895-2.987-1.895-2.987Zm6.777-.364s-1.53.073-2.55.875c-1.02.802-.656 2.623.947 2.186 1.53-.364 1.603-3.06 1.603-3.06Zm-7.433 3.79s1.53.218 2.478 1.093c.947.874.437 2.696-1.093 2.113-1.53-.51-1.385-3.206-1.385-3.206Zm6.777.874s-1.53-.218-2.696.437c-1.093.656-1.093 2.478.51 2.332 1.676-.073 2.186-2.769 2.186-2.769Zm-7.943 2.26s1.458.582 2.186 1.675c.73 1.093-.218 2.696-1.603 1.822-1.384-.875-.583-3.498-.583-3.498Zm6.413 2.404s-1.457-.51-2.696-.219c-1.24.364-1.676 2.186 0 2.405 1.603.291 2.696-2.186 2.696-2.186Zm-8.307.51s1.384.801 1.822 2.04c.51 1.239-.656 2.696-1.895 1.53-1.166-1.093.073-3.57.073-3.57Zm5.902 3.57s-1.384-.801-2.696-.655c-1.312.145-2.04 1.894-.437 2.404s3.133-1.748 3.133-1.748Zm-8.307-1.02s1.166 1.093 1.457 2.332c.292 1.312-1.165 2.55-2.186 1.166-1.02-1.312.73-3.498.73-3.498Zm5.174 4.591s-1.239-1.02-2.55-1.166c-1.312-.146-2.332 1.457-.875 2.332 1.457.802 3.425-1.166 3.425-1.166Zm-8.089-2.623s.948 1.311 1.02 2.623c.073 1.312-1.603 2.259-2.404.802-.656-1.603 1.384-3.425 1.384-3.425Zm4.372 5.538s-1.02-1.239-2.258-1.603c-1.312-.365-2.624 1.02-1.312 2.113 1.239 1.02 3.57-.51 3.57-.51Zm-22.225 1.967s.801-1.384 2.04-1.894c1.24-.51 2.77.656 1.604 1.894-1.093 1.24-3.644 0-3.644 0Zm3.57-6.194s-.8 1.385-.655 2.77c.145 1.311 1.967 2.04 2.477.437.51-1.604-1.821-3.207-1.821-3.207Zm-10.2-25.65s-1.312-.801-2.55-.728c-1.24.073-1.968 1.749-.51 2.332 1.53.583 3.06-1.604 3.06-1.604ZM3.352 5.721s1.239.801 1.749 1.967c.437 1.166-.729 2.55-1.822 1.458-1.166-1.094.073-3.425.073-3.425Zm4.226 6.704s-1.457-.51-2.623-.219c-1.239.292-1.603 2.113-.073 2.332 1.53.364 2.696-2.113 2.696-2.113ZM1.312 10.02s1.384.583 2.113 1.603c.656 1.093-.219 2.623-1.53 1.749-1.385-.802-.583-3.352-.583-3.352Zm5.465 6.048s-1.53-.364-2.696.146c-1.166.51-1.312 2.332.291 2.405 1.676 0 2.405-2.55 2.405-2.55ZM.29 14.465s1.458.364 2.332 1.312c.802.947.146 2.696-1.311 1.967-1.458-.583-1.02-3.279-1.02-3.279Zm6.486 5.1s-1.53-.072-2.623.657c-1.094.728-.875 2.55.728 2.331 1.53-.291 1.895-2.987 1.895-2.987ZM0 19.202s1.53.073 2.55.875c1.02.802.656 2.623-.947 2.186C.073 21.898 0 19.202 0 19.202Zm7.36 3.79s-1.53.218-2.478 1.093c-.947.874-.437 2.696 1.093 2.113 1.603-.51 1.385-3.206 1.385-3.206Zm-6.704.874s1.53-.218 2.696.437c1.093.656 1.093 2.478-.51 2.332-1.676-.073-2.186-2.769-2.186-2.769Zm7.943 2.26s-1.458.582-2.186 1.675c-.73 1.093.218 2.696 1.603 1.822 1.384-.875.583-3.498.583-3.498ZM2.186 28.53s1.457-.51 2.696-.219c1.239.364 1.676 2.186 0 2.405-1.603.291-2.696-2.186-2.696-2.186Zm8.307.51s-1.384.801-1.822 2.04c-.51 1.239.656 2.696 1.895 1.53 1.166-1.093-.073-3.57-.073-3.57Zm-5.975 3.57s1.384-.801 2.696-.655c1.312.145 2.04 1.894.437 2.404-1.53.51-3.133-1.748-3.133-1.748Zm8.38-1.02s-1.166 1.093-1.458 2.332c-.291 1.312 1.166 2.55 2.187 1.166 1.02-1.312-.73-3.498-.73-3.498ZM7.65 36.18s1.24-1.02 2.55-1.166c1.312-.146 2.332 1.457.875 2.332-1.457.802-3.425-1.166-3.425-1.166Zm8.089-2.623s-.948 1.311-1.02 2.623c-.073 1.312 1.603 2.259 2.404.802.729-1.603-1.384-3.425-1.384-3.425Zm-4.3 5.538s1.02-1.239 2.26-1.603c1.311-.365 2.623 1.02 1.311 2.113-1.239 1.02-3.57-.51-3.57-.51Z" fill="#fff"/><path d="M24.63 35.305c8.6-4.225 12.388-14.645 13.19-22.953-4.081-1.895-8.526-3.061-13.19-3.061s-9.109 1.166-13.19 3.06c.802 8.308 4.519 18.728 13.19 22.954Z" stroke="#fff" stroke-width="3" stroke-miterlimit="22.926"/><path fill-rule="evenodd" clip-rule="evenodd" d="M47.875 56c-3.498-1.312-7.433-2.113-11.586-2.478v-1.676c1.457.365 2.842.802 4.153 1.24l1.458.51v-5.83c2.113.364 4.08.947 5.902 1.603l-4.445 1.676L47.875 56ZM1.312 56c3.497-1.312 7.432-2.113 11.586-2.478v-1.676c-1.458.365-2.842.802-4.154 1.24l-1.457.51v-5.83c-2.113.364-4.08.947-5.903 1.603l4.445 1.676L1.312 56Z" fill="#fff"/><path fill-rule="evenodd" clip-rule="evenodd" d="M8.38 45.507v6.558c9.546-3.57 22.954-3.57 32.572 0v-6.558c-9.4-3.352-23.245-3.352-32.572 0Z" fill="#fff"/><path d="m10.347 46.527.656-.146c.073 0 .146-.073.219-.073.145-.073.218-.073.291-.073h.146c0 .073 0 .073-.073.073s-.146.073-.219.146v.437c.073.219.073.437.146.656.073.364.219.656.292.801a.568.568 0 0 0 .29.292c.147.073.292.073.511 0 .219-.073.364-.146.437-.219.073-.145.146-.291.073-.437 0-.218-.073-.583-.218-1.093-.073-.291-.146-.51-.22-.583-.072-.073-.145-.146-.29-.146-.073 0-.146 0-.146-.072 0-.073 0-.073.073-.073h.145c.073 0 .146 0 .219-.073.073 0 .146-.073.291-.073.073 0 .146-.073.146-.073h.146s0 .073-.073.073a.157.157 0 0 0-.146.146c-.073.072-.073.145 0 .291 0 .146.073.51.219 1.02.073.365.146.656.073.802 0 .145-.146.364-.292.437-.145.146-.364.219-.656.291-.218.073-.364.073-.582.073-.146 0-.292 0-.438-.072-.073-.073-.218-.146-.291-.22-.073-.072-.146-.218-.146-.436l-.291-1.093c-.073-.146-.073-.292-.146-.365-.073-.073-.073-.145-.146-.145h-.291v-.073h.291Zm4.154-.948c.801.656 1.457 1.166 2.04 1.53v-.218l-.146-.801c-.073-.22-.073-.365-.145-.438-.073-.073-.073-.145-.146-.145s-.146-.073-.292-.073c-.073 0-.073 0-.073-.073s0-.073.073-.073h.073c.073 0 .219 0 .365-.073.218 0 .364-.073.437-.073h.073c.072 0 .072 0 .072.073s0 .073-.072.073c-.073 0-.146.073-.219.146-.073.073-.073.218-.073.437l.219 1.166.145.874c0 .073 0 .146-.072.146h-.073s-.146-.073-.365-.219c-.218-.145-.51-.364-.947-.728a5.462 5.462 0 0 1-.874-.73c0 .074.072.365.218 1.021.073.219.073.364.146.51.073.146.146.219.219.219.072 0 .218.073.291 0 .073 0 .073 0 .073.073 0 .072 0 .073-.073.073h-.146c-.072 0-.218 0-.291.072-.219.073-.365.073-.437.073h-.146c-.073 0-.073 0-.073-.073 0 0 0-.072.146-.072.146-.073.218-.146.291-.22v-.436c-.146-.729-.218-1.166-.291-1.312l-.219-.437c-.146-.146-.218-.146-.364-.146-.073 0-.073 0-.073-.073s0-.073.073-.073h.655Zm2.842-.51h.582l.656-.073c.073 0 .073 0 .073.073 0 0 0 .073-.073.073-.145 0-.218.073-.218.073s-.073.073-.073.219c0 .145 0 .364.073.728.073.438.073.802.146 1.02.072.22.072.365.145.438.073.073.146.073.219.073.073 0 .073 0 .145.072 0 .073 0 .073-.072.073h-.073c-.292 0-.437 0-.583.073-.219 0-.364.073-.437.073h-.146c-.073 0-.073 0-.073-.073 0 0 0-.073.073-.073.146 0 .218-.072.218-.145s.073-.219 0-.365c0-.218-.072-.51-.072-.947-.073-.437-.073-.729-.146-.874 0-.146-.073-.22-.146-.292-.073 0-.145-.073-.218-.073-.073 0-.073 0 0-.073-.073 0-.073 0 0 0Zm3.352 2.55h-.146l-.437-1.02c-.146-.218-.292-.582-.438-.947-.145-.364-.291-.583-.364-.656l-.146-.145h-.146c-.072 0-.072 0-.072-.073s0-.073.072-.073h.584c.218 0 .364 0 .582-.073h.073c.073 0 .073 0 .073.073 0 0 0 .073-.073.073-.145 0-.218.146-.218.218 0 .22.218.802.656 1.75.072-.292.218-.657.291-.948l.146-.583v-.219c0-.072 0-.145-.073-.145-.073-.073-.073-.073-.146-.073s-.073 0-.073-.073 0-.073.073-.073h.875c.072 0 .072 0 .072.073 0 0 0 .073-.072.073-.073 0-.146.073-.219.073-.073.072-.073.145-.146.218-.073.073-.145.292-.218.656l-.292 1.02c-.073.365-.218.729-.218.875Zm3.862-2.987c.072.219.073.437.145.656 0 .073 0 .073-.073.073 0 0-.072 0-.072-.073-.146-.219-.292-.364-.438-.437-.145-.073-.291-.073-.51-.073h-.364v1.093h.146c.073 0 .218 0 .291-.073.073 0 .146-.073.219-.146.073-.073.073-.145.073-.145 0-.073 0-.073.073-.073.072 0 .072 0 .072.073v.947c0 .073 0 .073-.072.073 0 0-.073-.073-.073-.146 0-.146-.073-.219-.219-.291-.073-.073-.291-.073-.51-.073v1.02c0 .073.073.145.146.145.073.073.145.073.291.073.51 0 .875-.145 1.093-.51 0-.073.073-.073.073-.073.073 0 .073 0 .073.073v.073l-.146.583H22.37c-.072 0-.072 0-.072-.073s0-.073.073-.073c.145 0 .218-.073.291-.145.073-.073.073-.219.073-.438v-1.749c0-.072 0-.145-.073-.145s-.146-.073-.219-.073c-.072 0-.073 0-.073-.073s0-.073.073-.073h.51l1.604.073Zm2.186 1.385c.218 0 .364.072.437.218.146.073.218.292.291.51.073.219.073.438.146.51.073.073.146.146.292.146.073 0 .073 0 .073.073s-.073.073-.146.073l-.802-.073c-.073-.073-.146-.219-.146-.437 0-.292-.072-.51-.072-.583-.073-.146-.073-.219-.146-.292-.073-.072-.146-.072-.292-.072h-.145c0 .51-.073.801-.073.947 0 .145 0 .218.073.218.072.073.145.073.218.073.073 0 .073 0 .073.073s0 .073-.073.073l-.656-.073h-.583c-.072 0-.072 0-.072-.073s0-.073.072-.073c.073 0 .146 0 .22-.073.072-.072.145-.218.145-.51v-.364l.073-.801v-.73c0-.072-.146-.145-.292-.145-.073 0-.073 0-.073-.073s.073-.073.146-.073h1.385c.291 0 .582.073.728.219.146.146.292.291.219.51a.557.557 0 0 1-.146.364c-.073.073-.219.219-.364.219-.219.219-.365.219-.51.219Zm-.583-.073h.073c.145 0 .218 0 .364-.073s.219-.146.291-.219c.073-.073.073-.218.073-.291 0-.146-.072-.292-.145-.438-.073-.072-.22-.145-.438-.145h-.218v1.166Zm3.935-.875.073-.073c0-.072.072-.073.072-.073.073 0 .073.073.073.073v.656c0 .073 0 .073-.073.073h-.072s0-.073-.073-.146c-.073-.145-.146-.291-.292-.364-.146-.146-.291-.219-.437-.219-.146 0-.291 0-.364.073-.073.073-.146.146-.146.292 0 .073 0 .218.073.291.073.073.218.146.437.292.364.145.583.291.729.51.145.146.145.364.145.583a.662.662 0 0 1-.218.51c-.146.146-.219.218-.365.291-.145.073-.291.073-.51.073-.145 0-.218-.073-.364-.073-.146-.073-.219-.145-.364-.218 0 0-.073.073-.073.145 0 .073-.073.073-.073.073s-.073-.072-.073-.145v-.875c0-.073 0-.073.073-.073 0 0 .073.073.073.146.073.219.146.437.291.583.146.146.292.219.51.291.146 0 .292 0 .438-.072.145-.073.145-.219.218-.292 0-.146 0-.219-.073-.364-.073-.073-.218-.219-.51-.292-.218-.073-.364-.218-.51-.291-.073-.073-.219-.219-.219-.292-.072-.145-.072-.291-.072-.364 0-.219.145-.437.291-.51.219-.146.437-.219.729-.146.218-.291.437-.218.656-.073Zm.947 0a.55.55 0 0 1 .291.073c.146 0 .22.073.292.073l.656.073c.073 0 .073 0 .073.073 0 0 0 .073-.073.073h-.219c-.073 0-.073.073-.146.218-.072.073-.073.365-.145.729-.073.437-.146.801-.146 1.02v.437c0 .073.073.073.218.146.073 0 .073 0 .073.073s-.073.073-.145.073h-.073c-.292-.073-.437-.073-.51-.146-.219 0-.365-.073-.51-.073h-.146c-.073 0-.073 0-.073-.073 0 0 0-.073.073-.073.146 0 .218 0 .291-.072.073-.073.073-.146.146-.365.073-.218.073-.51.146-.874.073-.437.073-.729.073-.875v-.291c0-.073-.073-.073-.219-.073-.073 0-.073-.073-.073-.073.073-.073.146-.073.146-.073Zm1.749.219c.729.146 1.239.291 1.603.364.291.073.583.073.874.146.146 0 .219 0 .292.073h.146v.729c0 .072-.073.072-.073.072s-.073-.072-.073-.145c0-.146-.073-.219-.146-.365-.073-.072-.146-.145-.291-.218-.073-.073-.292-.073-.51-.146-.073.219-.146.51-.22.802-.072.364-.145.655-.145.947-.073.291-.073.51-.073.583 0 .073 0 .146.073.146.073.072.146.072.292.145.073 0 .073.073.073.073 0 .073 0 .073-.073.073h-.073l-.437-.073c-.365-.073-.51-.073-.583-.146l-.292-.072h-.145s-.073 0-.073-.073.073-.073.073-.073h.29c.074-.073.147-.146.147-.219.072-.145.072-.364.145-.729.146-.582.219-1.093.219-1.457a1.423 1.423 0 0 0-.51-.073c-.073 0-.219 0-.291.073a.568.568 0 0 0-.292.292c0 .072-.073.072-.073.072-.073 0-.073 0-.073-.072 0 0 0-.073.073-.292.073-.218.146-.364.146-.437Zm4.59 2.259c.51-.437.802-.656.802-.802v-.073c0-.072-.073-.072-.146-.145-.072 0-.072-.073-.072-.073 0-.073.072-.073.072-.073h.073c.146.073.292.073.365.146.072 0 .218.073.364.073h.073c.073 0 .073 0 .073.072 0 0 0 .073-.073.073h-.292c-.072 0-.218.073-.364.219a3.162 3.162 0 0 1-.51.437.873.873 0 0 0-.291.292c0 .073-.073.218-.146.437-.073.364-.146.656-.146.728 0 .073.073.146.219.22.073 0 .073.072.073.072 0 .073-.073.073-.073.073-.073 0-.146-.073-.365-.073-.073 0-.146-.073-.218-.073-.146-.073-.292-.073-.51-.073h-.073c-.073 0-.073-.073-.073-.073s0-.072.073-.072c.145 0 .218 0 .291-.073.073-.073.146-.219.146-.51.073-.219.073-.365.073-.438 0-.073-.073-.218-.146-.51l-.219-.656c-.072-.218-.145-.364-.218-.437-.073-.073-.146-.145-.219-.145-.073 0-.073-.073-.073-.073 0-.073.073-.073.073-.073h.073c.219.073.364.145.437.145.146.073.365.073.51.146h.073c.073 0 .073 0 .073.073l-.073.073c-.146 0-.218 0-.218.073.218.073.291.437.583 1.093Z" fill="#081933"/><path fill-rule="evenodd" clip-rule="evenodd" d="m24.566 0 .798 2.41H28l-2.128 1.497.822 2.433-2.128-1.521-2.128 1.52.822-2.432-2.128-1.497h2.612L24.566 0Zm6.88 2.113.542 1.608h1.823l-1.478.988.567 1.63-1.454-1.01-1.478 1.01.567-1.63-1.478-.988h1.823l.566-1.608Zm-13.748 0 .57 1.608h1.808l-1.462.988.57 1.63-1.486-1.01-1.486 1.01.57-1.63-1.461-.988h1.808l.57-1.608Zm6.568 24.01c-.438-2.623-3.79-4.299-5.903-4.299V16.65c-.656-.072-.874-.072-1.53 0v6.559c2.55 0 5.83.655 7.433 2.914Zm.655 0c.438-2.623 3.79-4.299 5.903-4.299V16.65c.656-.072.874-.072 1.53 0v6.559c-2.55 0-5.757.655-7.433 2.914Z" fill="#fff"/><path fill-rule="evenodd" clip-rule="evenodd" d="M24.265 23.865v-5.392c-1.02-1.75-1.676-2.696-5.1-3.06v5.537c2.404.292 3.497 1.02 5.1 2.915Zm.656 0v-5.392c1.02-1.75 1.676-2.696 5.101-3.06v5.537c-2.332.292-3.497 1.02-5.1 2.915Z" fill="#fff"/><path d="m73.154 5.756.7 5.04-.588.196c-2.044-3.248-3.752-4.704-6.02-4.704-1.708 0-2.8.868-2.8 2.296 0 2.128 2.492 3.136 5.068 4.424 2.8 1.372 5.684 2.996 5.684 7.028 0 4.62-3.668 6.412-7.812 6.412-2.324 0-4.648-.588-6.132-1.288l-.756-5.796.588-.196c2.576 4.228 4.536 6.076 7.252 6.076 2.016 0 3.248-1.148 3.248-2.884 0-2.38-2.352-3.472-4.9-4.732-2.8-1.4-5.74-2.884-5.74-6.608 0-4.312 3.724-5.936 7.756-5.936 1.54 0 3.108.252 4.452.672Zm18.124 20.188V26h-7.644v-.056c.924-2.156 1.288-3.332 1.288-6.272V6.652l-1.344.084c-1.568.14-4.032 3.668-5.404 5.628l-.588-.168 1.148-6.692h17.444l1.148 6.692-.588.168c-1.4-1.96-3.836-5.488-5.404-5.628l-1.344-.084v13.02c0 2.94.364 4.116 1.288 6.272Zm12.164.056h-5.768v-.056c1.232-1.148 2.184-2.94 3.024-5.236l5.516-15.288h3.444l5.572 15.428c.784 2.184 1.624 3.892 2.66 5.096V26h-8.456v-.056c1.036-1.288 1.344-3.192.504-5.6l-.56-1.596h-6.636l-.336.896c-1.176 3.164-.448 5.208 1.036 6.3V26Zm-.28-8.484h5.796l-2.856-8.148-2.94 8.148ZM120.726 26v-.056c.924-2.044 1.288-3.192 1.288-6.02V11.58c0-2.828-.364-3.976-1.288-6.02v-.056c3.304 0 4.676-.112 8.456-.112 7.588 0 12.32 3.612 12.32 10.248 0 6.636-4.48 10.36-12.32 10.36h-8.456Zm15.288-10.108c0-6.328-1.792-9.24-6.692-9.24-.476 0-1.484.056-2.268.14v17.836a32.08 32.08 0 0 0 2.548.112c5.012-.056 6.412-3.276 6.412-8.848Zm18.526 10.556c-4.788 0-8.484-2.324-8.484-7.952V11.86c0-2.968-.364-4.144-1.288-6.3v-.056h7.7v.056c-.924 2.044-1.316 3.332-1.316 6.272v6.916c0 4.788 1.988 6.076 4.62 6.076 3.92 0 5.152-2.912 5.152-6.664v-6.104c0-3.052-.588-4.284-2.52-6.496v-.056h6.356l.056.056c-1.792 2.212-2.52 3.5-2.52 6.524v5.88c0 4.76-1.68 8.484-7.756 8.484ZM184.156 26v-.056c.924-2.156 1.288-3.332 1.288-6.3V9.592L178.5 25.384h-1.26l-7.056-16.016.084 10.136c.028 2.94.84 4.228 2.716 6.44V26h-6.272v-.056c1.568-2.212 2.184-3.444 2.184-6.468v-9.1c-.14-2.184-.84-3.164-2.352-4.816v-.056h7.336l5.964 13.636 5.992-13.636h7v.056c-1.68 1.82-2.352 2.856-2.352 5.572v8.54c0 2.884.392 4.116 1.288 6.272V26h-7.616ZM60.173 50v-8.195h1.078v4.609l-.264-.11 3.916-4.499h1.353l-3.29 3.795.056-.77L66.42 50h-1.287l-2.596-3.894-1.287 1.474V50h-1.078Zm7.283 0v-8.195h.902l4.708 6.622-.407.044v-6.666h1.089V50h-.902l-4.686-6.666.374-.044V50h-1.078Zm12.037.132c-.58 0-1.122-.103-1.628-.308a4.122 4.122 0 0 1-1.33-.891 4.179 4.179 0 0 1-.88-1.342 4.436 4.436 0 0 1-.32-1.694c0-.616.106-1.18.32-1.694.212-.513.505-.96.88-1.342a4.005 4.005 0 0 1 1.32-.88 4.318 4.318 0 0 1 1.638-.308c.587 0 1.13.106 1.628.319a3.86 3.86 0 0 1 1.32.88c.381.374.678.818.891 1.331.22.513.33 1.078.33 1.694 0 .609-.11 1.173-.33 1.694-.213.513-.51.96-.89 1.342a3.998 3.998 0 0 1-1.32.891 4.235 4.235 0 0 1-1.629.308Zm0-1.001c.455 0 .87-.08 1.243-.242.374-.169.697-.4.968-.693.279-.3.491-.645.638-1.034a3.46 3.46 0 0 0 .231-1.265c0-.447-.077-.865-.23-1.254a3.014 3.014 0 0 0-.639-1.023 2.762 2.762 0 0 0-.968-.693 2.989 2.989 0 0 0-1.243-.253c-.447 0-.858.084-1.232.253-.374.161-.7.392-.979.693a3.256 3.256 0 0 0-.638 1.023 3.373 3.373 0 0 0-.23 1.254c0 .447.076.869.23 1.265.154.389.367.733.638 1.034.279.293.605.524.98.693.373.161.784.242 1.231.242Zm7.033.869-2.299-8.195h1.133l1.925 7.216h-.264l2.002-7.216h1.133l1.991 7.216h-.275l1.936-7.216h1.133L92.642 50h-1.199l-2.002-7.183h.286L87.725 50h-1.199Zm9.45 0v-8.195h1.079v7.205h3.596V50h-4.674Zm5.887 0v-8.195h5.335v.99h-4.257v2.596h4.037v.99h-4.037v2.629h4.257V50h-5.335Zm6.671 0v-8.195h2.684c.829 0 1.551.169 2.167.506a3.53 3.53 0 0 1 1.43 1.43c.337.609.506 1.327.506 2.156 0 .821-.169 1.54-.506 2.156a3.603 3.603 0 0 1-1.43 1.441c-.616.337-1.338.506-2.167.506h-2.684Zm1.078-.99h1.617c.609 0 1.133-.128 1.573-.385a2.618 2.618 0 0 0 1.034-1.078c.242-.47.363-1.02.363-1.65 0-.638-.125-1.188-.374-1.65a2.548 2.548 0 0 0-1.034-1.067c-.44-.257-.961-.385-1.562-.385h-1.617v6.215Zm10.859 1.122a4.128 4.128 0 0 1-1.606-.308 3.826 3.826 0 0 1-1.276-.891 4.237 4.237 0 0 1-.847-1.342 4.638 4.638 0 0 1-.297-1.683c0-.616.099-1.18.297-1.694.198-.513.477-.96.836-1.342.36-.381.785-.675 1.276-.88a4.002 4.002 0 0 1 1.606-.319c.565 0 1.071.099 1.518.297.455.198.836.455 1.144.77.316.315.539.653.671 1.012l-.968.473a2.437 2.437 0 0 0-.891-1.133c-.403-.279-.894-.418-1.474-.418-.572 0-1.081.136-1.529.407-.44.271-.784.649-1.034 1.133-.249.484-.374 1.049-.374 1.694 0 .638.125 1.199.374 1.683a2.89 2.89 0 0 0 1.045 1.133c.448.271.957.407 1.529.407.499 0 .95-.106 1.353-.319.404-.213.723-.506.957-.88.235-.374.352-.807.352-1.298v-.506l.495.462h-3.168v-.935h3.762v.726a3.9 3.9 0 0 1-.297 1.551 3.565 3.565 0 0 1-.814 1.188 3.667 3.667 0 0 1-1.199.748 3.954 3.954 0 0 1-1.441.264Zm5.208-.132v-8.195h5.335v.99h-4.257v2.596h4.037v.99h-4.037v2.629h4.257V50h-5.335Zm10.473 0v-8.195h1.078V50h-1.078Zm5.717.132c-.521 0-.998-.095-1.43-.286a3.273 3.273 0 0 1-1.1-.803 3.078 3.078 0 0 1-.649-1.133l.935-.385c.198.528.491.935.88 1.221.396.279.858.418 1.386.418.322 0 .605-.051.847-.154.242-.103.429-.246.561-.429.139-.19.209-.41.209-.66 0-.345-.099-.616-.297-.814-.191-.205-.473-.36-.847-.462l-1.507-.462c-.594-.183-1.049-.473-1.364-.869a2.125 2.125 0 0 1-.473-1.364c0-.447.106-.84.319-1.177.22-.345.52-.612.902-.803a2.863 2.863 0 0 1 1.32-.297c.491 0 .935.088 1.331.264.403.176.744.414 1.023.715.278.293.484.63.616 1.012l-.924.385c-.176-.462-.44-.81-.792-1.045-.352-.242-.767-.363-1.243-.363a1.87 1.87 0 0 0-.781.154c-.22.095-.393.238-.517.429a1.193 1.193 0 0 0-.176.66c0 .3.095.568.286.803.19.235.48.414.869.539l1.375.407c.645.198 1.133.48 1.463.847.33.367.495.821.495 1.364 0 .447-.118.843-.352 1.188a2.333 2.333 0 0 1-.957.814c-.404.19-.873.286-1.408.286Zm8.098-.132v-8.195h2.893c.542 0 1.019.103 1.43.308.41.205.729.499.957.88.234.381.352.829.352 1.342 0 .513-.118.96-.352 1.342a2.374 2.374 0 0 1-.957.88c-.404.205-.88.308-1.43.308h-1.815V50h-1.078Zm1.078-4.125h1.848c.33 0 .616-.062.858-.187s.429-.304.561-.539c.132-.235.198-.506.198-.814 0-.315-.066-.587-.198-.814a1.326 1.326 0 0 0-.561-.539 1.85 1.85 0 0 0-.858-.187h-1.848v3.08Zm9.928 4.257c-.58 0-1.122-.103-1.628-.308a4.118 4.118 0 0 1-1.331-.891 4.169 4.169 0 0 1-.88-1.342 4.43 4.43 0 0 1-.319-1.694c0-.616.106-1.18.319-1.694a4.18 4.18 0 0 1 .88-1.342 3.999 3.999 0 0 1 1.32-.88 4.317 4.317 0 0 1 1.639-.308 4.11 4.11 0 0 1 1.628.319 3.86 3.86 0 0 1 1.32.88c.381.374.678.818.891 1.331.22.513.33 1.078.33 1.694 0 .609-.11 1.173-.33 1.694-.213.513-.51.96-.891 1.342a3.998 3.998 0 0 1-1.32.891 4.239 4.239 0 0 1-1.628.308Zm0-1.001c.454 0 .869-.08 1.243-.242.374-.169.696-.4.968-.693.278-.3.491-.645.638-1.034a3.46 3.46 0 0 0 .231-1.265c0-.447-.077-.865-.231-1.254a3.028 3.028 0 0 0-.638-1.023 2.768 2.768 0 0 0-.968-.693 2.99 2.99 0 0 0-1.243-.253 2.96 2.96 0 0 0-1.232.253 2.865 2.865 0 0 0-.979.693 3.245 3.245 0 0 0-.638 1.023 3.373 3.373 0 0 0-.231 1.254 3.383 3.383 0 0 0 .869 2.299c.278.293.605.524.979.693.374.161.784.242 1.232.242Zm7.033.869-2.299-8.195h1.133l1.925 7.216h-.264l2.002-7.216h1.133l1.991 7.216h-.275l1.936-7.216h1.133L174.122 50h-1.199l-2.002-7.183h.286L169.205 50h-1.199Zm9.45 0v-8.195h5.335v.99h-4.257v2.596h4.037v.99h-4.037v2.629h4.257V50h-5.335Zm6.671 0v-8.195h2.893c.543 0 1.019.103 1.43.308.411.205.73.499.957.88.235.381.352.829.352 1.342 0 .58-.147 1.07-.44 1.474a2.424 2.424 0 0 1-1.188.869L190.034 50h-1.254l-2.002-3.553.715.418h-2.288V50h-1.078Zm1.078-4.125h1.848c.323 0 .605-.062.847-.187s.429-.304.561-.539c.139-.235.209-.506.209-.814 0-.315-.07-.587-.209-.814a1.326 1.326 0 0 0-.561-.539 1.824 1.824 0 0 0-.847-.187h-1.848v3.08Z" fill="#fff"/></svg>