<svg width="194" height="56" fill="none" xmlns="http://www.w3.org/2000/svg"><path fill-rule="evenodd" clip-rule="evenodd" d="M33.666 41.062s-.802-1.384-2.04-1.894c-1.24-.51-2.77.656-1.604 1.894 1.093 1.24 3.644 0 3.644 0Zm-3.57-6.194s.8 1.385.655 2.77c-.146 1.311-1.967 2.04-2.478.437-.51-1.604 1.822-3.207 1.822-3.207Zm10.128-25.65s1.312-.801 2.55-.728c1.24.073 1.968 1.749.51 2.332-1.457.583-3.06-1.604-3.06-1.604Zm5.611-3.497s-1.239.801-1.749 1.967c-.437 1.166.729 2.55 1.822 1.458 1.239-1.094-.073-3.425-.073-3.425Zm-4.154 6.704s1.458-.51 2.624-.219c1.239.292 1.603 2.113.073 2.332-1.53.364-2.697-2.113-2.697-2.113Zm6.194-2.405s-1.384.583-2.113 1.603c-.656 1.093.219 2.623 1.53 1.749 1.385-.802.583-3.352.583-3.352Zm-5.465 6.048s1.53-.364 2.696.146c1.166.51 1.312 2.332-.291 2.405-1.603 0-2.405-2.55-2.405-2.55Zm6.558-1.603s-1.457.364-2.332 1.312c-.801.947-.145 2.696 1.312 1.967 1.458-.583 1.02-3.279 1.02-3.279Zm-6.485 5.1s1.53-.072 2.623.657c1.093.728.875 2.55-.728 2.331-1.603-.291-1.895-2.987-1.895-2.987Zm6.777-.364s-1.53.073-2.55.875c-1.02.802-.656 2.623.947 2.186 1.53-.364 1.603-3.06 1.603-3.06Zm-7.433 3.79s1.53.218 2.478 1.093c.947.874.437 2.696-1.093 2.113-1.53-.51-1.385-3.206-1.385-3.206Zm6.777.874s-1.53-.218-2.696.437c-1.093.656-1.093 2.478.51 2.332 1.676-.073 2.186-2.769 2.186-2.769Zm-7.943 2.26s1.458.582 2.186 1.675c.73 1.093-.218 2.696-1.603 1.822-1.384-.875-.583-3.498-.583-3.498Zm6.413 2.404s-1.458-.51-2.696-.219c-1.24.364-1.676 2.186 0 2.405 1.603.291 2.696-2.186 2.696-2.186Zm-8.307.51s1.384.801 1.821 2.04c.51 1.239-.656 2.696-1.894 1.53-1.166-1.093.073-3.57.073-3.57Zm5.902 3.57s-1.384-.801-2.696-.655c-1.312.145-2.04 1.894-.437 2.404s3.133-1.748 3.133-1.748Zm-8.307-1.02s1.166 1.093 1.457 2.332c.292 1.312-1.166 2.55-2.186 1.166-1.02-1.312.729-3.498.729-3.498Zm5.174 4.591s-1.24-1.02-2.55-1.166c-1.312-.146-2.332 1.457-.875 2.332 1.457.802 3.425-1.166 3.425-1.166Zm-8.089-2.623s.947 1.311 1.02 2.623c.073 1.312-1.603 2.259-2.404.802-.656-1.603 1.384-3.425 1.384-3.425Zm4.372 5.538s-1.02-1.239-2.259-1.603c-1.311-.365-2.623 1.02-1.311 2.113 1.238 1.02 3.57-.51 3.57-.51Zm-22.225 1.967s.801-1.384 2.04-1.894c1.24-.51 2.77.656 1.604 1.894-1.093 1.24-3.644 0-3.644 0Zm3.57-6.194s-.8 1.385-.655 2.77c.145 1.311 1.967 2.04 2.477.437.51-1.604-1.821-3.207-1.821-3.207Zm-10.2-25.65s-1.312-.801-2.55-.728c-1.24.073-1.968 1.749-.51 2.332 1.53.583 3.06-1.604 3.06-1.604ZM3.352 5.721s1.239.801 1.749 1.967c.437 1.166-.729 2.55-1.822 1.458-1.166-1.094.073-3.425.073-3.425Zm4.226 6.704s-1.457-.51-2.623-.219c-1.239.292-1.603 2.113-.073 2.332 1.53.364 2.696-2.113 2.696-2.113ZM1.312 10.02s1.384.583 2.113 1.603c.656 1.093-.219 2.623-1.53 1.749-1.385-.802-.583-3.352-.583-3.352Zm5.465 6.048s-1.53-.364-2.696.146c-1.166.51-1.312 2.332.291 2.405 1.676 0 2.405-2.55 2.405-2.55ZM.29 14.465s1.458.364 2.332 1.312c.802.947.146 2.696-1.311 1.967-1.458-.583-1.02-3.279-1.02-3.279Zm6.486 5.1s-1.53-.072-2.623.657c-1.094.728-.875 2.55.728 2.331 1.53-.291 1.895-2.987 1.895-2.987ZM0 19.202s1.53.073 2.55.875c1.02.802.656 2.623-.947 2.186C.073 21.898 0 19.202 0 19.202Zm7.36 3.79s-1.53.218-2.478 1.093c-.947.874-.437 2.696 1.093 2.113 1.603-.51 1.385-3.206 1.385-3.206Zm-6.704.874s1.53-.218 2.696.437c1.093.656 1.093 2.478-.51 2.332-1.676-.073-2.186-2.769-2.186-2.769Zm7.943 2.26s-1.458.582-2.186 1.675c-.73 1.093.218 2.696 1.603 1.822 1.384-.875.583-3.498.583-3.498ZM2.186 28.53s1.457-.51 2.696-.219c1.239.364 1.676 2.186 0 2.405-1.603.291-2.696-2.186-2.696-2.186Zm8.307.51s-1.384.801-1.822 2.04c-.51 1.239.656 2.696 1.895 1.53 1.166-1.093-.073-3.57-.073-3.57Zm-5.975 3.57s1.384-.801 2.696-.655c1.312.145 2.04 1.894.437 2.404-1.53.51-3.133-1.748-3.133-1.748Zm8.38-1.02s-1.166 1.093-1.458 2.332c-.291 1.312 1.166 2.55 2.187 1.166 1.02-1.312-.73-3.498-.73-3.498ZM7.65 36.18s1.24-1.02 2.55-1.166c1.312-.146 2.332 1.457.875 2.332-1.457.802-3.425-1.166-3.425-1.166Zm8.089-2.623s-.948 1.311-1.02 2.623c-.073 1.312 1.603 2.259 2.404.802.729-1.603-1.384-3.425-1.384-3.425Zm-4.3 5.538s1.02-1.239 2.26-1.603c1.311-.365 2.623 1.02 1.311 2.113-1.239 1.02-3.57-.51-3.57-.51Z" fill="#D3224D"/><path d="M24.63 35.305c8.6-4.225 12.388-14.645 13.19-22.953-4.081-1.895-8.526-3.061-13.19-3.061-4.663 0-9.109 1.166-13.19 3.06.802 8.308 4.519 18.728 13.19 22.954Z" stroke="#D3224D" stroke-width="3" stroke-miterlimit="22.926"/><path fill-rule="evenodd" clip-rule="evenodd" d="M47.875 56c-3.498-1.312-7.433-2.113-11.586-2.478v-1.676c1.457.365 2.842.802 4.153 1.24l1.458.51v-5.83c2.113.364 4.08.947 5.902 1.603l-4.445 1.676L47.875 56ZM1.311 56c3.498-1.312 7.433-2.113 11.587-2.478v-1.676c-1.458.365-2.842.802-4.154 1.24l-1.457.51v-5.83c-2.114.364-4.081.947-5.903 1.603l4.445 1.676L1.311 56Z" fill="#D3224D"/><path fill-rule="evenodd" clip-rule="evenodd" d="M8.38 45.507v6.558c9.546-3.57 22.954-3.57 32.572 0v-6.558c-9.4-3.352-23.245-3.352-32.572 0Z" fill="#D3224D"/><path d="m10.347 46.527.656-.146c.073 0 .146-.073.219-.073.145-.073.218-.073.291-.073h.146c0 .073 0 .073-.073.073s-.146.073-.219.146v.437c.073.219.073.437.146.656.073.364.219.656.292.801a.568.568 0 0 0 .291.292c.146.073.292.073.51 0 .219-.073.364-.146.437-.219.073-.145.146-.291.073-.437 0-.218-.073-.583-.218-1.093-.073-.291-.146-.51-.219-.583-.073-.073-.146-.146-.291-.146-.073 0-.146 0-.146-.072 0-.073 0-.073.073-.073h.145c.073 0 .146 0 .22-.073.072 0 .145-.073.29-.073.073 0 .146-.073.146-.073h.146s0 .073-.073.073a.157.157 0 0 0-.146.146c-.072.072-.072.145 0 .291 0 .146.073.51.219 1.02.073.365.146.656.073.802 0 .145-.146.364-.292.437-.145.146-.364.219-.655.291-.219.073-.365.073-.583.073-.146 0-.292 0-.438-.072-.073-.073-.218-.146-.291-.22-.073-.072-.146-.218-.146-.436l-.291-1.093c-.073-.146-.073-.292-.146-.365-.073-.073-.073-.145-.146-.145h-.291v-.073h.291Zm4.154-.948c.801.656 1.457 1.166 2.04 1.53v-.218l-.146-.801c-.072-.22-.072-.365-.145-.438-.073-.073-.073-.145-.146-.145s-.146-.073-.292-.073c-.072 0-.072 0-.072-.073s0-.073.072-.073h.073c.073 0 .219 0 .365-.073.218 0 .364-.073.437-.073h.073c.073 0 .073 0 .073.073s0 .073-.073.073-.146.073-.219.146c-.073.073-.073.218-.073.437l.219 1.166.146.874c0 .073 0 .146-.073.146h-.073s-.146-.073-.364-.219c-.22-.145-.51-.364-.948-.728a5.55 5.55 0 0 1-.874-.73c0 .074.073.365.218 1.021.073.219.073.364.146.51.073.146.146.219.219.219.073 0 .218.073.291 0 .073 0 .073 0 .073.073 0 .072 0 .073-.073.073h-.146c-.072 0-.218 0-.291.072-.219.073-.364.073-.437.073h-.146c-.073 0-.073 0-.073-.073 0 0 0-.072.146-.072.146-.073.218-.146.291-.22v-.436c-.145-.729-.218-1.166-.291-1.312l-.219-.437c-.145-.146-.218-.146-.364-.146-.073 0-.073 0-.073-.073s0-.073.073-.073h.656Zm2.842-.51h.583l.655-.073c.073 0 .073 0 .073.073 0 0 0 .073-.073.073-.145 0-.218.073-.218.073s-.073.073-.073.219c0 .145 0 .364.073.728.073.438.073.802.146 1.02.072.22.072.365.145.438.073.073.146.073.219.073.073 0 .073 0 .146.072 0 .073 0 .073-.073.073h-.073c-.292 0-.437 0-.583.073-.219 0-.364.073-.437.073h-.146c-.073 0-.073 0-.073-.073 0 0 0-.073.073-.073.146 0 .219-.072.219-.145s.073-.219 0-.365c0-.218-.073-.51-.073-.947-.073-.437-.073-.729-.146-.874 0-.146-.073-.22-.146-.292-.073 0-.145-.073-.218-.073-.073 0-.073 0 0-.073-.073 0-.073 0 0 0Zm3.352 2.55h-.146l-.437-1.02c-.146-.218-.292-.582-.438-.947-.145-.364-.291-.583-.364-.656l-.146-.145h-.145c-.073 0-.073 0-.073-.073s0-.073.073-.073h.583c.218 0 .364 0 .582-.073h.073c.073 0 .073 0 .073.073 0 0 0 .073-.072.073-.146 0-.22.146-.22.218 0 .22.22.802.657 1.75.072-.292.218-.657.291-.948l.146-.583v-.219c0-.072 0-.145-.073-.145-.073-.073-.073-.073-.146-.073s-.073 0-.073-.073 0-.073.073-.073h.875c.073 0 .073 0 .073.073 0 0 0 .073-.073.073s-.146.073-.219.073c-.073.072-.073.145-.146.218-.072.073-.145.292-.218.656l-.292 1.02c-.073.365-.218.729-.218.875Zm3.862-2.987c.073.219.073.437.146.656 0 .073 0 .073-.073.073 0 0-.073 0-.073-.073-.146-.219-.292-.364-.438-.437-.145-.073-.29-.073-.51-.073h-.364v1.093h.146c.073 0 .218 0 .291-.073.073 0 .146-.073.219-.146.073-.073.073-.145.073-.145 0-.073 0-.073.073-.073.072 0 .072 0 .072.073v.947c0 .073 0 .073-.072.073 0 0-.073-.073-.073-.146 0-.146-.073-.219-.219-.291-.073-.073-.291-.073-.51-.073v1.02c0 .073.073.145.146.145.073.073.146.073.291.073.51 0 .875-.145 1.093-.51 0-.073.073-.073.073-.073.073 0 .073 0 .073.073v.073l-.146.583h-2.404c-.073 0-.073 0-.073-.073s0-.073.073-.073c.145 0 .218-.073.291-.145.073-.073.073-.219.073-.438v-1.749c0-.072 0-.145-.073-.145s-.146-.073-.218-.073c-.073 0-.073 0-.073-.073s0-.073.073-.073h.51l1.603.073Zm2.186 1.385c.218 0 .364.072.437.218.146.073.219.292.291.51.073.219.073.438.146.51.073.073.146.146.292.146.073 0 .073 0 .073.073s-.073.073-.146.073l-.802-.073c-.073-.073-.145-.219-.145-.437 0-.292-.073-.51-.073-.583-.073-.146-.073-.219-.146-.292-.073-.072-.146-.072-.292-.072h-.145c0 .51-.073.801-.073.947 0 .145 0 .218.073.218.073.073.145.073.218.073.073 0 .073 0 .073.073s0 .073-.073.073l-.655-.073h-.584c-.072 0-.072 0-.072-.073s0-.073.072-.073c.073 0 .146 0 .22-.073.072-.072.145-.218.145-.51v-.364l.073-.801v-.73c0-.072-.146-.145-.292-.145-.073 0-.073 0-.073-.073s.073-.073.146-.073h1.385c.291 0 .583.073.728.219.146.146.292.291.219.51a.557.557 0 0 1-.146.364c-.073.073-.218.219-.364.219-.219.219-.364.219-.51.219Zm-.583-.073h.073c.145 0 .218 0 .364-.073s.219-.146.292-.219c.072-.073.072-.218.072-.291 0-.146-.072-.292-.145-.438-.073-.072-.219-.145-.438-.145h-.218v1.166Zm3.935-.875.073-.073c0-.072.073-.073.073-.073.072 0 .072.073.072.073v.656c0 .073 0 .073-.072.073h-.073s0-.073-.073-.146c-.073-.145-.146-.291-.292-.364-.145-.146-.291-.219-.437-.219-.146 0-.291 0-.364.073-.073.073-.146.146-.146.292 0 .073 0 .218.073.291.073.073.219.146.437.292.364.145.583.291.729.51.146.146.146.364.146.583a.662.662 0 0 1-.22.51c-.145.146-.218.218-.364.291-.145.073-.29.073-.51.073-.145 0-.218-.073-.364-.073-.146-.073-.219-.145-.364-.218 0 0-.073.073-.073.145 0 .073-.073.073-.073.073s-.073-.072-.073-.145v-.875c0-.073 0-.073.073-.073 0 0 .073.073.073.146.073.219.146.437.291.583.146.146.292.219.51.291.146 0 .292 0 .438-.072.145-.073.145-.219.218-.292 0-.146 0-.219-.073-.364a1.014 1.014 0 0 0-.51-.292c-.218-.073-.364-.218-.51-.291-.073-.073-.218-.219-.218-.292-.073-.145-.073-.291-.073-.364 0-.219.146-.437.291-.51.219-.146.438-.219.729-.146.219-.291.437-.218.656-.073Zm.947 0c.073 0 .146 0 .292.073.145 0 .218.073.291.073l.656.073c.073 0 .073 0 .073.073 0 0 0 .073-.073.073h-.219c-.073 0-.073.073-.145.218-.073.073-.073.365-.146.729-.073.437-.146.801-.146 1.02v.437c0 .073.073.073.219.146.072 0 .073 0 .073.073s-.073.073-.146.073h-.073c-.292-.073-.437-.073-.51-.146-.219 0-.364-.073-.51-.073h-.146c-.073 0-.073 0-.073-.073 0 0 0-.073.073-.073.146 0 .219 0 .291-.072.073-.073.073-.146.146-.365.073-.218.073-.51.146-.874.073-.437.073-.729.073-.875v-.291c0-.073-.073-.073-.219-.073-.073 0-.073-.073-.073-.073.073-.073.146-.073.146-.073Zm1.749.219c.729.146 1.239.291 1.603.364.291.073.583.073.875.146.145 0 .218 0 .291.073h.146v.729c0 .072-.073.072-.073.072s-.073-.072-.073-.145c0-.146-.073-.219-.146-.365a1.004 1.004 0 0 0-.291-.218c-.073-.073-.292-.073-.51-.146-.073.219-.146.51-.219.802-.073.364-.146.655-.146.947-.072.291-.072.51-.072.583 0 .073 0 .146.072.146.073.072.146.072.292.145.073 0 .073.073.073.073 0 .073 0 .073-.073.073h-.073l-.437-.073c-.365-.073-.51-.073-.583-.146l-.292-.072h-.145s-.073 0-.073-.073.073-.073.073-.073h.291c.073-.073.146-.146.146-.219.073-.145.073-.364.145-.729.146-.582.22-1.093.22-1.457a1.423 1.423 0 0 0-.511-.073c-.073 0-.218 0-.291.073a.569.569 0 0 0-.292.292c0 .072-.073.072-.073.072-.073 0-.073 0-.073-.072 0 0 0-.073.073-.292.073-.218.146-.364.146-.437Zm4.59 2.259c.51-.437.802-.656.802-.802v-.073c0-.072-.073-.072-.145-.145-.073 0-.073-.073-.073-.073 0-.073.072-.073.072-.073h.073c.146.073.292.073.365.146.073 0 .218.073.364.073h.073c.073 0 .073 0 .073.072 0 0 0 .073-.073.073h-.291c-.073 0-.22.073-.365.219a3.162 3.162 0 0 1-.51.437.876.876 0 0 0-.291.292c0 .073-.073.218-.146.437-.073.364-.146.656-.146.728 0 .073.073.146.219.22.073 0 .073.072.073.072 0 .073-.073.073-.073.073-.073 0-.146-.073-.365-.073-.073 0-.145-.073-.218-.073-.146-.073-.292-.073-.51-.073h-.073c-.073 0-.073-.073-.073-.073s0-.072.073-.072c.145 0 .218 0 .291-.073.073-.073.146-.219.146-.51.073-.219.073-.365.073-.438 0-.073-.073-.218-.146-.51l-.218-.656c-.073-.218-.146-.364-.22-.437-.072-.073-.145-.145-.218-.145-.072 0-.073-.073-.073-.073 0-.073.073-.073.073-.073h.073c.219.073.364.145.437.145.146.073.365.073.51.146h.073c.073 0 .073 0 .073.073l-.073.073c-.145 0-.218 0-.218.073.218.073.291.437.583 1.093Z" fill="#fff"/><path fill-rule="evenodd" clip-rule="evenodd" d="m24.566 0 .798 2.41H28l-2.128 1.497.822 2.433-2.128-1.521-2.128 1.52.822-2.432-2.128-1.497h2.612L24.566 0Zm6.88 2.113.542 1.608h1.823l-1.478.988.567 1.63-1.454-1.01-1.478 1.01.567-1.63-1.478-.988h1.823l.566-1.608Zm-13.748 0 .57 1.608h1.808l-1.462.988.57 1.63-1.486-1.01-1.486 1.01.57-1.63-1.461-.988h1.807l.57-1.608Z" fill="#D3224D"/><path fill-rule="evenodd" clip-rule="evenodd" d="M24.266 26.123c-.438-2.623-3.79-4.299-5.903-4.299V16.65c-.656-.072-.874-.072-1.53 0v6.559c2.55 0 5.83.655 7.433 2.914Zm.655 0c.438-2.623 3.79-4.299 5.903-4.299V16.65c.656-.072.874-.072 1.53 0v6.559c-2.55 0-5.757.655-7.433 2.914Z" fill="#fff"/><path fill-rule="evenodd" clip-rule="evenodd" d="M24.265 23.865v-5.392c-1.02-1.75-1.676-2.696-5.1-3.06v5.537c2.404.292 3.497 1.02 5.1 2.915Zm.656 0v-5.392c1.02-1.75 1.676-2.696 5.101-3.06v5.537c-2.332.292-3.497 1.02-5.1 2.915Z" fill="#fff"/><path d="m73.154 5.756.7 5.04-.588.196c-2.044-3.248-3.752-4.704-6.02-4.704-1.708 0-2.8.868-2.8 2.296 0 2.128 2.492 3.136 5.068 4.424 2.8 1.372 5.684 2.996 5.684 7.028 0 4.62-3.668 6.412-7.812 6.412-2.324 0-4.648-.588-6.132-1.288l-.756-5.796.588-.196c2.576 4.228 4.536 6.076 7.252 6.076 2.016 0 3.248-1.148 3.248-2.884 0-2.38-2.352-3.472-4.9-4.732-2.8-1.4-5.74-2.884-5.74-6.608 0-4.312 3.724-5.936 7.756-5.936 1.54 0 3.108.252 4.452.672Zm18.124 20.188V26h-7.644v-.056c.924-2.156 1.288-3.332 1.288-6.272V6.652l-1.344.084c-1.568.14-4.032 3.668-5.404 5.628l-.588-.168 1.148-6.692h17.444l1.148 6.692-.588.168c-1.4-1.96-3.836-5.488-5.404-5.628l-1.344-.084v13.02c0 2.94.364 4.116 1.288 6.272Zm12.164.056h-5.768v-.056c1.232-1.148 2.184-2.94 3.024-5.236l5.516-15.288h3.444l5.572 15.428c.784 2.184 1.624 3.892 2.66 5.096V26h-8.456v-.056c1.036-1.288 1.344-3.192.504-5.6l-.56-1.596h-6.636l-.336.896c-1.176 3.164-.448 5.208 1.036 6.3V26Zm-.28-8.484h5.796l-2.856-8.148-2.94 8.148ZM120.726 26v-.056c.924-2.044 1.288-3.192 1.288-6.02V11.58c0-2.828-.364-3.976-1.288-6.02v-.056c3.304 0 4.676-.112 8.456-.112 7.588 0 12.32 3.612 12.32 10.248 0 6.636-4.48 10.36-12.32 10.36h-8.456Zm15.288-10.108c0-6.328-1.792-9.24-6.692-9.24-.476 0-1.484.056-2.268.14v17.836a32.08 32.08 0 0 0 2.548.112c5.012-.056 6.412-3.276 6.412-8.848Zm18.526 10.556c-4.788 0-8.484-2.324-8.484-7.952V11.86c0-2.968-.364-4.144-1.288-6.3v-.056h7.7v.056c-.924 2.044-1.316 3.332-1.316 6.272v6.916c0 4.788 1.988 6.076 4.62 6.076 3.92 0 5.152-2.912 5.152-6.664v-6.104c0-3.052-.588-4.284-2.52-6.496v-.056h6.356l.056.056c-1.792 2.212-2.52 3.5-2.52 6.524v5.88c0 4.76-1.68 8.484-7.756 8.484ZM184.156 26v-.056c.924-2.156 1.288-3.332 1.288-6.3V9.592L178.5 25.384h-1.26l-7.056-16.016.084 10.136c.028 2.94.84 4.228 2.716 6.44V26h-6.272v-.056c1.568-2.212 2.184-3.444 2.184-6.468v-9.1c-.14-2.184-.84-3.164-2.352-4.816v-.056h7.336l5.964 13.636 5.992-13.636h7v.056c-1.68 1.82-2.352 2.856-2.352 5.572v8.54c0 2.884.392 4.116 1.288 6.272V26h-7.616ZM60.107 50v-8.195h1.298v4.444l-.341-.132 3.707-4.312h1.617l-3.278 3.839.066-.924L66.52 50h-1.53l-2.397-3.751-1.188 1.386V50h-1.298Zm7.38 0v-8.195h1.045l4.598 6.347-.495.077v-6.424h1.287V50h-1.045l-4.565-6.391.473-.088V50h-1.298Zm12.114.132a4.296 4.296 0 0 1-1.662-.319 4.25 4.25 0 0 1-1.341-.891 4.239 4.239 0 0 1-.903-1.342 4.354 4.354 0 0 1-.319-1.683c0-.609.107-1.17.32-1.683a4.08 4.08 0 0 1 2.243-2.222 4.296 4.296 0 0 1 1.662-.319c.6 0 1.154.106 1.66.319.514.205.961.499 1.343.88.388.381.689.829.901 1.342.213.513.32 1.074.32 1.683s-.11 1.17-.33 1.683c-.213.513-.51.96-.892 1.342a4.092 4.092 0 0 1-1.341.891 4.296 4.296 0 0 1-1.662.319Zm0-1.188a2.87 2.87 0 0 0 1.165-.231c.36-.154.671-.367.935-.638a3.02 3.02 0 0 0 .617-.968c.146-.374.22-.777.22-1.21 0-.433-.074-.832-.22-1.199a3.029 3.029 0 0 0-.617-.968 2.784 2.784 0 0 0-.934-.649 2.878 2.878 0 0 0-1.166-.231c-.426 0-.818.077-1.177.231-.353.154-.66.37-.925.649a3.031 3.031 0 0 0-.615.968 3.35 3.35 0 0 0-.21 1.199c0 .433.07.836.21 1.21.146.367.352.69.615.968.264.271.576.484.936.638.359.154.748.231 1.165.231ZM86.59 50l-2.255-8.195h1.375l1.826 7.095h-.341l1.892-7.095h1.353l1.892 7.095h-.352l1.837-7.095h1.364L92.937 50h-1.463l-1.903-6.985h.385L88.042 50H86.59Zm9.557 0v-8.195h1.298v7.04h3.542V50h-4.84Zm5.93 0v-8.195h5.401v1.155h-4.103v2.354h3.883v1.155h-3.883v2.376h4.103V50h-5.401Zm6.606 0v-8.195h2.684c.851 0 1.588.172 2.211.517a3.57 3.57 0 0 1 1.463 1.43c.345.616.517 1.331.517 2.145 0 .807-.172 1.522-.517 2.145a3.642 3.642 0 0 1-1.463 1.441c-.623.345-1.36.517-2.211.517h-2.684Zm1.298-1.155h1.408c.579 0 1.082-.121 1.507-.363a2.491 2.491 0 0 0 1.001-1.023c.235-.44.352-.96.352-1.562 0-.601-.121-1.118-.363-1.551a2.515 2.515 0 0 0-.99-1.023c-.425-.242-.928-.363-1.507-.363h-1.408v5.885Zm10.694 1.287a4.08 4.08 0 0 1-1.617-.319 4.153 4.153 0 0 1-1.298-.88 4.145 4.145 0 0 1-.858-1.342 4.528 4.528 0 0 1-.308-1.694c0-.609.099-1.17.297-1.683.206-.52.492-.968.858-1.342a3.804 3.804 0 0 1 1.287-.88 4.032 4.032 0 0 1 1.617-.319c.58 0 1.097.099 1.551.297.462.198.851.458 1.166.781.316.315.543.66.682 1.034l-1.155.561a2.249 2.249 0 0 0-.836-1.078c-.388-.279-.858-.418-1.408-.418-.542 0-1.023.128-1.441.385a2.651 2.651 0 0 0-.979 1.067c-.227.455-.341.986-.341 1.595s.118 1.144.352 1.606c.242.455.572.81.99 1.067.418.25.899.374 1.441.374a2.79 2.79 0 0 0 1.243-.275 2.33 2.33 0 0 0 .913-.792c.228-.345.341-.744.341-1.199v-.561l.583.528h-3.102v-1.1h3.806v.77c0 .601-.102 1.14-.308 1.617a3.56 3.56 0 0 1-2.046 1.947 4.073 4.073 0 0 1-1.43.253Zm5.11-.132v-8.195h5.401v1.155h-4.103v2.354h3.883v1.155h-3.883v2.376h4.103V50h-5.401Zm10.452 0v-8.195h1.298V50h-1.298Zm5.868.132a3.55 3.55 0 0 1-1.43-.286 3.373 3.373 0 0 1-1.122-.803 3.209 3.209 0 0 1-.682-1.166l1.1-.462c.198.506.487.895.869 1.166a2.22 2.22 0 0 0 1.32.407c.293 0 .55-.044.77-.132.22-.095.388-.227.506-.396a.96.96 0 0 0 .187-.583c0-.3-.085-.539-.253-.715-.169-.176-.418-.315-.748-.418l-1.54-.484c-.616-.19-1.086-.48-1.408-.869a2.127 2.127 0 0 1-.484-1.386c0-.462.113-.865.341-1.21.227-.352.539-.627.935-.825a3.077 3.077 0 0 1 1.375-.297c.491 0 .938.088 1.342.264.403.169.748.403 1.034.704.293.3.506.649.638 1.045l-1.078.473a2.036 2.036 0 0 0-.759-1.001 2.012 2.012 0 0 0-1.177-.352c-.272 0-.51.048-.715.143a1.07 1.07 0 0 0-.484.396c-.11.169-.165.367-.165.594 0 .264.084.499.253.704.168.205.425.36.77.462l1.43.451c.652.198 1.144.484 1.474.858.33.367.495.825.495 1.375 0 .455-.121.858-.363 1.21a2.44 2.44 0 0 1-.979.836c-.418.198-.902.297-1.452.297Zm8.097-.132v-8.195h2.981c.55 0 1.034.103 1.452.308.425.198.755.491.99.88.234.381.352.84.352 1.375 0 .528-.121.983-.363 1.364a2.328 2.328 0 0 1-.979.88c-.418.205-.902.308-1.452.308H151.5V50h-1.298Zm1.298-4.235h1.716c.293 0 .55-.059.77-.176.22-.117.392-.279.517-.484a1.46 1.46 0 0 0 .187-.748 1.4 1.4 0 0 0-.187-.737 1.221 1.221 0 0 0-.517-.484 1.614 1.614 0 0 0-.77-.176H151.5v2.805Zm9.795 4.367a4.295 4.295 0 0 1-1.661-.319 4.254 4.254 0 0 1-1.342-.891 4.244 4.244 0 0 1-.902-1.342 4.348 4.348 0 0 1-.319-1.683c0-.609.106-1.17.319-1.683.22-.52.521-.968.902-1.342a3.95 3.95 0 0 1 1.342-.88 4.295 4.295 0 0 1 1.661-.319 4.24 4.24 0 0 1 1.661.319 3.95 3.95 0 0 1 1.342.88c.389.381.689.829.902 1.342.213.513.319 1.074.319 1.683s-.11 1.17-.33 1.683c-.213.513-.51.96-.891 1.342a4.092 4.092 0 0 1-1.342.891 4.295 4.295 0 0 1-1.661.319Zm0-1.188a2.88 2.88 0 0 0 1.166-.231c.359-.154.671-.367.935-.638.264-.279.469-.601.616-.968.147-.374.22-.777.22-1.21 0-.433-.073-.832-.22-1.199a3.034 3.034 0 0 0-.616-.968 2.787 2.787 0 0 0-.935-.649 2.88 2.88 0 0 0-1.166-.231c-.425 0-.818.077-1.177.231-.352.154-.66.37-.924.649a3.034 3.034 0 0 0-.616.968 3.356 3.356 0 0 0-.209 1.199c0 .433.07.836.209 1.21.147.367.352.69.616.968.264.271.576.484.935.638.359.154.748.231 1.166.231ZM168.284 50l-2.255-8.195h1.375l1.826 7.095h-.341l1.892-7.095h1.353l1.892 7.095h-.352l1.837-7.095h1.364L174.631 50h-1.463l-1.903-6.985h.385L169.736 50h-1.452Zm9.557 0v-8.195h5.401v1.155h-4.103v2.354h3.883v1.155h-3.883v2.376h4.103V50h-5.401Zm6.607 0v-8.195h2.981c.55 0 1.034.103 1.452.308.418.198.744.491.979.88.242.381.363.84.363 1.375 0 .565-.143 1.049-.429 1.452a2.384 2.384 0 0 1-1.133.88l1.892 3.3h-1.474l-2.013-3.575.847.495h-2.167V50h-1.298Zm1.298-4.235h1.705c.3 0 .561-.059.781-.176.22-.117.388-.279.506-.484a1.46 1.46 0 0 0 .187-.748 1.4 1.4 0 0 0-.187-.737 1.156 1.156 0 0 0-.506-.484 1.64 1.64 0 0 0-.781-.176h-1.705v2.805Z" fill="#fff"/></svg>